<svg version="1.1" xmlns="http://www.w3.org/2000/svg" xmlns:xlink="http://www.w3.org/1999/xlink" width="620" height="469"><desc>title%20CacheBuilder%20health%20checking%0Acontrol%20CacheBuilderHealthChecker%0Adatabase%20BuildStore%0A%0Aactivate%20CacheBuilderHealthChecker%0Aactivate%20BuildStore%0Aloop%20every%20n%20seconds%0A%20%20CacheBuilderHealthChecker%20-%3E%20BuildStore%3A%20get%20next%20Dependencies%20object%20%22d%22%20with%20lease%20not%20null%0A%20%20opt%20s.lease%20-%20now()%20%3E%20threshold%0A%20%20%20%20CacheBuilderHealthChecker%20-%3E%20BuildStore%3A%20reset%20the%20lease%20of%20the%20Dependencies%20object%0A%20%20%20%20CacheBuilderHealthChecker%20-%3E%20BuildStore%3A%20send%20message%20containing%20Dependencies%20object%20id%0A%20%20end%0Aend%0Adeactivate%20BuildStore%0Adeactivate%20CacheBuilderHealthChecker%0A</desc><defs/><g><g/><g/><g/><g><rect fill="white" stroke="none" x="0" y="0" width="620" height="469"/></g><g><text fill="black" stroke="none" font-family="sans-serif" font-size="16.5pt" font-style="normal" font-weight="normal" text-decoration="normal" x="158.42790844166666" y="24.50280495" text-anchor="start" dominant-baseline="alphabetic" xml:space="preserve">CacheBuilder health checking</text></g><g/><g><path fill="none" stroke="black" paint-order="fill stroke markers" d=" M 104.69885165 129.701514202 L 104.69885165 469.473742842" stroke-miterlimit="10" stroke-width="1.3612669416666667" stroke-dasharray="12.565541,5.445067766666667"/><path fill="none" stroke="black" paint-order="fill stroke markers" d=" M 522.886253577474 129.701514202 L 522.886253577474 469.473742842" stroke-miterlimit="10" stroke-width="1.3612669416666667" stroke-dasharray="12.565541,5.445067766666667"/></g><g><g><path fill="white" stroke="black" paint-order="fill stroke markers" d=" M 128.9566285505 82.819480731 A 24.2577769005 24.2577769005 0 1 1 128.95661642161255 82.79522295814245 M 101.43181098999999 58.561703830499994 L 111.23293297 50.39410218049999 M 101.43181098999999 58.561703830499994 L 111.23293297 66.72930548049999" stroke-miterlimit="10" stroke-width="2.7769845610000004" stroke-dasharray=""/></g><g><g/><text fill="black" stroke="none" font-family="sans-serif" font-size="11pt" font-style="normal" font-weight="normal" text-decoration="normal" x="8.167601649999995" y="124.800953212" text-anchor="start" dominant-baseline="alphabetic" xml:space="preserve">CacheBuilderHealthChecker</text></g><g><path fill="white" stroke="black" paint-order="fill stroke markers" d=" M 499.036856759474 97.684515734 L 499.036856759474 63.380588804000006 L 546.735650395474 63.380588804000006 L 546.735650395474 97.684515734" stroke-miterlimit="10" stroke-width="2.7769845610000004" stroke-dasharray=""/><path fill="white" stroke="black" paint-order="fill stroke markers" d=" M 546.735650395474 62.1881189631 L 546.7344579355703 62.29592950801663 L 546.7308806751042 62.403729271968594 L 546.724918971799 62.51150747506936 L 546.7165734218196 62.619253339588404 L 546.7058448597144 62.72695609102909 L 546.6927343583305 62.834604959206004 L 546.6772432287073 62.94218917932205 L 546.6593730199447 63.04969799304486 L 546.6391255190487 63.15712064958265 L 546.6165027507525 63.2644464067593 L 546.5915069773141 63.371664532088516 L 546.5641406982901 63.47876430384712 L 546.5344066502855 63.58573501214718 L 546.5023078066804 63.692565960007016 L 546.4678473773323 63.79924646442086 L 546.4310288082555 63.90576585742718 L 546.3918557812761 64.01211348717543 L 546.3503322136644 64.11827871899126 L 546.3064622577424 64.22425093643996 L 546.260250300469 64.3300195423881 L 546.2117009630017 64.43557396006322 L 546.1608191002337 64.54090363411153 L 546.1076098003088 64.64599803165338 L 546.0520783841125 64.75084664333659 L 545.9942304047405 64.85543898438739 L 545.9340716469424 64.95976459565881 L 545.8716081265437 65.06381304467668 L 545.8068460898445 65.16757392668278 L 545.7397920129945 65.27103686567541 L 545.6704526013456 65.37419151544687 L 545.5988347887809 65.47702756061814 L 545.5249457370222 65.5795347176704 L 545.4487928349132 65.68170273597339 L 545.3703836976804 65.7835213988104 L 545.2897261661723 65.88498052439998 L 545.2068283060748 65.98606996691414 L 545.121698407105 66.08677961749288 L 545.0343449821816 66.18709940525505 L 544.9447767665744 66.28701929830548 L 544.8530027170303 66.38652930473813 L 544.759032010878 66.48561947363528 L 544.6628740451093 66.58427989606261 L 544.5645384354412 66.6825007060601 L 544.4640350153525 66.7802720816286 L 544.3613738351013 66.87758424571203 L 544.2565651607202 66.97442746717506 L 544.1496194729893 67.07079206177627 L 544.0405474663884 67.1666683931365 L 543.9293600480271 67.2620468737025 L 543.8160683365545 67.35691796570569 L 543.7006836610476 67.45127218211596 L 543.5832175598775 67.54510008759026 L 543.4636817795566 67.63839229941624 L 543.3420882735634 67.73113948845047 L 543.218449201147 67.82333238005134 L 543.0927769261116 67.9149617550065 L 542.9650840155801 68.00601845045483 L 542.8353832387371 68.09649336080267 L 542.7036875655522 68.18637743863435 L 542.5700101654829 68.27566169561702 L 542.434364406158 68.36433720339936 L 542.2967638520402 68.45239509450451 L 542.1572222630703 68.53982656321674 L 542.0157535932909 68.62662286646201 L 541.8723719894512 68.71277532468237 L 541.727091789592 68.79827532270376 L 541.5799275216121 68.88311431059763 L 541.430893901816 68.9672838045359 L 541.2800058334411 69.0507753876393 L 541.1272784051688 69.13358071081912 L 540.9727268896145 69.21569149361203 L 540.8163667418011 69.29709952500816 L 540.6582135976128 69.37779666427225 L 540.4982832722325 69.45777484175761 L 540.3365917585593 69.53702605971311 L 540.17315522561 69.61554239308303 L 540.0079900169014 69.69331599029945 L 539.8411126488171 69.77033907406746 L 539.6725398089546 69.84660394214286 L 539.5022883544575 69.92210296810242 L 539.3303753103294 69.99682860210643 L 539.1568178677313 70.07077337165379 L 538.981633382263 70.14392988232913 L 538.804839372227 70.21629081854239 L 538.626453516877 70.28784894426022 L 538.4464936546497 70.35859710372968 L 538.2649777813816 70.42852822219379 L 538.0819240485087 70.49763530659898 L 537.8973507612517 70.5659114462944 L 537.7112763767855 70.63334981372294 L 537.5237195023935 70.69994366510412 L 537.3346988936069 70.76568634110825 L 537.144233452329 70.83057126752253 L 536.9523422249451 70.89459195590838 L 536.7590444004184 70.95774200425032 L 536.5643593083698 71.02001509759614 L 536.3683064171466 71.08140500868842 L 536.1709053318745 71.14190559858717 L 535.9721757924974 71.20151081728383 L 535.7721376718036 71.26021470430622 L 535.5708109734387 71.31801138931453 L 535.3682158299047 71.37489509268845 L 535.1643725005468 71.43086012610503 L 534.9593013695286 71.48590089310757 L 534.7530229437918 71.54001188966522 L 534.5455578510075 71.59318770472345 L 534.3369268375118 71.64542302074504 L 534.1271507662324 71.69671261424193 L 533.9162506146014 71.7470513562975 L 533.7042474724583 71.79643421307951 L 533.4911625399407 71.84485624634341 L 533.2770171253643 71.89231261392625 L 533.061832643092 71.93879857023082 L 532.8456306113927 71.9843094667002 L 532.6284326502896 72.02884075228269 L 532.4102604793976 72.07238797388683 L 532.191135915752 72.11494677682676 L 531.9710808716267 72.15651290525764 L 531.7501173523426 72.19708220260128 L 531.5282674540676 72.23665061196175 L 531.3055533616066 72.27521417653107 L 531.0819973461831 72.31276903998494 L 530.8576217632127 72.3493114468683 L 530.6324490500664 72.38483774297092 L 530.406501723828 72.41934437569277 L 530.1798023790418 72.45282789439938 L 529.9523736854534 72.48528495076673 L 529.7242383857425 72.51671229911628 L 529.4954192932493 72.54710679673934 L 529.2659392896919 72.5764654042115 L 529.0358213228799 72.60478518569649 L 528.8050884044178 72.63206330923974 L 528.5737636074055 72.65829704705163 L 528.3418700641296 72.68348377578025 L 528.1094309637515 72.70762097677371 L 527.8764695499874 72.73070623633201 L 527.6430091187844 72.75273724594847 L 527.4090730159915 72.77371180254045 L 527.1746846350235 72.79362780866978 L 526.9398674145235 72.81248327275246 L 526.7046448360179 72.83027630925778 L 526.4690404215683 72.84700513889692 L 526.2330777314199 72.86266808880085 L 525.9967803616453 72.87726359268764 L 525.7601719417843 72.89079019101906 L 525.5232761324817 72.90324653114655 L 525.2861166231212 72.91463136744649 L 525.048717129456 72.9249435614447 L 524.8111013912376 72.93418208193043 L 524.5732931698419 72.94234600505929 L 524.3353162458928 72.94943451444577 L 524.0971944168845 72.95544690124485 L 523.8589514948013 72.96038256422287 L 523.620611303737 72.96424100981763 L 523.382197677512 72.9670218521878 L 523.1437344572902 72.96872481325143 L 522.9052454891951 72.96934972271386 L 522.6667546219245 72.96889651808466 L 522.4282857043667 72.96736524468392 L 522.1898625832144 72.96475605563768 L 521.9515091005815 72.96106921186271 L 521.7132490916171 72.95630508204027 L 521.4751063821238 72.9504641425794 L 521.2371047861742 72.94354697756918 L 520.9992681037294 72.93555427872033 L 520.7616201182594 72.9264868452961 L 520.5241845943649 72.91634558403224 L 520.2869852754002 72.90513150904647 L 520.0500458810998 72.89284574173689 L 519.8133901052055 72.87948951067006 L 519.5770416130977 72.86506415145789 L 519.3410240394286 72.84957110662431 L 519.105360985759 72.8330119254609 L 518.8700760181979 72.81538826387197 L 518.6351926650459 72.79670188420899 L 518.4007344144426 72.77695465509434 L 518.1667247120178 72.7561485512345 L 517.9331869585463 72.73428565322251 L 517.7001445076095 72.71136814732996 L 517.4676206632578 72.68739832528833 L 517.2356386776819 72.66237858405984 L 517.0042217488873 72.63631142559778 L 516.7733930183738 72.60919945659627 L 516.5431755688222 72.58104538822961 L 516.3135924217856 72.55185203588118 L 516.0846665353873 72.5216223188619 L 515.8564208020254 72.49035926011825 L 515.6288780460827 72.45806598593009 L 515.4020610216454 72.4247457255979 L 515.175992410227 72.39040181111994 L 514.9506948185 72.35503767685907 L 514.7261907760359 72.31865685919922 L 514.502502733052 72.28126299619186 L 514.2796530581661 72.24285982719209 L 514.05766403616 72.20345119248485 L 513.8365578657509 72.16304103290075 L 513.6163566573715 72.12163338942209 L 513.3970824309594 72.07923240277869 L 513.1787571137542 72.03584231303388 L 512.9614025381057 71.99146745916049 L 512.7450404392907 71.94611227860693 L 512.5296924533384 71.89978130685344 L 512.3153801148682 71.85247917695861 L 512.102124854935 71.80421061909601 L 511.8899479988875 71.75498046008119 L 511.67887076423426 71.70479362288901 L 511.4689142585229 71.65365512616141 L 511.260099477229 71.60157008370541 L 511.0524473016567 71.54854370398188 L 510.8459784968505 71.49458128958457 L 510.6407137095188 71.43968823671 L 510.43667346596936 71.38387003461766 L 510.23387817005647 71.32713226508127 L 510.03234810114066 71.26948060183051 L 509.832103412061 71.21092080998365 L 509.63316412711936 71.15145874547107 L 509.4355501400786 71.0911003544497 L 509.2392812121727 71.0298516727083 L 509.0443769701309 70.96771882506403 L 508.850856904215 70.90470802474988 L 508.65874036627025 70.84082557279336 L 508.4680465677904 70.77607785738643 L 508.2787945779964 70.71047135324669 L 508.0910033219295 70.64401262096986 L 507.90469157855887 70.5767083063738 L 507.71987797890347 70.50856513983389 L 507.53658100416936 70.43958993560999 L 507.3548189839012 70.36978959116503 L 507.1746100941496 70.29917108647531 L 506.99597235565335 70.22774148333244 L 506.8189236320374 70.1555079246372 L 506.6434816280266 70.08247763368529 L 506.4696638876752 70.00865791344492 L 506.2974877926123 69.9340561458266 L 506.1269705603039 69.85867979094495 L 505.95812924233127 69.78253638637263 L 505.7909807226854 69.70563354638664 L 505.625541716079 69.62797896120689 L 505.4618287662749 69.54958039622719 L 505.29985824443156 69.47044569123871 L 505.1396463474662 69.39058275964601 L 504.9812090964352 69.30999958767568 L 504.82456233493133 69.22870423357777 L 504.6697217275004 69.14670482681996 L 504.51670275807413 69.06400956727457 L 504.36552072842187 68.98062672439866 L 504.2161907566206 68.89656463640702 L 504.0687277755431 68.8118317094384 L 503.9231465313645 68.72643641671489 L 503.77946158208806 68.6403872976946 L 503.63768729608887 68.55369295721772 L 503.4978378506774 68.46636206464606 L 503.35992723068165 68.37840335299609 L 503.2239692270487 68.28982561806569 L 503.0899774354656 68.20063771755453 L 502.95796525499986 68.11084857017835 L 502.8279458867595 68.02046715477704 L 502.69993233257304 67.92950250941684 L 502.57393739368916 67.83796373048648 L 502.4499736694968 67.74585997178757 L 502.32805355626505 67.65320044361923 L 502.20818924590367 67.55999441185705 L 502.09039272474377 67.46625119702654 L 501.9746757723393 67.37198017337107 L 501.8610499602891 67.27719076791445 L 501.7495266510797 67.18189245951821 L 501.640116996949 67.08609477793381 L 501.5328319387713 66.98980730284956 L 501.4276822049631 66.89303966293272 L 501.32467831041004 66.79580153486665 L 501.2238305554157 66.69810264238313 L 501.12514902467166 66.59995275528999 L 501.0286435862487 66.50136168849414 L 500.93432389061024 66.40233930102012 L 500.84219936964723 66.30289549502413 L 500.75227923573505 66.20304021480393 L 500.6645724808121 66.1027834458043 L 500.57908787548087 66.00213521361863 L 500.4958339681305 65.90110558298623 L 500.4148190840825 65.799704656786 L 500.3360513247577 65.69794257502603 L 500.2595385668664 65.59582951382973 L 500.18528846162064 65.4933756844181 L 500.11330843396905 65.3905913320887 L 500.04360568185444 65.28748673519112 L 499.9761871754939 65.18407220409914 L 499.9110596566819 65.08035808017966 L 499.84822963811604 64.97635473475869 L 499.7877034027458 64.87207256808405 L 499.72948700314436 64.76752200828555 L 499.67358626090305 64.66271351033203 L 499.62000676604964 64.55765755498592 L 499.56875387648887 64.45236464775525 L 499.519832717467 64.34684531784296 L 499.47324818105915 64.24111011709415 L 499.4290049256802 64.13516961894075 L 499.3871073756188 64.0290344173443 L 499.34755972059503 63.92271512573653 L 499.31036591534144 63.81622237595798 L 499.2755296792075 63.70956681719489 L 499.24305449578793 63.602759114914264 L 499.2129436125739 63.49580994979732 L 499.1852000406286 63.38873001667144 L 499.15982655428627 63.28153002344071 L 499.1368256908743 63.17422069001512 L 499.11619975045977 63.066812747238586 L 499.0979507956197 62.959316935815885 L 499.08208065123426 62.85174400523857 L 499.06859090430476 62.74410471271006 L 499.05748290379455 62.636409822069915 L 499.0487577604944 62.52867010271744 L 499.0424163469115 62.4208963285348 L 499.03845929718193 62.313099276809595 L 499.0368870070072 62.20528972715717 L 499.03769963361515 62.09747846044265 L 499.04089709574373 61.98967625770286 L 499.04647907364944 61.88189389906824 L 499.0544450091391 61.77414216268484 L 499.0647941056258 61.66643182363649 L 499.0775253282086 61.558773652867366 L 499.0926374037757 61.4511784161048 L 499.11012882113226 61.34365687278283 L 499.1299978311511 61.236219774966166 L 499.15224244694775 61.12887786627507 L 499.1768604440792 61.02164188081096 L 499.2038493607662 60.91452254208302 L 499.2332064981396 60.807530561935856 L 499.2649289205101 60.70067663947832 L 499.29901345566196 60.593971460013606 L 499.3354566951701 60.487425693970756 L 499.37425499474074 60.381049995837586 L 499.41540447457646 60.27485500309525 L 499.45890101976346 60.16885133515453 L 499.50474028068356 60.06304959229389 L 499.55291767344875 59.95746035459945 L 499.60342838036 59.852094180906974 L 499.65626735038865 59.746961607746044 L 499.71142929968175 59.64207314828636 L 499.76890871209037 59.537439291286454 L 499.8286998397211 59.43307050004484 L 499.89079670351106 59.32897721135367 L 499.9551930938256 59.22516983445505 L 500.02188257107935 59.12165875000019 L 500.09085846638015 59.01845430901127 L 500.16211388219597 58.91556683184637 L 500.23564169304456 58.81300660716748 L 500.3114345462062 58.7107838909116 L 500.38948486245863 58.60890890526517 L 500.46978483683534 58.507391837641855 L 500.5523264394058 58.406242839663825 L 500.6371014160785 58.30547202614659 L 500.72410128942647 58.205089474087515 L 500.81331735953484 58.105105221658164 L 500.90474070487096 58.00552926720046 L 500.9983621831764 57.90637156822687 L 501.0941724323815 57.807642040424646 L 501.1921618715411 57.709350556664305 L 501.2923207017929 57.61150694601232 L 501.3946389073374 57.514120992748204 L 501.49910625643935 57.417202435386145 L 501.6057123024508 57.320760965701105 L 501.714446384856 57.224806227759686 L 501.8252976303374 57.12934781695572 L 501.9382549538627 57.03439527905074 L 502.0533070597938 56.93995810921942 L 502.17044244301593 56.84604575110002 L 502.2896493900884 56.75266759585011 L 502.41091598041584 56.65983298120741 L 502.5342300874402 56.567551190555996 L 502.65957937985365 56.47583145199805 L 502.7869513228314 56.384682937430995 L 502.9163331792852 56.29411476163032 L 503.0477120111372 56.20413598133814 L 503.18107468061385 56.1147555943575 L 503.3164078515593 56.02598253865261 L 503.4536979907691 55.937825691455075 L 503.5929313693439 55.85029386837614 L 503.73409406406176 55.763395822525176 L 503.8771719587709 55.677140243634355 L 504.022150745801 55.591535757189675 L 504.1690159273943 55.50659092356846 L 504.317752817155 55.42231423718327 L 504.468346541518 55.33871412563253 L 504.62078204123634 55.25579894885771 L 504.77504407288717 55.1735769983074 L 504.93111721039577 55.092056496108135 L 505.08898584657857 55.01124559424221 L 505.24863419470347 54.93115237373246 L 505.41004629006864 54.851784843834196 L 505.57320599159914 54.77315094123426 L 505.7380969834607 54.6952585292574 L 505.9047027766916 54.61811539707989 L 506.0730067108513 54.54172925895067 L 506.2429919556867 54.46610775341989 L 506.4146415128149 54.391258442575094 L 506.58793821742336 54.317188811284986 L 506.76286473998584 54.24390626645098 L 506.939403587996 54.171418136266475 L 507.1175371077161 54.09973166948409 L 507.29724748594265 54.028854034690774 L 507.47851675178754 53.95879231959093 L 507.66132677847526 53.88955353029769 L 507.8456592851555 53.82114459063227 L 508.03149583873113 53.753572341431656 L 508.21881785570173 53.68684353986444 L 508.40760660402174 53.62096485875517 L 508.5978432049735 53.55594288591707 L 508.78950863505565 53.49178412349323 L 508.98258372788473 53.42849498730643 L 509.1770491761124 53.366081806217544 L 509.37288553335594 53.304550821492676 L 509.5700732161428 53.24390818617902 L 509.768592505869 53.18415996448957 L 509.96842355077104 53.12531213119671 L 510.16954636791087 53.067370571034715 L 510.37194084517444 53.01034107811134 L 510.5755867432827 52.95422935532834 L 510.78046369781555 52.89904101381123 L 510.9865512212482 52.84478157234818 L 511.1938287050001 52.79145645683812 L 511.40227542149563 52.73907099974815 L 511.61187052623677 52.687630439580346 L 511.82259305988777 52.637139920347835 L 512.0344219503708 52.58760449106049 L 512.2473360149734 52.53902910521993 L 512.4613139624665 52.49141862032429 L 512.6763343952338 52.444777797382365 L 512.892375811411 52.399111300437596 L 513.1094166070365 52.354423696101605 L 513.3274350782118 52.3107194530976 L 513.5464094232714 52.26800294181345 L 513.7663177449631 52.2262784338647 L 513.9871380526383 52.18555010166736 L 514.20884826445 52.14582201802072 L 514.4314262095619 52.10709815570004 L 514.6548496303649 52.06938238705927 L 514.879096184703 52.032678483643856 L 515.104143448108 51.996990115813546 L 515.3299689160407 51.96232085237539 L 515.5565500061427 51.928674160226834 L 515.7838640604939 51.89605340400906 L 516.011888347878 51.8644618457705 L 516.2406000660565 51.833902644640645 L 516.4699763440481 51.80437885651416 L 516.6999942444162 51.775893433745246 L 516.9306307655623 51.74844922485244 L 517.1618628440267 51.722048974233765 L 517.393667356794 51.69669532189228 L 517.6260211236064 51.672390803172085 L 517.8589009092806 51.649137848504814 L 518.0922834260322 51.626938783166544 L 518.326145335804 51.60579582704531 L 518.5604632525998 51.58571109441911 L 518.7952137448233 51.56668659374447 L 519.0303733376209 51.54872422745561 L 519.2659185152293 51.53182579177417 L 519.5018257233269 51.515992976529645 L 519.7380713713897 51.50122736499037 L 519.9746318350494 51.4875304337052 L 520.2114834584572 51.47490355235584 L 520.4486025566479 51.4633479836199 L 520.6859654179093 51.45286488304463 L 520.9235483061531 51.443455298931354 L 521.1613274632883 51.43512017223063 L 521.3992791115977 51.4278603364482 L 521.6373794561144 51.42167651756158 L 521.8756046870026 51.41656933394751 L 522.1139309819376 51.41253929632009 L 522.3523345084886 51.40958680767973 L 522.5907914265015 51.407712163272826 L 522.8292778904834 51.40691555056227 L 523.0677700519864 51.40719704920866 L 523.3062440619932 51.40855663106237 L 523.5446760733016 51.41099416016634 L 523.7830422429091 51.414509392769695 L 524.0213187343974 51.419101977352106 L 524.2594817203159 51.42477145465894 L 524.4975073845644 51.431517257747196 L 524.7353719247749 51.43933871204218 L 524.9730515546916 51.44823503540498 L 525.2105225065496 51.45820533821068 L 525.4477610334516 51.4692486234373 L 525.6847434117425 51.48136378676553 L 525.9214459433821 51.49454961668913 L 526.1578449583144 51.50880479463608 L 526.393916816835 51.524127895100484 L 526.6296379119547 51.54051738578506 L 526.8649846717603 51.5579716277544 L 527.0999335617722 51.57648887559884 L 527.334461087297 51.59606727760904 L 527.5685437957777 51.6167048759611 L 527.8021582791384 51.6383996069124 L 528.0352811761255 51.66114930100791 L 528.2678891746436 51.684951683297186 L 528.4999590140867 51.70980437356183 L 528.7314674876642 51.735704886553535 L 528.9623914447217 51.76265063224257 L 529.1927077930559 51.79063891607683 L 529.4223935012238 51.81966693925126 L 529.6514256008462 51.849731798987726 L 529.8797811889038 51.88083048882531 L 530.1074374300283 51.91295989892094 L 530.334371558785 51.94611681636038 L 530.5605608819504 51.980297925479526 L 530.7859827807807 52.01549980819594 L 531.0106147132736 52.0517189443507 L 531.2344342164233 52.08895171206036 L 531.4574189084659 52.127194388079175 L 531.6795464911179 52.16644314817141 L 531.9007947518064 52.20669406749378 L 532.1211415658895 52.247943120987884 L 532.3405648988694 52.29018618378274 L 532.5590428085958 52.33341903160728 L 532.7765534474597 52.37763734121275 L 532.9930750645785 52.422836690805035 L 533.2085860079709 52.46901256048684 L 533.4230647267221 52.516160332709674 L 533.6364897731391 52.564275292735616 L 533.8488398048951 52.613352629108746 L 534.0600935871638 52.663387434136325 L 534.270229994743 52.71437470437956 L 534.479228014167 52.7663093411539 L 534.6870667458082 52.819186151038956 L 534.8937254059665 52.8729998463978 L 535.0991833289482 52.92774504590574 L 535.3034199691322 52.983416275088445 L 535.5064149030245 53.040007966869396 L 535.7081478313011 53.09751446212657 L 535.9085985808372 53.15593001025836 L 536.1077471067248 53.21524876975863 L 536.3055734942774 53.27546480880087 L 536.502057961021 53.33657210583136 L 536.6971808586728 53.3985645501713 L 536.8909226751056 53.461435942627936 L 537.0832640362989 53.52517999611441 L 537.2741857082774 53.58979033627848 L 537.4636685990325 53.655260502139996 L 537.6516937604334 53.721583946736914 L 537.8382423901205 53.78875403778004 L 538.0232958333862 53.85676405831625 L 538.2068355850405 53.92560720740017 L 538.3888432912612 53.995276600774254 L 538.5693007514293 54.065765271557225 L 538.7481899199491 54.13706617094075 L 538.9254929080529 54.2091721688943 L 539.1011919855897 54.28207605487816 L 539.275269582798 54.35577053856451 L 539.4477082920633 54.43024825056637 L 539.6184908696583 54.50550174317461 L 539.7876002374676 54.581523491102686 L 539.9550194846952 54.658305892239156 L 540.120731869556 54.73584126840789 L 540.2847208209497 54.81412186613588 L 540.4469699401177 54.89313985742859 L 540.6074630022833 54.97288734055273 L 540.7661839582742 55.05335634082646 L 540.9231169361267 55.1345388114168 L 541.078246242674 55.21642663414435 L 541.2315563651149 55.29901162029506 L 541.3830319725646 55.38228551143916 L 541.5326579175887 55.46623998025691 L 541.6804192377175 55.55086663137139 L 541.826301156942 55.63615700218803 L 541.9702890871919 55.722102563740805 L 542.1123686297941 55.80869472154519 L 542.2525255769128 55.89592481645755 L 542.39074591297 55.98378412554111 L 542.5270158160474 56.07226386293816 L 542.6613216592682 56.1613551807487 L 542.79365001216 56.251049169915184 L 542.9239876419977 56.34133686111345 L 543.052321515127 56.4322092256496 L 543.1786387982677 56.52365717636293 L 543.3029268597963 56.615671568534566 L 543.4251732710107 56.70824320080196 L 543.5453658073715 56.80136281607904 L 543.6634924497251 56.89502110248188 L 543.7795413855058 56.98920869425987 L 543.8935010099167 57.083916172732344 L 544.0053599270904 57.17913406723036 L 544.1151069512282 57.27485285604382 L 544.2227311077194 57.37106296737362 L 544.3282216342378 57.467754780288786 L 544.4315679818188 57.56491862568861 L 544.5327598159138 57.662544787269525 L 544.6317870174237 57.76062350249672 L 544.7286396837106 57.859144963580405 L 544.823308129589 57.95809931845658 L 544.9157828882929 58.05747667177222 L 545.0060547124237 58.15726708587479 L 545.0941145748741 58.257460581806065 L 545.1799536697312 58.358047140299924 L 545.2635634131572 58.459016702784346 L 545.3449354442471 58.56035917238722 L 545.424061625866 58.66206441494605 L 545.5009340454615 58.764122260021324 L 545.5755450158556 58.866522501913586 L 545.6478870760136 58.96925490068398 L 545.7179529917898 59.072309183178234 L 545.7857357566509 59.17567504405398 L 545.8512285923769 59.279342146811274 L 545.9144249497388 59.38330012482622 L 545.9753185091535 59.48753858238766 L 546.0339031813158 59.59204709573668 L 546.0901731078075 59.69681521410906 L 546.1441226616827 59.80183246078026 L 546.195746448031 59.907088334113126 L 546.2450393045166 60.012572308608036 L 546.2919963018952 60.11827383595545 L 546.336612744506 60.22418234609071 L 546.3788841707421 60.33028724825106 L 546.4188063534959 60.43657793203471 L 546.4563753005826 60.54304376846186 L 546.4915872551386 60.64967411103757 L 546.524438695998 60.75645829681646 L 546.5549263380439 60.86338564746893 L 546.5830471325376 60.97044547034902 L 546.6087982674229 61.07762705956367 L 546.6321771676081 61.184919697043256 L 546.6531814952224 61.29231265361346 L 546.6718091498507 61.399795190068104 L 546.6880582687429 61.50735655824312 L 546.7019272270009 61.614986002091314 L 546.7134146377401 61.72267275875801 L 546.7225193522293 61.830406059657264 L 546.7292404600045 61.93817513154877 L 546.7335772889604 62.04596919761514 L 546.735529405418 62.15377747853961 M 546.735650395474 96.4920458931 L 546.7344579355703 96.59985643801662 L 546.7308806751042 96.70765620196859 L 546.724918971799 96.81543440506935 L 546.7165734218196 96.9231802695884 L 546.7058448597144 97.03088302102908 L 546.6927343583305 97.138531889206 L 546.6772432287073 97.24611610932205 L 546.6593730199447 97.35362492304485 L 546.6391255190487 97.46104757958265 L 546.6165027507525 97.5683733367593 L 546.5915069773141 97.67559146208852 L 546.5641406982901 97.78269123384712 L 546.5344066502855 97.88966194214719 L 546.5023078066804 97.99649289000702 L 546.4678473773323 98.10317339442086 L 546.4310288082555 98.20969278742717 L 546.3918557812761 98.31604041717543 L 546.3503322136644 98.42220564899125 L 546.3064622577424 98.52817786643996 L 546.260250300469 98.6339464723881 L 546.2117009630017 98.73950089006323 L 546.1608191002337 98.84483056411152 L 546.1076098003088 98.94992496165337 L 546.0520783841125 99.05477357333659 L 545.9942304047405 99.15936591438738 L 545.9340716469424 99.2636915256588 L 545.8716081265437 99.36773997467667 L 545.8068460898445 99.47150085668278 L 545.7397920129945 99.5749637956754 L 545.6704526013456 99.67811844544686 L 545.5988347887809 99.78095449061813 L 545.5249457370222 99.8834616476704 L 545.4487928349132 99.98562966597338 L 545.3703836976804 100.08744832881038 L 545.2897261661723 100.18890745439998 L 545.2068283060748 100.28999689691415 L 545.121698407105 100.39070654749288 L 545.0343449821816 100.49102633525506 L 544.9447767665744 100.59094622830548 L 544.8530027170303 100.69045623473812 L 544.759032010878 100.78954640363527 L 544.6628740451093 100.8882068260626 L 544.5645384354412 100.9864276360601 L 544.4640350153525 101.0841990116286 L 544.3613738351013 101.18151117571202 L 544.2565651607202 101.27835439717506 L 544.1496194729893 101.37471899177628 L 544.0405474663884 101.4705953231365 L 543.9293600480271 101.56597380370249 L 543.8160683365545 101.6608448957057 L 543.7006836610476 101.75519911211595 L 543.5832175598775 101.84902701759025 L 543.4636817795566 101.94231922941623 L 543.3420882735634 102.03506641845047 L 543.218449201147 102.12725931005133 L 543.0927769261116 102.2188886850065 L 542.9650840155801 102.30994538045483 L 542.8353832387371 102.40042029080266 L 542.7036875655522 102.49030436863434 L 542.5700101654829 102.579588625617 L 542.434364406158 102.66826413339936 L 542.2967638520402 102.75632202450451 L 542.1572222630703 102.84375349321674 L 542.0157535932909 102.93054979646202 L 541.8723719894512 103.01670225468237 L 541.727091789592 103.10220225270375 L 541.5799275216121 103.18704124059762 L 541.430893901816 103.27121073453588 L 541.2800058334411 103.3547023176393 L 541.1272784051688 103.4375076408191 L 540.9727268896145 103.51961842361202 L 540.8163667418011 103.60102645500817 L 540.6582135976128 103.68172359427226 L 540.4982832722325 103.7617017717576 L 540.3365917585593 103.84095298971312 L 540.17315522561 103.91946932308304 L 540.0079900169014 103.99724292029944 L 539.8411126488171 104.07426600406745 L 539.6725398089546 104.15053087214287 L 539.5022883544575 104.22602989810241 L 539.3303753103294 104.30075553210642 L 539.1568178677313 104.37470030165377 L 538.981633382263 104.44785681232914 L 538.804839372227 104.52021774854238 L 538.626453516877 104.59177587426021 L 538.4464936546497 104.66252403372968 L 538.2649777813816 104.73245515219378 L 538.0819240485087 104.80156223659897 L 537.8973507612517 104.86983837629438 L 537.7112763767855 104.93727674372295 L 537.5237195023935 105.0038705951041 L 537.3346988936069 105.06961327110824 L 537.144233452329 105.13449819752252 L 536.9523422249451 105.19851888590837 L 536.7590444004184 105.26166893425032 L 536.5643593083698 105.32394202759615 L 536.3683064171466 105.38533193868841 L 536.1709053318745 105.44583252858716 L 535.9721757924974 105.50543774728384 L 535.7721376718036 105.56414163430621 L 535.5708109734387 105.62193831931454 L 535.3682158299047 105.67882202268845 L 535.1643725005468 105.73478705610502 L 534.9593013695286 105.78982782310756 L 534.7530229437918 105.84393881966523 L 534.5455578510075 105.89711463472344 L 534.3369268375118 105.94934995074503 L 534.1271507662324 106.00063954424192 L 533.9162506146014 106.0509782862975 L 533.7042474724583 106.1003611430795 L 533.4911625399407 106.14878317634341 L 533.2770171253643 106.19623954392625 L 533.061832643092 106.2427255002308 L 532.8456306113927 106.2882363967002 L 532.6284326502896 106.33276768228268 L 532.4102604793976 106.37631490388682 L 532.191135915752 106.41887370682676 L 531.9710808716267 106.46043983525765 L 531.7501173523426 106.50100913260128 L 531.5282674540676 106.54057754196174 L 531.3055533616066 106.57914110653107 L 531.0819973461831 106.61669596998493 L 530.8576217632127 106.65323837686829 L 530.6324490500664 106.6887646729709 L 530.406501723828 106.72327130569276 L 530.1798023790418 106.75675482439937 L 529.9523736854534 106.78921188076673 L 529.7242383857425 106.82063922911627 L 529.4954192932493 106.85103372673933 L 529.2659392896919 106.8803923342115 L 529.0358213228799 106.90871211569649 L 528.8050884044178 106.93599023923973 L 528.5737636074055 106.96222397705162 L 528.3418700641296 106.98741070578025 L 528.1094309637515 107.0115479067737 L 527.8764695499874 107.03463316633201 L 527.6430091187844 107.05666417594847 L 527.4090730159915 107.07763873254045 L 527.1746846350235 107.09755473866979 L 526.9398674145235 107.11641020275246 L 526.7046448360179 107.13420323925777 L 526.4690404215683 107.1509320688969 L 526.2330777314199 107.16659501880085 L 525.9967803616453 107.18119052268763 L 525.7601719417843 107.19471712101905 L 525.5232761324817 107.20717346114655 L 525.2861166231212 107.21855829744648 L 525.048717129456 107.22887049144471 L 524.8111013912376 107.23810901193042 L 524.5732931698419 107.24627293505928 L 524.3353162458928 107.25336144444577 L 524.0971944168845 107.25937383124486 L 523.8589514948013 107.26430949422287 L 523.620611303737 107.26816793981763 L 523.382197677512 107.27094878218779 L 523.1437344572902 107.27265174325143 L 522.9052454891951 107.27327665271386 L 522.6667546219245 107.27282344808465 L 522.4282857043667 107.27129217468391 L 522.1898625832144 107.26868298563768 L 521.9515091005815 107.2649961418627 L 521.7132490916171 107.26023201204026 L 521.4751063821238 107.2543910725794 L 521.2371047861742 107.24747390756917 L 520.9992681037294 107.23948120872033 L 520.7616201182594 107.23041377529609 L 520.5241845943649 107.22027251403225 L 520.2869852754002 107.20905843904646 L 520.0500458810998 107.1967726717369 L 519.8133901052055 107.18341644067004 L 519.5770416130977 107.16899108145788 L 519.3410240394286 107.15349803662431 L 519.105360985759 107.1369388554609 L 518.8700760181979 107.11931519387196 L 518.6351926650459 107.10062881420897 L 518.4007344144426 107.08088158509435 L 518.1667247120178 107.0600754812345 L 517.9331869585463 107.03821258322252 L 517.7001445076095 107.01529507732995 L 517.4676206632578 106.99132525528832 L 517.2356386776819 106.96630551405984 L 517.0042217488873 106.94023835559778 L 516.7733930183738 106.91312638659626 L 516.5431755688222 106.88497231822961 L 516.3135924217856 106.85577896588119 L 516.0846665353873 106.8255492488619 L 515.8564208020254 106.79428619011826 L 515.6288780460827 106.76199291593008 L 515.4020610216454 106.72867265559789 L 515.175992410227 106.69432874111995 L 514.9506948185 106.65896460685907 L 514.7261907760359 106.62258378919921 L 514.502502733052 106.58518992619184 L 514.2796530581661 106.5467867571921 L 514.05766403616 106.50737812248485 L 513.8365578657509 106.46696796290075 L 513.6163566573715 106.42556031942208 L 513.3970824309594 106.38315933277867 L 513.1787571137542 106.33976924303387 L 512.9614025381057 106.29539438916049 L 512.7450404392907 106.25003920860692 L 512.5296924533384 106.20370823685344 L 512.3153801148682 106.15640610695861 L 512.102124854935 106.108137549096 L 511.8899479988875 106.05890739008117 L 511.67887076423426 106.00872055288902 L 511.4689142585229 105.9575820561614 L 511.260099477229 105.90549701370541 L 511.0524473016567 105.85247063398188 L 510.8459784968505 105.79850821958458 L 510.6407137095188 105.74361516670999 L 510.43667346596936 105.68779696461766 L 510.23387817005647 105.63105919508126 L 510.03234810114066 105.5734075318305 L 509.832103412061 105.51484773998365 L 509.63316412711936 105.45538567547108 L 509.4355501400786 105.3950272844497 L 509.2392812121727 105.33377860270829 L 509.0443769701309 105.27164575506403 L 508.850856904215 105.20863495474987 L 508.65874036627025 105.14475250279335 L 508.4680465677904 105.08000478738643 L 508.2787945779964 105.01439828324668 L 508.0910033219295 104.94793955096986 L 507.90469157855887 104.8806352363738 L 507.71987797890347 104.8124920698339 L 507.53658100416936 104.74351686560999 L 507.3548189839012 104.67371652116503 L 507.1746100941496 104.6030980164753 L 506.99597235565335 104.53166841333243 L 506.8189236320374 104.4594348546372 L 506.6434816280266 104.38640456368528 L 506.4696638876752 104.31258484344491 L 506.2974877926123 104.2379830758266 L 506.1269705603039 104.16260672094495 L 505.95812924233127 104.08646331637262 L 505.7909807226854 104.00956047638662 L 505.625541716079 103.93190589120688 L 505.4618287662749 103.85350732622719 L 505.29985824443156 103.77437262123871 L 505.1396463474662 103.694509689646 L 504.9812090964352 103.61392651767568 L 504.82456233493133 103.53263116357778 L 504.6697217275004 103.45063175681996 L 504.51670275807413 103.36793649727457 L 504.36552072842187 103.28455365439865 L 504.2161907566206 103.20049156640701 L 504.0687277755431 103.1157586394384 L 503.9231465313645 103.03036334671489 L 503.77946158208806 102.94431422769459 L 503.63768729608887 102.85761988721772 L 503.4978378506774 102.77028899464605 L 503.35992723068165 102.68233028299609 L 503.2239692270487 102.5937525480657 L 503.0899774354656 102.50456464755453 L 502.95796525499986 102.41477550017834 L 502.8279458867595 102.32439408477703 L 502.69993233257304 102.23342943941684 L 502.57393739368916 102.14189066048647 L 502.4499736694968 102.04978690178756 L 502.32805355626505 101.95712737361922 L 502.20818924590367 101.86392134185704 L 502.09039272474377 101.77017812702654 L 501.9746757723393 101.67590710337106 L 501.8610499602891 101.58111769791444 L 501.7495266510797 101.48581938951821 L 501.640116996949 101.39002170793381 L 501.5328319387713 101.29373423284954 L 501.4276822049631 101.19696659293271 L 501.32467831041004 101.09972846486664 L 501.2238305554157 101.00202957238312 L 501.12514902467166 100.90387968528998 L 501.0286435862487 100.80528861849413 L 500.93432389061024 100.70626623102011 L 500.84219936964723 100.60682242502413 L 500.75227923573505 100.50696714480392 L 500.6645724808121 100.40671037580431 L 500.57908787548087 100.30606214361863 L 500.4958339681305 100.20503251298624 L 500.4148190840825 100.103631586786 L 500.3360513247577 100.00186950502604 L 500.2595385668664 99.89975644382972 L 500.18528846162064 99.79730261441809 L 500.11330843396905 99.69451826208869 L 500.04360568185444 99.59141366519111 L 499.9761871754939 99.48799913409913 L 499.9110596566819 99.38428501017967 L 499.84822963811604 99.28028166475868 L 499.7877034027458 99.17599949808405 L 499.72948700314436 99.07144893828554 L 499.67358626090305 98.96664044033201 L 499.62000676604964 98.86158448498593 L 499.56875387648887 98.75629157775525 L 499.519832717467 98.65077224784297 L 499.47324818105915 98.54503704709414 L 499.4290049256802 98.43909654894075 L 499.3871073756188 98.33296134734431 L 499.34755972059503 98.22664205573652 L 499.31036591534144 98.12014930595798 L 499.2755296792075 98.01349374719489 L 499.24305449578793 97.90668604491427 L 499.2129436125739 97.79973687979731 L 499.1852000406286 97.69265694667143 L 499.15982655428627 97.58545695344071 L 499.1368256908743 97.47814762001512 L 499.11619975045977 97.37073967723859 L 499.0979507956197 97.26324386581588 L 499.08208065123426 97.15567093523856 L 499.06859090430476 97.04803164271006 L 499.05748290379455 96.94033675206991 L 499.0487577604944 96.83259703271744 L 499.0424163469115 96.7248232585348 L 499.03845929718193 96.6170262068096 L 499.0368870070072 96.50921665715717" stroke-miterlimit="10" stroke-width="2.7769845610000004" stroke-dasharray=""/></g><g><g/><text fill="black" stroke="none" font-family="sans-serif" font-size="11pt" font-style="normal" font-weight="normal" text-decoration="normal" x="487.0945856392416" y="124.800953212" text-anchor="start" dominant-baseline="alphabetic" xml:space="preserve">BuildStore</text></g></g><g><path fill="white" stroke="black" paint-order="fill stroke markers" d=" M 96.53125 137.869115852 L 112.86645329999999 137.869115852 L 112.86645329999999 412.30053129199996 L 96.53125 412.30053129199996 L 96.53125 137.869115852" stroke-miterlimit="10" stroke-width="1.3612669416666667" stroke-dasharray=""/><path fill="white" stroke="black" paint-order="fill stroke markers" d=" M 514.718651927474 137.869115852 L 531.0538552274741 137.869115852 L 531.0538552274741 412.30053129199996 L 514.718651927474 412.30053129199996 L 514.718651927474 137.869115852" stroke-miterlimit="10" stroke-width="1.3612669416666667" stroke-dasharray=""/><g><g><rect fill="white" stroke="none" x="132.19644387166667" y="206.476969712" width="363.1922174841406" height="21.23576429"/></g><text fill="black" stroke="none" font-family="sans-serif" font-size="11pt" font-style="normal" font-weight="normal" text-decoration="normal" x="134.64672436666666" y="221.17865268199998" text-anchor="start" dominant-baseline="alphabetic" xml:space="preserve">get next Dependencies object "d" with lease not null</text></g><g><path fill="none" stroke="black" paint-order="fill stroke markers" d=" M 112.86645329999999 227.712734002 L 501.2693345438073 227.712734002" stroke-miterlimit="10" stroke-width="1.3612669416666667" stroke-dasharray=""/><g transform="translate(514.718651927474,227.712734002) translate(-514.718651927474,-227.712734002)"><path fill="black" stroke="none" paint-order="stroke fill markers" d=" M 501.1059825108073 220.90639929366665 L 514.718651927474 227.712734002 L 501.1059825108073 234.51906871033333 Z"/></g></g><g><g><rect fill="white" stroke="none" x="164.85269387166667" y="296.32058786199997" width="297.8797174841406" height="21.23576429"/></g><text fill="black" stroke="none" font-family="sans-serif" font-size="11pt" font-style="normal" font-weight="normal" text-decoration="normal" x="167.30297436666666" y="311.02227083199995" text-anchor="start" dominant-baseline="alphabetic" xml:space="preserve">reset the lease of the Dependencies object</text></g><g><path fill="none" stroke="black" paint-order="fill stroke markers" d=" M 112.86645329999999 317.556352152 L 501.2693345438073 317.556352152" stroke-miterlimit="10" stroke-width="1.3612669416666667" stroke-dasharray=""/><g transform="translate(514.718651927474,317.556352152) translate(-514.718651927474,-317.556352152)"><path fill="black" stroke="none" paint-order="stroke fill markers" d=" M 501.1059825108073 310.75001744366665 L 514.718651927474 317.556352152 L 501.1059825108073 324.3626868603333 Z"/></g></g><g><g><rect fill="white" stroke="none" x="140.936022118737" y="342.059157102" width="345.71306099" height="21.23576429"/></g><text fill="black" stroke="none" font-family="sans-serif" font-size="11pt" font-style="normal" font-weight="normal" text-decoration="normal" x="143.38630261373697" y="356.76084007199995" text-anchor="start" dominant-baseline="alphabetic" xml:space="preserve">send message containing Dependencies object id</text></g><g><path fill="none" stroke="black" paint-order="fill stroke markers" d=" M 112.86645329999999 363.294921392 L 501.2693345438073 363.294921392" stroke-miterlimit="10" stroke-width="1.3612669416666667" stroke-dasharray=""/><g transform="translate(514.718651927474,363.294921392) translate(-514.718651927474,-363.294921392)"><path fill="black" stroke="none" paint-order="stroke fill markers" d=" M 501.1059825108073 356.48858668366665 L 514.718651927474 363.294921392 L 501.1059825108073 370.10125610033333 Z"/></g></g><g><g/><path fill="none" stroke="black" paint-order="fill stroke markers" d=" M 31.1904368 162.37192080199998 L 588.227066777474 162.37192080199998 L 588.227066777474 412.30053129199996 L 31.1904368 412.30053129199996 L 31.1904368 162.37192080199998 Z" stroke-miterlimit="10" stroke-width="2.3336004714285714" stroke-dasharray=""/><path fill="white" stroke="black" paint-order="fill stroke markers" d=" M 31.1904368 162.37192080199998 L 31.1904368 181.974164762 L 89.4233434 181.974164762 L 99.22446538 172.17304278199998 L 99.22446538 162.37192080199998 L 31.1904368 162.37192080199998" stroke-miterlimit="10" stroke-width="2.3336004714285714" stroke-dasharray=""/><text fill="black" stroke="none" font-family="sans-serif" font-size="8.8pt" font-style="normal" font-weight="bold" text-decoration="normal" x="47.525640100000004" y="175.44008344199997" text-anchor="start" dominant-baseline="alphabetic" xml:space="preserve">loop</text><g><rect fill="white" stroke="none" x="113.109388185" y="163.67873706599997" width="105.81722511353516" height="16.988611432000003"/></g><text fill="black" stroke="none" font-family="sans-serif" font-size="8.8pt" font-style="normal" font-weight="bold" text-decoration="normal" x="115.55966868" y="175.44008344199997" text-anchor="start" dominant-baseline="alphabetic" xml:space="preserve">[every n seconds]</text></g><g><g/><path fill="none" stroke="black" paint-order="fill stroke markers" d=" M 47.5256401 252.21553895199997 L 571.891863477474 252.21553895199997 L 571.891863477474 387.797726342 L 47.5256401 387.797726342 L 47.5256401 252.21553895199997 Z" stroke-miterlimit="10" stroke-width="2.3336004714285714" stroke-dasharray=""/><path fill="white" stroke="black" paint-order="fill stroke markers" d=" M 47.5256401 252.21553895199997 L 47.5256401 271.817782912 L 99.98771273088379 271.817782912 L 109.78883471088379 262.016660932 L 109.78883471088379 252.21553895199997 L 47.5256401 252.21553895199997" stroke-miterlimit="10" stroke-width="2.3336004714285714" stroke-dasharray=""/><text fill="black" stroke="none" font-family="sans-serif" font-size="8.8pt" font-style="normal" font-weight="bold" text-decoration="normal" x="63.86084339999999" y="265.283701592" text-anchor="start" dominant-baseline="alphabetic" xml:space="preserve">opt</text><g><rect fill="white" stroke="none" x="123.67375751588379" y="253.522355216" width="164.23388923707031" height="16.988611432000003"/></g><text fill="black" stroke="none" font-family="sans-serif" font-size="8.8pt" font-style="normal" font-weight="bold" text-decoration="normal" x="126.1240380108838" y="265.283701592" text-anchor="start" dominant-baseline="alphabetic" xml:space="preserve">[s.lease - now() &gt; threshold]</text></g></g><g/><g/></g></svg>