<svg version="1.1" xmlns="http://www.w3.org/2000/svg" xmlns:xlink="http://www.w3.org/1999/xlink" width="615" height="496"><desc>title%20CacheServer%20health%20checking%0Acontrol%20CacheServerHealthChecker%0Adatabase%20BuildStore%0A%0Aactivate%20CacheServerHealthChecker%0Aactivate%20BuildStore%0Aloop%20every%20n%20seconds%0A%20%20CacheServerHealthChecker%20-%3E%20BuildStore%3A%20get%20all%20Dependencies%20objects%20%22d%22%20with%20lease%20not%20null%0A%20%20loop%20for%20each%20dependencies%20in%20d%0A%20%20%20%20opt%20dependencies.lease%20-%20now()%20%3E%20threshold%0A%20%20%20%20%20%20CacheServerHealthChecker%20-%3E%20BuildStore%3A%20reset%20the%20lease%20of%20the%20Dependencies%20object%0A%20%20%20%20%20%20CacheServerHealthChecker%20-%3E%20BuildStore%3A%20enqueue%20the%20Dependencies%20object%20id%20in%20the%20BuildStore%0A%20%20%20%20end%0A%20%20end%0Aend%0Adeactivate%20BuildStore%0Adeactivate%20CacheServerHealthChecker%0A</desc><defs/><g><g/><g/><g/><g><rect fill="white" stroke="none" x="0" y="0" width="615" height="496"/></g><g><text fill="black" stroke="none" font-family="sans-serif" font-size="16.5pt" font-style="normal" font-weight="normal" text-decoration="normal" x="162.43963816445313" y="22.6179738" text-anchor="start" dominant-baseline="alphabetic" xml:space="preserve">CacheServer health checking</text></g><g/><g><path fill="none" stroke="black" paint-order="fill stroke markers" d=" M 105.5505444 119.724474648 L 105.5505444 496.6907046480001" stroke-miterlimit="10" stroke-width="1.2565541" stroke-dasharray="11.598960923076923,5.0262164"/><path fill="none" stroke="black" paint-order="fill stroke markers" d=" M 510.3990444289062 119.724474648 L 510.3990444289062 496.6907046480001" stroke-miterlimit="10" stroke-width="1.2565541" stroke-dasharray="11.598960923076923,5.0262164"/></g><g><g><path fill="white" stroke="black" paint-order="fill stroke markers" d=" M 127.94233846200001 76.448751444 A 22.391794062000002 22.391794062000002 0 1 1 127.94232726610392 76.42635965366995 M 102.53481456 54.05695738199999 L 111.58200408 46.51763278199999 M 102.53481456 54.05695738199999 L 111.58200408 61.596281981999994" stroke-miterlimit="10" stroke-width="2.5633703640000003" stroke-dasharray=""/></g><g><g/><text fill="black" stroke="none" font-family="sans-serif" font-size="11pt" font-style="normal" font-weight="normal" text-decoration="normal" x="13.08663906552735" y="115.200879888" text-anchor="start" dominant-baseline="alphabetic" xml:space="preserve">CacheServerHealthChecker</text></g><g><path fill="white" stroke="black" paint-order="fill stroke markers" d=" M 488.38421659690624 90.170322216 L 488.38421659690624 58.505158896 L 532.4138722609063 58.505158896 L 532.4138722609063 90.170322216" stroke-miterlimit="10" stroke-width="2.5633703640000003" stroke-dasharray=""/><path fill="white" stroke="black" paint-order="fill stroke markers" d=" M 532.4138722609063 57.404417504399994 L 532.4127715286875 57.50393493047687 L 532.4094694421034 57.60344240489408 L 532.4039663313599 57.702929976987086 L 532.3962627467637 57.802387698081596 L 532.3863594586666 57.90180562248838 L 532.3742574573891 58.00117380849784 L 532.3599579531216 58.10048231937419 L 532.3434623758022 58.19972122434909 L 532.3247723749752 58.29888059961475 L 532.3038898196248 58.39795052931627 L 532.2808167979895 58.49692110654324 L 532.2555556173519 58.59578243432041 L 532.2281088038092 58.69452462659739 L 532.1984791020197 58.79313780923724 L 532.1666694749292 58.89161212100387 L 532.1326831034737 58.989937714548155 L 532.0965233862621 59.08810475739269 L 532.0581939392358 59.186103432915 L 532.0176985953078 59.28392394132919 L 531.9750414039786 59.38155650066594 L 531.9302266309318 59.478991347750664 L 531.8832587576075 59.576218739179865 L 531.8341424807536 59.67322895229542 L 531.7828827119572 59.77001228615685 L 531.7294845771522 59.86655906251143 L 531.6739534161078 59.96285962676197 L 531.6162947818937 60.0589043489323 L 531.5565144403251 60.15468362463025 L 531.4946183693867 60.250187876008056 L 531.4306127586337 60.345407552720175 L 531.3645040085742 60.440333132878266 L 531.2962987300277 60.53495512400344 L 531.2260037434654 60.62926406397542 L 531.1536260783275 60.72325052197881 L 531.0791729723201 60.816905099446124 L 531.0026518706916 60.910218430997666 L 530.9240704254886 61.00318118537804 L 530.8434364947901 61.09578406638928 L 530.760758141922 61.18801781382044 L 530.6760436346506 61.27987320437365 L 530.589301444356 61.3713410525864 L 530.500540245185 61.46241221175009 L 530.4097689131836 61.5530775748247 L 530.3169965254094 61.643328075349466 L 530.2222323590237 61.73315468834955 L 530.1254858903643 61.822548431238516 L 530.0267667939974 61.91150036471656 L 529.9260849417503 62.00000159366446 L 529.8234504017245 62.08804326803307 L 529.7188734372883 62.17561658372833 L 529.612364506051 62.26271278349164 L 529.5039342588171 62.34932315777561 L 529.3935935385209 62.43543904561498 L 529.2813533791425 62.521051835492734 L 529.1672250046043 62.60615296620123 L 529.0512198276487 62.690733927698304 L 528.9333494486965 62.774786261958305 L 528.8136256546876 62.85830156381783 L 528.6920604179015 62.941271481816315 L 528.5686658947607 63.02368771903109 L 528.4434544246145 63.1055420339071 L 528.3164385285057 63.186826241081086 L 528.1876309079182 63.26753221220006 L 528.0570444435065 63.34765187673417 L 527.9246921938083 63.42717722278372 L 527.7905873939382 63.50610029788039 L 527.6547434542646 63.58441320978242 L 527.517173959068 63.66210812726389 L 527.3778926651836 63.739177280897806 L 527.2369135006245 63.81561296383302 L 527.0942505631898 63.89140753256494 L 526.9499181190542 63.96655340769984 L 526.803930601342 64.04104307471285 L 526.6563026086833 64.11486908469932 L 526.5070489037543 64.1880240551198 L 526.356184411801 64.26050067053818 L 526.2037242191469 64.33229168335333 L 526.0496835716845 64.4033899145238 L 525.8940778733499 64.47378825428571 L 525.7369226845833 64.54347966286376 L 525.5782337207727 64.61245717117517 L 525.4180268506822 64.68071388152656 L 525.2563180948653 64.74824296830381 L 525.0931236240629 64.8150376786545 L 524.9284597575859 64.88109133316327 L 524.7623429616838 64.9463973265197 L 524.5947898478978 65.01094912817888 L 524.4258171713998 65.07474028301444 L 524.2554418293164 65.13776441196404 L 524.0836808590399 65.20001521266732 L 523.9105514365242 65.2614864600961 L 523.7360708745673 65.32217200717683 L 523.56025662108 65.3820657854054 L 523.3831262573411 65.44116180545389 L 523.2046974962394 65.49945415776952 L 523.0249881805024 65.55693701316567 L 522.8440162809118 65.61360462340468 L 522.6617998945067 65.66945132177275 L 522.478357242774 65.72447152364661 L 522.293706669826 65.77865972705189 L 522.1078666405659 65.83201051321342 L 521.9208557388422 65.88451854709703 L 521.7326926655888 65.9361785779431 L 521.5433962369566 65.9869854397916 L 521.3529853824305 66.03693405199866 L 521.1614791429371 66.08601941974472 L 520.9688966689412 66.13423663453388 L 520.7752572185293 66.18158087468484 L 520.5805801554853 66.22804740581307 L 520.3848849473533 66.27363158130416 L 520.1881911634908 66.31832884277853 L 519.9905184731126 66.3621347205473 L 519.7918866433228 66.40504483405921 L 519.5923155371389 66.44705489233864 L 519.3918251115052 66.48816069441477 L 519.1904354152972 66.52835812974169 L 518.9881665873168 66.56764317860932 L 518.7850388542779 66.60601191254551 L 518.581072528785 66.64346049470888 L 518.3762880073003 66.67998518027238 L 518.1707057681054 66.7155823167979 L 517.9643463692531 66.75024834460147 L 517.7572304465111 66.7839797971092 L 517.5493787112991 66.81677330120391 L 517.3408119486176 66.84862557756256 L 517.1315510149687 66.87953344098403 L 516.9216168362717 66.90949380070775 L 516.7110304057695 66.9385036607227 L 516.4998127819294 66.96656012006707 L 516.2879850863382 66.9936603731183 L 516.0755685015886 67.01980170987368 L 515.8625842691621 67.04498151622128 L 515.6490536873044 67.0691972742015 L 515.434998108896 67.09244656225869 L 515.2204389393162 67.11472705548341 L 515.0053976343032 67.13603652584493 L 514.7898956978082 67.15637284241396 L 514.5739546798454 67.1757339715758 L 514.3575961743365 67.19411797723365 L 514.1408418169519 67.21152302100226 L 513.9237132829467 67.22794736239179 L 513.7062322849932 67.24338935898176 L 513.4884205710102 67.25784746658539 L 513.2702999219874 67.27132023940396 L 513.0518921498079 67.28380633017143 L 512.8332190950672 67.29530449028911 L 512.6143026248882 67.3058135699506 L 512.3951646307357 67.31533251825665 L 512.1758270262264 67.3238603833204 L 511.95631174493815 67.33139631236241 L 511.7366407382159 67.3379395517961 L 511.51683597297745 67.34348944730294 L 511.29691942951604 67.34804544389803 L 511.07691309930277 67.3516070859855 L 510.85683898278734 67.3541740174041 L 510.63671908719806 67.35574598146285 L 510.41657542434103 67.35632282096664 L 510.19643000839903 67.35590447823199 L 509.97630485373026 67.35449099509283 L 509.7562219726667 67.35208251289632 L 509.53620337331307 67.34867927248864 L 509.316271057346 67.344281614191 L 509.0964470178138 67.33888997776559 L 508.87675323693713 67.33250490237154 L 508.65721168391116 67.32512702651107 L 508.43784431270814 67.31675708796561 L 508.2186730598824 67.30739592372207 L 507.9997198423766 67.29704446988903 L 507.78100655533 67.28570376160329 L 507.56255506988913 67.27337493292619 L 507.3443872310204 67.26005921673035 L 507.1265248553259 67.24575794457628 L 506.9089897288617 67.23047254657928 L 506.6918036049591 67.21420455126642 L 506.47498820204953 67.19695558542367 L 506.2585652014926 67.17872737393323 L 506.0425562454081 67.15952173960108 L 505.8269829345115 67.13934060297463 L 505.61186682595434 67.11818598215072 L 505.3972294311681 67.09605999257383 L 505.1830922137135 67.07296484682446 L 504.96947658713384 67.04890285439795 L 504.7564039128137 67.02387642147347 L 504.54389549784304 66.99788805067348 L 504.33197259288613 66.9709403408134 L 504.12065639005704 66.94303598664175 L 503.9099680207998 66.91417777857069 L 503.6999285537758 66.884368602397 L 503.4905589927568 66.85361143901343 L 503.2818802745243 66.82190936411071 L 503.07391326677634 66.7892655478699 L 502.8666787660403 66.75568325464543 L 502.6601974955936 66.72116584263863 L 502.45449010339127 66.68571676356193 L 502.24957716000097 66.6493395622937 L 502.04547915654643 66.61203787652377 L 501.8422165026578 66.57381543638961 L 501.63980952443114 66.5346760641034 L 501.4382784623956 66.49462367356972 L 501.2376434694894 66.4536622699943 L 501.0379246090447 66.4117959494833 L 500.8391418527811 66.36902889863394 L 500.6413150788085 66.32536539411564 L 500.44446406963954 66.28080980224246 L 500.248608510211 66.23536657853647 L 500.0537679859157 66.18904026728217 L 499.8599619806437 66.14183550107207 L 499.66720987483393 66.09375700034346 L 499.4755309435364 66.04480957290635 L 499.28494435448454 65.99499811346269 L 499.09546916617836 65.9443276031169 L 498.9071243259789 65.89280310887783 L 498.7199286682131 65.84042978315193 L 498.53390091229085 65.78721286322815 L 498.34905966083267 65.73315767075412 L 498.16542339780966 65.67826961120406 L 497.9830104866951 65.62255417333817 L 497.80183916862813 65.56601692865381 L 497.62192756058954 65.50866353082833 L 497.4432936535902 65.45049971515373 L 497.26595531087196 65.3915312979631 L 497.08993026612137 65.331764176049 L 496.9152361216961 65.27120432607386 L 496.74189034686515 65.20985780397217 L 496.5699102760615 65.14773074434505 L 496.3993131071488 65.08482935984667 L 496.23011589970196 65.02115994056305 L 496.0623355733006 64.9567288533831 L 495.89598890583756 64.89154254136182 L 495.731092531841 64.82560752307609 L 495.5676629408109 64.7589303919728 L 495.40571647557016 64.69151781570949 L 495.2452693306304 64.62337653548761 L 495.0863375505723 64.5545133653784 L 494.9289370284415 64.48493519164148 L 494.7730835041591 64.41464897203626 L 494.61879256294753 64.34366173512612 L 494.4660796337724 64.27198057957558 L 494.31495998779934 64.19961267344047 L 494.165448736867 64.12656525345112 L 494.01756083197597 64.05284562428861 L 493.87131106179345 63.97846115785447 L 493.72671405117455 63.90341929253332 L 493.5837842596998 63.82772753244919 L 493.4425359802294 63.751393446714985 L 493.30298333747345 63.67442466867568 L 493.16514028657997 63.59682889514493 L 493.0290206117392 63.51861388563544 L 492.8946379248052 63.439787461582966 L 492.7620056639346 63.36035750556424 L 492.631137092243 63.28033196050866 L 492.50204529647857 63.19971882890405 L 492.37474318571327 63.118526171996386 L 492.2492434900521 63.03676210898371 L 492.12555875936 62.95443481620418 L 492.003701362007 62.87155252631846 L 491.8836834836313 62.78812352748649 L 491.76551712592067 62.70415616253861 L 491.6492141054125 62.619658828141354 L 491.53478605231186 62.534639973957745 L 491.4222444093287 62.44910810180235 L 491.3116004305336 62.36307176479111 L 491.20286518023215 62.27653956648603 L 491.0960495318588 62.189520160034824 L 490.9911641668894 62.102022247305634 L 490.888219573773 62.014054578016804 L 490.7872260468831 61.92562594886197 L 490.6881936854884 61.83674520263035 L 490.5911323927423 61.7474212273225 L 490.4960518746933 61.657662955261515 L 490.40296163931396 61.567479362199805 L 490.3118709955502 61.47687946642152 L 490.2227890523905 61.38587232784074 L 490.13572471795504 61.29446704709548 L 490.0506866986046 61.202672764637654 L 489.96768349807024 61.110498659819 L 489.88672341660293 61.017953949973204 L 489.8078145501433 60.92504788949412 L 489.73096478951226 60.83178976891037 L 489.6561818196218 60.7381889139563 L 489.5834731187066 60.644254684639414 L 489.51284595757613 60.54999647430436 L 489.44430739888776 60.455423708693615 L 489.3778642964401 60.36054584500494 L 489.31352329448816 60.26537237094564 L 489.25129082707844 60.16991280378381 L 489.1911731174058 60.07417668939661 L 489.13317617719116 59.9781736013157 L 489.0773058060802 59.88191313976989 L 489.02356759106345 59.785404930725115 L 488.97196690591767 59.68865862492186 L 488.92250891066834 59.59168389691008 L 488.87519855107377 59.494490444081755 L 488.8300405581305 59.3970879857012 L 488.7870394476002 59.299486261933055 L 488.7461995195581 59.20169503286838 L 488.707524857963 59.103724077548584 L 488.6710193302487 59.00558319298756 L 488.6366865869377 58.907282193191975 L 488.6045300612756 58.80883090817989 L 488.57455296888827 58.710239182997775 L 488.5467583074599 58.611516876735976 L 488.52114885643357 58.51267386154286 L 488.4977271767329 58.41372002163757 L 488.47649561050645 58.31466525232164 L 488.4574562808931 58.215519458989455 L 488.44061109180996 58.11629255613773 L 488.42596172776183 58.01699446637406 L 488.41350965367303 57.917635119424666 L 488.40325611474054 57.818224451141454 L 488.3952021363097 57.7187724025084 L 488.3893485237716 57.6192889186475 L 488.38569586248275 57.51978394782424 L 488.38424451770607 57.42026744045276 L 488.3849946345749 57.3207493481009 L 488.38794613807823 57.221239622494934 L 488.39309873306814 57.12174821452452 L 488.40045190428935 57.02228507324753 L 488.410004916431 56.92286014489522 L 488.4217568141997 56.82348337187756 L 488.4357064224155 56.72416469178904 L 488.4518523461293 56.62491403641491 L 488.470192970762 56.52574133073799 L 488.4907264622666 56.42665649194621 L 488.513450767311 56.32766942844088 L 488.5383636134836 56.22879003884586 L 488.5654625095206 56.1300282110177 L 488.594744745555 56.031393821056895 L 488.6262073933874 55.932896732320245 L 488.6598473067795 55.83454679443454 L 488.69566112176784 55.73635384231161 L 488.7336452570008 55.63832769516483 L 488.7737959140965 55.54047815552725 L 488.8161090780227 55.442815008271275 L 488.8605805174983 55.34534801963025 L 488.90720578541635 55.24808693622182 L 488.95598021928896 55.15104148407327 L 489.00689894171336 55.054221367648935 L 489.05995686085976 54.957636268879796 L 489.11514867098043 54.861295846195226 L 489.1724688529404 54.76520973355722 L 489.2319116747692 54.66938753949697 L 489.2934711922342 54.57383884615402 L 489.35714124943496 54.47857320831808 L 489.42291547941875 54.38360015247356 L 489.4907873048175 54.288929175846896 L 489.5607499385052 54.19456974545685 L 489.6327963842767 54.10053129716784 L 489.70691943754747 54.00682323474632 L 489.78311168607405 53.913454928920444 L 489.861365510695 53.820435716442994 L 489.94167308609315 53.7277748991577 L 490.02402638157776 53.635481743069064 L 490.108417161888 53.5435654774158 L 490.19483698801616 53.45203529374787 L 490.28327721805164 53.36090034500735 L 490.3737290080451 53.2701697446132 L 490.4661833128929 53.17985256554982 L 490.5606308872417 53.08995783945988 L 490.65706228641267 53.00049455574105 L 490.75546786734634 52.911471660647166 L 490.8558377895665 52.82289805639355 L 490.9581620161647 52.73478260026681 L 491.06243031480346 52.64713410373914 L 491.1686322587399 52.55996133158715 L 491.276757227868 52.4732730010154 L 491.38679440978103 52.387077780784715 L 491.4987328008525 52.30138429034529 L 491.61256120733657 52.21620109897476 L 491.72826824648746 52.13153672492127 L 491.8458423476976 52.047399634551674 L 491.965271753655 51.963798241504904 L 492.0865445215184 51.88074090585058 L 492.20964852411225 51.79823593325307 L 492.3345714511388 51.71629157414086 L 492.4613008104094 51.6349160228816 L 492.5898239290938 51.55411741696258 L 492.7201279549872 51.47390383617708 L 492.85219985779565 51.394283301816316 L 492.98602643043887 51.315263775867386 L 493.12159429037115 51.23685316021703 L 493.2588898809194 51.159059295861475 L 493.3978994726391 51.081889962122325 L 493.5386091646868 51.005352875868645 L 493.68100488621064 50.92945569074528 L 493.8250723977571 50.8542059964075 L 493.97079729269507 50.77961131776203 L 494.1181649986565 50.70567911421457 L 494.26716077899357 50.63241677892386 L 494.4177697342525 50.559831638062384 L 494.56997680366317 50.487930950083744 L 494.72376676664555 50.41672190499681 L 494.8791242443314 50.34621162364676 L 495.03603370110255 50.276407157002964 L 495.194479446144 50.207315485453925 L 495.3544456350133 50.13894351810921 L 495.51591627122485 50.071298092108584 L 495.6788752078496 50.00438597193828 L 495.8433061491297 49.938213848754536 L 496.009192652108 49.87278833971455 L 496.17651812827256 49.80811598731469 L 496.34526584521507 49.74420325873631 L 496.5154189283045 49.68105654519901 L 496.68696036237435 49.61868216132152 L 496.8598729934241 49.557086344490244 L 497.03413953033487 49.496275254235535 L 497.2097425465981 49.436254971615746 L 497.3866644820585 49.37703149860913 L 497.56488764466997 49.31861075751362 L 497.74439421226475 49.260998590354646 L 497.92516623433573 49.20420075830092 L 498.10718563383125 49.148222941088314 L 498.2904342089631 49.0930707364519 L 498.47489363502655 49.03874965956618 L 498.6605454662326 48.985265142493574 L 498.8473711375528 48.93262253364123 L 499.03535196657583 48.880827097226145 L 499.22446915537535 48.82988401274882 L 499.4147037923901 48.779798374475234 L 499.60603685431494 48.73057519092748 L 499.7984492080031 48.6822193843829 L 499.99192161237954 48.634735790381846 L 500.18643472036507 48.58812915724415 L 500.38196908081096 48.54240414559428 L 500.5785051404441 48.497565327895316 L 500.7760232458224 48.45361718799164 L 500.9745036452998 48.41056412066064 L 501.1739264910018 48.36841043117315 L 501.37427184081 48.32716033486301 L 501.57551966035646 48.28681795670546 L 501.77764982502686 48.247387330904715 L 501.9806421219731 48.20887240049048 L 502.1844762521348 48.17127701692371 L 502.3891318322687 48.13460493971143 L 502.5945883969873 48.0988598360308 L 502.8008254008055 48.06404528036239 L 503.0078222201946 48.030164754132784 L 503.2155581556453 47.997221645366345 L 503.42401243373706 47.96521924834651 L 503.63316420921586 47.9341607632863 L 503.8429925670784 47.90404929600835 L 504.0534765246637 47.87488785763429 L 504.26459503375156 47.846679364283666 L 504.47632698266693 47.819426636782296 L 504.68865119839126 47.793132400380216 L 504.90154644868005 47.76779928447917 L 505.1149914441856 47.74342982236962 L 505.3289648405863 47.72002645097748 L 505.54344524072076 47.69759151062038 L 505.7584111967277 47.67612724477367 L 505.9738412121907 47.65563579984603 L 506.1897137442877 47.636119224964894 L 506.4060072059454 47.61757947177148 L 506.62269996799785 47.60001839422566 L 506.8397703613495 47.58343774842055 L 507.05719667914184 47.567839192406915 L 507.27495717892424 47.55322428602736 L 507.4930300848283 47.53959449076034 L 507.7113935897451 47.52695116957402 L 507.93002585750605 47.515295586789996 L 508.1489050250667 47.50462890795682 L 508.3680092046926 47.4949521997335 L 508.5873164861484 47.48626642978277 L 508.8068049388887 47.47857246667442 L 509.0264526142511 47.47187107979833 L 509.2462375476512 47.4661629392876 L 509.4661377607788 47.46144861595154 L 509.68613126379574 47.45772858121853 L 509.90619605753506 47.45500320708897 L 510.12631013570086 47.45327276609799 L 510.3464514870687 47.45253743128824 L 510.5665980976869 47.4527972761926 L 510.78672795307784 47.45405227482679 L 511.0068190404394 47.45630230169199 L 511.2268493508463 47.4595471317874 L 511.4467968814509 47.4637864406327 L 511.6666396376833 47.46901980430055 L 511.88635563545114 47.475246699458935 L 512.1059229033378 47.48246650342354 L 512.3253194847994 47.49067849421997 L 512.5445234403606 47.499881850656 L 512.7635128498085 47.51007565240366 L 512.9822658143848 47.52125888009125 L 513.2007604589752 47.533430415405334 L 513.4189749342974 47.54658904120252 L 513.6368874190856 47.56073344163121 L 513.854476122273 47.575862202263124 L 514.0717192851705 47.59197381023482 L 514.288595183643 47.609066654398916 L 514.5050821302813 47.62713902548525 L 514.7211584765712 47.64618911627178 L 514.936802615058 47.66621502176528 L 515.1519929815076 47.687214739391905 L 515.3667080570629 47.709186169197395 L 515.5809263703949 47.732127114057064 L 515.794626499851 47.756035279895556 L 516.0077870755964 47.78090827591621 L 516.220386781751 47.806743614840144 L 516.4324043585215 47.833538713155 L 516.6438186043267 47.86129089137327 L 516.8546083779183 47.88999737430027 L 517.0647526004948 47.91965529131163 L 517.2742302578088 47.950261676640345 L 517.4830204022692 47.9818134696734 L 517.6911021550354 48.014307515257784 L 517.8984547081059 48.047740564016024 L 518.1050573263979 48.08210927267109 L 518.3108893498218 48.11741020438076 L 518.5159301953468 48.1536398290813 L 518.7201593590592 48.1907945238404 L 518.9235564182128 48.228870573219574 L 519.1261010332712 48.2678641696456 L 519.3277729499417 48.30777141379133 L 519.5285520012008 48.34858831496561 L 519.7284181093104 48.39031079151233 L 519.9273512878265 48.43293467121861 L 520.1253316435968 48.476455691732 L 520.322339378751 48.520869500986706 L 520.5183547926796 48.56617165763883 L 520.7133582840045 48.61235763151045 L 520.9073303525391 48.65942280404266 L 521.1002516012383 48.70736246875744 L 521.2921027381378 48.75617183172826 L 521.482864578284 48.8058460120595 L 521.6725180456516 48.85638004237452 L 521.8610441750521 48.907768869312406 L 522.0484241140298 48.96000735403328 L 522.2346391247465 49.01309027273221 L 522.4196705858568 49.06701231716155 L 522.6034999943685 49.1217680951618 L 522.786108967494 49.17735213120079 L 522.9674792444881 49.23375886692124 L 523.1475926884743 49.290982661696574 L 523.3264312882584 49.34901779319501 L 523.5039771601292 49.407858457951754 L 523.6802125496478 49.467498771949366 L 523.8551198334218 49.52793277120614 L 524.0286815208688 49.58915441237252 L 524.2008802559645 49.65115757333541 L 524.3716988189791 49.71393605383038 L 524.5411201281984 49.777483576061684 L 524.7091272416328 49.841793785330076 L 524.8757033587111 49.9068602506682 L 525.0408318219602 49.97267646548376 L 525.2044961186714 50.03923584821011 L 525.3666798825515 50.10653174296445 L 525.5273668953591 50.17455742021338 L 525.6865410885271 50.24330607744587 L 525.8441865447686 50.31277083985348 L 526.0002874996695 50.38294476101786 L 526.1548283432643 50.45382082360537 L 526.3077936215974 50.525391940068815 L 526.4591680382684 50.59765095335619 L 526.608936455962 50.67059063762638 L 526.757083897961 50.744203698971745 L 526.9035955496448 50.81848277614749 L 527.0484567599702 50.89342044130781 L 527.191653042937 50.969009200748616 L 527.3331700790362 51.045241495656974 L 527.4729937166821 51.12210970286691 L 527.6111099736275 51.19960613562175 L 527.7475050383617 51.277723044342814 L 527.8821652714921 51.35645261740432 L 528.0150772071073 51.435786981914575 L 528.1462275541248 51.51571820450324 L 528.2756031976189 51.596238292114656 L 528.4031912001333 51.67733919280717 L 528.528978802974 51.759012796558295 L 528.6529534274855 51.84125093607571 L 528.7751026763086 51.92404538761401 L 528.8954143346205 52.007387871797015 L 529.0138763713552 52.09127005444578 L 529.130476940408 52.17568354741193 L 529.2452043818192 52.26061990941651 L 529.3580472229402 52.34607064689411 L 529.4689941795808 52.432027214842186 L 529.578034157138 52.51848101767557 L 529.6851562517048 52.605423410086026 L 529.790349751161 52.69284569790677 L 529.8936041362443 52.78073913898186 L 529.9949090816024 52.86909494404044 L 530.094254456825 52.957904277575636 L 530.1916303274575 53.0471582587281 L 530.2870269559937 53.136847962174095 L 530.3804348028507 53.22696441901801 L 530.4718445273213 53.31749861768927 L 530.5612469885093 53.408441504843445 L 530.6486332462432 53.49978398626761 L 530.7339945619699 53.59151692778973 L 530.817322399629 53.68363115619211 L 530.8986084265063 53.77611746012866 L 530.9778445140668 53.868966591046075 L 531.0550227387675 53.96216926410862 L 531.1301353828507 54.05571615912666 L 531.2031749351142 54.149597921488656 L 531.2741340916639 54.243805163096596 L 531.3430057566432 54.33832846330484 L 531.4097830429429 54.43315836986213 L 531.47445927289 54.52828539985682 L 531.5370279789156 54.623700040665206 L 531.5974829042011 54.719392750902706 L 531.6558180033044 54.815353961378044 L 531.7120274427642 54.91157407605014 L 531.7661056016833 55.0080434729877 L 531.818047072291 55.10475250533143 L 531.8678466604835 55.20169150225869 L 531.9154993863434 55.29885076995057 L 531.9610004846379 55.39622059256126 L 532.004345405295 55.49379123318963 L 532.0455298138588 55.591552934852956 L 532.084549591923 55.68949592146251 L 532.1214008375418 55.78761039880126 L 532.1560798656219 55.88588655550324 L 532.188583208289 55.98431456403467 L 532.218907615236 56.08288458167672 L 532.2470500540476 56.18158675150977 L 532.2730077105033 56.28041120339909 L 532.296777988859 56.37934805498184 L 532.3183585121069 56.47838741265531 L 532.3377471222125 56.57751937256626 L 532.3549418803308 56.67673402160132 L 532.3699410670006 56.77602143837825 L 532.3827431823156 56.87537169423813 L 532.393346946075 56.974774854238156 L 532.4017512979111 57.074220978145156 L 532.4079553973959 57.173700121429626 L 532.4119586241245 57.27320233626013 L 532.4137605777776 57.3727176724981 M 532.4138722609063 89.0695808244 L 532.4127715286875 89.16909825047689 L 532.4094694421034 89.26860572489409 L 532.4039663313599 89.3680932969871 L 532.3962627467637 89.46755101808161 L 532.3863594586666 89.56696894248839 L 532.3742574573891 89.66633712849786 L 532.3599579531216 89.7656456393742 L 532.3434623758022 89.86488454434911 L 532.3247723749752 89.96404391961477 L 532.3038898196248 90.06311384931628 L 532.2808167979895 90.16208442654325 L 532.2555556173519 90.26094575432042 L 532.2281088038092 90.3596879465974 L 532.1984791020197 90.45830112923726 L 532.1666694749292 90.55677544100388 L 532.1326831034737 90.65510103454817 L 532.0965233862621 90.7532680773927 L 532.0581939392358 90.85126675291501 L 532.0176985953078 90.9490872613292 L 531.9750414039786 91.04671982066594 L 531.9302266309318 91.14415466775068 L 531.8832587576075 91.24138205917988 L 531.8341424807536 91.33839227229542 L 531.7828827119572 91.43517560615686 L 531.7294845771522 91.53172238251143 L 531.6739534161078 91.62802294676199 L 531.6162947818937 91.72406766893232 L 531.5565144403251 91.81984694463027 L 531.4946183693867 91.91535119600807 L 531.4306127586337 92.01057087272018 L 531.3645040085742 92.10549645287828 L 531.2962987300277 92.20011844400345 L 531.2260037434654 92.29442738397543 L 531.1536260783275 92.38841384197882 L 531.0791729723201 92.48206841944614 L 531.0026518706916 92.57538175099768 L 530.9240704254886 92.66834450537806 L 530.8434364947901 92.76094738638929 L 530.760758141922 92.85318113382046 L 530.6760436346506 92.94503652437366 L 530.589301444356 93.0365043725864 L 530.500540245185 93.1275755317501 L 530.4097689131836 93.2182408948247 L 530.3169965254094 93.30849139534948 L 530.2222323590237 93.39831800834956 L 530.1254858903643 93.48771175123852 L 530.0267667939974 93.57666368471656 L 529.9260849417503 93.66516491366447 L 529.8234504017245 93.75320658803308 L 529.7188734372883 93.84077990372833 L 529.612364506051 93.92787610349166 L 529.5039342588171 94.01448647777562 L 529.3935935385209 94.10060236561499 L 529.2813533791425 94.18621515549275 L 529.1672250046043 94.27131628620124 L 529.0512198276487 94.35589724769832 L 528.9333494486965 94.43994958195832 L 528.8136256546876 94.52346488381785 L 528.6920604179015 94.60643480181633 L 528.5686658947607 94.68885103903109 L 528.4434544246145 94.77070535390712 L 528.3164385285057 94.8519895610811 L 528.1876309079182 94.93269553220007 L 528.0570444435065 95.01281519673418 L 527.9246921938083 95.09234054278373 L 527.7905873939382 95.1712636178804 L 527.6547434542646 95.24957652978243 L 527.517173959068 95.32727144726391 L 527.3778926651836 95.40434060089783 L 527.2369135006245 95.48077628383304 L 527.0942505631898 95.55657085256495 L 526.9499181190542 95.63171672769985 L 526.803930601342 95.70620639471286 L 526.6563026086833 95.78003240469934 L 526.5070489037543 95.8531873751198 L 526.356184411801 95.92566399053818 L 526.2037242191469 95.99745500335334 L 526.0496835716845 96.06855323452382 L 525.8940778733499 96.13895157428573 L 525.7369226845833 96.20864298286378 L 525.5782337207727 96.27762049117517 L 525.4180268506822 96.34587720152658 L 525.2563180948653 96.41340628830382 L 525.0931236240629 96.48020099865451 L 524.9284597575859 96.54625465316329 L 524.7623429616838 96.6115606465197 L 524.5947898478978 96.67611244817888 L 524.4258171713998 96.73990360301444 L 524.2554418293164 96.80292773196405 L 524.0836808590399 96.86517853266734 L 523.9105514365242 96.92664978009611 L 523.7360708745673 96.98733532717685 L 523.56025662108 97.0472291054054 L 523.3831262573411 97.10632512545389 L 523.2046974962394 97.16461747776954 L 523.0249881805024 97.22210033316568 L 522.8440162809118 97.27876794340469 L 522.6617998945067 97.33461464177277 L 522.478357242774 97.38963484364662 L 522.293706669826 97.4438230470519 L 522.1078666405659 97.49717383321342 L 521.9208557388422 97.54968186709704 L 521.7326926655888 97.60134189794312 L 521.5433962369566 97.6521487597916 L 521.3529853824305 97.70209737199868 L 521.1614791429371 97.75118273974472 L 520.9688966689412 97.79939995453388 L 520.7752572185293 97.84674419468486 L 520.5805801554853 97.89321072581308 L 520.3848849473533 97.93879490130416 L 520.1881911634908 97.98349216277855 L 519.9905184731126 98.02729804054732 L 519.7918866433228 98.07020815405922 L 519.5923155371389 98.11221821233865 L 519.3918251115052 98.15332401441479 L 519.1904354152972 98.1935214497417 L 518.9881665873168 98.23280649860932 L 518.7850388542779 98.27117523254553 L 518.581072528785 98.30862381470888 L 518.3762880073003 98.34514850027239 L 518.1707057681054 98.38074563679791 L 517.9643463692531 98.41541166460149 L 517.7572304465111 98.4491431171092 L 517.5493787112991 98.48193662120391 L 517.3408119486176 98.51378889756256 L 517.1315510149687 98.54469676098404 L 516.9216168362717 98.57465712070776 L 516.7110304057695 98.60366698072272 L 516.4998127819294 98.63172344006709 L 516.2879850863382 98.65882369311832 L 516.0755685015886 98.6849650298737 L 515.8625842691621 98.7101448362213 L 515.6490536873044 98.73436059420152 L 515.434998108896 98.75760988225869 L 515.2204389393162 98.77989037548343 L 515.0053976343032 98.80119984584495 L 514.7898956978082 98.82153616241398 L 514.5739546798454 98.8408972915758 L 514.3575961743365 98.85928129723365 L 514.1408418169519 98.87668634100228 L 513.9237132829467 98.89311068239181 L 513.7062322849932 98.90855267898178 L 513.4884205710102 98.92301078658541 L 513.2702999219874 98.93648355940398 L 513.0518921498079 98.94896965017145 L 512.8332190950672 98.96046781028913 L 512.6143026248882 98.9709768899506 L 512.3951646307357 98.98049583825666 L 512.1758270262264 98.9890237033204 L 511.95631174493815 98.99655963236242 L 511.7366407382159 99.0031028717961 L 511.51683597297745 99.00865276730295 L 511.29691942951604 99.01320876389804 L 511.07691309930277 99.01677040598551 L 510.85683898278734 99.01933733740412 L 510.63671908719806 99.02090930146286 L 510.41657542434103 99.02148614096664 L 510.19643000839903 99.021067798232 L 509.97630485373026 99.01965431509285 L 509.7562219726667 99.01724583289632 L 509.53620337331307 99.01384259248866 L 509.316271057346 99.00944493419102 L 509.0964470178138 99.00405329776561 L 508.87675323693713 98.99766822237156 L 508.65721168391116 98.99029034651109 L 508.43784431270814 98.98192040796563 L 508.2186730598824 98.97255924372207 L 507.9997198423766 98.96220778988905 L 507.78100655533 98.95086708160329 L 507.56255506988913 98.93853825292621 L 507.3443872310204 98.92522253673036 L 507.1265248553259 98.91092126457629 L 506.9089897288617 98.8956358665793 L 506.6918036049591 98.87936787126644 L 506.47498820204953 98.86211890542369 L 506.2585652014926 98.84389069393325 L 506.0425562454081 98.8246850596011 L 505.8269829345115 98.80450392297463 L 505.61186682595434 98.78334930215074 L 505.3972294311681 98.76122331257385 L 505.1830922137135 98.73812816682448 L 504.96947658713384 98.71406617439796 L 504.7564039128137 98.6890397414735 L 504.54389549784304 98.6630513706735 L 504.33197259288613 98.6361036608134 L 504.12065639005704 98.60819930664177 L 503.9099680207998 98.57934109857071 L 503.6999285537758 98.54953192239701 L 503.4905589927568 98.51877475901345 L 503.2818802745243 98.48707268411073 L 503.07391326677634 98.45442886786992 L 502.8666787660403 98.42084657464544 L 502.6601974955936 98.38632916263863 L 502.45449010339127 98.35088008356193 L 502.24957716000097 98.31450288229371 L 502.04547915654643 98.27720119652378 L 501.8422165026578 98.23897875638961 L 501.63980952443114 98.1998393841034 L 501.4382784623956 98.15978699356974 L 501.2376434694894 98.1188255899943 L 501.0379246090447 98.07695926948332 L 500.8391418527811 98.03419221863396 L 500.6413150788085 97.99052871411565 L 500.44446406963954 97.94597312224248 L 500.248608510211 97.90052989853648 L 500.0537679859157 97.85420358728217 L 499.8599619806437 97.80699882107207 L 499.66720987483393 97.75892032034346 L 499.4755309435364 97.70997289290635 L 499.28494435448454 97.66016143346269 L 499.09546916617836 97.60949092311692 L 498.9071243259789 97.55796642887785 L 498.7199286682131 97.50559310315195 L 498.53390091229085 97.45237618322817 L 498.34905966083267 97.39832099075414 L 498.16542339780966 97.34343293120408 L 497.9830104866951 97.28771749333818 L 497.80183916862813 97.23118024865381 L 497.62192756058954 97.17382685082835 L 497.4432936535902 97.11566303515374 L 497.26595531087196 97.0566946179631 L 497.08993026612137 96.99692749604901 L 496.9152361216961 96.93636764607388 L 496.74189034686515 96.87502112397219 L 496.5699102760615 96.81289406434506 L 496.3993131071488 96.74999267984667 L 496.23011589970196 96.68632326056307 L 496.0623355733006 96.62189217338312 L 495.89598890583756 96.55670586136183 L 495.731092531841 96.4907708430761 L 495.5676629408109 96.4240937119728 L 495.40571647557016 96.3566811357095 L 495.2452693306304 96.28853985548761 L 495.0863375505723 96.21967668537842 L 494.9289370284415 96.1500985116415 L 494.7730835041591 96.07981229203628 L 494.61879256294753 96.00882505512612 L 494.4660796337724 95.93714389957559 L 494.31495998779934 95.86477599344049 L 494.165448736867 95.79172857345112 L 494.01756083197597 95.71800894428863 L 493.87131106179345 95.64362447785447 L 493.72671405117455 95.56858261253333 L 493.5837842596998 95.4928908524492 L 493.4425359802294 95.41655676671499 L 493.30298333747345 95.33958798867569 L 493.16514028657997 95.26199221514494 L 493.0290206117392 95.18377720563545 L 492.8946379248052 95.10495078158299 L 492.7620056639346 95.02552082556426 L 492.631137092243 94.94549528050867 L 492.50204529647857 94.86488214890406 L 492.37474318571327 94.7836894919964 L 492.2492434900521 94.70192542898371 L 492.12555875936 94.61959813620419 L 492.003701362007 94.53671584631847 L 491.8836834836313 94.4532868474865 L 491.76551712592067 94.36931948253863 L 491.6492141054125 94.28482214814137 L 491.53478605231186 94.19980329395776 L 491.4222444093287 94.11427142180236 L 491.3116004305336 94.02823508479112 L 491.20286518023215 93.94170288648604 L 491.0960495318588 93.85468348003484 L 490.9911641668894 93.76718556730565 L 490.888219573773 93.67921789801682 L 490.7872260468831 93.59078926886198 L 490.6881936854884 93.50190852263036 L 490.5911323927423 93.41258454732251 L 490.4960518746933 93.32282627526152 L 490.40296163931396 93.23264268219981 L 490.3118709955502 93.14204278642153 L 490.2227890523905 93.05103564784075 L 490.13572471795504 92.9596303670955 L 490.0506866986046 92.86783608463767 L 489.96768349807024 92.77566197981902 L 489.88672341660293 92.68311726997321 L 489.8078145501433 92.59021120949413 L 489.73096478951226 92.49695308891037 L 489.6561818196218 92.40335223395631 L 489.5834731187066 92.30941800463943 L 489.51284595757613 92.21515979430437 L 489.44430739888776 92.12058702869363 L 489.3778642964401 92.02570916500495 L 489.31352329448816 91.93053569094566 L 489.25129082707844 91.83507612378382 L 489.1911731174058 91.73934000939661 L 489.13317617719116 91.64333692131571 L 489.0773058060802 91.5470764597699 L 489.02356759106345 91.45056825072513 L 488.97196690591767 91.35382194492188 L 488.92250891066834 91.25684721691009 L 488.87519855107377 91.15965376408177 L 488.8300405581305 91.06225130570121 L 488.7870394476002 90.96464958193306 L 488.7461995195581 90.86685835286839 L 488.707524857963 90.7688873975486 L 488.6710193302487 90.67074651298756 L 488.6366865869377 90.57244551319198 L 488.6045300612756 90.4739942281799 L 488.57455296888827 90.37540250299779 L 488.5467583074599 90.276680196736 L 488.52114885643357 90.17783718154287 L 488.4977271767329 90.07888334163758 L 488.47649561050645 89.97982857232165 L 488.4574562808931 89.88068277898947 L 488.44061109180996 89.78145587613774 L 488.42596172776183 89.68215778637406 L 488.41350965367303 89.58279843942468 L 488.40325611474054 89.48338777114147 L 488.3952021363097 89.38393572250841 L 488.3893485237716 89.28445223864752 L 488.38569586248275 89.18494726782424 L 488.38424451770607 89.08543076045278" stroke-miterlimit="10" stroke-width="2.5633703640000003" stroke-dasharray=""/></g><g><g/><text fill="black" stroke="none" font-family="sans-serif" font-size="11pt" font-style="normal" font-weight="normal" text-decoration="normal" x="476.5887645827148" y="115.200879888" text-anchor="start" dominant-baseline="alphabetic" xml:space="preserve">BuildStore</text></g></g><g><path fill="white" stroke="black" paint-order="fill stroke markers" d=" M 98.0112198 127.263799248 L 113.08986900000001 127.263799248 L 113.08986900000001 443.9154324480001 L 98.0112198 443.9154324480001 L 98.0112198 127.263799248" stroke-miterlimit="10" stroke-width="1.2565541" stroke-dasharray=""/><path fill="white" stroke="black" paint-order="fill stroke markers" d=" M 502.85971982890624 127.263799248 L 517.9383690289062 127.263799248 L 517.9383690289062 443.9154324480001 L 502.85971982890624 443.9154324480001 L 502.85971982890624 127.263799248" stroke-miterlimit="10" stroke-width="1.2565541" stroke-dasharray=""/><g><g><rect fill="white" stroke="none" x="140.4115443977344" y="190.59412588799998" width="335.1265000334375" height="19.602243960000003"/></g><text fill="black" stroke="none" font-family="sans-serif" font-size="11pt" font-style="normal" font-weight="normal" text-decoration="normal" x="142.67334177773438" y="204.16491016799998" text-anchor="start" dominant-baseline="alphabetic" xml:space="preserve">get all Dependencies objects "d" with lease not null</text></g><g><path fill="none" stroke="black" paint-order="fill stroke markers" d=" M 113.08986900000001 210.196369848 L 490.44496532090625 210.196369848" stroke-miterlimit="10" stroke-width="1.2565541" stroke-dasharray=""/><g transform="translate(502.85971982890624,210.196369848) translate(-502.85971982890624,-210.196369848)"><path fill="black" stroke="none" paint-order="stroke fill markers" d=" M 490.29417882890624 203.913599348 L 502.85971982890624 210.196369848 L 490.29417882890624 216.479140348 Z"/></g></g><g><g><rect fill="white" stroke="none" x="166.7935024055469" y="314.239049328" width="282.3625840178125" height="19.602243960000003"/></g><text fill="black" stroke="none" font-family="sans-serif" font-size="11pt" font-style="normal" font-weight="normal" text-decoration="normal" x="169.05529978554688" y="327.8098336080001" text-anchor="start" dominant-baseline="alphabetic" xml:space="preserve">reset the lease of the Dependencies object</text></g><g><path fill="none" stroke="black" paint-order="fill stroke markers" d=" M 113.08986900000001 333.84129328800003 L 490.44496532090625 333.84129328800003" stroke-miterlimit="10" stroke-width="1.2565541" stroke-dasharray=""/><g transform="translate(502.85971982890624,333.84129328800003) translate(-502.85971982890624,-333.84129328800003)"><path fill="black" stroke="none" paint-order="stroke fill markers" d=" M 490.29417882890624 327.558522788 L 502.85971982890624 333.84129328800003 L 490.29417882890624 340.12406378800006 Z"/></g></g><g><g><rect fill="white" stroke="none" x="130.93293722" y="356.45926708800005" width="354.08371438890623" height="19.602243960000003"/></g><text fill="black" stroke="none" font-family="sans-serif" font-size="11pt" font-style="normal" font-weight="normal" text-decoration="normal" x="133.1947346" y="370.03005136800004" text-anchor="start" dominant-baseline="alphabetic" xml:space="preserve">enqueue the Dependencies object id in the BuildStore</text></g><g><path fill="none" stroke="black" paint-order="fill stroke markers" d=" M 113.08986900000001 376.06151104800006 L 490.44496532090625 376.06151104800006" stroke-miterlimit="10" stroke-width="1.2565541" stroke-dasharray=""/><g transform="translate(502.85971982890624,376.06151104800006) translate(-502.85971982890624,-376.06151104800006)"><path fill="black" stroke="none" paint-order="stroke fill markers" d=" M 490.29417882890624 369.77874054800003 L 502.85971982890624 376.06151104800006 L 490.29417882890624 382.3442815480001 Z"/></g></g><g><g/><path fill="none" stroke="black" paint-order="fill stroke markers" d=" M 22.6179738 149.88177304799999 L 585.7922904289062 149.88177304799999 L 585.7922904289062 443.91543244800016 L 22.6179738 443.91543244800016 L 22.6179738 149.88177304799999 Z" stroke-miterlimit="10" stroke-width="2.154092742857143" stroke-dasharray=""/><path fill="white" stroke="black" paint-order="fill stroke markers" d=" M 22.6179738 149.88177304799999 L 22.6179738 167.976152088 L 77.50595457304688 167.976152088 L 86.55314409304688 158.92896256799997 L 86.55314409304688 149.88177304799999 L 22.6179738 149.88177304799999" stroke-miterlimit="10" stroke-width="2.154092742857143" stroke-dasharray=""/><text fill="black" stroke="none" font-family="sans-serif" font-size="8.8pt" font-style="normal" font-weight="bold" text-decoration="normal" x="37.696623" y="161.94469240799998" text-anchor="start" dominant-baseline="alphabetic" xml:space="preserve">loop</text><g><rect fill="white" stroke="none" x="99.36999591304688" y="151.08806498399997" width="104.17302408128906" height="15.681795168000004"/></g><text fill="black" stroke="none" font-family="sans-serif" font-size="8.8pt" font-style="normal" font-weight="bold" text-decoration="normal" x="101.63179329304688" y="161.94469240799998" text-anchor="start" dominant-baseline="alphabetic" xml:space="preserve">[every n seconds]</text></g><g><g/><path fill="none" stroke="black" paint-order="fill stroke markers" d=" M 37.696623 232.81434364799998 L 570.7136412289062 232.81434364799998 L 570.7136412289062 421.2974586480001 L 37.696623 421.2974586480001 L 37.696623 232.81434364799998 Z" stroke-miterlimit="10" stroke-width="2.154092742857143" stroke-dasharray=""/><path fill="white" stroke="black" paint-order="fill stroke markers" d=" M 37.696623 232.81434364799998 L 37.696623 250.90872268799998 L 92.58460377304688 250.90872268799998 L 101.63179329304688 241.86153316799997 L 101.63179329304688 232.81434364799998 L 37.696623 232.81434364799998" stroke-miterlimit="10" stroke-width="2.154092742857143" stroke-dasharray=""/><text fill="black" stroke="none" font-family="sans-serif" font-size="8.8pt" font-style="normal" font-weight="bold" text-decoration="normal" x="52.7752722" y="244.87726300799997" text-anchor="start" dominant-baseline="alphabetic" xml:space="preserve">loop</text><g><rect fill="white" stroke="none" x="114.44864511304688" y="234.02063558399996" width="163.40764322191407" height="15.681795168000004"/></g><text fill="black" stroke="none" font-family="sans-serif" font-size="8.8pt" font-style="normal" font-weight="bold" text-decoration="normal" x="116.71044249304688" y="244.87726300799997" text-anchor="start" dominant-baseline="alphabetic" xml:space="preserve">[for each dependencies in d]</text></g><g><g/><path fill="none" stroke="black" paint-order="fill stroke markers" d=" M 52.7752722 273.526696488 L 555.6349920289063 273.526696488 L 555.6349920289063 398.6794848480001 L 52.7752722 398.6794848480001 L 52.7752722 273.526696488 Z" stroke-miterlimit="10" stroke-width="2.154092742857143" stroke-dasharray=""/><path fill="white" stroke="black" paint-order="fill stroke markers" d=" M 52.7752722 273.526696488 L 52.7752722 291.621075528 L 101.151564740625 291.621075528 L 110.19875426062501 282.57388600800004 L 110.19875426062501 273.526696488 L 52.7752722 273.526696488" stroke-miterlimit="10" stroke-width="2.154092742857143" stroke-dasharray=""/><text fill="black" stroke="none" font-family="sans-serif" font-size="8.8pt" font-style="normal" font-weight="bold" text-decoration="normal" x="67.8539214" y="285.589615848" text-anchor="start" dominant-baseline="alphabetic" xml:space="preserve">opt</text><g><rect fill="white" stroke="none" x="123.015606080625" y="274.732988424" width="231.45421304613282" height="15.681795168000004"/></g><text fill="black" stroke="none" font-family="sans-serif" font-size="8.8pt" font-style="normal" font-weight="bold" text-decoration="normal" x="125.27740346062501" y="285.589615848" text-anchor="start" dominant-baseline="alphabetic" xml:space="preserve">[dependencies.lease - now() &gt; threshold]</text></g></g><g/><g/></g></svg>