<svg version="1.1" xmlns="http://www.w3.org/2000/svg" viewBox="0 0 1469.2817754804034 1416.4345351165118" width="1469.2817754804034" height="1416.4345351165118">
  <!-- svg-source:excalidraw -->
  
  <defs>
    <style class="style-fonts">
      @font-face {
        font-family: "Virgil";
        src: url("https://excalidraw.com/Virgil.woff2");
      }
      @font-face {
        font-family: "Cascadia";
        src: url("https://excalidraw.com/Cascadia.woff2");
      }
      @font-face {
        font-family: "Assistant";
        src: url("https://excalidraw.com/Assistant-Regular.woff2");
      }
    </style>
    
  </defs>
  <rect x="0" y="0" width="1469.2817754804034" height="1416.4345351165118" fill="#ffffff"></rect><g transform="translate(593.7204092342811 62.17231258929962) rotate(0 74.85416412353516 12.500000000000057)"><text x="0" y="0" font-family="Virgil, Segoe UI Emoji" font-size="20px" fill="#1e1e1e" text-anchor="start" style="white-space: pre;" direction="ltr" dominant-baseline="text-before-edge">RequestHandler</text></g><g stroke-linecap="round"><g transform="translate(508.98933522912967 150.32346609240744) rotate(0 -28.795774535859977 26.877821812342972)"><path d="M0.63 0.61 C-8.87 9.7, -47.73 44.97, -57.45 53.81 M-0.49 -0.12 C-10.11 9.24, -48.66 46.21, -58.32 55.37" stroke="#1e1e1e" stroke-width="4" fill="none"></path></g><g transform="translate(508.98933522912967 150.32346609240744) rotate(0 -28.795774535859977 26.877821812342972)"><path d="M-47.23 32.96 C-49.3 39.21, -53.18 44.81, -58.32 55.37 M-47.23 32.96 C-49.56 40.23, -53.86 45.69, -58.32 55.37" stroke="#1e1e1e" stroke-width="4" fill="none"></path></g><g transform="translate(508.98933522912967 150.32346609240744) rotate(0 -28.795774535859977 26.877821812342972)"><path d="M-35.43 45.33 C-40.56 48.36, -47.57 50.67, -58.32 55.37 M-35.43 45.33 C-41.15 48.99, -48.85 50.89, -58.32 55.37" stroke="#1e1e1e" stroke-width="4" fill="none"></path></g></g><mask></mask><g stroke-linecap="round"><g transform="translate(844.9446961019531 695.5156958543744) rotate(0 106.83093518005319 -4.681802403681672)"><path d="M-0.85 0.38 C16.93 -0.33, 71.41 -2.57, 107.33 -4.2 C143.25 -5.82, 196.83 -8.55, 214.65 -9.37 M0.91 -0.46 C18.49 -1.56, 70.94 -4.87, 106.52 -6.14 C142.11 -7.41, 196.35 -7.77, 214.41 -8.06" stroke="#1e1e1e" stroke-width="4" fill="none"></path></g><g transform="translate(844.9446961019531 695.5156958543744) rotate(0 106.83093518005319 -4.681802403681672)"><path d="M191.02 0.78 C200.02 -1.77, 208.31 -3.72, 214.41 -8.06 M191.02 0.78 C198.1 -2.42, 205.14 -4.23, 214.41 -8.06" stroke="#1e1e1e" stroke-width="4" fill="none"></path></g><g transform="translate(844.9446961019531 695.5156958543744) rotate(0 106.83093518005319 -4.681802403681672)"><path d="M190.81 -16.32 C199.89 -12.76, 208.26 -8.59, 214.41 -8.06 M190.81 -16.32 C198.05 -14.4, 205.14 -11.09, 214.41 -8.06" stroke="#1e1e1e" stroke-width="4" fill="none"></path></g></g><mask></mask><g stroke-linecap="round"><g transform="translate(924.3460322192392 87.84455643831575) rotate(0 116.61270236968754 60.10267928500059)"><path d="M-0.3 -0.02 C38.46 20.22, 194.87 101.06, 233.69 121.17 M1.74 -1.08 C40.29 18.86, 194.69 99.62, 232.99 119.56" stroke="#1e1e1e" stroke-width="4" fill="none"></path></g><g transform="translate(924.3460322192392 87.84455643831575) rotate(0 116.61270236968754 60.10267928500059)"><path d="M208.2 116.27 C217.89 118.4, 229.28 117.92, 232.99 119.56 M208.2 116.27 C217.24 117.56, 225.09 117.58, 232.99 119.56" stroke="#1e1e1e" stroke-width="4" fill="none"></path></g><g transform="translate(924.3460322192392 87.84455643831575) rotate(0 116.61270236968754 60.10267928500059)"><path d="M216.12 101.11 C222.66 109.17, 230.94 114.64, 232.99 119.56 M216.12 101.11 C222.42 107.59, 227.58 112.74, 232.99 119.56" stroke="#1e1e1e" stroke-width="4" fill="none"></path></g></g><mask></mask><g stroke-linecap="round"><g transform="translate(824.6069757637263 175.05595005418036) rotate(0 68.95864867903063 83.0732548725897)"><path d="M-0.09 -0.77 C23.02 26.76, 114.82 137.91, 137.73 165.82 M-1.59 1.44 C21.42 29.09, 113.7 139.99, 136.68 167.19" stroke="#1e1e1e" stroke-width="4" fill="none"></path></g><g transform="translate(824.6069757637263 175.05595005418036) rotate(0 68.95864867903063 83.0732548725897)"><path d="M115.04 154.67 C118.64 157.15, 124.19 159.26, 136.68 167.19 M115.04 154.67 C122.8 158.11, 128.97 162.66, 136.68 167.19" stroke="#1e1e1e" stroke-width="4" fill="none"></path></g><g transform="translate(824.6069757637263 175.05595005418036) rotate(0 68.95864867903063 83.0732548725897)"><path d="M128.15 143.69 C128.89 148.6, 131.53 153.16, 136.68 167.19 M128.15 143.69 C131.28 151.04, 132.93 159.38, 136.68 167.19" stroke="#1e1e1e" stroke-width="4" fill="none"></path></g></g><mask></mask><g stroke-linecap="round" transform="translate(513.2955709842113 10) rotate(0 202.75 72.5)"><path d="M32 0 C104.81 1.5, 179.22 2.23, 373.5 0 M32 0 C143.94 0.92, 255.73 0.39, 373.5 0 M373.5 0 C394.7 -1.95, 406.82 11.53, 405.5 32 M373.5 0 C393.27 0.46, 404.04 11.13, 405.5 32 M405.5 32 C405.74 54.81, 404.14 77.4, 405.5 113 M405.5 32 C406.31 56.58, 406.66 81.21, 405.5 113 M405.5 113 C406.64 133.14, 394.95 144.84, 373.5 145 M405.5 113 C407.18 132.44, 393 146.57, 373.5 145 M373.5 145 C243.63 145.76, 112.1 145.11, 32 145 M373.5 145 C282.75 143.94, 192.85 144.42, 32 145 M32 145 C11.29 143.95, 1.02 133.19, 0 113 M32 145 C11.61 143.85, -1.16 135.77, 0 113 M0 113 C0.5 87.31, 0.71 62.89, 0 32 M0 113 C-0.09 90.39, 0.75 69.35, 0 32 M0 32 C-1.05 10.74, 10.1 -0.43, 32 0 M0 32 C-1.51 12.11, 9.35 -0.65, 32 0" stroke="#1e1e1e" stroke-width="4" fill="none"></path></g><g stroke-linecap="round" transform="translate(821.592053785916 39.14140654782568) rotate(0 35.81796850397029 38.17441380028413)"><path d="M17.91 0 C26.97 0.34, 33.26 -0.76, 53.73 0 M17.91 0 C28.7 -0.35, 37.87 -1.22, 53.73 0 M53.73 0 C66.99 0.86, 70.28 6.37, 71.64 17.91 M53.73 0 C64.2 0.46, 71.26 3.94, 71.64 17.91 M71.64 17.91 C71.18 32.86, 71.88 49.47, 71.64 58.44 M71.64 17.91 C72.79 29.31, 72.44 39.67, 71.64 58.44 M71.64 58.44 C71.75 70.22, 67.13 74.7, 53.73 76.35 M71.64 58.44 C69.8 71.95, 67.54 76.61, 53.73 76.35 M53.73 76.35 C41.33 76.22, 30.64 75.77, 17.91 76.35 M53.73 76.35 C44.83 76.31, 34.72 75.63, 17.91 76.35 M17.91 76.35 C6.99 75.21, 0.82 69.38, 0 58.44 M17.91 76.35 C4.81 77.79, 0.32 70.96, 0 58.44 M0 58.44 C0.77 50.78, -0.75 40.06, 0 17.91 M0 58.44 C0.41 47.04, -0.24 35.6, 0 17.91 M0 17.91 C-0.57 5.54, 4.66 1.26, 17.91 0 M0 17.91 C-1.31 5.32, 3.87 0.11, 17.91 0" stroke="#1e1e1e" stroke-width="4" fill="none"></path></g><g stroke-linecap="round" transform="translate(806.5108038895073 51.39492208865795) rotate(0 16.02382801493411 9.425781185255346)"><path d="M4.71 0 C13.31 -0.9, 16.38 2, 27.33 0 C30.55 3.35, 31.33 -0.59, 32.05 4.71 C32.9 7.94, 32.26 9.34, 32.05 14.14 C31.38 18.33, 30.1 20.54, 27.33 18.85 C15.75 21.74, 10.69 17.87, 4.71 18.85 C2.52 21.53, -0.6 13.93, 0 14.14 C-1.14 11.09, 0.27 7.39, 0 4.71 C0.03 1.11, 3.43 2.43, 4.71 0" stroke="none" stroke-width="0" fill="#ffffff"></path><path d="M4.71 0 C10.99 -0.94, 15.79 0.96, 27.33 0 M4.71 0 C13 -0.95, 22.08 0.46, 27.33 0 M27.33 0 C29.12 0.4, 30.78 1.97, 32.05 4.71 M27.33 0 C30.1 -2.03, 33.93 2.67, 32.05 4.71 M32.05 4.71 C32.04 7.75, 31.79 10.76, 32.05 14.14 M32.05 4.71 C32.4 7.34, 32.16 10.5, 32.05 14.14 M32.05 14.14 C33.51 15.63, 28.88 20.22, 27.33 18.85 M32.05 14.14 C33.92 17.54, 30.77 19.6, 27.33 18.85 M27.33 18.85 C19.05 18.12, 11.54 18.31, 4.71 18.85 M27.33 18.85 C22.11 18.36, 16.78 18.32, 4.71 18.85 M4.71 18.85 C2.39 17.85, -1.01 18.53, 0 14.14 M4.71 18.85 C1.89 19.43, -2.12 18.09, 0 14.14 M0 14.14 C-0.33 10.71, -0.21 8.06, 0 4.71 M0 14.14 C-0.26 12.04, -0.15 9.82, 0 4.71 M0 4.71 C-1.31 2.83, 0.43 -0.56, 4.71 0 M0 4.71 C-2.1 1.68, 1.48 -1.18, 4.71 0" stroke="#1e1e1e" stroke-width="4" fill="none"></path></g><g stroke-linecap="round" transform="translate(806.6256476524562 79.84453128884707) rotate(0 16.02382801493411 9.425781185255346)"><path d="M4.71 0 C11.73 2.2, 19.58 3.44, 27.33 0 C29.75 -2.16, 32.05 2.88, 32.05 4.71 C32.28 6.03, 31.81 9.89, 32.05 14.14 C31.67 18.97, 33.11 21.45, 27.33 18.85 C20.04 18.05, 13.24 21.85, 4.71 18.85 C0.97 15.5, 0.99 16.38, 0 14.14 C0.35 11.17, 0.13 9.15, 0 4.71 C1.86 4, 3.56 2.37, 4.71 0" stroke="none" stroke-width="0" fill="#ffffff"></path><path d="M4.71 0 C11.29 1.09, 20.06 1.66, 27.33 0 M4.71 0 C11.92 0.65, 17.13 0.42, 27.33 0 M27.33 0 C29.2 0.4, 31.72 -0.19, 32.05 4.71 M27.33 0 C32.36 1.1, 31.87 0.83, 32.05 4.71 M32.05 4.71 C31.82 7.83, 32.13 10.74, 32.05 14.14 M32.05 4.71 C32.13 7.71, 32.45 10.4, 32.05 14.14 M32.05 14.14 C30.45 18.65, 32.11 19.08, 27.33 18.85 M32.05 14.14 C32.34 18.03, 31.3 17.47, 27.33 18.85 M27.33 18.85 C20.23 18.26, 13.23 20.29, 4.71 18.85 M27.33 18.85 C20.69 18.16, 13.44 18.23, 4.71 18.85 M4.71 18.85 C0.56 20.1, 0.28 17.78, 0 14.14 M4.71 18.85 C-0.55 19.66, -0.3 18.33, 0 14.14 M0 14.14 C-0.14 10.29, -0.69 7.89, 0 4.71 M0 14.14 C-0.08 11.17, -0.26 8.7, 0 4.71 M0 4.71 C-1.14 1.01, -0.25 0.1, 4.71 0 M0 4.71 C-0.09 0.39, 0.79 1.85, 4.71 0" stroke="#1e1e1e" stroke-width="4" fill="none"></path></g><g stroke-linecap="round" transform="translate(1365.326409298771 849.9288328543016) rotate(268.412856780479 13.319018164857539 13.544764235448383)"><path d="M13.91 -0.34 C16.72 -0.42, 20.74 1.27, 22.85 3.42 C24.95 5.58, 26.27 9.64, 26.55 12.6 C26.83 15.55, 26.22 18.85, 24.54 21.15 C22.85 23.45, 19.17 25.68, 16.45 26.42 C13.73 27.15, 10.68 26.66, 8.22 25.57 C5.76 24.48, 3.01 22.46, 1.69 19.88 C0.37 17.3, -0.4 13.06, 0.3 10.1 C1 7.13, 3.43 3.69, 5.88 2.08 C8.32 0.47, 13.23 0.77, 14.97 0.44 C16.71 0.12, 16.36 0.01, 16.3 0.12 M13.67 0.19 C16.36 0.08, 19.67 0.96, 21.7 2.85 C23.73 4.73, 25.24 8.47, 25.85 11.49 C26.46 14.52, 26.76 18.48, 25.36 21 C23.96 23.53, 20.17 25.88, 17.46 26.63 C14.75 27.38, 11.81 26.66, 9.08 25.52 C6.36 24.38, 2.63 22.38, 1.1 19.81 C-0.43 17.25, -0.7 12.85, -0.09 10.13 C0.51 7.42, 2.48 5.14, 4.73 3.55 C6.98 1.97, 11.82 1.24, 13.42 0.64 C15.01 0.03, 14.33 -0.09, 14.31 -0.08" stroke="#1e1e1e" stroke-width="4" fill="none"></path></g><g stroke-linecap="round"><g transform="translate(1340.4911960006366 809.9846783020334) rotate(268.412856780479 37.925339859255416 0.9029842823632634)"><path d="M0.36 -0.73 C13.03 -0.75, 63.96 0.34, 76.39 0.86 M-0.92 1.5 C11.62 1.52, 62.68 2.1, 75.73 1.9" stroke="#1e1e1e" stroke-width="4" fill="none"></path></g></g><mask></mask><g stroke-linecap="round"><g transform="translate(872.5222878863456 363.6612639359653) rotate(0 42.147349467035 -1.1620507906886814)"><path d="M-0.35 0.55 C13.68 -0.11, 70.88 -2.81, 84.94 -3.21 M1.67 -0.2 C15.53 -0.8, 70.77 -1.52, 84.33 -2.13" stroke="#1e1e1e" stroke-width="4" fill="none"></path></g><g transform="translate(872.5222878863456 363.6612639359653) rotate(0 42.147349467035 -1.1620507906886814)"><path d="M61.07 7.05 C70.35 4.87, 76.37 -0.08, 84.33 -2.13 M61.07 7.05 C68.83 3.19, 76.42 0.23, 84.33 -2.13" stroke="#1e1e1e" stroke-width="4" fill="none"></path></g><g transform="translate(872.5222878863456 363.6612639359653) rotate(0 42.147349467035 -1.1620507906886814)"><path d="M60.61 -10.04 C70.16 -6.04, 76.35 -4.81, 84.33 -2.13 M60.61 -10.04 C68.68 -8.04, 76.42 -5.12, 84.33 -2.13" stroke="#1e1e1e" stroke-width="4" fill="none"></path></g></g><mask></mask><g stroke-linecap="round"><g transform="translate(497.59076096281615 318.12650297251935) rotate(0 -26.15906796369572 -44.768899116836906)"><path d="M0.13 -1.08 C-8.29 -16.05, -42.68 -74.55, -51.51 -89.49 M-1.26 0.97 C-9.68 -13.83, -43.27 -72.76, -52.03 -87.92" stroke="#1e1e1e" stroke-width="4" fill="none"></path></g><g transform="translate(497.59076096281615 318.12650297251935) rotate(0 -26.15906796369572 -44.768899116836906)"><path d="M-32.93 -71.8 C-38.9 -73.91, -41.15 -79.57, -52.03 -87.92 M-32.93 -71.8 C-37.36 -74.21, -39.82 -78.79, -52.03 -87.92" stroke="#1e1e1e" stroke-width="4" fill="none"></path></g><g transform="translate(497.59076096281615 318.12650297251935) rotate(0 -26.15906796369572 -44.768899116836906)"><path d="M-47.76 -63.29 C-50.55 -67.26, -49.59 -74.76, -52.03 -87.92 M-47.76 -63.29 C-49.14 -67.57, -48.59 -73.86, -52.03 -87.92" stroke="#1e1e1e" stroke-width="4" fill="none"></path></g></g><mask></mask><g stroke-linecap="round" transform="translate(1065.720419569839 670.1922315736233) rotate(357.9355080324675 13.319018164857553 13.544764235448383)"><path d="M14.77 0.57 C17.41 0.64, 20.86 1.7, 22.77 3.7 C24.68 5.71, 25.99 9.6, 26.22 12.6 C26.45 15.6, 25.68 19.42, 24.14 21.7 C22.61 23.99, 19.8 25.66, 17.02 26.29 C14.23 26.91, 10.08 26.7, 7.44 25.44 C4.8 24.19, 2.35 21.3, 1.17 18.76 C-0.01 16.21, -0.42 12.96, 0.37 10.16 C1.15 7.37, 3.44 3.67, 5.88 2.01 C8.31 0.34, 13.28 0.34, 14.98 0.17 C16.67 -0.01, 15.96 0.74, 16.04 0.93 M15.13 -0.15 C17.84 0.38, 21.24 3.4, 23.06 5.61 C24.87 7.81, 25.98 10.23, 26.01 13.09 C26.04 15.95, 24.84 20.37, 23.23 22.75 C21.61 25.14, 19.11 27.04, 16.3 27.4 C13.49 27.76, 8.85 26.34, 6.35 24.9 C3.86 23.47, 2.16 21.41, 1.33 18.78 C0.51 16.15, 0.51 12.06, 1.41 9.11 C2.31 6.15, 4.42 2.55, 6.73 1.05 C9.04 -0.45, 13.69 0.33, 15.28 0.11 C16.88 -0.1, 16.27 -0.52, 16.3 -0.24" stroke="#1e1e1e" stroke-width="4" fill="none"></path></g><g stroke-linecap="round"><g transform="translate(1094.1798977075628 682.2732712565999) rotate(357.9355080324675 37.925339859255416 0.9029842823632634)"><path d="M0.51 0.68 C13.14 0.88, 62.8 1.8, 75.56 1.93 M-0.69 -0.01 C11.78 0.34, 61.52 3.09, 74.45 3.53" stroke="#1e1e1e" stroke-width="4" fill="none"></path></g></g><mask></mask><g transform="translate(1096.8164044474977 656.4125443054138) rotate(0 29.1875 12.5)"><text x="29.1875" y="0" font-family="Virgil, Segoe UI Emoji" font-size="20px" fill="#1e1e1e" text-anchor="middle" style="white-space: pre;" direction="ltr" dominant-baseline="text-before-edge">Mount</text></g><g transform="translate(1098.289412401004 344.1897301590334) rotate(0 75.65625 12.5)"><text x="0" y="0" font-family="Virgil, Segoe UI Emoji" font-size="20px" fill="#1e1e1e" text-anchor="start" style="white-space: pre;" direction="ltr" dominant-baseline="text-before-edge">SubmissionStore</text></g><g transform="translate(146.10020543608857 335.98465141895895) rotate(0 95.16666412353516 25)"><text x="95.16666412353516" y="0" font-family="Virgil, Segoe UI Emoji" font-size="20px" fill="#1e1e1e" text-anchor="middle" style="white-space: pre;" direction="ltr" dominant-baseline="text-before-edge">&lt;&lt;queue&gt;&gt;</text><text x="95.16666412353516" y="25" font-family="Virgil, Segoe UI Emoji" font-size="20px" fill="#1e1e1e" text-anchor="middle" style="white-space: pre;" direction="ltr" dominant-baseline="text-before-edge">SubmissionMessages</text></g><g stroke-linecap="round" transform="translate(432.0455709842113 614.0959332997754) rotate(0 205.76197947221058 73.57703335011229)"><path d="M32 0 C109.61 -0.36, 187.74 -0.22, 379.52 0 M32 0 C154.4 -2.19, 276.82 -1.89, 379.52 0 M379.52 0 C401.56 -1.68, 411.63 10.97, 411.52 32 M379.52 0 C399.41 0.61, 412.06 12.09, 411.52 32 M411.52 32 C410.04 55.9, 412.11 82.95, 411.52 115.15 M411.52 32 C411.26 60.41, 411.03 90.09, 411.52 115.15 M411.52 115.15 C409.65 135.33, 401.59 145.37, 379.52 147.15 M411.52 115.15 C409.51 136.48, 402.99 145.83, 379.52 147.15 M379.52 147.15 C301.46 146.64, 223.07 145.72, 32 147.15 M379.52 147.15 C275.11 148.23, 172.31 147.18, 32 147.15 M32 147.15 C12.51 146.85, -1.33 134.92, 0 115.15 M32 147.15 C11.17 147.11, 2.29 136.55, 0 115.15 M0 115.15 C-1.75 87.38, 0.6 59.55, 0 32 M0 115.15 C0.89 91.03, -0.18 65.17, 0 32 M0 32 C-1.33 11.18, 12.61 -1.09, 32 0 M0 32 C-0.01 8.66, 12.54 -2.11, 32 0" stroke="#1e1e1e" stroke-width="4" fill="none"></path></g><g transform="translate(248.9772715013372 218.50809389831306) rotate(0 83.95833587646484 12.5)"><text x="0" y="0" font-family="Virgil, Segoe UI Emoji" font-size="20px" fill="#1e1e1e" text-anchor="start" style="white-space: pre;" direction="ltr" dominant-baseline="text-before-edge">Enqueue message</text></g><g stroke-linecap="round" transform="translate(841.4285008070946 853.3718625394495) rotate(89.94075794909357 10.832769740380755 11.016376007166855)"><path d="M11.83 0.31 C14.03 0.49, 17.29 1.86, 18.91 3.58 C20.53 5.3, 21.4 8.28, 21.56 10.64 C21.71 13, 21.2 15.97, 19.84 17.76 C18.48 19.56, 15.78 20.87, 13.39 21.41 C11 21.96, 7.59 22, 5.49 21.04 C3.39 20.09, 1.66 17.86, 0.76 15.68 C-0.14 13.51, -0.54 10.31, 0.1 7.98 C0.74 5.65, 2.54 2.97, 4.61 1.68 C6.68 0.38, 11.1 0.37, 12.52 0.23 C13.95 0.1, 13.23 0.75, 13.17 0.88 M9.14 -0.35 C11.28 -0.85, 14.36 0.04, 16.24 1.43 C18.11 2.82, 19.68 5.71, 20.39 8.01 C21.09 10.31, 21.19 13.21, 20.47 15.22 C19.75 17.23, 18.06 18.99, 16.06 20.1 C14.05 21.2, 10.64 22.09, 8.47 21.87 C6.3 21.65, 4.52 20.65, 3.04 18.79 C1.56 16.93, -0.46 13.12, -0.43 10.73 C-0.4 8.33, 1.73 6.08, 3.22 4.41 C4.71 2.75, 7.48 1.28, 8.52 0.72 C9.56 0.16, 9.49 1.03, 9.48 1.06" stroke="#1e1e1e" stroke-width="4" fill="none"></path></g><g stroke-linecap="round"><g transform="translate(834.5043966047608 754.3383684027576) rotate(0 5.869004442302753 43.97634296178967)"><path d="M0.76 0.12 C2.95 14.71, 10.56 72.54, 12.57 87.15 M-0.3 -0.86 C1.85 13.9, 9.91 73.29, 12.07 88.26" stroke="#1e1e1e" stroke-width="4" fill="none"></path></g><g transform="translate(834.5043966047608 754.3383684027576) rotate(0 5.869004442302753 43.97634296178967)"><path d="M0.35 66.18 C3.48 73.14, 4.93 79.21, 12.07 88.26 M0.35 66.18 C4.06 73, 6.1 78.53, 12.07 88.26" stroke="#1e1e1e" stroke-width="4" fill="none"></path></g><g transform="translate(834.5043966047608 754.3383684027576) rotate(0 5.869004442302753 43.97634296178967)"><path d="M17.29 63.82 C16.08 71.49, 13.2 78.16, 12.07 88.26 M17.29 63.82 C16.21 71.15, 13.45 77.34, 12.07 88.26" stroke="#1e1e1e" stroke-width="4" fill="none"></path></g></g><mask></mask><g transform="translate(82.85570457265317 900.2579317410268) rotate(0 83.95833587646484 12.5)"><text x="0" y="0" font-family="Virgil, Segoe UI Emoji" font-size="20px" fill="#1e1e1e" text-anchor="start" style="white-space: pre;" direction="ltr" dominant-baseline="text-before-edge">Enqueue message</text></g><g transform="translate(48.76686955962373 969.734651418959) rotate(0 70 25)"><text x="70" y="0" font-family="Virgil, Segoe UI Emoji" font-size="20px" fill="#1e1e1e" text-anchor="middle" style="white-space: pre;" direction="ltr" dominant-baseline="text-before-edge">&lt;&lt;queue&gt;&gt;</text><text x="70" y="25" font-family="Virgil, Segoe UI Emoji" font-size="20px" fill="#1e1e1e" text-anchor="middle" style="white-space: pre;" direction="ltr" dominant-baseline="text-before-edge">BuildMessages</text></g><g transform="translate(560.3708612184244 678.9194176849312) rotate(0 31.94791603088379 12.5)"><text x="31.94791603088379" y="0" font-family="Virgil, Segoe UI Emoji" font-size="20px" fill="#1e1e1e" text-anchor="middle" style="white-space: pre;" direction="ltr" dominant-baseline="text-before-edge">Worker</text></g><g transform="translate(1221.7161246829046 690.0329996022633) rotate(0 52.6875 25)"><text x="52.6875" y="0" font-family="Virgil, Segoe UI Emoji" font-size="20px" fill="#1e1e1e" text-anchor="middle" style="white-space: pre;" direction="ltr" dominant-baseline="text-before-edge">&lt;&lt;volume&gt;&gt;</text><text x="52.6875" y="25" font-family="Virgil, Segoe UI Emoji" font-size="20px" fill="#1e1e1e" text-anchor="middle" style="white-space: pre;" direction="ltr" dominant-baseline="text-before-edge"> Cache</text></g><g stroke-linecap="round" transform="translate(430.4134844749507 503.76009915366535) rotate(269.1636906988423 10.83276974038074 11.016376007166855)"><path d="M11.08 0.44 C13.35 0.26, 16.59 0.92, 18.41 2.45 C20.22 3.98, 21.73 7.32, 21.98 9.62 C22.22 11.92, 21.06 14.35, 19.87 16.25 C18.68 18.15, 16.94 20.11, 14.83 21 C12.72 21.89, 9.44 22.37, 7.19 21.59 C4.93 20.82, 2.47 18.41, 1.29 16.35 C0.1 14.29, -0.31 11.58, 0.06 9.25 C0.44 6.92, 1.71 3.85, 3.54 2.37 C5.36 0.88, 9.61 0.73, 11 0.31 C12.39 -0.11, 11.91 -0.2, 11.87 -0.14 M12.26 0.27 C14.59 0.56, 18.33 2.65, 19.83 4.38 C21.34 6.1, 21.32 8.26, 21.29 10.63 C21.26 13.01, 21.22 16.82, 19.65 18.65 C18.08 20.48, 14.22 21.36, 11.86 21.6 C9.5 21.83, 7.32 21.17, 5.5 20.05 C3.68 18.93, 1.68 17.02, 0.95 14.86 C0.21 12.71, 0.27 9.44, 1.11 7.13 C1.95 4.81, 3.92 2.04, 5.98 0.97 C8.04 -0.11, 12.35 0.69, 13.46 0.69 C14.57 0.68, 12.85 0.86, 12.63 0.92" stroke="#1e1e1e" stroke-width="4" fill="none"></path></g><g stroke-linecap="round"><g transform="translate(410.6634187952033 470.9229974695536) rotate(269.1636906988423 30.845852820067222 0.734425067144457)"><path d="M0.35 -0.58 C10.31 -0.43, 50.23 0.38, 60.61 0.61 M-0.92 1.73 C9.32 2.04, 52.21 1.7, 62.76 1.69" stroke="#1e1e1e" stroke-width="4" fill="none"></path></g></g><mask></mask><g stroke-linecap="round" transform="translate(1068.1353420669195 311.8480468296789) rotate(0 145.4206896551724 52)"><path d="M26 0 C118.93 2.2, 207.75 2.79, 264.84 0 M26 0 C98.29 0.39, 170.51 1.21, 264.84 0 M264.84 0 C283.97 1.08, 290.08 8.16, 290.84 26 M264.84 0 C280.32 0.31, 292.47 8.7, 290.84 26 M290.84 26 C290.59 45.05, 290.25 64.81, 290.84 78 M290.84 26 C291.6 45.19, 290.86 65.14, 290.84 78 M290.84 78 C291.27 94.34, 282.49 105.37, 264.84 104 M290.84 78 C289.63 93.25, 280.45 103.78, 264.84 104 M264.84 104 C189.75 104.37, 110.27 104.08, 26 104 M264.84 104 C193.09 102.58, 121.29 103.67, 26 104 M26 104 C8.27 102.7, -0.4 94.68, 0 78 M26 104 C9.61 102.88, 0.11 93.17, 0 78 M0 78 C0.13 61.63, 1.67 49.03, 0 26 M0 78 C1.22 63.43, 1.08 47.34, 0 26 M0 26 C-0.91 8.94, 6.95 -1.91, 26 0 M0 26 C-2.15 10.35, 7.33 -1.03, 26 0" stroke="#1e1e1e" stroke-width="4" fill="none"></path></g><g stroke-linecap="round" transform="translate(1289.2583366281424 332.7494694570846) rotate(0 25.690129133882152 27.380269208479604)"><path d="M12.85 0 C20.22 -2.06, 28.63 -0.26, 38.54 0 M12.85 0 C22.21 0.24, 30.37 -0.58, 38.54 0 M38.54 0 C45.28 1.36, 49.56 5.93, 51.38 12.85 M38.54 0 C45.08 -0.27, 50.32 4.25, 51.38 12.85 M51.38 12.85 C52.33 20.74, 53.35 27.4, 51.38 41.92 M51.38 12.85 C50.53 23.61, 51.68 34.46, 51.38 41.92 M51.38 41.92 C51.51 51.66, 48.52 55.54, 38.54 54.76 M51.38 41.92 C51.57 50.48, 49.32 57.01, 38.54 54.76 M38.54 54.76 C31.6 56.04, 27.34 53.05, 12.85 54.76 M38.54 54.76 C29.78 54.82, 21.91 55.62, 12.85 54.76 M12.85 54.76 C5.65 54.28, 1.57 51.95, 0 41.92 M12.85 54.76 C3.88 56.75, 0.87 48.81, 0 41.92 M0 41.92 C-0.29 36.61, -0.44 29.96, 0 12.85 M0 41.92 C0.29 34.81, 0.78 28.16, 0 12.85 M0 12.85 C-1.51 5.49, 2.77 1.29, 12.85 0 M0 12.85 C-0.68 5.02, 2.71 -1.14, 12.85 0" stroke="#1e1e1e" stroke-width="4" fill="none"></path></g><g stroke-linecap="round" transform="translate(1278.441440150718 341.5381978449918) rotate(0 11.492952507263084 6.760560298390033)"><path d="M3.38 0 C8.6 -1.2, 11.41 1.19, 19.61 0 C21.35 -2.29, 21.77 2.57, 22.99 3.38 C23.39 5.96, 22.33 7.78, 22.99 10.14 C25.15 14.93, 20.59 11.59, 19.61 13.52 C13.64 12.15, 9.42 14.66, 3.38 13.52 C1.25 12.57, -2.04 11.49, 0 10.14 C0.85 8.59, -0.64 7.74, 0 3.38 C-0.66 -0.76, 2.07 0.63, 3.38 0" stroke="none" stroke-width="0" fill="#ffffff"></path><path d="M3.38 0 C8.03 -0.36, 11.78 0.49, 19.61 0 M3.38 0 C7.6 -0.28, 12.31 0.43, 19.61 0 M19.61 0 C21.43 -0.36, 23.97 1.61, 22.99 3.38 M19.61 0 C21.05 -0.1, 23.44 1.32, 22.99 3.38 M22.99 3.38 C23.15 5.21, 22.8 7.79, 22.99 10.14 M22.99 3.38 C23.04 6.05, 22.85 8.87, 22.99 10.14 M22.99 10.14 C23.33 12.91, 21.92 12.57, 19.61 13.52 M22.99 10.14 C23.58 12.94, 21.49 12.73, 19.61 13.52 M19.61 13.52 C13.9 14.16, 8.77 14, 3.38 13.52 M19.61 13.52 C14.56 13.83, 9.57 13.91, 3.38 13.52 M3.38 13.52 C1.95 13.4, 0.26 12.95, 0 10.14 M3.38 13.52 C2.26 12.55, -0.65 11.95, 0 10.14 M0 10.14 C-0.1 7.18, -0.17 4.88, 0 3.38 M0 10.14 C0.07 8.85, -0.13 7.08, 0 3.38 M0 3.38 C-0.19 1.95, 1.51 0.55, 3.38 0 M0 3.38 C0.41 0.74, 1.02 -0.37, 3.38 0" stroke="#1e1e1e" stroke-width="4" fill="none"></path></g><g stroke-linecap="round" transform="translate(1278.5238108496608 361.94343478857604) rotate(0 11.492952507263084 6.760560298390033)"><path d="M3.38 0 C8.85 1.81, 12.32 -0.98, 19.61 0 C20.36 -2.5, 22.5 -1.26, 22.99 3.38 C22.82 4.41, 22.65 7.69, 22.99 10.14 C22.91 10.56, 21.23 14.71, 19.61 13.52 C17.16 12.52, 10.42 13.18, 3.38 13.52 C-0.35 14.58, -1.14 13.2, 0 10.14 C0.28 8.56, 0.6 6.3, 0 3.38 C1.99 2.83, -0.71 0.68, 3.38 0" stroke="none" stroke-width="0" fill="#ffffff"></path><path d="M3.38 0 C8.57 -0.35, 13.46 0.56, 19.61 0 M3.38 0 C7.19 0.24, 11.81 -0.32, 19.61 0 M19.61 0 C21.34 -0.96, 23.39 1.17, 22.99 3.38 M19.61 0 C21.62 -0.09, 21.93 0.54, 22.99 3.38 M22.99 3.38 C23.27 5.32, 22.81 6.66, 22.99 10.14 M22.99 3.38 C22.88 5.85, 22.95 8.48, 22.99 10.14 M22.99 10.14 C23.23 11.54, 20.89 13.87, 19.61 13.52 M22.99 10.14 C22.8 11.46, 20.95 14.36, 19.61 13.52 M19.61 13.52 C12.53 14.07, 6.45 13.77, 3.38 13.52 M19.61 13.52 C16.07 13.53, 13.04 13.36, 3.38 13.52 M3.38 13.52 C0.31 14.36, -0.12 11.89, 0 10.14 M3.38 13.52 C1.66 13.53, -0.24 11.29, 0 10.14 M0 10.14 C0.14 7.88, 0.22 5.42, 0 3.38 M0 10.14 C-0.16 7.98, 0.09 5.54, 0 3.38 M0 3.38 C0.08 0.94, 0.17 0.11, 3.38 0 M0 3.38 C-0.19 0.83, 0.83 -0.83, 3.38 0" stroke="#1e1e1e" stroke-width="4" fill="none"></path></g><g stroke-linecap="round" transform="translate(63.29557098421128 291.25) rotate(0 202.75 72.5)"><path d="M32 0 C152.78 -0.16, 276.64 0.11, 373.5 0 M32 0 C104.63 -0.12, 176.68 0.87, 373.5 0 M373.5 0 C394.78 0.24, 403.89 10.77, 405.5 32 M373.5 0 C395.26 -0.55, 407.78 10.84, 405.5 32 M405.5 32 C405.07 61.18, 404.99 92.52, 405.5 113 M405.5 32 C404.01 60.71, 405.09 90.57, 405.5 113 M405.5 113 C404.65 136.13, 396.71 144.36, 373.5 145 M405.5 113 C407.29 132.08, 395.05 146.32, 373.5 145 M373.5 145 C269.49 145.33, 164.01 145.01, 32 145 M373.5 145 C245.13 143.24, 116.24 144.3, 32 145 M32 145 C10.64 145.97, -1.97 134.66, 0 113 M32 145 C11.63 143.25, -0.28 134.29, 0 113 M0 113 C-0.82 93.91, -2.56 72.71, 0 32 M0 113 C0.57 82.34, 0.39 50.52, 0 32 M0 32 C-1.35 12.66, 11.12 -1.33, 32 0 M0 32 C1.15 11.98, 8.92 0.87, 32 0" stroke="#1e1e1e" stroke-width="4" fill="none"></path></g><g stroke-linecap="round" transform="translate(371.59205378591605 320.3914065478257) rotate(0 35.81796850397029 38.17441380028413)"><path d="M17.91 0 C28.45 -1.02, 34.52 2.2, 53.73 0 M17.91 0 C26.84 0.85, 37.68 0.48, 53.73 0 M53.73 0 C64.06 0.1, 72.01 5.49, 71.64 17.91 M53.73 0 C67.95 0.17, 73.17 6.41, 71.64 17.91 M71.64 17.91 C70.85 34.25, 72.66 46.38, 71.64 58.44 M71.64 17.91 C71.73 28.45, 70.92 38.49, 71.64 58.44 M71.64 58.44 C73.51 69.74, 67.22 74.39, 53.73 76.35 M71.64 58.44 C71.85 71.7, 65.82 75.67, 53.73 76.35 M53.73 76.35 C41.12 74.38, 30.07 76.84, 17.91 76.35 M53.73 76.35 C44.6 77.09, 36.46 76.61, 17.91 76.35 M17.91 76.35 C4 76.68, 0.84 68.86, 0 58.44 M17.91 76.35 C5.69 76.3, -1.34 72.03, 0 58.44 M0 58.44 C-1.93 41.71, 1.67 28.11, 0 17.91 M0 58.44 C0.36 44.84, -1.04 33.69, 0 17.91 M0 17.91 C0.45 4.64, 6.97 1.14, 17.91 0 M0 17.91 C-1.75 6.84, 3.7 -0.41, 17.91 0" stroke="#1e1e1e" stroke-width="4" fill="none"></path></g><g stroke-linecap="round" transform="translate(356.5108038895073 332.64492208865795) rotate(0 16.02382801493411 9.425781185255346)"><path d="M4.71 0 C11.19 0.89, 15.81 2.18, 27.33 0 C28.21 2.95, 31.15 -1.61, 32.05 4.71 C33.52 6.73, 31.18 9.16, 32.05 14.14 C33.75 18.83, 33.86 15.93, 27.33 18.85 C20.89 18.04, 14.37 15.5, 4.71 18.85 C2.98 21.41, -1.6 13.7, 0 14.14 C0.16 12.31, -0.61 8.77, 0 4.71 C-2.23 3.87, -0.43 1.74, 4.71 0" stroke="none" stroke-width="0" fill="#ffffff"></path><path d="M4.71 0 C7.8 2.04, 13.9 0.07, 27.33 0 M4.71 0 C9.23 0.01, 12.99 -0.06, 27.33 0 M27.33 0 C30.85 -0.48, 34.03 1.72, 32.05 4.71 M27.33 0 C32.01 0.44, 33.78 0.9, 32.05 4.71 M32.05 4.71 C32.56 6.39, 31.48 9.23, 32.05 14.14 M32.05 4.71 C31.88 7.75, 32.53 9.79, 32.05 14.14 M32.05 14.14 C33.6 15.32, 30.66 20, 27.33 18.85 M32.05 14.14 C32.2 16.6, 31.66 20.11, 27.33 18.85 M27.33 18.85 C23.51 19.38, 15.45 18.92, 4.71 18.85 M27.33 18.85 C21.97 19.56, 15.65 19.23, 4.71 18.85 M4.71 18.85 C2.41 17.33, -0.24 17.24, 0 14.14 M4.71 18.85 C0.23 20.5, 1.94 17, 0 14.14 M0 14.14 C0.86 11.47, 0.26 8.88, 0 4.71 M0 14.14 C-0.39 11.58, 0.04 7.77, 0 4.71 M0 4.71 C1 2.71, 0.05 0.75, 4.71 0 M0 4.71 C-2.27 1.16, 2.38 0.94, 4.71 0" stroke="#1e1e1e" stroke-width="4" fill="none"></path></g><g stroke-linecap="round" transform="translate(356.6256476524562 361.09453128884707) rotate(0 16.02382801493411 9.425781185255346)"><path d="M4.71 0 C11.29 1.87, 13.37 2.88, 27.33 0 C29.58 -3.18, 29.29 4.31, 32.05 4.71 C31.18 7.08, 32.98 9.7, 32.05 14.14 C35.43 14.36, 28.13 17.41, 27.33 18.85 C19.82 15.74, 18.4 21.35, 4.71 18.85 C-0.03 15.27, 1.98 16.88, 0 14.14 C-0.64 13.5, -1.07 11.3, 0 4.71 C-2.01 3.31, 3.97 1.74, 4.71 0" stroke="none" stroke-width="0" fill="#ffffff"></path><path d="M4.71 0 C9.52 -0.3, 13.29 -2.15, 27.33 0 M4.71 0 C11.82 0.02, 20.72 -0.27, 27.33 0 M27.33 0 C32.46 0.15, 33.38 1.95, 32.05 4.71 M27.33 0 C32.2 -0.67, 31.46 0.81, 32.05 4.71 M32.05 4.71 C31.56 7.42, 31.89 11.8, 32.05 14.14 M32.05 4.71 C32.45 8.05, 32.37 11.22, 32.05 14.14 M32.05 14.14 C32.24 18.43, 30.61 18.26, 27.33 18.85 M32.05 14.14 C33.23 18.54, 29.02 18.83, 27.33 18.85 M27.33 18.85 C21.34 19.2, 16.43 17.94, 4.71 18.85 M27.33 18.85 C17.38 19.13, 9.8 18.2, 4.71 18.85 M4.71 18.85 C1.33 18.81, -1.17 18.72, 0 14.14 M4.71 18.85 C3.51 18.57, 0.55 15, 0 14.14 M0 14.14 C0.09 12.7, 0.12 10.25, 0 4.71 M0 14.14 C0.17 11.68, 0.3 10.12, 0 4.71 M0 4.71 C-1.52 2.32, -0.4 -0.36, 4.71 0 M0 4.71 C0.81 2.51, -0.26 0.26, 4.71 0" stroke="#1e1e1e" stroke-width="4" fill="none"></path></g><g stroke-linecap="round"><g transform="translate(455.6385729049924 614.0393972481734) rotate(0 -4.33736075764142 -38.452071724529674)"><path d="M-0.47 0.17 C-1.99 -12.28, -7.52 -62.76, -9.07 -75.7 M1.49 -0.79 C-0.23 -13.45, -8.74 -64.58, -10.22 -77.2" stroke="#1e1e1e" stroke-width="4" fill="none"></path></g><g transform="translate(455.6385729049924 614.0393972481734) rotate(0 -4.33736075764142 -38.452071724529674)"><path d="M1.62 -55.18 C-1.52 -62.59, -3.42 -70.44, -10.22 -77.2 M1.62 -55.18 C-1.32 -59.88, -3.63 -66.2, -10.22 -77.2" stroke="#1e1e1e" stroke-width="4" fill="none"></path></g><g transform="translate(455.6385729049924 614.0393972481734) rotate(0 -4.33736075764142 -38.452071724529674)"><path d="M-15.31 -52.72 C-13.27 -60.81, -10.01 -69.41, -10.22 -77.2 M-15.31 -52.72 C-14 -57.94, -12.08 -64.87, -10.22 -77.2" stroke="#1e1e1e" stroke-width="4" fill="none"></path></g></g><mask></mask><g stroke-linecap="round" transform="translate(424.9780518868345 203.29926762567698) rotate(89.94075794909357 10.832769740380769 11.016376007166855)"><path d="M12.94 -0.3 C15.02 0.09, 17.34 2.5, 18.73 4.39 C20.11 6.28, 21.2 8.77, 21.22 11.05 C21.24 13.33, 20.25 16.23, 18.84 18.04 C17.44 19.85, 15.1 21.46, 12.82 21.91 C10.54 22.37, 7.25 21.88, 5.16 20.76 C3.07 19.65, 0.99 17.53, 0.28 15.24 C-0.43 12.95, 0.1 9.27, 0.89 7.02 C1.68 4.77, 3.05 2.89, 5.02 1.75 C6.98 0.62, 11.38 0.41, 12.69 0.22 C14 0.03, 12.83 0.48, 12.88 0.6 M8.9 -0.13 C10.97 -0.72, 13.02 0.28, 15.03 1.35 C17.05 2.42, 19.96 4.03, 21 6.29 C22.03 8.55, 21.99 12.5, 21.26 14.89 C20.52 17.29, 18.46 19.5, 16.61 20.66 C14.76 21.82, 12.44 22.24, 10.14 21.84 C7.85 21.44, 4.56 20.07, 2.85 18.25 C1.15 16.43, -0.08 13.23, -0.08 10.92 C-0.09 8.61, 1.55 6.22, 2.84 4.39 C4.14 2.56, 6.77 0.53, 7.69 -0.05 C8.61 -0.63, 8.12 0.64, 8.35 0.91" stroke="#1e1e1e" stroke-width="4" fill="none"></path></g><g transform="translate(509.66252724930814 376.4194176849312) rotate(0 121.40625 12.5)"><text x="121.40625" y="0" font-family="Virgil, Segoe UI Emoji" font-size="20px" fill="#1e1e1e" text-anchor="middle" style="white-space: pre;" direction="ltr" dominant-baseline="text-before-edge">SubmissionsHealthChecker</text></g><g stroke-linecap="round" transform="translate(500.5628123635217 325) rotate(0 181.46982758620686 64.89056720098642)"><path d="M32 0 C97.47 0.34, 160.81 1.39, 330.94 0 M32 0 C111.12 0.7, 189.9 1.8, 330.94 0 M330.94 0 C354.25 0.63, 361.77 12.24, 362.94 32 M330.94 0 C351.84 -1.57, 362.63 8.98, 362.94 32 M362.94 32 C361.85 51.4, 362.95 72.6, 362.94 97.78 M362.94 32 C362.71 55.91, 363.01 80.31, 362.94 97.78 M362.94 97.78 C362.97 118.53, 351.96 130.16, 330.94 129.78 M362.94 97.78 C361.2 119, 352.75 130.97, 330.94 129.78 M330.94 129.78 C244.9 131.23, 161.08 131.26, 32 129.78 M330.94 129.78 C219.44 129.8, 108.17 130.91, 32 129.78 M32 129.78 C10.29 128.26, -0.04 119.79, 0 97.78 M32 129.78 C11.93 130.25, 1.36 119.65, 0 97.78 M0 97.78 C-1.33 81.29, -1.16 62.82, 0 32 M0 97.78 C-0.03 80.73, -0.52 62.81, 0 32 M0 32 C1.98 9.58, 10.44 0.33, 32 0 M0 32 C1.91 9.04, 10.1 1.88, 32 0" stroke="#1e1e1e" stroke-width="4" fill="none"></path></g><g stroke-linecap="round" transform="translate(776.5012073300289 351.08279172307493) rotate(0 32.05859713392689 34.167715366422044)"><path d="M16.03 0 C26.3 1.7, 34.26 1.44, 48.09 0 M16.03 0 C23.3 0.91, 32.36 0.59, 48.09 0 M48.09 0 C57.6 1.57, 63.74 3.98, 64.12 16.03 M48.09 0 C58.46 -1.69, 64.21 6.69, 64.12 16.03 M64.12 16.03 C63.48 29.74, 65.31 42.87, 64.12 52.31 M64.12 16.03 C63.83 29.65, 63.97 44.47, 64.12 52.31 M64.12 52.31 C63.8 63.37, 57.27 68.24, 48.09 68.34 M64.12 52.31 C64.6 64.18, 58.41 66.34, 48.09 68.34 M48.09 68.34 C37.22 69.23, 27.65 69.22, 16.03 68.34 M48.09 68.34 C37.24 69.1, 27.39 67.39, 16.03 68.34 M16.03 68.34 C5.3 69.01, 1.1 63.4, 0 52.31 M16.03 68.34 C6.7 68.87, -0.83 62.29, 0 52.31 M0 52.31 C-1.09 38.52, -0.29 26.79, 0 16.03 M0 52.31 C-0.18 42.33, 0.82 30.27, 0 16.03 M0 16.03 C-0.23 5.67, 7 -1.42, 16.03 0 M0 16.03 C-0.57 7.22, 3.98 -0.54, 16.03 0" stroke="#1e1e1e" stroke-width="4" fill="none"></path></g><g stroke-linecap="round" transform="translate(763.0028506420596 362.0502065320502) rotate(0 14.34200398096732 8.43647292998071)"><path d="M4.22 0 C8.31 1.22, 9.89 -2.18, 24.47 0 C27.69 1.58, 31.78 4.2, 28.68 4.22 C28.59 6.54, 28.26 10.18, 28.68 12.65 C28.15 18.04, 25.12 20.22, 24.47 16.87 C19.03 19.39, 12.73 19.22, 4.22 16.87 C-0.02 18.71, -0.01 14.88, 0 12.65 C1.31 9.66, -1.25 6.81, 0 4.22 C-2.64 3.05, 4.98 3.06, 4.22 0" stroke="none" stroke-width="0" fill="#ffffff"></path><path d="M4.22 0 C9.92 1.32, 15.82 -0.12, 24.47 0 M4.22 0 C9.55 0.18, 12.31 0.66, 24.47 0 M24.47 0 C26.9 -1.37, 28.41 -0.06, 28.68 4.22 M24.47 0 C27.37 1.35, 30.09 -0.29, 28.68 4.22 M28.68 4.22 C29.28 6.76, 29.48 8.41, 28.68 12.65 M28.68 4.22 C28.68 6.1, 28.61 8.31, 28.68 12.65 M28.68 12.65 C27.18 15.37, 27.69 17.9, 24.47 16.87 M28.68 12.65 C28.32 13.47, 28.23 15.18, 24.47 16.87 M24.47 16.87 C19.08 17.71, 11.22 16.06, 4.22 16.87 M24.47 16.87 C19.34 16.3, 14.58 17.4, 4.22 16.87 M4.22 16.87 C2.5 17.28, 1.18 15.93, 0 12.65 M4.22 16.87 C0.57 16.17, 1.68 13.7, 0 12.65 M0 12.65 C-0.18 10.41, 0.03 7.27, 0 4.22 M0 12.65 C0.42 9.2, -0.05 6.27, 0 4.22 M0 4.22 C1.66 -0.01, 0.91 1.63, 4.22 0 M0 4.22 C-1.37 0.86, -0.04 1.55, 4.22 0" stroke="#1e1e1e" stroke-width="4" fill="none"></path></g><g stroke-linecap="round" transform="translate(763.1056406685044 387.5138103616598) rotate(0 14.34200398096732 8.43647292998071)"><path d="M4.22 0 C7.4 -2.3, 16.79 1.46, 24.47 0 C30.37 2.79, 31.98 4.16, 28.68 4.22 C28.13 6.58, 28.44 11.32, 28.68 12.65 C26.53 18.82, 28.83 15.17, 24.47 16.87 C21.9 19.74, 13.61 18.99, 4.22 16.87 C1.4 16.29, 2.94 18.35, 0 12.65 C-1.27 10.66, -1.26 8.18, 0 4.22 C3.57 4.47, 1.53 1.33, 4.22 0" stroke="none" stroke-width="0" fill="#ffffff"></path><path d="M4.22 0 C10.85 -0.09, 18.2 -0.95, 24.47 0 M4.22 0 C10.99 0.72, 18.75 -0.75, 24.47 0 M24.47 0 C27.01 -1.47, 28.76 2.58, 28.68 4.22 M24.47 0 C28.69 -1.69, 28 0.98, 28.68 4.22 M28.68 4.22 C29.56 6.64, 28.22 9.68, 28.68 12.65 M28.68 4.22 C28.62 6.2, 28.37 8, 28.68 12.65 M28.68 12.65 C29.1 16.5, 26.96 15.14, 24.47 16.87 M28.68 12.65 C29.63 13.77, 28.13 16.95, 24.47 16.87 M24.47 16.87 C18.01 16.06, 9.62 15.77, 4.22 16.87 M24.47 16.87 C16.47 17.06, 9.06 16.92, 4.22 16.87 M4.22 16.87 C2.59 17.34, -0.72 14.85, 0 12.65 M4.22 16.87 C3.09 15.11, 1 13.9, 0 12.65 M0 12.65 C-0.01 10.64, 0.72 7.79, 0 4.22 M0 12.65 C-0.13 9.54, 0.27 5.99, 0 4.22 M0 4.22 C-0.49 3.04, 0.22 -0.47, 4.22 0 M0 4.22 C-1.44 2.96, -0.63 -2.13, 4.22 0" stroke="#1e1e1e" stroke-width="4" fill="none"></path></g><g stroke-linecap="round"><g transform="translate(820.7522678640098 612.6071138729658) rotate(0 71.92394698595179 -119.81156646570082)"><path d="M-0.59 0.14 C23.43 -39.97, 120.17 -200.2, 144.35 -240 M1.3 -0.83 C25.19 -40.84, 119.88 -198.72, 143.67 -238.66" stroke="#1e1e1e" stroke-width="4" fill="none"></path></g><g transform="translate(820.7522678640098 612.6071138729658) rotate(0 71.92394698595179 -119.81156646570082)"><path d="M138.95 -214.11 C140.54 -221.03, 141.18 -228.58, 143.67 -238.66 M138.95 -214.11 C140.59 -223.71, 143.31 -232.21, 143.67 -238.66" stroke="#1e1e1e" stroke-width="4" fill="none"></path></g><g transform="translate(820.7522678640098 612.6071138729658) rotate(0 71.92394698595179 -119.81156646570082)"><path d="M124.28 -222.88 C130.57 -226.95, 135.87 -231.71, 143.67 -238.66 M124.28 -222.88 C131.6 -229.07, 139.94 -234.2, 143.67 -238.66" stroke="#1e1e1e" stroke-width="4" fill="none"></path></g></g><mask></mask><g stroke-linecap="round" transform="translate(744.9219930093609 643.6702538713416) rotate(0 36.350067077929566 38.74151885937226)"><path d="M18.18 0 C27.11 -1.06, 38.92 -1.47, 54.53 0 M18.18 0 C31.81 0.39, 47.13 -0.8, 54.53 0 M54.53 0 C66.74 0.31, 71.44 6.59, 72.7 18.18 M54.53 0 C67.18 1.43, 72.6 7.46, 72.7 18.18 M72.7 18.18 C72.37 35, 73.3 46.89, 72.7 59.31 M72.7 18.18 C72.9 29.71, 71.89 41.05, 72.7 59.31 M72.7 59.31 C73.43 69.64, 64.89 77.48, 54.53 77.48 M72.7 59.31 C74.84 70.1, 64.9 77.54, 54.53 77.48 M54.53 77.48 C43.32 76.02, 34.23 78.81, 18.18 77.48 M54.53 77.48 C43.23 77, 31.9 77.63, 18.18 77.48 M18.18 77.48 C4.73 75.92, 0.44 71.38, 0 59.31 M18.18 77.48 C8.35 77.55, 0.97 72.81, 0 59.31 M0 59.31 C1.36 48.32, 0.15 32.86, 0 18.18 M0 59.31 C-0.99 49.66, -0.72 42.24, 0 18.18 M0 18.18 C1.95 4.97, 6.05 -1.74, 18.18 0 M0 18.18 C1.87 3.95, 5.22 -1.17, 18.18 0" stroke="#1e1e1e" stroke-width="4" fill="none"></path></g><g stroke-linecap="round" transform="translate(729.6167016081272 656.1058031348441) rotate(0 16.261872113810625 9.565807125770903)"><path d="M4.78 0 C12.09 3.06, 19.22 1.04, 27.74 0 C32.14 -1.34, 31.78 4.75, 32.52 4.78 C32 5.74, 31.79 8.66, 32.52 14.35 C31.82 21.09, 30.08 22.35, 27.74 19.13 C19.45 22.62, 12.71 18.26, 4.78 19.13 C2.37 16.15, -0.48 18.44, 0 14.35 C-0.51 10.72, -0.86 6.36, 0 4.78 C-1.45 -1.84, 0.14 -1.78, 4.78 0" stroke="none" stroke-width="0" fill="#ffffff"></path><path d="M4.78 0 C10.93 -1.6, 16.84 -0.53, 27.74 0 M4.78 0 C11.78 -0.92, 18.13 0.07, 27.74 0 M27.74 0 C29.67 0.53, 32.99 2.84, 32.52 4.78 M27.74 0 C30.83 1.4, 34.03 -0.7, 32.52 4.78 M32.52 4.78 C33.01 6.67, 32.39 10.16, 32.52 14.35 M32.52 4.78 C32.08 6.68, 32.71 8.71, 32.52 14.35 M32.52 14.35 C30.77 17.53, 32.79 17.98, 27.74 19.13 M32.52 14.35 C30.78 17.6, 30.44 18.81, 27.74 19.13 M27.74 19.13 C20.89 20.3, 14.57 16.99, 4.78 19.13 M27.74 19.13 C19.88 18.8, 9.52 18.17, 4.78 19.13 M4.78 19.13 C2.03 19.09, 1.99 17.59, 0 14.35 M4.78 19.13 C2.57 20.52, -0.02 16.1, 0 14.35 M0 14.35 C-0.1 10.28, -0.91 8.08, 0 4.78 M0 14.35 C-0.23 11.24, 0.55 7.63, 0 4.78 M0 4.78 C-0.01 -0.15, 3.22 -1.83, 4.78 0 M0 4.78 C-0.83 0.43, 3.63 2.29, 4.78 0" stroke="#1e1e1e" stroke-width="4" fill="none"></path></g><g stroke-linecap="round" transform="translate(729.7332514478037 684.9780492716714) rotate(0 16.261872113810625 9.565807125770903)"><path d="M4.78 0 C11.45 0.97, 23.32 -1.73, 27.74 0 C30.19 3.16, 29.73 -0.72, 32.52 4.78 C31.85 6.46, 32.15 10.6, 32.52 14.35 C31.67 20.76, 31.25 15.7, 27.74 19.13 C20.36 18.73, 15.46 16.56, 4.78 19.13 C1.11 20.03, 2.23 19.73, 0 14.35 C-0.71 10.86, -0.65 7.87, 0 4.78 C-1.45 -0.19, 4.63 -0.05, 4.78 0" stroke="none" stroke-width="0" fill="#ffffff"></path><path d="M4.78 0 C11.99 -0.49, 15.25 -1.12, 27.74 0 M4.78 0 C12.54 0.35, 19.56 0.46, 27.74 0 M27.74 0 C31.4 1.24, 32.44 2.81, 32.52 4.78 M27.74 0 C32.44 -2.29, 31.74 1.68, 32.52 4.78 M32.52 4.78 C32.43 8.8, 31.88 12.3, 32.52 14.35 M32.52 4.78 C32.61 7.04, 32.01 10.15, 32.52 14.35 M32.52 14.35 C34.38 16.38, 29.41 19.18, 27.74 19.13 M32.52 14.35 C32.04 17.21, 30.86 17.9, 27.74 19.13 M27.74 19.13 C23 17.31, 18.94 20.23, 4.78 19.13 M27.74 19.13 C21.99 18.31, 17.8 19.08, 4.78 19.13 M4.78 19.13 C3.59 19.19, 0.85 18.74, 0 14.35 M4.78 19.13 C1.58 17.7, 0.79 18.8, 0 14.35 M0 14.35 C-0.85 10.97, 0.36 6.45, 0 4.78 M0 14.35 C0.53 12.17, 0.06 10.09, 0 4.78 M0 4.78 C1.63 -0.24, 0.87 -1.01, 4.78 0 M0 4.78 C2.03 3.89, 2.93 -0.47, 4.78 0" stroke="#1e1e1e" stroke-width="4" fill="none"></path></g><g stroke-linecap="round"><g transform="translate(403.9691815868061 256.8783773031405) rotate(89.94075794909357 30.845852820067222 0.734425067144457)"><path d="M0.84 0.7 C10.86 1.2, 50.87 2.02, 60.83 1.99 M-0.18 0.02 C10.16 0.25, 52.57 -0.07, 63.08 0.14" stroke="#1e1e1e" stroke-width="4" fill="none"></path></g></g><mask></mask><g transform="translate(306.78282705689276 484.2025383427574) rotate(0 61.88541793823242 12.5)"><text x="0" y="0" font-family="Virgil, Segoe UI Emoji" font-size="20px" fill="#1e1e1e" text-anchor="start" style="white-space: pre;" direction="ltr" dominant-baseline="text-before-edge">Pop message</text></g><g stroke-linecap="round"><g transform="translate(824.7659158801197 1141.0178185118782) rotate(180.3945654766811 -34.737551327571296 58.14672325756055)"><path d="M1 -0.33 C-10.49 19.36, -57.45 97.34, -69.16 116.93 M0.06 -1.55 C-11.54 17.89, -58.28 95.66, -69.94 115.14" stroke="#1e1e1e" stroke-width="4" fill="none"></path></g><g transform="translate(824.7659158801197 1141.0178185118782) rotate(180.3945654766811 -34.737551327571296 58.14672325756055)"><path d="M-65.18 90.6 C-67.31 98.07, -67.04 104.81, -69.94 115.14 M-65.18 90.6 C-66.79 100.29, -67.91 109.46, -69.94 115.14" stroke="#1e1e1e" stroke-width="4" fill="none"></path></g><g transform="translate(824.7659158801197 1141.0178185118782) rotate(180.3945654766811 -34.737551327571296 58.14672325756055)"><path d="M-50.52 99.39 C-56.68 104.51, -60.53 108.78, -69.94 115.14 M-50.52 99.39 C-57.69 105.78, -64.33 111.64, -69.94 115.14" stroke="#1e1e1e" stroke-width="4" fill="none"></path></g></g><mask></mask><g stroke-linecap="round"><g transform="translate(288.17824194979846 892.4689841850684) rotate(180.3945654766811 38.757415159098684 44.16437551778154)"><path d="M-0.47 -0.68 C12.26 13.93, 64.12 73.34, 76.97 88.31 M1.48 1.57 C13.95 16.34, 62.81 75.56, 75.74 89.84" stroke="#1e1e1e" stroke-width="4" fill="none"></path></g><g transform="translate(288.17824194979846 892.4689841850684) rotate(180.3945654766811 38.757415159098684 44.16437551778154)"><path d="M53.95 77.59 C60.52 81.07, 69.28 84.77, 75.74 89.84 M53.95 77.59 C62.25 82.63, 69.3 86.38, 75.74 89.84" stroke="#1e1e1e" stroke-width="4" fill="none"></path></g><g transform="translate(288.17824194979846 892.4689841850684) rotate(180.3945654766811 38.757415159098684 44.16437551778154)"><path d="M66.92 66.45 C69 73.78, 73.2 81.4, 75.74 89.84 M66.92 66.45 C70.44 75.64, 72.68 83.52, 75.74 89.84" stroke="#1e1e1e" stroke-width="4" fill="none"></path></g></g><mask></mask><g stroke-linecap="round"><g transform="translate(824.3873479070617 1116.0216199635358) rotate(180.3945654766811 -48.47174529443435 -43.823030048082046)"><path d="M-0.54 -0.02 C-16.77 -14.37, -81.81 -72.24, -97.84 -86.8 M1.37 -1.07 C-14.44 -15.7, -79.13 -74.33, -95.61 -88.48" stroke="#1e1e1e" stroke-width="4" fill="none"></path></g><g transform="translate(824.3873479070617 1116.0216199635358) rotate(180.3945654766811 -48.47174529443435 -43.823030048082046)"><path d="M-72.35 -79.3 C-78.39 -83.3, -83.02 -83.92, -95.61 -88.48 M-72.35 -79.3 C-80.6 -82.34, -86.68 -85.92, -95.61 -88.48" stroke="#1e1e1e" stroke-width="4" fill="none"></path></g><g transform="translate(824.3873479070617 1116.0216199635358) rotate(180.3945654766811 -48.47174529443435 -43.823030048082046)"><path d="M-83.7 -66.5 C-86.71 -73.79, -88.38 -77.75, -95.61 -88.48 M-83.7 -66.5 C-88.35 -73.69, -90.8 -81.36, -95.61 -88.48" stroke="#1e1e1e" stroke-width="4" fill="none"></path></g></g><mask></mask><g stroke-linecap="round" transform="translate(806.5122630934051 938.958220041548) rotate(359.43911670555616 154.41719356836194 55.21699893319976)"><path d="M27.61 0 C117.68 -0.43, 210.89 0.02, 281.23 0 M27.61 0 C91.56 -0.39, 155.45 -1.13, 281.23 0 M281.23 0 C297.7 0.18, 307.04 9.87, 308.83 27.61 M281.23 0 C297.77 -0.93, 307.72 6.95, 308.83 27.61 M308.83 27.61 C309.51 40.09, 306.97 54.83, 308.83 82.83 M308.83 27.61 C308.62 41.02, 309.94 55.52, 308.83 82.83 M308.83 82.83 C310.21 102.93, 298.06 110.68, 281.23 110.43 M308.83 82.83 C310.55 102.73, 301.22 111.02, 281.23 110.43 M281.23 110.43 C214.93 112.88, 146.53 110.15, 27.61 110.43 M281.23 110.43 C220.23 108.32, 158.9 107.96, 27.61 110.43 M27.61 110.43 C8.48 109.97, -0.27 99.33, 0 82.83 M27.61 110.43 C8.88 110.45, -1.04 99.59, 0 82.83 M0 82.83 C0.99 69.91, -0.09 58.53, 0 27.61 M0 82.83 C0.61 63.4, 0.8 41.8, 0 27.61 M0 27.61 C1.32 8.04, 9.65 -1.43, 27.61 0 M0 27.61 C-0.34 9.55, 10.02 1.49, 27.61 0" stroke="#1e1e1e" stroke-width="4" fill="none"></path></g><g stroke-linecap="round" transform="translate(1041.2713027757154 960.0989609908245) rotate(359.43911670555616 27.279458326525628 29.07415953221812)"><path d="M13.64 0 C24.89 1.64, 32.87 1.07, 40.92 0 M13.64 0 C23.88 -0.46, 31.42 -0.08, 40.92 0 M40.92 0 C48.21 0.67, 52.94 3.74, 54.56 13.64 M40.92 0 C48.9 -2.25, 53.36 4.87, 54.56 13.64 M54.56 13.64 C52.7 21.99, 53.62 31.46, 54.56 44.51 M54.56 13.64 C55.31 25.98, 55.11 38.21, 54.56 44.51 M54.56 44.51 C52.98 53.84, 51.51 59.45, 40.92 58.15 M54.56 44.51 C56.14 54.19, 49.22 57.25, 40.92 58.15 M40.92 58.15 C31.22 56.55, 20.24 58.23, 13.64 58.15 M40.92 58.15 C35.82 57.57, 29.58 57.89, 13.64 58.15 M13.64 58.15 C4.28 56.24, -0.28 53.61, 0 44.51 M13.64 58.15 C3.5 56.51, -2.06 53.3, 0 44.51 M0 44.51 C-0.3 37.12, 1.16 30.89, 0 13.64 M0 44.51 C0.44 37.59, 0.55 31.45, 0 13.64 M0 13.64 C0.44 3.11, 4.25 0.3, 13.64 0 M0 13.64 C0.82 6.04, 6.42 0.48, 13.64 0" stroke="#1e1e1e" stroke-width="4" fill="none"></path></g><g stroke-linecap="round" transform="translate(1029.6635081265372 969.6920232491116) rotate(359.43911670555616 12.203968198708864 7.178804822769962)"><path d="M3.59 0 C8.24 1.85, 17.9 -0.8, 20.82 0 C20.91 0.3, 21.89 0.43, 24.41 3.59 C23.77 6.63, 23.7 9.35, 24.41 10.77 C22.65 12.39, 20.92 14.69, 20.82 14.36 C14.14 13.61, 7.25 12.97, 3.59 14.36 C1.67 14.21, -0.7 11.63, 0 10.77 C0.05 8.5, -0.78 4.95, 0 3.59 C0.61 1.67, 2.87 -1.11, 3.59 0" stroke="none" stroke-width="0" fill="#ffffff"></path><path d="M3.59 0 C9.41 0.46, 16.46 0.33, 20.82 0 M3.59 0 C9.43 0.06, 15.71 0.17, 20.82 0 M20.82 0 C22.4 -0.4, 23.92 0.22, 24.41 3.59 M20.82 0 C22.61 0.16, 24.13 1.54, 24.41 3.59 M24.41 3.59 C24.19 5.46, 24.68 6.88, 24.41 10.77 M24.41 3.59 C24.56 5.68, 24.3 7.48, 24.41 10.77 M24.41 10.77 C25.15 13.81, 23.9 14.61, 20.82 14.36 M24.41 10.77 C24.01 12.71, 23.87 15.12, 20.82 14.36 M20.82 14.36 C13.8 14.22, 6.94 14.63, 3.59 14.36 M20.82 14.36 C15.67 14.21, 10.78 13.9, 3.59 14.36 M3.59 14.36 C1.06 14.36, -0.45 12.45, 0 10.77 M3.59 14.36 C0.17 14.21, -1.08 13.69, 0 10.77 M0 10.77 C0.24 8.91, -0.35 7.51, 0 3.59 M0 10.77 C0.1 7.97, 0.02 5.26, 0 3.59 M0 3.59 C-0.15 1.35, 1.55 0.65, 3.59 0 M0 3.59 C0.94 1.43, 0.84 -0.62, 3.59 0" stroke="#1e1e1e" stroke-width="4" fill="none"></path></g><g stroke-linecap="round" transform="translate(1029.9630770551444 991.357743194917) rotate(359.43911670555616 12.203968198708864 7.178804822769962)"><path d="M3.59 0 C11.23 -0.79, 15.17 0.05, 20.82 0 C20.69 -0.77, 25.78 -0.89, 24.41 3.59 C23.72 6.49, 23.72 7.71, 24.41 10.77 C22.12 13.49, 25.69 16.48, 20.82 14.36 C16.31 12.98, 12.12 14.17, 3.59 14.36 C0.5 12.83, 2.48 13.17, 0 10.77 C-0.79 8.71, 0.21 7.11, 0 3.59 C1.67 0.08, 1.9 1.34, 3.59 0" stroke="none" stroke-width="0" fill="#ffffff"></path><path d="M3.59 0 C10.7 0.35, 17.59 0.69, 20.82 0 M3.59 0 C7.88 0.14, 12.59 -0.18, 20.82 0 M20.82 0 C22.73 -0.98, 23.89 1.34, 24.41 3.59 M20.82 0 C22.93 0.34, 23.72 0.08, 24.41 3.59 M24.41 3.59 C24.69 5.53, 24.28 8.1, 24.41 10.77 M24.41 3.59 C24.29 6.11, 24.57 8.7, 24.41 10.77 M24.41 10.77 C25.1 13.42, 22.87 13.97, 20.82 14.36 M24.41 10.77 C25.07 13.92, 24.11 14.39, 20.82 14.36 M20.82 14.36 C16.36 14.7, 13.52 14.69, 3.59 14.36 M20.82 14.36 C16.54 13.93, 12.31 14.34, 3.59 14.36 M3.59 14.36 C0.74 13.65, -0.89 13.03, 0 10.77 M3.59 14.36 C0.11 14.89, -0.74 13.07, 0 10.77 M0 10.77 C-0.37 9.11, 0.24 7.4, 0 3.59 M0 10.77 C0.02 8.97, -0.05 7.46, 0 3.59 M0 3.59 C0.35 1.84, 2.01 0.21, 3.59 0 M0 3.59 C-0.35 0.58, 2.24 -0.39, 3.59 0" stroke="#1e1e1e" stroke-width="4" fill="none"></path></g><g stroke-linecap="round" transform="translate(826.5467007866883 1116.2178891883261) rotate(270.33532342577473 10.832769740380755 11.016376007166855)"><path d="M13.21 -0.19 C15.44 0.17, 18.21 1.99, 19.58 3.89 C20.96 5.8, 21.66 8.86, 21.45 11.24 C21.25 13.62, 19.86 16.42, 18.34 18.19 C16.82 19.95, 14.53 21.51, 12.33 21.81 C10.14 22.12, 7.23 21.27, 5.17 20.02 C3.12 18.76, 0.79 16.47, 0.02 14.3 C-0.75 12.14, -0.48 9.23, 0.56 7.02 C1.6 4.8, 4.05 2.06, 6.24 1.03 C8.42 0.01, 12.27 0.85, 13.67 0.87 C15.07 0.9, 14.59 1.15, 14.64 1.19 M11.68 0.2 C13.75 -0.01, 16.07 0.88, 17.79 2.5 C19.51 4.13, 21.51 7.54, 21.99 9.93 C22.46 12.32, 22.04 14.98, 20.63 16.84 C19.22 18.69, 15.86 20.43, 13.55 21.04 C11.24 21.65, 8.76 21.32, 6.77 20.51 C4.78 19.69, 2.64 18.18, 1.6 16.15 C0.55 14.13, 0.14 10.69, 0.52 8.36 C0.89 6.04, 2.09 3.71, 3.85 2.19 C5.61 0.68, 9.86 -0.38, 11.06 -0.71 C12.26 -1.04, 11.1 0.02, 11.05 0.23" stroke="#1e1e1e" stroke-width="4" fill="none"></path></g><g stroke-linecap="round" transform="translate(373.244258474481 942.598416297016) rotate(360.3723594981833 174.47844827586204 62.390567200986425)"><path d="M31.2 0 C130.22 -3.34, 230.25 -3.24, 317.76 0 M31.2 0 C126.36 0.13, 221.86 0.98, 317.76 0 M317.76 0 C338.07 0.6, 347.76 8.45, 348.96 31.2 M317.76 0 C338.38 -1.19, 349.88 12.34, 348.96 31.2 M348.96 31.2 C349.72 48.56, 350.47 61.61, 348.96 93.59 M348.96 31.2 C350.11 50.93, 349.08 69.76, 348.96 93.59 M348.96 93.59 C350.11 115.71, 340.12 124.84, 317.76 124.78 M348.96 93.59 C346.87 113.04, 338.41 122.51, 317.76 124.78 M317.76 124.78 C219.35 125.07, 122.24 125.42, 31.2 124.78 M317.76 124.78 C258.74 124.25, 199.73 124.69, 31.2 124.78 M31.2 124.78 C8.51 125.7, -1.29 114.22, 0 93.59 M31.2 124.78 C9.2 126.28, -1.06 112.13, 0 93.59 M0 93.59 C-1.82 74, -1.63 52.21, 0 31.2 M0 93.59 C0.45 79.99, 0.91 65.3, 0 31.2 M0 31.2 C-0.61 9.32, 12.21 -0.68, 31.2 0 M0 31.2 C2.15 8.26, 12.51 0.88, 31.2 0" stroke="#1e1e1e" stroke-width="4" fill="none"></path></g><g stroke-linecap="round" transform="translate(638.5781645151868 968.4670281035462) rotate(360.3723594981833 30.823494771721016 32.85135626986062)"><path d="M15.41 0 C27.51 -1.5, 39.92 -1.32, 46.24 0 M15.41 0 C22.89 0.44, 31.17 0.6, 46.24 0 M46.24 0 C55.31 -1.95, 61.49 4.11, 61.65 15.41 M46.24 0 C57.43 1.94, 60.64 4.44, 61.65 15.41 M61.65 15.41 C63.51 27.39, 62.06 44.02, 61.65 50.29 M61.65 15.41 C61.54 27.76, 62.46 41.55, 61.65 50.29 M61.65 50.29 C63.21 60.63, 54.7 64.54, 46.24 65.7 M61.65 50.29 C61.49 58.29, 57.44 65.46, 46.24 65.7 M46.24 65.7 C35.33 65.33, 23.44 65.31, 15.41 65.7 M46.24 65.7 C36.08 65.35, 26.76 65.94, 15.41 65.7 M15.41 65.7 C3.84 65.54, -1.04 61.87, 0 50.29 M15.41 65.7 C4.08 63.45, 0.81 62.28, 0 50.29 M0 50.29 C-0.92 38.36, -1.2 25.24, 0 15.41 M0 50.29 C0.69 39.51, -0.43 27.78, 0 15.41 M0 15.41 C1.81 4.46, 7.01 -1.86, 15.41 0 M0 15.41 C2.12 6.02, 4.54 -2.03, 15.41 0" stroke="#1e1e1e" stroke-width="4" fill="none"></path></g><g stroke-linecap="round" transform="translate(625.6927361445605 978.8171617944136) rotate(360.3723594981833 13.789458187348899 8.111445992558174)"><path d="M4.06 0 C9.55 -1.84, 16.51 -2.08, 23.52 0 C28.92 -2.44, 26.5 -1.82, 27.58 4.06 C27.2 6.67, 27.28 9.16, 27.58 12.17 C25.48 15.53, 26.03 15.25, 23.52 16.22 C17.66 16.43, 16.26 13.28, 4.06 16.22 C0.79 17.07, 0.66 17.18, 0 12.17 C0.89 10.76, 1.36 6.88, 0 4.06 C-2.6 -0.74, 3.27 -0.81, 4.06 0" stroke="none" stroke-width="0" fill="#ffffff"></path><path d="M4.06 0 C8.67 -1.4, 11.19 -0.77, 23.52 0 M4.06 0 C7.75 0.26, 11.34 -0.97, 23.52 0 M23.52 0 C26.07 -1.03, 28.38 3.04, 27.58 4.06 M23.52 0 C25.22 -0.7, 29.62 2.45, 27.58 4.06 M27.58 4.06 C27.75 7.65, 28.18 10.59, 27.58 12.17 M27.58 4.06 C27.79 6.97, 27.87 9.35, 27.58 12.17 M27.58 12.17 C25.76 13.71, 26.09 14.25, 23.52 16.22 M27.58 12.17 C28.51 14.63, 27.12 14.96, 23.52 16.22 M23.52 16.22 C16.54 15.93, 13.27 15.32, 4.06 16.22 M23.52 16.22 C18.15 16.65, 13.99 16.12, 4.06 16.22 M4.06 16.22 C0.31 17.53, -0.92 12.91, 0 12.17 M4.06 16.22 C2.16 17.94, 1.26 13.32, 0 12.17 M0 12.17 C-0.53 9.08, 0.17 6.52, 0 4.06 M0 12.17 C-0.19 8.99, 0.3 6.11, 0 4.06 M0 4.06 C1.87 -0.5, 3.19 0.76, 4.06 0 M0 4.06 C-0.6 -0.68, 1.62 -2.23, 4.06 0" stroke="#1e1e1e" stroke-width="4" fill="none"></path></g><g stroke-linecap="round" transform="translate(625.6324552351919 1003.2998698805536) rotate(360.3723594981833 13.789458187348899 8.111445992558174)"><path d="M4.06 0 C10.25 -2.15, 15.22 -2.16, 23.52 0 C25.15 -3.17, 28.04 4.78, 27.58 4.06 C27.09 7.18, 26.67 10.52, 27.58 12.17 C27.38 13.9, 24.11 19.66, 23.52 16.22 C19.8 13.3, 11.28 17.06, 4.06 16.22 C2.01 18.53, -1.54 15.85, 0 12.17 C1.31 8.2, -1.15 5.62, 0 4.06 C1.91 0.54, 0.12 -1.28, 4.06 0" stroke="none" stroke-width="0" fill="#ffffff"></path><path d="M4.06 0 C7.36 -0.79, 10.33 -0.86, 23.52 0 M4.06 0 C9.59 -1.01, 16.22 -0.56, 23.52 0 M23.52 0 C27.03 1.68, 26.71 0.75, 27.58 4.06 M23.52 0 C28.27 1.1, 29.16 3.31, 27.58 4.06 M27.58 4.06 C28.12 6.41, 27.8 7.37, 27.58 12.17 M27.58 4.06 C27.94 6.19, 27.26 8.06, 27.58 12.17 M27.58 12.17 C27.45 12.9, 27.04 16.02, 23.52 16.22 M27.58 12.17 C28.47 13.61, 25.39 15.69, 23.52 16.22 M23.52 16.22 C17.95 15.31, 10.97 14.46, 4.06 16.22 M23.52 16.22 C17.31 16.24, 11.85 16.95, 4.06 16.22 M4.06 16.22 C0.43 14.26, 0.7 16.36, 0 12.17 M4.06 16.22 C2.61 14.67, 1.52 13.54, 0 12.17 M0 12.17 C0.18 9.84, 0.58 7.6, 0 4.06 M0 12.17 C0.39 9.43, 0.4 6.59, 0 4.06 M0 4.06 C1.84 2.12, 0.83 -1.77, 4.06 0 M0 4.06 C0.26 -0.88, 0.67 1.22, 4.06 0" stroke="#1e1e1e" stroke-width="4" fill="none"></path></g><g stroke-linecap="round"><g transform="translate(296.91623022664794 1165.6150022870027) rotate(180.3945654766811 42.71000140624133 50.173055685289)"><path d="M0.32 0.64 C14.43 17.57, 71.36 84.65, 85.65 101.26 M-0.97 -0.07 C12.91 16.56, 70.39 82.67, 84.82 99.62" stroke="#1e1e1e" stroke-width="4" fill="none"></path></g><g transform="translate(296.91623022664794 1165.6150022870027) rotate(180.3945654766811 42.71000140624133 50.173055685289)"><path d="M63.01 87.4 C72.39 92.4, 81.21 97.72, 84.82 99.62 M63.01 87.4 C70.29 91.35, 76.61 95.15, 84.82 99.62" stroke="#1e1e1e" stroke-width="4" fill="none"></path></g><g transform="translate(296.91623022664794 1165.6150022870027) rotate(180.3945654766811 42.71000140624133 50.173055685289)"><path d="M75.97 76.24 C80.36 85.55, 84.21 95.14, 84.82 99.62 M75.97 76.24 C79.37 83.6, 81.8 90.75, 84.82 99.62" stroke="#1e1e1e" stroke-width="4" fill="none"></path></g></g><mask></mask><g stroke-linecap="round" transform="translate(272.0642197990911 1132.243267209423) rotate(451.58001929647673 12.794218660065894 13.011069823795879)"><path d="M13.92 0.51 C16.5 0.7, 20.19 2.42, 22.2 4.27 C24.21 6.13, 25.8 8.87, 25.98 11.65 C26.15 14.44, 24.86 18.6, 23.24 20.98 C21.62 23.37, 18.92 25.37, 16.27 25.97 C13.63 26.56, 9.92 25.78, 7.37 24.56 C4.81 23.34, 2.03 21.09, 0.94 18.65 C-0.16 16.2, 0.03 12.68, 0.81 9.87 C1.59 7.06, 3.39 3.44, 5.61 1.8 C7.83 0.17, 12.69 0.27, 14.13 0.07 C15.57 -0.13, 14.23 0.36, 14.24 0.62 M10.95 -0.59 C13.54 -1.09, 17.22 0.49, 19.5 2 C21.78 3.52, 23.89 5.85, 24.63 8.49 C25.38 11.13, 25.07 15.09, 23.97 17.82 C22.88 20.55, 20.45 23.55, 18.06 24.86 C15.67 26.17, 12.24 26.23, 9.61 25.67 C6.99 25.11, 3.96 23.8, 2.3 21.48 C0.64 19.17, -0.55 14.56, -0.34 11.79 C-0.12 9.01, 1.61 6.87, 3.57 4.84 C5.54 2.81, 10.13 0.43, 11.46 -0.39 C12.8 -1.2, 11.59 -0.27, 11.58 -0.06" stroke="#1e1e1e" stroke-width="4" fill="none"></path></g><g stroke-linecap="round"><g transform="translate(322.48781416378495 1091.8053816605736) rotate(451.58001929647673 -36.43099550662828 0.8674046549197101)"><path d="M0.48 1.01 C-11.73 1.34, -61.34 1.16, -73.39 1.37 M-0.73 0.5 C-13.14 1.05, -62.73 2.76, -74.61 2.72" stroke="#1e1e1e" stroke-width="4" fill="none"></path></g></g><mask></mask><g transform="translate(136.47368182639661 1088.8899544872836) rotate(0 61.88541793823242 12.5)"><text x="0" y="0" font-family="Virgil, Segoe UI Emoji" font-size="20px" fill="#1e1e1e" text-anchor="start" style="white-space: pre;" direction="ltr" dominant-baseline="text-before-edge">Pop message</text></g><g stroke-linecap="round" transform="translate(963.793438885896 343.45655301803913) rotate(357.9355080324675 13.319018164857553 13.544764235448383)"><path d="M11.93 0.51 C14.57 -0.12, 17.89 0.47, 20.22 1.97 C22.55 3.47, 25.03 6.74, 25.92 9.52 C26.81 12.29, 26.66 15.92, 25.54 18.65 C24.42 21.38, 21.68 24.58, 19.19 25.9 C16.71 27.22, 13.25 27.32, 10.6 26.58 C7.95 25.83, 5.11 23.75, 3.28 21.44 C1.45 19.13, -0.46 15.58, -0.38 12.71 C-0.3 9.83, 1.79 6.31, 3.76 4.2 C5.73 2.08, 10.04 0.64, 11.42 0.02 C12.8 -0.61, 11.94 0.13, 12.04 0.44 M12.49 -0.37 C15.15 -0.81, 18.29 0.17, 20.68 1.99 C23.07 3.81, 26 7.73, 26.84 10.56 C27.69 13.4, 27.2 16.38, 25.75 19 C24.31 21.62, 20.89 24.98, 18.16 26.27 C15.43 27.57, 11.92 27.57, 9.36 26.77 C6.79 25.97, 4.37 23.91, 2.77 21.48 C1.17 19.05, -0.38 15.09, -0.23 12.2 C-0.09 9.31, 1.61 6.26, 3.64 4.14 C5.66 2.01, 10.42 0.16, 11.93 -0.53 C13.44 -1.22, 12.68 -0.4, 12.69 -0.01" stroke="#1e1e1e" stroke-width="4" fill="none"></path></g><g stroke-linecap="round"><g transform="translate(992.2529170236198 355.5375927010152) rotate(357.9355080324675 37.9253398592554 0.9029842823632634)"><path d="M-0.67 -0.03 C12.04 0.55, 63.8 2.71, 76.7 2.96 M1.17 -1.09 C13.77 -0.77, 63.65 0.83, 76.2 1.44" stroke="#1e1e1e" stroke-width="4" fill="none"></path></g></g><mask></mask><g stroke-linecap="round" transform="translate(1164.0567772525378 208.7790706813737) rotate(271.1854538197956 12.794218660065894 13.011069823795879)"><path d="M13.48 0.45 C16.11 0.46, 19.76 1.74, 21.85 3.56 C23.93 5.38, 25.8 8.63, 25.98 11.38 C26.16 14.13, 24.49 17.74, 22.91 20.06 C21.33 22.38, 19.15 24.49, 16.5 25.27 C13.84 26.05, 9.57 25.86, 6.97 24.76 C4.37 23.66, 2.01 21.12, 0.92 18.69 C-0.16 16.26, -0.28 12.94, 0.45 10.18 C1.18 7.41, 3 3.82, 5.31 2.12 C7.61 0.43, 12.75 0.39, 14.27 0.03 C15.8 -0.32, 14.54 -0.29, 14.44 0 M12.85 0.28 C15.35 0.36, 19.05 1.69, 21.25 3.6 C23.46 5.51, 25.72 8.97, 26.06 11.73 C26.4 14.49, 24.96 17.82, 23.31 20.18 C21.66 22.53, 18.84 25.13, 16.17 25.86 C13.51 26.58, 9.78 25.69, 7.35 24.52 C4.92 23.35, 2.88 21.11, 1.59 18.82 C0.31 16.52, -0.97 13.44, -0.34 10.76 C0.28 8.09, 3.02 4.52, 5.36 2.78 C7.69 1.04, 12.28 0.71, 13.66 0.32 C15.04 -0.06, 13.75 0.29, 13.61 0.47" stroke="#1e1e1e" stroke-width="4" fill="none"></path></g><g stroke-linecap="round"><g transform="translate(1213.706636608958 272.02735904080055) rotate(271.1854538197956 -36.43099550662831 0.8674046549197101)"><path d="M0.4 -0.32 C-11.69 -0.16, -60.72 0.45, -72.77 0.81 M-0.85 -1.54 C-13.08 -1.24, -61.78 1.07, -73.67 1.85" stroke="#1e1e1e" stroke-width="4" fill="none"></path></g></g><mask></mask><g transform="translate(1193.7198175095082 207.11961264733168) rotate(0 70.89583587646484 12.5)"><text x="0" y="0" font-family="Virgil, Segoe UI Emoji" font-size="20px" fill="#1e1e1e" text-anchor="start" style="white-space: pre;" direction="ltr" dominant-baseline="text-before-edge">Add submission</text></g><g transform="translate(958.2586015689174 258.19942280370424) rotate(317.43698603471637 71.95833587646484 12.5)"><text x="0" y="0" font-family="Virgil, Segoe UI Emoji" font-size="20px" fill="#1e1e1e" text-anchor="start" style="white-space: pre;" direction="ltr" dominant-baseline="text-before-edge">Get submission</text></g><g stroke-linecap="round" transform="translate(1168.4403961700586 667.1343452056713) rotate(0 145.42068965517245 52)"><path d="M26 0 C81.78 0.03, 139.49 1.01, 264.84 0 M26 0 C100.36 -0.63, 175.59 -0.49, 264.84 0 M264.84 0 C283.97 -1.93, 290.15 8.2, 290.84 26 M264.84 0 C283.24 1.37, 289.27 9.05, 290.84 26 M290.84 26 C292.45 39.32, 292.3 54.61, 290.84 78 M290.84 26 C291.99 45.16, 290.77 63.36, 290.84 78 M290.84 78 C290.93 93.36, 282.1 105.59, 264.84 104 M290.84 78 C292.18 94.88, 281.23 102.53, 264.84 104 M264.84 104 C200.59 102.73, 139.15 102.14, 26 104 M264.84 104 C202.76 102.53, 141.13 102.88, 26 104 M26 104 C7.21 104.02, -0.99 95.59, 0 78 M26 104 C7.77 106.01, 0.31 94.4, 0 78 M0 78 C0.22 68.35, -0.36 58.22, 0 26 M0 78 C-0.9 59.32, -1.24 42.48, 0 26 M0 26 C1.99 10.3, 6.83 0.89, 26 0 M0 26 C1.05 9.01, 10.24 -0.8, 26 0" stroke="#1e1e1e" stroke-width="4" fill="none"></path></g><g stroke-linecap="round" transform="translate(1389.5633907312813 688.035767833077) rotate(0 25.690129133882124 27.380269208479604)"><path d="M12.85 0 C21.02 0.36, 26.42 2, 38.54 0 M12.85 0 C21.88 0.31, 31.22 -1.02, 38.54 0 M38.54 0 C46.4 -0.47, 52.31 5.47, 51.38 12.85 M38.54 0 C45.52 0.39, 50.64 6.12, 51.38 12.85 M51.38 12.85 C52.6 24.99, 52.59 36.52, 51.38 41.92 M51.38 12.85 C51.34 24.03, 51.69 32.69, 51.38 41.92 M51.38 41.92 C51.3 52.07, 48.26 54.36, 38.54 54.76 M51.38 41.92 C50.43 49.01, 46.24 55.93, 38.54 54.76 M38.54 54.76 C31.34 53.14, 23.84 53.01, 12.85 54.76 M38.54 54.76 C33.53 55.68, 27.03 54.88, 12.85 54.76 M12.85 54.76 C3.29 55.02, -0.78 52.23, 0 41.92 M12.85 54.76 C4.59 53.83, -2.18 51.38, 0 41.92 M0 41.92 C-0.22 34.28, 0.81 24.92, 0 12.85 M0 41.92 C-0.72 34.06, 1.15 26.6, 0 12.85 M0 12.85 C-1.83 5.18, 5.2 0.3, 12.85 0 M0 12.85 C1.58 3.48, 4.79 -1.25, 12.85 0" stroke="#1e1e1e" stroke-width="4" fill="none"></path></g><g stroke-linecap="round" transform="translate(1378.746494253857 696.8244962209842) rotate(0 11.492952507263112 6.760560298390033)"><path d="M3.38 0 C8.55 1.5, 16.93 -1.33, 19.61 0 C19.41 -1.26, 24.85 -0.45, 22.99 3.38 C23.44 5.18, 22.42 7.95, 22.99 10.14 C25.01 14.36, 20.54 16.01, 19.61 13.52 C14.73 12.83, 13.05 13.8, 3.38 13.52 C3.45 16.05, 1.82 13.33, 0 10.14 C-0.04 7.05, -0.05 4.13, 0 3.38 C-0.73 3.49, 1.74 -2.44, 3.38 0" stroke="none" stroke-width="0" fill="#ffffff"></path><path d="M3.38 0 C7.59 0.75, 11.93 -0.3, 19.61 0 M3.38 0 C8.94 -0.42, 13.63 -0.12, 19.61 0 M19.61 0 C22.32 0.6, 22.3 1.3, 22.99 3.38 M19.61 0 C21.49 0.92, 24.04 1.81, 22.99 3.38 M22.99 3.38 C23.18 5.35, 23.2 7.33, 22.99 10.14 M22.99 3.38 C22.98 5.83, 22.97 8.74, 22.99 10.14 M22.99 10.14 C23.57 12.2, 21.45 12.88, 19.61 13.52 M22.99 10.14 C22.56 12.98, 21.52 12.48, 19.61 13.52 M19.61 13.52 C15.07 12.79, 10.46 13.4, 3.38 13.52 M19.61 13.52 C13.79 13.59, 8.36 13.64, 3.38 13.52 M3.38 13.52 C0.74 14.39, 0.13 11.99, 0 10.14 M3.38 13.52 C0.04 13.97, 0.19 12.64, 0 10.14 M0 10.14 C0.15 8, -0.07 5.21, 0 3.38 M0 10.14 C0.2 8.8, -0.13 7.27, 0 3.38 M0 3.38 C0.46 1.28, 1.81 -0.35, 3.38 0 M0 3.38 C0.25 0.5, 0.92 -0.06, 3.38 0" stroke="#1e1e1e" stroke-width="4" fill="none"></path></g><g stroke-linecap="round" transform="translate(1378.8288649527997 717.2297331645682) rotate(0 11.492952507263112 6.760560298390033)"><path d="M3.38 0 C7.65 -1.63, 8.52 -1.16, 19.61 0 C23.72 -1.57, 22.69 -1.05, 22.99 3.38 C22.54 6.54, 23.72 9.02, 22.99 10.14 C21.67 14.88, 20.87 12.28, 19.61 13.52 C15.41 13.55, 9.22 15.49, 3.38 13.52 C2.95 14.45, 2.3 14.55, 0 10.14 C0.02 6.98, -0.25 6.13, 0 3.38 C0.61 -1.32, -0.55 2.35, 3.38 0" stroke="none" stroke-width="0" fill="#ffffff"></path><path d="M3.38 0 C8.77 -0.37, 13.67 0.17, 19.61 0 M3.38 0 C8.7 -0.02, 14.49 0.32, 19.61 0 M19.61 0 C21.17 0.17, 22.66 1.93, 22.99 3.38 M19.61 0 C22.91 0.68, 22.63 1.73, 22.99 3.38 M22.99 3.38 C23.2 5.97, 23.3 7.84, 22.99 10.14 M22.99 3.38 C22.98 6.06, 23.09 8.44, 22.99 10.14 M22.99 10.14 C22.57 11.75, 21.49 14.03, 19.61 13.52 M22.99 10.14 C22.65 11.36, 21.39 13.38, 19.61 13.52 M19.61 13.52 C15.24 13.39, 12.66 13.77, 3.38 13.52 M19.61 13.52 C13.21 13.58, 7.07 13.88, 3.38 13.52 M3.38 13.52 C1.26 13.11, -0.95 12.79, 0 10.14 M3.38 13.52 C1.32 13.76, 0.59 12.31, 0 10.14 M0 10.14 C-0.09 7.4, -0.29 4.73, 0 3.38 M0 10.14 C-0.19 8.05, 0.04 5.82, 0 3.38 M0 3.38 C0.69 0.78, 1.35 -0.54, 3.38 0 M0 3.38 C-0.2 1.06, 2.23 -0.62, 3.38 0" stroke="#1e1e1e" stroke-width="4" fill="none"></path></g><g transform="translate(1304.447706452242 804.8554111424203) rotate(0 27.04166603088379 12.5)"><text x="27.04166603088379" y="0" font-family="Virgil, Segoe UI Emoji" font-size="20px" fill="#1e1e1e" text-anchor="middle" style="white-space: pre;" direction="ltr" dominant-baseline="text-before-edge">Store</text></g><g stroke-linecap="round" transform="translate(387.4383653172989 1261.1275367526325) rotate(360.0867791949976 202.75 72.5)"><path d="M32 0 C140.86 -1.06, 250.31 -0.17, 373.5 0 M32 0 C147.22 -1.54, 262.67 -1.18, 373.5 0 M373.5 0 C393.33 1.41, 405.77 11.05, 405.5 32 M373.5 0 C395.34 1.26, 403.66 10.12, 405.5 32 M405.5 32 C404 62.11, 403.48 89.8, 405.5 113 M405.5 32 C406.69 55.27, 406.61 80.47, 405.5 113 M405.5 113 C407.31 133.35, 396.08 145.87, 373.5 145 M405.5 113 C406.58 135.78, 396.83 144.34, 373.5 145 M373.5 145 C304.46 141.88, 233.99 142.32, 32 145 M373.5 145 C304.34 145.52, 235.1 144.68, 32 145 M32 145 C10.51 143.97, 0.8 136.02, 0 113 M32 145 C9.66 144.3, 2.04 135.43, 0 113 M0 113 C-0.45 84.64, 0.62 54.67, 0 32 M0 113 C0.86 87.29, 1.06 60.28, 0 32 M0 32 C-1.81 9.5, 10.53 -1.98, 32 0 M0 32 C0.93 10.43, 11.56 -1.26, 32 0" stroke="#1e1e1e" stroke-width="4" fill="none"></path></g><g stroke-linecap="round" transform="translate(695.7425378424697 1290.4830573135466) rotate(360.0867791949976 35.81796850397029 38.17441380028413)"><path d="M17.91 0 C31.36 1.44, 43.77 1, 53.73 0 M17.91 0 C30.04 0.19, 42.33 0.91, 53.73 0 M53.73 0 C65.94 0.39, 72.08 7.07, 71.64 17.91 M53.73 0 C63.83 -0.55, 72.89 3.94, 71.64 17.91 M71.64 17.91 C70.17 32.89, 71.39 48.33, 71.64 58.44 M71.64 17.91 C72.55 30.59, 72.83 41.63, 71.64 58.44 M71.64 58.44 C72.88 71.25, 66.61 77.61, 53.73 76.35 M71.64 58.44 C73.63 69.72, 63.45 76.56, 53.73 76.35 M53.73 76.35 C45.39 75.09, 36.72 75.02, 17.91 76.35 M53.73 76.35 C41.87 75.48, 31.14 75.94, 17.91 76.35 M17.91 76.35 C6.77 78.03, -0.87 69.77, 0 58.44 M17.91 76.35 C8.01 77.45, 1.58 72.33, 0 58.44 M0 58.44 C1.25 50.85, 0.46 39.82, 0 17.91 M0 58.44 C0.55 47.89, -1.14 36.69, 0 17.91 M0 17.91 C-0.13 3.99, 6.78 -0.21, 17.91 0 M0 17.91 C0.89 4.71, 5.13 -0.53, 17.91 0" stroke="#1e1e1e" stroke-width="4" fill="none"></path></g><g stroke-linecap="round" transform="translate(680.6863111564298 1302.6837701320871) rotate(360.0867791949976 16.02382801493411 9.425781185255346)"><path d="M4.71 0 C8.62 -3.03, 17.18 -3.21, 27.33 0 C32.14 -2.33, 31.76 -0.3, 32.05 4.71 C32.57 9.42, 32.9 10.45, 32.05 14.14 C34.43 15.19, 31.28 16.27, 27.33 18.85 C23.22 21.94, 15.18 17.89, 4.71 18.85 C-0.36 22.11, -1.22 20.65, 0 14.14 C-0.6 10.68, 0.04 8.59, 0 4.71 C-1.06 3.48, -1.32 0.24, 4.71 0" stroke="none" stroke-width="0" fill="#ffffff"></path><path d="M4.71 0 C12.4 0.85, 19.59 -0.95, 27.33 0 M4.71 0 C9.46 0.71, 15.85 0.2, 27.33 0 M27.33 0 C30.92 1.1, 30.45 1.09, 32.05 4.71 M27.33 0 C31.73 -2.03, 33.44 0.67, 32.05 4.71 M32.05 4.71 C31.95 8.76, 31.97 12.34, 32.05 14.14 M32.05 4.71 C32.53 6.67, 32.4 9.29, 32.05 14.14 M32.05 14.14 C32.99 18.54, 32.21 18.28, 27.33 18.85 M32.05 14.14 C29.83 17.49, 28.41 19.62, 27.33 18.85 M27.33 18.85 C20.42 17.7, 17.71 18.26, 4.71 18.85 M27.33 18.85 C19.8 18.12, 12.82 19.47, 4.71 18.85 M4.71 18.85 C0.7 18.25, 1.77 18.24, 0 14.14 M4.71 18.85 C3.15 20.81, -1.81 17.56, 0 14.14 M0 14.14 C0.18 10.28, -0.43 7.62, 0 4.71 M0 14.14 C-0.5 10.41, -0.1 6.77, 0 4.71 M0 4.71 C0.81 1.36, 2.35 -1.09, 4.71 0 M0 4.71 C-0.84 1.04, 1.27 -2.19, 4.71 0" stroke="#1e1e1e" stroke-width="4" fill="none"></path></g><g stroke-linecap="round" transform="translate(680.7580655189279 1331.1335206414449) rotate(360.0867791949976 16.02382801493411 9.425781185255346)"><path d="M4.71 0 C10 -3.03, 17.9 -1.96, 27.33 0 C30.19 -1.87, 34.4 -0.09, 32.05 4.71 C33.04 5.47, 33.23 7.54, 32.05 14.14 C32.85 14.7, 29.94 19.39, 27.33 18.85 C20.49 18.08, 10.22 22.44, 4.71 18.85 C0.36 22.22, -3.34 20.59, 0 14.14 C0.24 9.31, -0.46 8.66, 0 4.71 C-2.89 1.81, -0.6 1.97, 4.71 0" stroke="none" stroke-width="0" fill="#ffffff"></path><path d="M4.71 0 C14.18 -0.9, 20.46 -1.02, 27.33 0 M4.71 0 C11.6 0.03, 18.44 0.39, 27.33 0 M27.33 0 C28.88 -0.48, 33.14 -0.2, 32.05 4.71 M27.33 0 C31.87 -0.9, 33.65 0.07, 32.05 4.71 M32.05 4.71 C32.03 8.38, 31.4 11.3, 32.05 14.14 M32.05 4.71 C32.43 8.28, 32.35 11.74, 32.05 14.14 M32.05 14.14 C33.78 16.71, 28.55 19.03, 27.33 18.85 M32.05 14.14 C29.98 18.05, 28.61 17.92, 27.33 18.85 M27.33 18.85 C21.93 18.25, 16.55 17.53, 4.71 18.85 M27.33 18.85 C23.15 19.58, 17.73 18.43, 4.71 18.85 M4.71 18.85 C3.34 19.81, 1.37 18.98, 0 14.14 M4.71 18.85 C-0.24 19.13, 1.72 18.78, 0 14.14 M0 14.14 C-0.39 11.21, 0.6 7.92, 0 4.71 M0 14.14 C0.05 10.82, 0.28 8.38, 0 4.71 M0 4.71 C0.78 0.48, 0.84 -0.46, 4.71 0 M0 4.71 C-0.3 -0.62, 1.25 0.01, 4.71 0" stroke="#1e1e1e" stroke-width="4" fill="none"></path></g><g stroke-linecap="round" transform="translate(10.541423030805504 954.7759548878137) rotate(359.394478142782 145.42068965517245 52)"><path d="M26 0 C110.03 -0.05, 194.28 -0.91, 264.84 0 M26 0 C97.21 -0.54, 167.76 0.5, 264.84 0 M264.84 0 C283.99 -0.99, 292.09 9.54, 290.84 26 M264.84 0 C283.26 1.45, 292.84 8.01, 290.84 26 M290.84 26 C291.56 34.96, 290.08 46.19, 290.84 78 M290.84 26 C290.33 36.8, 289.97 46.04, 290.84 78 M290.84 78 C290.69 94.3, 282.98 105.68, 264.84 104 M290.84 78 C289.84 94.64, 284.21 105.1, 264.84 104 M264.84 104 C177.01 103.68, 89.87 103.58, 26 104 M264.84 104 C187.55 103.78, 109.95 103.25, 26 104 M26 104 C6.85 102.84, -0.13 93.36, 0 78 M26 104 C9.6 103.76, 0.89 94.08, 0 78 M0 78 C-1.79 64.01, 0.13 49.68, 0 26 M0 78 C-0.48 66.57, -0.18 54.13, 0 26 M0 26 C-1.04 9.97, 7.74 -1.96, 26 0 M0 26 C0.81 10.38, 9.93 -1.55, 26 0" stroke="#1e1e1e" stroke-width="4" fill="none"></path></g><g stroke-linecap="round" transform="translate(231.61945973207764 974.6060543685039) rotate(359.394478142782 25.690129133882124 27.380269208479604)"><path d="M12.85 0 C20.81 0.19, 31.29 1.01, 38.54 0 M12.85 0 C21.14 0.75, 29.1 -0.32, 38.54 0 M38.54 0 C48.34 0.87, 52.32 5.54, 51.38 12.85 M38.54 0 C49.09 -0.66, 49.16 4.49, 51.38 12.85 M51.38 12.85 C50.67 17.98, 49.52 24.02, 51.38 41.92 M51.38 12.85 C50.71 21.01, 51.23 30.6, 51.38 41.92 M51.38 41.92 C52.18 52.16, 46.23 54.16, 38.54 54.76 M51.38 41.92 C53.42 51.58, 48.68 56.72, 38.54 54.76 M38.54 54.76 C34.15 56.33, 27.68 54.27, 12.85 54.76 M38.54 54.76 C32.61 54.96, 24.21 54.35, 12.85 54.76 M12.85 54.76 C4.15 52.79, 0.81 50.27, 0 41.92 M12.85 54.76 C5.18 53.5, -0.84 49.95, 0 41.92 M0 41.92 C0.29 32.67, -1.15 23.46, 0 12.85 M0 41.92 C-0.37 33.5, -0.25 25.89, 0 12.85 M0 12.85 C-0.92 2.32, 4.98 1.49, 12.85 0 M0 12.85 C1.26 2.73, 5.8 -1.33, 12.85 0" stroke="#1e1e1e" stroke-width="4" fill="none"></path></g><g stroke-linecap="round" transform="translate(220.67892853615683 983.6597960125455) rotate(359.394478142782 11.492952507263112 6.760560298390033)"><path d="M3.38 0 C9.37 1.65, 13.07 -0.72, 19.61 0 C20.46 2.36, 22.11 3.56, 22.99 3.38 C22.84 4, 23.17 5.33, 22.99 10.14 C22.22 13.77, 19.77 13.69, 19.61 13.52 C17.29 11.95, 11.2 11.52, 3.38 13.52 C1.46 16, 2.13 11.47, 0 10.14 C-0.49 8.24, -0.02 5.77, 0 3.38 C-1.53 3.61, 1.14 -0.87, 3.38 0" stroke="none" stroke-width="0" fill="#ffffff"></path><path d="M3.38 0 C9.34 0.47, 15.36 0.56, 19.61 0 M3.38 0 C7.51 -0.25, 11.16 0.13, 19.61 0 M19.61 0 C22.33 0.63, 23.85 0.84, 22.99 3.38 M19.61 0 C20.75 0.1, 21.95 1.51, 22.99 3.38 M22.99 3.38 C22.64 4.68, 23.02 6.26, 22.99 10.14 M22.99 3.38 C22.95 5.52, 23.03 7.98, 22.99 10.14 M22.99 10.14 C22.55 12.09, 22.75 14, 19.61 13.52 M22.99 10.14 C23.77 13.37, 20.95 13.66, 19.61 13.52 M19.61 13.52 C13.73 13.3, 7.13 14.04, 3.38 13.52 M19.61 13.52 C13.3 13.29, 7.69 13.12, 3.38 13.52 M3.38 13.52 C1.53 13.42, 0.39 11.85, 0 10.14 M3.38 13.52 C0.71 13.26, -0.15 11.3, 0 10.14 M0 10.14 C-0.24 7.9, -0.04 5.95, 0 3.38 M0 10.14 C-0.07 7.91, -0.06 5.3, 0 3.38 M0 3.38 C0.35 1.87, 1.67 -0.68, 3.38 0 M0 3.38 C0.76 0.46, 1.38 -0.82, 3.38 0" stroke="#1e1e1e" stroke-width="4" fill="none"></path></g><g stroke-linecap="round" transform="translate(220.9769403087713 1004.0630229298545) rotate(359.394478142782 11.492952507263112 6.760560298390033)"><path d="M3.38 0 C9.26 -0.82, 13.13 1.74, 19.61 0 C20.98 2.44, 20.57 3.52, 22.99 3.38 C23.06 4.81, 22.7 8.42, 22.99 10.14 C20.9 12.57, 20.29 14.95, 19.61 13.52 C15.2 11.52, 12.32 15.39, 3.38 13.52 C3.25 12.59, 0.15 11.62, 0 10.14 C0 7.86, -0.47 6.9, 0 3.38 C0.01 0.26, 1.28 1.58, 3.38 0" stroke="none" stroke-width="0" fill="#ffffff"></path><path d="M3.38 0 C8.53 0.52, 13.15 0.46, 19.61 0 M3.38 0 C9.43 0.22, 15.16 0.3, 19.61 0 M19.61 0 C22.73 -0.29, 22.02 1.22, 22.99 3.38 M19.61 0 C20.83 0.38, 22.05 0.66, 22.99 3.38 M22.99 3.38 C23 5, 23.05 6.58, 22.99 10.14 M22.99 3.38 C23.05 4.89, 22.91 6.07, 22.99 10.14 M22.99 10.14 C23.87 12.87, 22.54 14.37, 19.61 13.52 M22.99 10.14 C22.08 12.53, 22.72 14.27, 19.61 13.52 M19.61 13.52 C13.31 13.96, 8.17 14.13, 3.38 13.52 M19.61 13.52 C14.66 13.07, 9.93 13.43, 3.38 13.52 M3.38 13.52 C1.52 12.97, -0.36 12.16, 0 10.14 M3.38 13.52 C0.97 12.43, -0.16 12.4, 0 10.14 M0 10.14 C-0.02 8.1, 0.18 6.48, 0 3.38 M0 10.14 C-0.06 8, 0.08 6.32, 0 3.38 M0 3.38 C0.55 0.45, 1.79 -0.58, 3.38 0 M0 3.38 C0.26 0.3, 0.96 0.17, 3.38 0" stroke="#1e1e1e" stroke-width="4" fill="none"></path></g><g stroke-linecap="round"><g transform="translate(806.6530206586388 1082.5707943792866) rotate(270.33532342577473 30.845852820067233 0.734425067144457)"><path d="M-0.58 -1.18 C9.76 -0.82, 50.74 1.14, 61.07 1.64 M1.31 0.82 C12.14 1.44, 53.59 3.46, 63.45 3.27" stroke="#1e1e1e" stroke-width="4" fill="none"></path></g></g><mask></mask><g stroke-linecap="round" transform="translate(264.3661942978772 864.3690622126715) rotate(89.94075794909357 10.83276974038074 11.016376007166855)"><path d="M10.83 0 C12.99 -0.08, 15.55 1.24, 17.3 2.74 C19.06 4.24, 20.9 6.72, 21.34 9 C21.79 11.27, 21.12 14.27, 19.98 16.39 C18.84 18.52, 16.61 20.86, 14.53 21.77 C12.44 22.69, 9.73 22.68, 7.48 21.88 C5.23 21.07, 2.17 19.12, 1.02 16.94 C-0.14 14.76, 0.01 11.24, 0.54 8.8 C1.07 6.36, 2.42 3.8, 4.17 2.31 C5.92 0.82, 9.8 0.22, 11.03 -0.15 C12.27 -0.52, 11.6 -0.1, 11.56 0.1 M13.67 -0.45 C15.75 -0.23, 18.03 2.38, 19.29 4.26 C20.54 6.14, 21.38 8.55, 21.18 10.8 C20.97 13.05, 19.44 16.02, 18.06 17.78 C16.68 19.53, 14.98 20.97, 12.92 21.33 C10.86 21.69, 7.7 21.04, 5.71 19.95 C3.72 18.86, 1.74 17.01, 0.97 14.78 C0.19 12.56, 0.34 8.81, 1.05 6.59 C1.76 4.38, 3.14 2.49, 5.24 1.49 C7.33 0.49, 12.33 0.75, 13.62 0.58 C14.91 0.41, 13.17 0.42, 12.97 0.48" stroke="#1e1e1e" stroke-width="4" fill="none"></path></g><g stroke-linecap="round"><g transform="translate(243.35732399784865 917.9481718901352) rotate(89.94075794909357 30.84585282006725 0.734425067144457)"><path d="M-0.04 -0.47 C10.26 -0.27, 50.81 1.51, 61.1 1.66 M-1.52 -1.76 C9.24 -1.99, 53.09 -0.86, 63.5 -0.36" stroke="#1e1e1e" stroke-width="4" fill="none"></path></g></g><mask></mask><g stroke-linecap="round"><g transform="translate(820.419630507066 906.9509722169132) rotate(89.94075794909357 30.845852820067233 0.734425067144457)"><path d="M0.56 0.62 C10.77 0.72, 50.83 0.6, 61.11 0.82 M-0.6 -0.1 C10.01 0.12, 53.12 2.03, 63.52 2.02" stroke="#1e1e1e" stroke-width="4" fill="none"></path></g></g><mask></mask><g stroke-linecap="round"><g transform="translate(443.17617794501774 755.8684637256017) rotate(0 -77.00007055266488 54.992522517162115)"><path d="M1.05 -0.43 C-24.29 17.9, -127.17 90.64, -153.12 109.07 M0.14 -1.71 C-25.19 16.83, -127.63 91.24, -153.61 110.12" stroke="#1e1e1e" stroke-width="4" fill="none"></path></g><g transform="translate(443.17617794501774 755.8684637256017) rotate(0 -77.00007055266488 54.992522517162115)"><path d="M-139.63 89.4 C-143.45 95.33, -147.19 97.13, -153.61 110.12 M-139.63 89.4 C-143.93 96.81, -147.38 102.26, -153.61 110.12" stroke="#1e1e1e" stroke-width="4" fill="none"></path></g><g transform="translate(443.17617794501774 755.8684637256017) rotate(0 -77.00007055266488 54.992522517162115)"><path d="M-129.58 103.23 C-135.4 106.35, -141.25 105.24, -153.61 110.12 M-129.58 103.23 C-137.13 106.27, -143.74 107.37, -153.61 110.12" stroke="#1e1e1e" stroke-width="4" fill="none"></path></g></g><mask></mask><g transform="translate(899.6879796448954 981.2408026594824) rotate(0 50.48958206176758 12.5)"><text x="0" y="0" font-family="Virgil, Segoe UI Emoji" font-size="20px" fill="#1e1e1e" text-anchor="start" style="white-space: pre;" direction="ltr" dominant-baseline="text-before-edge">BuildStore</text></g><g transform="translate(419.9558888686929 986.3460316790017) rotate(0 90.8125 12.5)"><text x="90.8125" y="0" font-family="Virgil, Segoe UI Emoji" font-size="20px" fill="#1e1e1e" text-anchor="middle" style="white-space: pre;" direction="ltr" dominant-baseline="text-before-edge">BuildHealthChecker</text></g><g transform="translate(464.2618914699249 1306.4020848137377) rotate(360.0867791949976 61.75 12.5)"><text x="61.75" y="0" font-family="Virgil, Segoe UI Emoji" font-size="20px" fill="#1e1e1e" text-anchor="middle" style="white-space: pre;" direction="ltr" dominant-baseline="text-before-edge">CacheBuilder</text></g><g stroke-linecap="round"><g transform="translate(808.1479792556579 1303.8834655952435) rotate(0 281.0365836387381 -213.37134867063173)"><path d="M-0.92 -0.73 C50.37 -38.59, 214.01 -155.48, 307.89 -226.56 C401.77 -297.63, 519.85 -393.96, 562.36 -427.16 M0.8 1.5 C51.97 -36.27, 213.75 -154.1, 307.24 -225.36 C400.73 -296.62, 519.02 -392.32, 561.75 -426.07" stroke="#1e1e1e" stroke-width="4" fill="none"></path></g><g transform="translate(808.1479792556579 1303.8834655952435) rotate(0 281.0365836387381 -213.37134867063173)"><path d="M548.71 -404.74 C551.43 -410.31, 555.61 -417.4, 561.75 -426.07 M548.71 -404.74 C551.25 -409.71, 556.23 -415.64, 561.75 -426.07" stroke="#1e1e1e" stroke-width="4" fill="none"></path></g><g transform="translate(808.1479792556579 1303.8834655952435) rotate(0 281.0365836387381 -213.37134867063173)"><path d="M538.05 -418.11 C544.15 -419.45, 551.64 -422.39, 561.75 -426.07 M538.05 -418.11 C543.51 -419.63, 551.31 -422.01, 561.75 -426.07" stroke="#1e1e1e" stroke-width="4" fill="none"></path></g></g><mask></mask><g transform="translate(868.4198021936929 860.3599150142277) rotate(0 74.6875 12.5)"><text x="74.6875" y="0" font-family="Virgil, Segoe UI Emoji" font-size="20px" fill="#1e1e1e" text-anchor="middle" style="white-space: pre;" direction="ltr" dominant-baseline="text-before-edge">Add dependency</text></g><g transform="translate(856.4081380665085 1109.9215259259847) rotate(0 72.25 11.938380474976157)"><text x="72.25" y="0" font-family="Virgil, Segoe UI Emoji" font-size="19.101408759961988px" fill="#1e1e1e" text-anchor="middle" style="white-space: pre;" direction="ltr" dominant-baseline="text-before-edge">Get dependency</text></g></svg>