<svg version="1.1" xmlns="http://www.w3.org/2000/svg" viewBox="0 0 1237.254096028986 1139.939940500107" width="1237.254096028986" height="1139.939940500107">
  <!-- svg-source:excalidraw -->
  
  <defs>
    <style class="style-fonts">
      @font-face {
        font-family: "Virgil";
        src: url("https://excalidraw.com/Virgil.woff2");
      }
      @font-face {
        font-family: "Cascadia";
        src: url("https://excalidraw.com/Cascadia.woff2");
      }
      @font-face {
        font-family: "Assistant";
        src: url("https://excalidraw.com/Assistant-Regular.woff2");
      }
    </style>
    
  </defs>
  <rect x="0" y="0" width="1237.254096028986" height="1139.939940500107" fill="#ffffff"></rect><g transform="translate(250.5091010458774 65.01488359750897) rotate(0 120.21707916259766 20.073535279651765)"><text x="0" y="0" font-family="Virgil, Segoe UI Emoji" font-size="32.11765644744276px" fill="#1e1e1e" text-anchor="start" style="white-space: pre;" direction="ltr" dominant-baseline="text-before-edge">RequestHandler</text></g><g stroke-linecap="round" transform="translate(207.71940714609673 10) rotate(0 219.73500338091284 78.57355238035109)"><path d="M32 0 C112.1 1.57, 193.66 2.23, 407.47 0 M32 0 C155.01 0.89, 277.89 0.4, 407.47 0 M407.47 0 C428.67 -1.95, 440.79 11.53, 439.47 32 M407.47 0 C427.24 0.46, 438.01 11.13, 439.47 32 M439.47 32 C439.6 58.25, 438 84.28, 439.47 125.15 M439.47 32 C440.32 60.26, 440.67 88.56, 439.47 125.15 M439.47 125.15 C440.61 145.28, 428.92 156.99, 407.47 157.15 M439.47 125.15 C441.15 144.59, 426.97 158.72, 407.47 157.15 M407.47 157.15 C264.6 157.87, 120.21 157.28, 32 157.15 M407.47 157.15 C307.73 156.12, 208.75 156.55, 32 157.15 M32 157.15 C11.29 156.1, 1.02 145.34, 0 125.15 M32 157.15 C11.61 155.99, -1.16 147.92, 0 125.15 M0 125.15 C0.47 95.64, 0.68 67.41, 0 32 M0 125.15 C0.01 99.27, 0.84 74.95, 0 32 M0 32 C-1.05 10.74, 10.1 -0.43, 32 0 M0 32 C-1.51 12.11, 9.35 -0.65, 32 0" stroke="#1e1e1e" stroke-width="4" fill="none"></path></g><g stroke-linecap="round" transform="translate(541.8428532164106 41.582673569968165) rotate(0 38.81855206075137 41.37240417001135)"><path d="M19.41 0 C29.09 0.35, 36 -0.74, 58.23 0 M19.41 0 C31.04 -0.37, 41.05 -1.24, 58.23 0 M58.23 0 C72.49 0.86, 76.28 6.87, 77.64 19.41 M58.23 0 C69.7 0.46, 77.26 4.44, 77.64 19.41 M77.64 19.41 C77.2 35.66, 77.89 53.56, 77.64 63.34 M77.64 19.41 C78.81 31.75, 78.46 43.04, 77.64 63.34 M77.64 63.34 C77.76 76.12, 72.63 81.1, 58.23 82.74 M77.64 63.34 C75.8 77.85, 73.04 83.01, 58.23 82.74 M58.23 82.74 C44.89 82.63, 33.27 82.18, 19.41 82.74 M58.23 82.74 C48.52 82.69, 37.61 82.01, 19.41 82.74 M19.41 82.74 C7.49 81.61, 0.82 75.27, 0 63.34 M19.41 82.74 C5.31 84.18, 0.32 76.85, 0 63.34 M0 63.34 C0.76 54.97, -0.76 43.55, 0 19.41 M0 63.34 C0.44 50.98, -0.21 38.58, 0 19.41 M0 19.41 C-0.57 6.04, 5.16 1.26, 19.41 0 M0 19.41 C-1.31 5.82, 4.37 0.11, 19.41 0" stroke="#1e1e1e" stroke-width="4" fill="none"></path></g><g stroke-linecap="round" transform="translate(525.4981997171467 54.86270453812017) rotate(0 17.36619434296776 10.215408437039855)"><path d="M5.11 0 C14.21 -0.91, 17.78 1.99, 29.62 0 C33.1 3.35, 34.01 -0.46, 34.73 5.11 C35.66 8.6, 34.97 10.12, 34.73 15.32 C34.07 19.78, 32.66 22.12, 29.62 20.43 C17.33 23.33, 11.56 19.46, 5.11 20.43 C2.65 23.11, -0.6 15.38, 0 15.32 C-1.23 12.02, 0.3 8, 0 5.11 C0.03 1.25, 3.56 2.43, 5.11 0" stroke="none" stroke-width="0" fill="#ffffff"></path><path d="M5.11 0 C11.87 -0.94, 17.15 0.96, 29.62 0 M5.11 0 C14.09 -0.95, 23.88 0.46, 29.62 0 M29.62 0 C31.67 0.4, 33.46 2.1, 34.73 5.11 M29.62 0 C32.65 -2.03, 36.62 2.8, 34.73 5.11 M34.73 5.11 C34.72 8.4, 34.45 11.67, 34.73 15.32 M34.73 5.11 C35.12 7.96, 34.86 11.38, 34.73 15.32 M34.73 15.32 C36.2 17.08, 31.43 21.8, 29.62 20.43 M34.73 15.32 C36.61 18.99, 33.32 21.18, 29.62 20.43 M29.62 20.43 C20.7 19.7, 12.56 19.89, 5.11 20.43 M29.62 20.43 C23.94 19.95, 18.14 19.9, 5.11 20.43 M5.11 20.43 C2.52 19.43, -1.01 19.98, 0 15.32 M5.11 20.43 C2.03 21.01, -2.12 19.53, 0 15.32 M0 15.32 C-0.36 11.61, -0.23 8.74, 0 5.11 M0 15.32 C-0.28 13.05, -0.16 10.64, 0 5.11 M0 5.11 C-1.31 2.96, 0.56 -0.56, 5.11 0 M0 5.11 C-2.1 1.81, 1.61 -1.18, 5.11 0" stroke="#1e1e1e" stroke-width="4" fill="none"></path></g><g stroke-linecap="round" transform="translate(525.6226643023001 85.69562672696952) rotate(0 17.36619434296776 10.215408437039855)"><path d="M5.11 0 C12.75 2.2, 21.21 3.45, 29.62 0 C32.31 -2.16, 34.73 3.01, 34.73 5.11 C34.99 6.53, 34.48 10.72, 34.73 15.32 C34.36 20.42, 35.66 23.03, 29.62 20.43 C21.7 19.65, 14.27 23.45, 5.11 20.43 C1.1 17.08, 0.99 17.83, 0 15.32 C0.38 12.1, 0.14 9.91, 0 5.11 C1.86 4.13, 3.69 2.37, 5.11 0" stroke="none" stroke-width="0" fill="#ffffff"></path><path d="M5.11 0 C12.27 1.1, 21.63 1.67, 29.62 0 M5.11 0 C12.87 0.67, 18.62 0.44, 29.62 0 M29.62 0 C31.76 0.4, 34.4 -0.06, 34.73 5.11 M29.62 0 C34.92 1.1, 34.56 0.96, 34.73 5.11 M34.73 5.11 C34.49 8.49, 34.83 11.64, 34.73 15.32 M34.73 5.11 C34.82 8.36, 35.16 11.27, 34.73 15.32 M34.73 15.32 C33.13 20.09, 34.66 20.66, 29.62 20.43 M34.73 15.32 C35.02 19.48, 33.85 19.05, 29.62 20.43 M29.62 20.43 C21.98 19.83, 14.44 21.86, 5.11 20.43 M29.62 20.43 C22.38 19.73, 14.53 19.8, 5.11 20.43 M5.11 20.43 C0.69 21.68, 0.28 19.23, 0 15.32 M5.11 20.43 C-0.42 21.24, -0.3 19.78, 0 15.32 M0 15.32 C-0.15 11.15, -0.75 8.55, 0 5.11 M0 15.32 C-0.09 12.11, -0.28 9.43, 0 5.11 M0 5.11 C-1.14 1.14, -0.12 0.1, 5.11 0 M0 5.11 C-0.09 0.52, 0.92 1.85, 5.11 0" stroke="#1e1e1e" stroke-width="4" fill="none"></path></g><g transform="translate(750.9641378455273 455.1815599547815) rotate(0 49.43994140625 12.5)"><text x="0" y="0" font-family="Virgil, Segoe UI Emoji" font-size="20px" fill="#1e1e1e" text-anchor="start" style="white-space: pre;" direction="ltr" dominant-baseline="text-before-edge">Database</text></g><g stroke-linecap="round" transform="translate(699.0030092938232 418.1332185940132) rotate(0 145.42068965517242 52)"><path d="M26 0 C118.93 2.2, 207.75 2.79, 264.84 0 M26 0 C98.29 0.39, 170.51 1.21, 264.84 0 M264.84 0 C283.97 1.08, 290.08 8.16, 290.84 26 M264.84 0 C280.32 0.31, 292.47 8.7, 290.84 26 M290.84 26 C290.59 45.05, 290.25 64.81, 290.84 78 M290.84 26 C291.6 45.19, 290.86 65.14, 290.84 78 M290.84 78 C291.27 94.34, 282.49 105.37, 264.84 104 M290.84 78 C289.63 93.25, 280.45 103.78, 264.84 104 M264.84 104 C189.75 104.37, 110.27 104.08, 26 104 M264.84 104 C193.09 102.58, 121.29 103.67, 26 104 M26 104 C8.27 102.7, -0.4 94.68, 0 78 M26 104 C9.61 102.88, 0.11 93.17, 0 78 M0 78 C0.13 61.63, 1.67 49.03, 0 26 M0 78 C1.22 63.43, 1.08 47.34, 0 26 M0 26 C-0.91 8.94, 6.95 -1.91, 26 0 M0 26 C-2.15 10.35, 7.33 -1.03, 26 0" stroke="#1e1e1e" stroke-width="4" fill="none"></path></g><g stroke-linecap="round" transform="translate(920.1260038550461 439.03464122141895) rotate(0 25.690129133882138 27.380269208479604)"><path d="M12.85 0 C20.22 -2.06, 28.63 -0.26, 38.54 0 M12.85 0 C22.21 0.24, 30.37 -0.58, 38.54 0 M38.54 0 C45.28 1.36, 49.56 5.93, 51.38 12.85 M38.54 0 C45.08 -0.27, 50.32 4.25, 51.38 12.85 M51.38 12.85 C52.33 20.74, 53.35 27.4, 51.38 41.92 M51.38 12.85 C50.53 23.61, 51.68 34.46, 51.38 41.92 M51.38 41.92 C51.51 51.66, 48.52 55.54, 38.54 54.76 M51.38 41.92 C51.57 50.48, 49.32 57.01, 38.54 54.76 M38.54 54.76 C31.6 56.04, 27.34 53.05, 12.85 54.76 M38.54 54.76 C29.78 54.82, 21.91 55.62, 12.85 54.76 M12.85 54.76 C5.65 54.28, 1.57 51.95, 0 41.92 M12.85 54.76 C3.88 56.75, 0.87 48.81, 0 41.92 M0 41.92 C-0.29 36.61, -0.44 29.96, 0 12.85 M0 41.92 C0.29 34.81, 0.78 28.16, 0 12.85 M0 12.85 C-1.51 5.49, 2.77 1.29, 12.85 0 M0 12.85 C-0.68 5.02, 2.71 -1.14, 12.85 0" stroke="#1e1e1e" stroke-width="4" fill="none"></path></g><g stroke-linecap="round" transform="translate(909.3091073776218 447.82336960932616) rotate(0 11.492952507263084 6.760560298390033)"><path d="M3.38 0 C8.6 -1.2, 11.41 1.19, 19.61 0 C21.35 -2.29, 21.77 2.57, 22.99 3.38 C23.39 5.96, 22.33 7.78, 22.99 10.14 C25.15 14.93, 20.59 11.59, 19.61 13.52 C13.64 12.15, 9.42 14.66, 3.38 13.52 C1.25 12.57, -2.04 11.49, 0 10.14 C0.85 8.59, -0.64 7.74, 0 3.38 C-0.66 -0.76, 2.07 0.63, 3.38 0" stroke="none" stroke-width="0" fill="#ffffff"></path><path d="M3.38 0 C8.03 -0.36, 11.78 0.49, 19.61 0 M3.38 0 C7.6 -0.28, 12.31 0.43, 19.61 0 M19.61 0 C21.43 -0.36, 23.97 1.61, 22.99 3.38 M19.61 0 C21.05 -0.1, 23.44 1.32, 22.99 3.38 M22.99 3.38 C23.15 5.21, 22.8 7.79, 22.99 10.14 M22.99 3.38 C23.04 6.05, 22.85 8.87, 22.99 10.14 M22.99 10.14 C23.33 12.91, 21.92 12.57, 19.61 13.52 M22.99 10.14 C23.58 12.94, 21.49 12.73, 19.61 13.52 M19.61 13.52 C13.9 14.16, 8.77 14, 3.38 13.52 M19.61 13.52 C14.56 13.83, 9.57 13.91, 3.38 13.52 M3.38 13.52 C1.95 13.4, 0.26 12.95, 0 10.14 M3.38 13.52 C2.26 12.55, -0.65 11.95, 0 10.14 M0 10.14 C-0.1 7.18, -0.17 4.88, 0 3.38 M0 10.14 C0.07 8.85, -0.13 7.08, 0 3.38 M0 3.38 C-0.19 1.95, 1.51 0.55, 3.38 0 M0 3.38 C0.41 0.74, 1.02 -0.37, 3.38 0" stroke="#1e1e1e" stroke-width="4" fill="none"></path></g><g stroke-linecap="round" transform="translate(909.3914780765645 468.2286065529104) rotate(0 11.492952507263084 6.760560298390033)"><path d="M3.38 0 C8.85 1.81, 12.32 -0.98, 19.61 0 C20.36 -2.5, 22.5 -1.26, 22.99 3.38 C22.82 4.41, 22.65 7.69, 22.99 10.14 C22.91 10.56, 21.23 14.71, 19.61 13.52 C17.16 12.52, 10.42 13.18, 3.38 13.52 C-0.35 14.58, -1.14 13.2, 0 10.14 C0.28 8.56, 0.6 6.3, 0 3.38 C1.99 2.83, -0.71 0.68, 3.38 0" stroke="none" stroke-width="0" fill="#ffffff"></path><path d="M3.38 0 C8.57 -0.35, 13.46 0.56, 19.61 0 M3.38 0 C7.19 0.24, 11.81 -0.32, 19.61 0 M19.61 0 C21.34 -0.96, 23.39 1.17, 22.99 3.38 M19.61 0 C21.62 -0.09, 21.93 0.54, 22.99 3.38 M22.99 3.38 C23.27 5.32, 22.81 6.66, 22.99 10.14 M22.99 3.38 C22.88 5.85, 22.95 8.48, 22.99 10.14 M22.99 10.14 C23.23 11.54, 20.89 13.87, 19.61 13.52 M22.99 10.14 C22.8 11.46, 20.95 14.36, 19.61 13.52 M19.61 13.52 C12.53 14.07, 6.45 13.77, 3.38 13.52 M19.61 13.52 C16.07 13.53, 13.04 13.36, 3.38 13.52 M3.38 13.52 C0.31 14.36, -0.12 11.89, 0 10.14 M3.38 13.52 C1.66 13.53, -0.24 11.29, 0 10.14 M0 10.14 C0.14 7.88, 0.22 5.42, 0 3.38 M0 10.14 C-0.16 7.98, 0.09 5.54, 0 3.38 M0 3.38 C0.08 0.94, 0.17 0.11, 3.38 0 M0 3.38 C-0.19 0.83, 0.83 -0.83, 3.38 0" stroke="#1e1e1e" stroke-width="4" fill="none"></path></g><g stroke-linecap="round" transform="translate(408.65617898648964 713.169438166959) rotate(0 182.76197947221058 65.35261904678305)"><path d="M32 0 C99.19 -0.5, 166.98 -0.34, 333.52 0 M32 0 C138.14 -2.13, 244.31 -1.8, 333.52 0 M333.52 0 C355.56 -1.68, 365.63 10.97, 365.52 32 M333.52 0 C353.41 0.61, 366.06 12.09, 365.52 32 M365.52 32 C363.94 51.04, 366.01 73.23, 365.52 98.71 M365.52 32 C365.38 54.65, 365.14 78.56, 365.52 98.71 M365.52 98.71 C363.65 118.88, 355.59 128.92, 333.52 130.71 M365.52 98.71 C363.51 120.04, 356.99 129.38, 333.52 130.71 M333.52 130.71 C265.75 130.2, 197.61 129.18, 32 130.71 M333.52 130.71 C242.77 131.83, 153.81 130.66, 32 130.71 M32 130.71 C12.51 130.4, -1.33 118.47, 0 98.71 M32 130.71 C11.17 130.66, 2.29 120.1, 0 98.71 M0 98.71 C-1.65 76.56, 0.7 54.36, 0 32 M0 98.71 C0.74 79.43, -0.33 58.41, 0 32 M0 32 C-1.33 11.18, 12.61 -1.09, 32 0 M0 32 C-0.01 8.66, 12.54 -2.11, 32 0" stroke="#1e1e1e" stroke-width="4" fill="none"></path></g><g transform="translate(496.97054548629103 764.0586875178319) rotate(0 28.346778869628906 11.102754499458797)"><text x="28.346778869628906" y="0" font-family="Virgil, Segoe UI Emoji" font-size="17.764407199134055px" fill="#1e1e1e" text-anchor="middle" style="white-space: pre;" direction="ltr" dominant-baseline="text-before-edge">Worker</text></g><g transform="translate(1004.4132664162157 1045.2152876874263) rotate(0 52.679954528808594 25)"><text x="52.679954528808594" y="0" font-family="Virgil, Segoe UI Emoji" font-size="20px" fill="#1e1e1e" text-anchor="middle" style="white-space: pre;" direction="ltr" dominant-baseline="text-before-edge">&lt;&lt;volume&gt;&gt;</text><text x="52.679954528808594" y="25" font-family="Virgil, Segoe UI Emoji" font-size="20px" fill="#1e1e1e" text-anchor="middle" style="white-space: pre;" direction="ltr" dominant-baseline="text-before-edge">NixStore</text></g><g transform="translate(321.6806945304836 297.33961113108467) rotate(0.2692721082743816 89.93087005615234 11.32749563784364)"><text x="89.93087005615234" y="0" font-family="Virgil, Segoe UI Emoji" font-size="18.123993020549733px" fill="#1e1e1e" text-anchor="middle" style="white-space: pre;" direction="ltr" dominant-baseline="text-before-edge">WorkerHealthChecker</text></g><g stroke-linecap="round" transform="translate(301.3943717302984 259.2434366567827) rotate(0.2692721082743816 143.46982758620686 51.30240443896423)"><path d="M25.65 0 C77.74 0.37, 127.4 1.57, 261.29 0 M25.65 0 C88.03 0.48, 150.01 1.74, 261.29 0 M261.29 0 C280.37 0.63, 285.77 10.13, 286.94 25.65 M261.29 0 C277.95 -1.57, 286.63 6.87, 286.94 25.65 M286.94 25.65 C285.77 40.65, 286.86 57.45, 286.94 76.95 M286.94 25.65 C286.67 44.16, 286.97 63.16, 286.94 76.95 M286.94 76.95 C286.97 93.47, 278.08 102.98, 261.29 102.6 M286.94 76.95 C285.2 93.94, 278.87 103.79, 261.29 102.6 M261.29 102.6 C193.08 104.04, 127.41 104.07, 25.65 102.6 M261.29 102.6 C173.28 102.53, 85.54 103.79, 25.65 102.6 M25.65 102.6 C8.17 101.08, -0.04 94.73, 0 76.95 M25.65 102.6 C9.81 103.08, 1.36 94.59, 0 76.95 M0 76.95 C-1.38 64.29, -1.21 49.63, 0 25.65 M0 76.95 C0.08 63.84, -0.41 49.85, 0 25.65 M0 25.65 C1.98 7.46, 8.32 0.33, 25.65 0 M0 25.65 C1.91 6.92, 7.98 1.88, 25.65 0" stroke="#1e1e1e" stroke-width="4" fill="none"></path></g><g stroke-linecap="round" transform="translate(519.5670708250116 280.33461915742396) rotate(0.2692721082743816 25.3454883637623 27.0129547034835)"><path d="M12.67 0 C20.96 1.71, 26.94 1.45, 38.02 0 M12.67 0 C18.34 0.85, 25.79 0.53, 38.02 0 M38.02 0 C45.29 1.57, 50.31 2.86, 50.69 12.67 M38.02 0 C46.15 -1.69, 50.78 5.57, 50.69 12.67 M50.69 12.67 C50.1 23.64, 51.94 34.02, 50.69 41.35 M50.69 12.67 C50.43 23.29, 50.58 35.1, 50.69 41.35 M50.69 41.35 C50.38 50.18, 44.96 53.93, 38.02 54.03 M50.69 41.35 C51.17 50.99, 46.1 52.03, 38.02 54.03 M38.02 54.03 C29.44 54.89, 22.16 54.88, 12.67 54.03 M38.02 54.03 C29.32 54.82, 21.61 53.12, 12.67 54.03 M12.67 54.03 C4.18 54.7, 1.1 50.21, 0 41.35 M12.67 54.03 C5.58 54.56, -0.83 49.1, 0 41.35 M0 41.35 C-1.14 30.4, -0.35 21.51, 0 12.67 M0 41.35 C-0.15 33.63, 0.85 23.82, 0 12.67 M0 12.67 C-0.23 4.55, 5.88 -1.42, 12.67 0 M0 12.67 C-0.57 6.1, 2.86 -0.54, 12.67 0" stroke="#1e1e1e" stroke-width="4" fill="none"></path></g><g stroke-linecap="round" transform="translate(508.9504145501959 288.8895922718225) rotate(0.2692721082743816 11.338771110104204 6.669865358884863)"><path d="M3.33 0 C6.61 0.71, 8.43 -1.26, 19.34 0 C21.86 1.14, 24.91 3.13, 22.68 3.33 C22.62 5.39, 22.44 8.19, 22.68 10 C22.29 14.09, 20.01 15.76, 19.34 13.34 C14.72 14.8, 9.6 14.7, 3.33 13.34 C0.08 14.67, -0.01 11.81, 0 10 C0.75 7.59, -0.71 5.25, 0 3.33 C-1.91 2.3, 3.69 2.21, 3.33 0" stroke="none" stroke-width="0" fill="#ffffff"></path><path d="M3.33 0 C8.12 0.53, 12.98 -0.05, 19.34 0 M3.33 0 C7.16 0.07, 9.96 0.26, 19.34 0 M19.34 0 C21.38 -0.68, 22.54 0.38, 22.68 3.33 M19.34 0 C21.61 0.67, 23.38 0.26, 22.68 3.33 M22.68 3.33 C22.91 5.24, 22.99 6.8, 22.68 10 M22.68 3.33 C22.68 4.87, 22.65 6.54, 22.68 10 M22.68 10 C21.92 12.18, 21.77 13.86, 19.34 13.34 M22.68 10 C22.5 11.23, 22.04 12.49, 19.34 13.34 M19.34 13.34 C14.52 13.68, 8.71 13.01, 3.33 13.34 M19.34 13.34 C15.37 13.11, 11.53 13.55, 3.33 13.34 M3.33 13.34 C1.66 13.55, 0.59 12.46, 0 10 M3.33 13.34 C0.7 12.99, 0.84 11.35, 0 10 M0 10 C-0.07 7.97, 0.01 5.58, 0 3.33 M0 10 C0.17 7.36, -0.02 4.93, 0 3.33 M0 3.33 C0.83 0.4, 0.87 0.82, 3.33 0 M0 3.33 C-0.68 0.84, 0.39 0.77, 3.33 0" stroke="#1e1e1e" stroke-width="4" fill="none"></path></g><g stroke-linecap="round" transform="translate(508.93706799181837 309.02124645503545) rotate(0.2692721082743816 11.338771110104204 6.669865358884863)"><path d="M3.33 0 C6.47 -1.33, 13.19 0.84, 19.34 0 C23.8 2.02, 25.06 3.1, 22.68 3.33 C22.36 5.35, 22.54 8.71, 22.68 10 C21.12 14.65, 22.69 12.11, 19.34 13.34 C16.86 15, 11.06 14.56, 3.33 13.34 C1.1 12.92, 2.12 14.31, 0 10 C-0.72 8.3, -0.72 6.32, 0 3.33 C2.58 3.32, 1.2 0.96, 3.33 0" stroke="none" stroke-width="0" fill="#ffffff"></path><path d="M3.33 0 C9.05 -0.04, 15.06 -0.38, 19.34 0 M3.33 0 C8.92 0.29, 14.9 -0.3, 19.34 0 M19.34 0 C21.43 -0.73, 22.72 1.7, 22.68 3.33 M19.34 0 C22.27 -0.85, 22.34 0.9, 22.68 3.33 M22.68 3.33 C23.02 5.39, 22.5 7.7, 22.68 10 M22.68 3.33 C22.65 4.87, 22.55 6.33, 22.68 10 M22.68 10 C22.89 12.74, 21.41 12.47, 19.34 13.34 M22.68 10 C23.15 11.38, 21.99 13.38, 19.34 13.34 M19.34 13.34 C14.08 13.01, 8.05 12.9, 3.33 13.34 M19.34 13.34 C13.03 13.41, 6.95 13.36, 3.33 13.34 M3.33 13.34 C1.7 13.57, -0.36 11.92, 0 10 M3.33 13.34 C1.95 12.46, 0.5 11.44, 0 10 M0 10 C0 8.25, 0.28 6.17, 0 3.33 M0 10 C-0.05 7.52, 0.11 4.85, 0 3.33 M0 3.33 C-0.25 1.93, 0.52 -0.24, 3.33 0 M0 3.33 C-0.72 1.89, 0.1 -1.06, 3.33 0" stroke="#1e1e1e" stroke-width="4" fill="none"></path></g><g stroke-linecap="round" transform="translate(686.5593871796334 739.4379518305104) rotate(0 32.28686966440889 34.4110058265411)"><path d="M16.14 0 C23.98 -1.1, 34.69 -1.5, 48.43 0 M16.14 0 C28.18 0.39, 41.9 -0.81, 48.43 0 M48.43 0 C59.3 0.31, 63.31 5.92, 64.57 16.14 M48.43 0 C59.73 1.43, 64.47 6.78, 64.57 16.14 M64.57 16.14 C64.29 31.29, 65.22 41.5, 64.57 52.68 M64.57 16.14 C64.76 26.37, 63.75 36.4, 64.57 52.68 M64.57 52.68 C65.31 61.66, 57.44 68.82, 48.43 68.82 M64.57 52.68 C66.71 62.11, 57.45 68.88, 48.43 68.82 M48.43 68.82 C38.36 67.36, 30.4 70.15, 16.14 68.82 M48.43 68.82 C38.45 68.3, 28.44 68.93, 16.14 68.82 M16.14 68.82 C4.05 67.26, 0.44 63.4, 0 52.68 M16.14 68.82 C7.67 68.89, 0.97 64.83, 0 52.68 M0 52.68 C1.33 43.07, 0.12 28.99, 0 16.14 M0 52.68 C-0.98 44, -0.71 37.55, 0 16.14 M0 16.14 C1.95 4.29, 5.37 -1.74, 16.14 0 M0 16.14 C1.87 3.27, 4.55 -1.17, 16.14 0" stroke="#1e1e1e" stroke-width="4" fill="none"></path></g><g stroke-linecap="round" transform="translate(672.9649157419873 750.4834598735979) rotate(0 14.44412590249874 8.496544648528698)"><path d="M4.25 0 C10.64 3.1, 16.85 1.07, 24.64 0 C28.68 -1.34, 28.14 4.58, 28.89 4.25 C28.42 5.09, 28.23 7.69, 28.89 12.74 C28.19 19.13, 26.62 20.22, 24.64 16.99 C17.14 20.49, 11.19 16.13, 4.25 16.99 C2.19 14.01, -0.48 16.48, 0 12.74 C-0.46 9.52, -0.76 5.65, 0 4.25 C-1.45 -2.02, -0.03 -1.78, 4.25 0" stroke="none" stroke-width="0" fill="#ffffff"></path><path d="M4.25 0 C9.83 -1.62, 15.17 -0.55, 24.64 0 M4.25 0 C10.51 -0.91, 16.11 0.08, 24.64 0 M24.64 0 C26.21 0.53, 29.35 2.66, 28.89 4.25 M24.64 0 C27.37 1.4, 30.4 -0.87, 28.89 4.25 M28.89 4.25 C29.32 5.93, 28.77 9.03, 28.89 12.74 M28.89 4.25 C28.5 5.93, 29.05 7.73, 28.89 12.74 M28.89 12.74 C27.13 15.57, 29.33 15.84, 24.64 16.99 M28.89 12.74 C27.14 15.64, 26.99 16.67, 24.64 16.99 M24.64 16.99 C18.55 18.18, 13 14.87, 4.25 16.99 M24.64 16.99 C17.76 16.68, 8.38 16.05, 4.25 16.99 M4.25 16.99 C1.85 16.95, 1.99 15.63, 0 12.74 M4.25 16.99 C2.39 18.38, -0.02 14.14, 0 12.74 M0 12.74 C-0.09 9.13, -0.81 7.18, 0 4.25 M0 12.74 C-0.2 9.99, 0.49 6.78, 0 4.25 M0 4.25 C-0.01 -0.33, 3.04 -1.83, 4.25 0 M0 4.25 C-0.83 0.25, 3.45 2.29, 4.25 0" stroke="#1e1e1e" stroke-width="4" fill="none"></path></g><g stroke-linecap="round" transform="translate(673.0684376825377 776.1283767300092) rotate(0 14.44412590249874 8.496544648528698)"><path d="M4.25 0 C9.95 1.01, 20.85 -1.68, 24.64 0 C26.73 3.16, 26.09 -0.89, 28.89 4.25 C28.29 5.74, 28.55 9.41, 28.89 12.74 C28.04 18.8, 27.79 13.56, 24.64 16.99 C17.99 16.55, 13.82 14.37, 4.25 16.99 C0.94 17.9, 2.23 17.77, 0 12.74 C-0.63 9.65, -0.58 6.99, 0 4.25 C-1.45 -0.37, 4.45 -0.05, 4.25 0" stroke="none" stroke-width="0" fill="#ffffff"></path><path d="M4.25 0 C10.86 -0.51, 13.52 -1.14, 24.64 0 M4.25 0 C11.14 0.32, 17.3 0.44, 24.64 0 M24.64 0 C27.94 1.24, 28.8 2.64, 28.89 4.25 M24.64 0 C28.98 -2.29, 28.1 1.5, 28.89 4.25 M28.89 4.25 C28.81 7.82, 28.31 10.93, 28.89 12.74 M28.89 4.25 C28.96 6.25, 28.44 9.02, 28.89 12.74 M28.89 12.74 C30.74 14.42, 25.95 17.05, 24.64 16.99 M28.89 12.74 C28.4 15.25, 27.41 15.77, 24.64 16.99 M24.64 16.99 C20.48 15.15, 17.01 18.08, 4.25 16.99 M24.64 16.99 C19.46 16.18, 15.83 16.94, 4.25 16.99 M4.25 16.99 C3.41 17.05, 0.85 16.78, 0 12.74 M4.25 16.99 C1.4 15.56, 0.79 16.84, 0 12.74 M0 12.74 C-0.76 9.75, 0.32 5.73, 0 4.25 M0 12.74 C0.47 10.81, 0.05 8.96, 0 4.25 M0 4.25 C1.63 -0.42, 0.69 -1.01, 4.25 0 M0 4.25 C2.03 3.71, 2.75 -0.47, 4.25 0" stroke="#1e1e1e" stroke-width="4" fill="none"></path></g><g stroke-linecap="round" transform="translate(853.8267582238434 1064.1525461247077) rotate(358.18293460318284 10.240627551089169 10.414197509582209)"><path d="M10.61 -0.35 C12.78 -0.43, 15.99 0.85, 17.62 2.54 C19.26 4.23, 20.19 7.49, 20.41 9.78 C20.62 12.07, 20.22 14.51, 18.91 16.26 C17.6 18.01, 14.62 19.72, 12.53 20.27 C10.45 20.83, 8.27 20.4, 6.41 19.58 C4.55 18.77, 2.42 17.36, 1.39 15.39 C0.35 13.41, -0.33 10.05, 0.21 7.74 C0.74 5.42, 2.72 2.71, 4.6 1.49 C6.47 0.27, 10.13 0.66, 11.47 0.41 C12.81 0.16, 12.67 -0.07, 12.62 -0.01 M10.52 0.19 C12.58 0.11, 15.05 0.62, 16.59 2.06 C18.13 3.5, 19.22 6.47, 19.73 8.83 C20.24 11.19, 20.71 14.29, 19.65 16.24 C18.6 18.19, 15.49 19.99, 13.4 20.53 C11.31 21.07, 9.24 20.37, 7.13 19.47 C5.02 18.58, 1.94 17.16, 0.73 15.19 C-0.49 13.21, -0.63 9.68, -0.15 7.62 C0.32 5.57, 1.83 4.03, 3.57 2.87 C5.31 1.7, 9 1.14, 10.26 0.63 C11.53 0.13, 11.18 -0.1, 11.15 -0.15" stroke="#1e1e1e" stroke-width="4" fill="none"></path></g><g stroke-linecap="round"><g transform="translate(875.6167651973253 1073.6036993458595) rotate(358.18293460318284 29.159753026830174 0.6942798339721321)"><path d="M0.36 -0.73 C10.11 -0.82, 49.35 0, 58.86 0.44 M-0.92 1.5 C8.7 1.45, 48.07 1.75, 58.19 1.48" stroke="#1e1e1e" stroke-width="4" fill="none"></path></g></g><mask></mask><g stroke-linecap="round" transform="translate(936.412716718641 1018.3920264338901) rotate(0 145.42068965517242 52)"><path d="M26 0 C81.78 0.03, 139.49 1.01, 264.84 0 M26 0 C100.36 -0.63, 175.59 -0.49, 264.84 0 M264.84 0 C283.97 -1.93, 290.15 8.2, 290.84 26 M264.84 0 C283.24 1.37, 289.27 9.05, 290.84 26 M290.84 26 C292.45 39.32, 292.3 54.61, 290.84 78 M290.84 26 C291.99 45.16, 290.77 63.36, 290.84 78 M290.84 78 C290.93 93.36, 282.1 105.59, 264.84 104 M290.84 78 C292.18 94.88, 281.23 102.53, 264.84 104 M264.84 104 C200.59 102.73, 139.15 102.14, 26 104 M264.84 104 C202.76 102.53, 141.13 102.88, 26 104 M26 104 C7.21 104.02, -0.99 95.59, 0 78 M26 104 C7.77 106.01, 0.31 94.4, 0 78 M0 78 C0.22 68.35, -0.36 58.22, 0 26 M0 78 C-0.9 59.32, -1.24 42.48, 0 26 M0 26 C1.99 10.3, 6.83 0.89, 26 0 M0 26 C1.05 9.01, 10.24 -0.8, 26 0" stroke="#1e1e1e" stroke-width="4" fill="none"></path></g><g stroke-linecap="round" transform="translate(1157.5357112798638 1039.2934490612959) rotate(0 25.690129133882152 27.380269208479604)"><path d="M12.85 0 C21.02 0.36, 26.42 2, 38.54 0 M12.85 0 C21.88 0.31, 31.22 -1.02, 38.54 0 M38.54 0 C46.4 -0.47, 52.31 5.47, 51.38 12.85 M38.54 0 C45.52 0.39, 50.64 6.12, 51.38 12.85 M51.38 12.85 C52.6 24.99, 52.59 36.52, 51.38 41.92 M51.38 12.85 C51.34 24.03, 51.69 32.69, 51.38 41.92 M51.38 41.92 C51.3 52.07, 48.26 54.36, 38.54 54.76 M51.38 41.92 C50.43 49.01, 46.24 55.93, 38.54 54.76 M38.54 54.76 C31.34 53.14, 23.84 53.01, 12.85 54.76 M38.54 54.76 C33.53 55.68, 27.03 54.88, 12.85 54.76 M12.85 54.76 C3.29 55.02, -0.78 52.23, 0 41.92 M12.85 54.76 C4.59 53.83, -2.18 51.38, 0 41.92 M0 41.92 C-0.22 34.28, 0.81 24.92, 0 12.85 M0 41.92 C-0.72 34.06, 1.15 26.6, 0 12.85 M0 12.85 C-1.83 5.18, 5.2 0.3, 12.85 0 M0 12.85 C1.58 3.48, 4.79 -1.25, 12.85 0" stroke="#1e1e1e" stroke-width="4" fill="none"></path></g><g stroke-linecap="round" transform="translate(1146.7188148024395 1048.082177449203) rotate(0 11.492952507263084 6.760560298390146)"><path d="M3.38 0 C8.55 1.5, 16.93 -1.33, 19.61 0 C19.41 -1.26, 24.85 -0.45, 22.99 3.38 C23.44 5.18, 22.42 7.95, 22.99 10.14 C25.01 14.36, 20.54 16.01, 19.61 13.52 C14.73 12.83, 13.05 13.8, 3.38 13.52 C3.45 16.05, 1.82 13.33, 0 10.14 C-0.04 7.05, -0.05 4.13, 0 3.38 C-0.73 3.49, 1.74 -2.44, 3.38 0" stroke="none" stroke-width="0" fill="#ffffff"></path><path d="M3.38 0 C7.59 0.75, 11.93 -0.3, 19.61 0 M3.38 0 C8.94 -0.42, 13.63 -0.12, 19.61 0 M19.61 0 C22.32 0.6, 22.3 1.3, 22.99 3.38 M19.61 0 C21.49 0.92, 24.04 1.81, 22.99 3.38 M22.99 3.38 C23.18 5.35, 23.2 7.33, 22.99 10.14 M22.99 3.38 C22.98 5.83, 22.97 8.74, 22.99 10.14 M22.99 10.14 C23.57 12.2, 21.45 12.88, 19.61 13.52 M22.99 10.14 C22.56 12.98, 21.52 12.48, 19.61 13.52 M19.61 13.52 C15.07 12.79, 10.46 13.4, 3.38 13.52 M19.61 13.52 C13.79 13.59, 8.36 13.64, 3.38 13.52 M3.38 13.52 C0.74 14.39, 0.13 11.99, 0 10.14 M3.38 13.52 C0.04 13.97, 0.19 12.64, 0 10.14 M0 10.14 C0.15 8, -0.07 5.21, 0 3.38 M0 10.14 C0.2 8.8, -0.13 7.27, 0 3.38 M0 3.38 C0.46 1.28, 1.81 -0.35, 3.38 0 M0 3.38 C0.25 0.5, 0.92 -0.06, 3.38 0" stroke="#1e1e1e" stroke-width="4" fill="none"></path></g><g stroke-linecap="round" transform="translate(1146.8011855013822 1068.487414392787) rotate(0 11.492952507263084 6.760560298390146)"><path d="M3.38 0 C7.65 -1.63, 8.52 -1.16, 19.61 0 C23.72 -1.57, 22.69 -1.05, 22.99 3.38 C22.54 6.54, 23.72 9.02, 22.99 10.14 C21.67 14.88, 20.87 12.28, 19.61 13.52 C15.41 13.55, 9.22 15.49, 3.38 13.52 C2.95 14.45, 2.3 14.55, 0 10.14 C0.02 6.98, -0.25 6.13, 0 3.38 C0.61 -1.32, -0.55 2.35, 3.38 0" stroke="none" stroke-width="0" fill="#ffffff"></path><path d="M3.38 0 C8.77 -0.37, 13.67 0.17, 19.61 0 M3.38 0 C8.7 -0.02, 14.49 0.32, 19.61 0 M19.61 0 C21.17 0.17, 22.66 1.93, 22.99 3.38 M19.61 0 C22.91 0.68, 22.63 1.73, 22.99 3.38 M22.99 3.38 C23.2 5.97, 23.3 7.84, 22.99 10.14 M22.99 3.38 C22.98 6.06, 23.09 8.44, 22.99 10.14 M22.99 10.14 C22.57 11.75, 21.49 14.03, 19.61 13.52 M22.99 10.14 C22.65 11.36, 21.39 13.38, 19.61 13.52 M19.61 13.52 C15.24 13.39, 12.66 13.77, 3.38 13.52 M19.61 13.52 C13.21 13.58, 7.07 13.88, 3.38 13.52 M3.38 13.52 C1.26 13.11, -0.95 12.79, 0 10.14 M3.38 13.52 C1.32 13.76, 0.59 12.31, 0 10.14 M0 10.14 C-0.09 7.4, -0.29 4.73, 0 3.38 M0 10.14 C-0.19 8.05, 0.04 5.82, 0 3.38 M0 3.38 C0.69 0.78, 1.35 -0.54, 3.38 0 M0 3.38 C-0.2 1.06, 2.23 -0.62, 3.38 0" stroke="#1e1e1e" stroke-width="4" fill="none"></path></g><g transform="translate(874.7199105348898 1027.451166001614) rotate(0 29.199974060058594 12.5)"><text x="29.199974060058594" y="0" font-family="Virgil, Segoe UI Emoji" font-size="20px" fill="#1e1e1e" text-anchor="middle" style="white-space: pre;" direction="ltr" dominant-baseline="text-before-edge">Mount</text></g><g stroke-linecap="round" transform="translate(358.865342188329 984.6329421362277) rotate(360.0867791949976 202.75 72.5)"><path d="M32 0 C140.86 -1.06, 250.31 -0.17, 373.5 0 M32 0 C147.22 -1.54, 262.67 -1.18, 373.5 0 M373.5 0 C393.33 1.41, 405.77 11.05, 405.5 32 M373.5 0 C395.34 1.26, 403.66 10.12, 405.5 32 M405.5 32 C404 62.11, 403.48 89.8, 405.5 113 M405.5 32 C406.69 55.27, 406.61 80.47, 405.5 113 M405.5 113 C407.31 133.35, 396.08 145.87, 373.5 145 M405.5 113 C406.58 135.78, 396.83 144.34, 373.5 145 M373.5 145 C304.46 141.88, 233.99 142.32, 32 145 M373.5 145 C304.34 145.52, 235.1 144.68, 32 145 M32 145 C10.51 143.97, 0.8 136.02, 0 113 M32 145 C9.66 144.3, 2.04 135.43, 0 113 M0 113 C-0.45 84.64, 0.62 54.67, 0 32 M0 113 C0.86 87.29, 1.06 60.28, 0 32 M0 32 C-1.81 9.5, 10.53 -1.98, 32 0 M0 32 C0.93 10.43, 11.56 -1.26, 32 0" stroke="#1e1e1e" stroke-width="4" fill="none"></path></g><g stroke-linecap="round" transform="translate(667.1695147134998 1013.9884626971418) rotate(360.0867791949976 35.81796850397029 38.17441380028413)"><path d="M17.91 0 C31.36 1.44, 43.77 1, 53.73 0 M17.91 0 C30.04 0.19, 42.33 0.91, 53.73 0 M53.73 0 C65.94 0.39, 72.08 7.07, 71.64 17.91 M53.73 0 C63.83 -0.55, 72.89 3.94, 71.64 17.91 M71.64 17.91 C70.17 32.89, 71.39 48.33, 71.64 58.44 M71.64 17.91 C72.55 30.59, 72.83 41.63, 71.64 58.44 M71.64 58.44 C72.88 71.25, 66.61 77.61, 53.73 76.35 M71.64 58.44 C73.63 69.72, 63.45 76.56, 53.73 76.35 M53.73 76.35 C45.39 75.09, 36.72 75.02, 17.91 76.35 M53.73 76.35 C41.87 75.48, 31.14 75.94, 17.91 76.35 M17.91 76.35 C6.77 78.03, -0.87 69.77, 0 58.44 M17.91 76.35 C8.01 77.45, 1.58 72.33, 0 58.44 M0 58.44 C1.25 50.85, 0.46 39.82, 0 17.91 M0 58.44 C0.55 47.89, -1.14 36.69, 0 17.91 M0 17.91 C-0.13 3.99, 6.78 -0.21, 17.91 0 M0 17.91 C0.89 4.71, 5.13 -0.53, 17.91 0" stroke="#1e1e1e" stroke-width="4" fill="none"></path></g><g stroke-linecap="round" transform="translate(652.1132880274599 1026.1891755156823) rotate(360.0867791949976 16.02382801493411 9.425781185255346)"><path d="M4.71 0 C8.62 -3.03, 17.18 -3.21, 27.33 0 C32.14 -2.33, 31.76 -0.3, 32.05 4.71 C32.57 9.42, 32.9 10.45, 32.05 14.14 C34.43 15.19, 31.28 16.27, 27.33 18.85 C23.22 21.94, 15.18 17.89, 4.71 18.85 C-0.36 22.11, -1.22 20.65, 0 14.14 C-0.6 10.68, 0.04 8.59, 0 4.71 C-1.06 3.48, -1.32 0.24, 4.71 0" stroke="none" stroke-width="0" fill="#ffffff"></path><path d="M4.71 0 C12.4 0.85, 19.59 -0.95, 27.33 0 M4.71 0 C9.46 0.71, 15.85 0.2, 27.33 0 M27.33 0 C30.92 1.1, 30.45 1.09, 32.05 4.71 M27.33 0 C31.73 -2.03, 33.44 0.67, 32.05 4.71 M32.05 4.71 C31.95 8.76, 31.97 12.34, 32.05 14.14 M32.05 4.71 C32.53 6.67, 32.4 9.29, 32.05 14.14 M32.05 14.14 C32.99 18.54, 32.21 18.28, 27.33 18.85 M32.05 14.14 C29.83 17.49, 28.41 19.62, 27.33 18.85 M27.33 18.85 C20.42 17.7, 17.71 18.26, 4.71 18.85 M27.33 18.85 C19.8 18.12, 12.82 19.47, 4.71 18.85 M4.71 18.85 C0.7 18.25, 1.77 18.24, 0 14.14 M4.71 18.85 C3.15 20.81, -1.81 17.56, 0 14.14 M0 14.14 C0.18 10.28, -0.43 7.62, 0 4.71 M0 14.14 C-0.5 10.41, -0.1 6.77, 0 4.71 M0 4.71 C0.81 1.36, 2.35 -1.09, 4.71 0 M0 4.71 C-0.84 1.04, 1.27 -2.19, 4.71 0" stroke="#1e1e1e" stroke-width="4" fill="none"></path></g><g stroke-linecap="round" transform="translate(652.185042389958 1054.63892602504) rotate(360.0867791949976 16.02382801493411 9.425781185255346)"><path d="M4.71 0 C10 -3.03, 17.9 -1.96, 27.33 0 C30.19 -1.87, 34.4 -0.09, 32.05 4.71 C33.04 5.47, 33.23 7.54, 32.05 14.14 C32.85 14.7, 29.94 19.39, 27.33 18.85 C20.49 18.08, 10.22 22.44, 4.71 18.85 C0.36 22.22, -3.34 20.59, 0 14.14 C0.24 9.31, -0.46 8.66, 0 4.71 C-2.89 1.81, -0.6 1.97, 4.71 0" stroke="none" stroke-width="0" fill="#ffffff"></path><path d="M4.71 0 C14.18 -0.9, 20.46 -1.02, 27.33 0 M4.71 0 C11.6 0.03, 18.44 0.39, 27.33 0 M27.33 0 C28.88 -0.48, 33.14 -0.2, 32.05 4.71 M27.33 0 C31.87 -0.9, 33.65 0.07, 32.05 4.71 M32.05 4.71 C32.03 8.38, 31.4 11.3, 32.05 14.14 M32.05 4.71 C32.43 8.28, 32.35 11.74, 32.05 14.14 M32.05 14.14 C33.78 16.71, 28.55 19.03, 27.33 18.85 M32.05 14.14 C29.98 18.05, 28.61 17.92, 27.33 18.85 M27.33 18.85 C21.93 18.25, 16.55 17.53, 4.71 18.85 M27.33 18.85 C23.15 19.58, 17.73 18.43, 4.71 18.85 M4.71 18.85 C3.34 19.81, 1.37 18.98, 0 14.14 M4.71 18.85 C-0.24 19.13, 1.72 18.78, 0 14.14 M0 14.14 C-0.39 11.21, 0.6 7.92, 0 4.71 M0 14.14 C0.05 10.82, 0.28 8.38, 0 4.71 M0 4.71 C0.78 0.48, 0.84 -0.46, 4.71 0 M0 4.71 C-0.3 -0.62, 1.25 0.01, 4.71 0" stroke="#1e1e1e" stroke-width="4" fill="none"></path></g><g transform="translate(438.3366828788581 1029.907490197333) rotate(360.0867791949976 59.38993835449219 12.5)"><text x="59.38993835449219" y="0" font-family="Virgil, Segoe UI Emoji" font-size="20px" fill="#1e1e1e" text-anchor="middle" style="white-space: pre;" direction="ltr" dominant-baseline="text-before-edge">CacheServer</text></g><g stroke-linecap="round"><g transform="translate(767.5023475055172 1074.657184187896) rotate(0 38.9765407348292 0.10180120302834439)"><path d="M-0.6 0.33 C12.59 0.38, 65.93 0.76, 79.02 0.67 M1.29 -0.55 C14.42 -0.9, 65.98 -1.45, 78.64 -1.2" stroke="#1e1e1e" stroke-width="4" fill="none"></path></g><g transform="translate(767.5023475055172 1074.657184187896) rotate(0 38.9765407348292 0.10180120302834439)"><path d="M55.13 7.31 C62.53 6.72, 69.66 2.5, 78.64 -1.2 M55.13 7.31 C61.02 4.71, 67.71 2.54, 78.64 -1.2" stroke="#1e1e1e" stroke-width="4" fill="none"></path></g><g transform="translate(767.5023475055172 1074.657184187896) rotate(0 38.9765407348292 0.10180120302834439)"><path d="M55.16 -9.79 C62.61 -5.37, 69.72 -4.59, 78.64 -1.2 M55.16 -9.79 C60.99 -7.82, 67.67 -5.42, 78.64 -1.2" stroke="#1e1e1e" stroke-width="4" fill="none"></path></g></g><mask></mask><g transform="translate(248.63421455389653 493.54924280904856) rotate(0 71.14993286132812 12.5)"><text x="0" y="0" font-family="Virgil, Segoe UI Emoji" font-size="20px" fill="#1e1e1e" text-anchor="start" style="white-space: pre;" direction="ltr" dominant-baseline="text-before-edge">InMemoryStore</text></g><g stroke-linecap="round" transform="translate(199.79533448220025 460.7515909302074) rotate(0 145.42068965517242 52)"><path d="M26 0 C80.19 -0.77, 135.99 -0.01, 264.84 0 M26 0 C96.62 -1.89, 165.6 -2.11, 264.84 0 M264.84 0 C282.01 0.32, 289.33 7.86, 290.84 26 M264.84 0 C282.06 -2.26, 292.97 9.15, 290.84 26 M290.84 26 C291.62 36.66, 292.66 50.22, 290.84 78 M290.84 26 C290.78 41.68, 289.65 55.16, 290.84 78 M290.84 78 C289.33 94.8, 283.29 102.43, 264.84 104 M290.84 78 C288.91 96.38, 283.15 105.81, 264.84 104 M264.84 104 C183.94 101.42, 103.92 102.04, 26 104 M264.84 104 C174.21 102.12, 83.64 103.38, 26 104 M26 104 C8.89 104.04, -1.27 97.06, 0 78 M26 104 C6.89 102.11, 0.86 95.39, 0 78 M0 78 C0.89 60.39, -0.37 42.75, 0 26 M0 78 C0.06 57.95, -0.28 37.94, 0 26 M0 26 C-0.55 10.07, 6.84 -0.41, 26 0 M0 26 C1.68 8.78, 7.39 1.06, 26 0" stroke="#1e1e1e" stroke-width="4" fill="none"></path></g><g stroke-linecap="round" transform="translate(420.918329043423 481.6530135576131) rotate(0 25.690129133882152 27.380269208479604)"><path d="M12.85 0 C19.86 0.51, 29.09 1.62, 38.54 0 M12.85 0 C22.28 -0.73, 31.71 0.32, 38.54 0 M38.54 0 C45.59 -0.8, 51.28 2.32, 51.38 12.85 M38.54 0 C49.22 0.48, 49.7 6.22, 51.38 12.85 M51.38 12.85 C52.81 21.06, 51.15 26.69, 51.38 41.92 M51.38 12.85 C50.63 20.31, 50.71 28.65, 51.38 41.92 M51.38 41.92 C52.5 48.91, 45.42 55.67, 38.54 54.76 M51.38 41.92 C52.36 52.29, 47.99 54.75, 38.54 54.76 M38.54 54.76 C34.34 54.63, 29.71 54.42, 12.85 54.76 M38.54 54.76 C33.14 55.49, 26.75 54.62, 12.85 54.76 M12.85 54.76 C3.01 56.49, -1.55 48.84, 0 41.92 M12.85 54.76 C5.14 54.81, 1.32 49.27, 0 41.92 M0 41.92 C-0.73 35.15, 1.55 25.82, 0 12.85 M0 41.92 C-0.06 30.78, -0.39 20.99, 0 12.85 M0 12.85 C-1.82 3.87, 5.74 0.1, 12.85 0 M0 12.85 C-1.28 5.35, 3.24 -0.95, 12.85 0" stroke="#1e1e1e" stroke-width="4" fill="none"></path></g><g stroke-linecap="round" transform="translate(410.1014325659987 490.44174194552033) rotate(0 11.492952507263084 6.760560298390033)"><path d="M3.38 0 C8.92 1.8, 14.95 -0.6, 19.61 0 C22.12 -1.93, 22.7 -0.77, 22.99 3.38 C23.7 5.38, 22.27 6.94, 22.99 10.14 C23.62 12.34, 24 15.94, 19.61 13.52 C12.15 13.93, 10 13.33, 3.38 13.52 C-1.47 15.79, -2.33 10.75, 0 10.14 C0.78 6.99, -0.23 5.36, 0 3.38 C0.78 -0.9, 1.51 -2.25, 3.38 0" stroke="none" stroke-width="0" fill="#ffffff"></path><path d="M3.38 0 C7.81 0.61, 12.91 0.76, 19.61 0 M3.38 0 C7.2 0.14, 10.79 -0.09, 19.61 0 M19.61 0 C21.81 -0.98, 23.91 1.34, 22.99 3.38 M19.61 0 C21.02 0.97, 22.55 1.32, 22.99 3.38 M22.99 3.38 C22.96 4.79, 22.93 6.76, 22.99 10.14 M22.99 3.38 C22.83 5.91, 23.05 8.41, 22.99 10.14 M22.99 10.14 C22.14 12.85, 22.28 14.31, 19.61 13.52 M22.99 10.14 C23.43 12.39, 20.74 13.51, 19.61 13.52 M19.61 13.52 C16.01 13.42, 10.56 13.72, 3.38 13.52 M19.61 13.52 C15.79 13.6, 11.63 13.94, 3.38 13.52 M3.38 13.52 C0.35 12.7, 0.37 12.42, 0 10.14 M3.38 13.52 C1.79 12.92, -0.01 12.75, 0 10.14 M0 10.14 C0.29 8, 0.25 5.56, 0 3.38 M0 10.14 C-0.05 8.36, -0.16 6.3, 0 3.38 M0 3.38 C0.73 1.18, 0.57 0.46, 3.38 0 M0 3.38 C-0.52 0.65, 1.33 -0.88, 3.38 0" stroke="#1e1e1e" stroke-width="4" fill="none"></path></g><g stroke-linecap="round" transform="translate(410.1838032649414 510.8469788891043) rotate(0 11.492952507263084 6.760560298390033)"><path d="M3.38 0 C7.49 -0.85, 12.28 -1.74, 19.61 0 C21.57 -1.9, 23.17 -0.3, 22.99 3.38 C22.4 5.17, 23.28 8.14, 22.99 10.14 C25.13 14.81, 23.18 15.44, 19.61 13.52 C15.34 13.2, 5.4 15.39, 3.38 13.52 C-1.21 11.87, 1.49 12.17, 0 10.14 C-0.32 7.84, 0.18 4.77, 0 3.38 C0.39 -1.12, 0.77 0.88, 3.38 0" stroke="none" stroke-width="0" fill="#ffffff"></path><path d="M3.38 0 C9.17 0.72, 13.35 -0.1, 19.61 0 M3.38 0 C6.51 -0.18, 10.22 -0.41, 19.61 0 M19.61 0 C22.78 0.21, 22.26 1.97, 22.99 3.38 M19.61 0 C21.42 0.19, 22.33 1.92, 22.99 3.38 M22.99 3.38 C22.9 5.71, 23.26 7.56, 22.99 10.14 M22.99 3.38 C23.05 4.89, 22.82 6.75, 22.99 10.14 M22.99 10.14 C23.41 13.18, 22.25 13.52, 19.61 13.52 M22.99 10.14 C21.87 12.38, 21.42 14.11, 19.61 13.52 M19.61 13.52 C14.21 13.71, 9.41 13.96, 3.38 13.52 M19.61 13.52 C13.03 13.87, 6.66 13.19, 3.38 13.52 M3.38 13.52 C1.5 13.54, 0.58 11.87, 0 10.14 M3.38 13.52 C1.12 13.88, 0.56 12.03, 0 10.14 M0 10.14 C0.22 7.59, -0.09 4.8, 0 3.38 M0 10.14 C-0.14 8.3, 0.13 6.53, 0 3.38 M0 3.38 C-0.55 1.59, 0.67 -0.41, 3.38 0 M0 3.38 C0.2 0.25, 1.86 0.21, 3.38 0" stroke="#1e1e1e" stroke-width="4" fill="none"></path></g><g stroke-linecap="round" transform="translate(200.84011707059597 285.51662958096153) rotate(271.63286526688046 13.015741364037467 13.236347149868607)"><path d="M14.6 0.57 C17.19 0.82, 20.7 2.37, 22.65 4.38 C24.61 6.38, 26.17 9.8, 26.34 12.61 C26.52 15.43, 25.49 18.97, 23.71 21.24 C21.94 23.51, 18.42 25.58, 15.7 26.23 C12.98 26.87, 9.8 26.36, 7.39 25.11 C4.97 23.86, 2.3 21.3, 1.22 18.72 C0.14 16.14, 0.12 12.37, 0.91 9.63 C1.7 6.9, 3.6 3.93, 5.97 2.32 C8.35 0.71, 13.43 0.29, 15.16 -0.03 C16.88 -0.34, 16.31 0.18, 16.33 0.41 M11.53 0.75 C14.16 0.22, 17.82 0.43, 20.13 1.92 C22.44 3.4, 24.56 6.8, 25.4 9.65 C26.25 12.49, 26.15 16.36, 25.18 18.99 C24.2 21.62, 22.03 24.16, 19.55 25.43 C17.06 26.71, 13.21 27.43, 10.26 26.63 C7.32 25.84, 3.45 23.1, 1.87 20.65 C0.29 18.2, 0.41 14.71, 0.77 11.94 C1.13 9.16, 2.19 5.94, 4.05 4 C5.91 2.06, 10.64 0.91, 11.94 0.3 C13.25 -0.31, 11.86 0.21, 11.91 0.36" stroke="#1e1e1e" stroke-width="4" fill="none"></path></g><g stroke-linecap="round"><g transform="translate(287.0011891720636 381.1949651656564) rotate(271.63286526688046 -72.75834754109826 3.208408999364451)"><path d="M0.59 1.16 C-23.77 2.04, -122.16 5.47, -146.32 6.4 M-0.56 0.72 C-24.52 2.32, -120.03 6.68, -144.03 7.92" stroke="#1e1e1e" stroke-width="4" fill="none"></path></g></g><mask></mask><g stroke-linecap="round"><g transform="translate(427.2267737163563 648.3878460437063) rotate(91.4109640259056 -82.16097974313737 2.251199055790721)"><path d="M0.94 0.35 C-26.43 1.23, -137.14 4.69, -164.61 5.46 M-0.02 -0.52 C-27.55 0.03, -138.31 3.27, -165.72 3.84" stroke="#1e1e1e" stroke-width="4" fill="none"></path></g></g><mask></mask><g stroke-linecap="round" transform="translate(565.1382517977188 481.8172720692244) rotate(0.29042248464846626 12.12179720853311 12.327251398508224)"><path d="M11.44 0.34 C13.91 0.11, 17.1 1.07, 19.27 2.58 C21.44 4.09, 23.82 6.79, 24.45 9.4 C25.09 12, 24.39 15.83, 23.08 18.19 C21.77 20.56, 19.07 22.61, 16.57 23.59 C14.08 24.58, 10.56 24.83, 8.13 24.1 C5.7 23.37, 3.3 21.5, 2.02 19.19 C0.74 16.88, 0.16 12.89, 0.45 10.23 C0.73 7.56, 1.82 4.94, 3.74 3.18 C5.66 1.41, 10.51 0.21, 11.99 -0.36 C13.47 -0.92, 12.58 -0.54, 12.62 -0.22 M14.42 0.73 C16.7 1.1, 19.62 3.02, 21.19 5.01 C22.76 7, 23.87 10.06, 23.83 12.68 C23.79 15.3, 22.68 18.71, 20.93 20.71 C19.19 22.72, 16.05 24.32, 13.35 24.7 C10.66 25.08, 7.03 24.52, 4.77 22.99 C2.51 21.47, 0.51 18.14, -0.2 15.53 C-0.91 12.93, -0.62 9.85, 0.53 7.37 C1.67 4.9, 4.18 1.93, 6.67 0.68 C9.17 -0.58, 14.21 -0.16, 15.49 -0.14 C16.77 -0.12, 14.43 0.4, 14.35 0.81" stroke="#1e1e1e" stroke-width="4" fill="none"></path></g><g stroke-linecap="round"><g transform="translate(564.9020817646466 493.93914171937536) rotate(0.29042248464846626 -34.5163039158231 0.821816759900571)"><path d="M-0.19 -0.8 C-11.76 -0.49, -58 0.87, -69.34 1.17 M-1.75 1.4 C-13.51 1.92, -59.32 2.36, -70.46 2.45" stroke="#1e1e1e" stroke-width="4" fill="none"></path></g></g><mask></mask><g stroke-linecap="round" transform="translate(735.6832356038792 565.270293640426) rotate(91.4109640259056 7.205128454027545 7.32724927528227)"><path d="M7.78 0.42 C9.28 0.42, 11.41 1.17, 12.46 2.26 C13.5 3.34, 13.97 5.37, 14.03 6.93 C14.09 8.48, 13.7 10.33, 12.81 11.57 C11.92 12.82, 10.2 13.93, 8.69 14.4 C7.18 14.87, 5.17 15.03, 3.74 14.38 C2.32 13.74, 0.78 12.02, 0.14 10.52 C-0.5 9.03, -0.58 6.98, -0.09 5.41 C0.41 3.83, 1.6 1.87, 3.09 1.06 C4.57 0.26, 7.81 0.64, 8.83 0.58 C9.86 0.51, 9.32 0.56, 9.23 0.67 M7.78 0 C9.22 0.18, 11.25 1.06, 12.35 2.19 C13.44 3.32, 14.36 5.08, 14.37 6.78 C14.37 8.49, 13.27 11.15, 12.39 12.42 C11.51 13.68, 10.42 14.05, 9.1 14.4 C7.77 14.75, 5.92 15.1, 4.46 14.53 C2.99 13.96, 1.01 12.49, 0.33 10.97 C-0.35 9.45, -0.04 6.9, 0.37 5.4 C0.78 3.9, 1.39 2.87, 2.78 1.96 C4.16 1.05, 7.92 0.34, 8.69 -0.06 C9.47 -0.46, 7.6 -0.67, 7.43 -0.44" stroke="#1e1e1e" stroke-width="4" fill="none"></path></g><g stroke-linecap="round"><g transform="translate(763.42195315803 543.6763017771211) rotate(91.4109640259056 -20.51629797079029 0.4884832850187877)"><path d="M0.23 -0.17 C-6.53 -0.13, -33.76 0.57, -40.57 0.77 M-0.31 -0.74 C-7.11 -0.38, -34.02 0.96, -40.76 1.36" stroke="#1e1e1e" stroke-width="4" fill="none"></path></g></g><mask></mask><g stroke-linecap="round"><g transform="translate(298.4286050226883 292.88816265371815) rotate(0 -31.933906397604574 2.186673749221427)"><path d="M1.18 1.07 C-9.45 2.03, -53.82 4.22, -64.82 4.92 M0.34 0.59 C-9.83 1.26, -52.14 2.62, -62.6 3.09" stroke="#1e1e1e" stroke-width="4" fill="none"></path></g><g transform="translate(298.4286050226883 292.88816265371815) rotate(0 -31.933906397604574 2.186673749221427)"><path d="M-39.45 -6.35 C-42.68 -5.68, -48.52 -3.67, -62.6 3.09 M-39.45 -6.35 C-48.97 -1.89, -56.05 0.5, -62.6 3.09" stroke="#1e1e1e" stroke-width="4" fill="none"></path></g><g transform="translate(298.4286050226883 292.88816265371815) rotate(0 -31.933906397604574 2.186673749221427)"><path d="M-38.8 10.74 C-42.06 7.75, -48.03 6.11, -62.6 3.09 M-38.8 10.74 C-48.68 8.81, -56.01 4.81, -62.6 3.09" stroke="#1e1e1e" stroke-width="4" fill="none"></path></g></g><mask></mask><g stroke-linecap="round"><g transform="translate(571.5318046745244 363.9649571698467) rotate(0 1.6975354865811596 55.97601962826684)"><path d="M0.74 0.9 C1.34 19.78, 2.83 94.29, 3.44 112.83 M-0.34 0.33 C0.13 18.91, 1.76 92.3, 2.52 111.17" stroke="#1e1e1e" stroke-width="4" fill="none"></path></g><g transform="translate(571.5318046745244 363.9649571698467) rotate(0 1.6975354865811596 55.97601962826684)"><path d="M-6.73 87.94 C-2.69 94.54, -0.11 102.74, 2.52 111.17 M-6.73 87.94 C-3.88 96.11, -1.34 102.33, 2.52 111.17" stroke="#1e1e1e" stroke-width="4" fill="none"></path></g><g transform="translate(571.5318046745244 363.9649571698467) rotate(0 1.6975354865811596 55.97601962826684)"><path d="M10.36 87.43 C9.57 94.27, 7.3 102.63, 2.52 111.17 M10.36 87.43 C7.84 95.88, 4.99 102.26, 2.52 111.17" stroke="#1e1e1e" stroke-width="4" fill="none"></path></g></g><mask></mask><g stroke-linecap="round"><g transform="translate(220.71971932325846 162.38792126711337) rotate(0 -0.6614305412148838 57.805115030057664)"><path d="M-0.2 0.64 C-0.4 19.99, -1.35 97.48, -1.38 116.51 M-1.77 -0.06 C-2.11 18.92, -2.55 95.56, -2.36 114.85" stroke="#1e1e1e" stroke-width="4" fill="none"></path></g><g transform="translate(220.71971932325846 162.38792126711337) rotate(0 -0.6614305412148838 57.805115030057664)"><path d="M-10.92 91.37 C-7.36 97.9, -4.52 106.23, -2.36 114.85 M-10.92 91.37 C-8 97.34, -6.8 101.4, -2.36 114.85" stroke="#1e1e1e" stroke-width="4" fill="none"></path></g><g transform="translate(220.71971932325846 162.38792126711337) rotate(0 -0.6614305412148838 57.805115030057664)"><path d="M6.18 91.36 C4.93 97.87, 2.95 106.19, -2.36 114.85 M6.18 91.36 C5.11 97.31, 2.31 101.37, -2.36 114.85" stroke="#1e1e1e" stroke-width="4" fill="none"></path></g></g><mask></mask><g transform="translate(10 282.0802689562088) rotate(0 90.86988830566406 12.5)"><text x="0" y="0" font-family="Virgil, Segoe UI Emoji" font-size="20px" fill="#1e1e1e" text-anchor="start" style="white-space: pre;" direction="ltr" dominant-baseline="text-before-edge">enqueue submission</text></g><g stroke-linecap="round"><g transform="translate(408.53863944117035 745.5740467665114) rotate(0 -24.195859493416634 -0.13565471318770506)"><path d="M-0.04 -0.43 C-8.03 -0.56, -40.27 -0.38, -48.41 -0.39 M-0.72 0.53 C-8.75 0.46, -41 0.33, -48.85 0.25" stroke="#1e1e1e" stroke-width="4" fill="none"></path></g><g transform="translate(408.53863944117035 745.5740467665114) rotate(0 -24.195859493416634 -0.13565471318770506)"><path d="M-26.06 -7.87 C-31.77 -6.15, -36.15 -5.23, -48.85 0.25 M-26.06 -7.87 C-31.87 -5.69, -38.32 -3.22, -48.85 0.25" stroke="#1e1e1e" stroke-width="4" fill="none"></path></g><g transform="translate(408.53863944117035 745.5740467665114) rotate(0 -24.195859493416634 -0.13565471318770506)"><path d="M-26.17 8.68 C-31.91 6.81, -36.27 4.13, -48.85 0.25 M-26.17 8.68 C-31.93 6.52, -38.36 4.65, -48.85 0.25" stroke="#1e1e1e" stroke-width="4" fill="none"></path></g></g><mask></mask><g stroke-linecap="round" transform="translate(469.9239862420675 609.4066340362572) rotate(91.4109640259056 7.205128454027545 7.32724927528227)"><path d="M8.16 -0.24 C9.69 -0.17, 11.75 1.44, 12.82 2.55 C13.9 3.67, 14.52 4.98, 14.6 6.43 C14.68 7.88, 14.16 10.01, 13.29 11.27 C12.41 12.53, 10.82 13.5, 9.35 13.98 C7.88 14.47, 5.95 14.77, 4.46 14.18 C2.97 13.6, 1.18 12.01, 0.43 10.47 C-0.31 8.93, -0.41 6.51, 0.01 4.95 C0.43 3.39, 1.61 1.86, 2.96 1.09 C4.3 0.32, 7.14 0.4, 8.08 0.31 C9.01 0.23, 8.61 0.43, 8.57 0.58 M5.6 0.7 C7.09 0.2, 9.73 0.18, 11.07 0.87 C12.41 1.56, 13.13 3.45, 13.64 4.82 C14.15 6.2, 14.53 7.58, 14.14 9.13 C13.75 10.67, 12.69 13.26, 11.3 14.1 C9.92 14.94, 7.35 14.52, 5.82 14.18 C4.3 13.84, 3.21 13.05, 2.15 12.06 C1.08 11.06, -0.56 9.69, -0.58 8.19 C-0.61 6.68, 1.06 4.34, 2 3.03 C2.94 1.71, 4.39 0.69, 5.07 0.29 C5.74 -0.11, 5.84 0.46, 6.04 0.63" stroke="#1e1e1e" stroke-width="4" fill="none"></path></g><g stroke-linecap="round"><g transform="translate(497.6627037962181 587.8126421729523) rotate(91.4109640259056 -20.516297970790276 0.4884832850187877)"><path d="M0.26 -0.03 C-6.49 0.17, -33.76 0.86, -40.7 1.1 M-0.27 -0.51 C-7.05 -0.49, -34.3 0.02, -40.96 0.2" stroke="#1e1e1e" stroke-width="4" fill="none"></path></g></g><mask></mask><g stroke-linecap="round"><g transform="translate(477.5925492773704 711.2958839178523) rotate(0 -0.18905015084382626 -39.22623829596921)"><path d="M1.17 -0.46 C1.01 -13.4, 0.08 -64.82, -0.21 -77.81 M0.32 -1.74 C-0.05 -15.02, -0.77 -67.04, -1.07 -79.6" stroke="#1e1e1e" stroke-width="4" fill="none"></path></g><g transform="translate(477.5925492773704 711.2958839178523) rotate(0 -0.18905015084382626 -39.22623829596921)"><path d="M7.91 -56.27 C3.93 -64.34, 2.51 -73.41, -1.07 -79.6 M7.91 -56.27 C5.7 -62.5, 2.34 -69.79, -1.07 -79.6" stroke="#1e1e1e" stroke-width="4" fill="none"></path></g><g transform="translate(477.5925492773704 711.2958839178523) rotate(0 -0.18905015084382626 -39.22623829596921)"><path d="M-9.19 -55.96 C-6.99 -64.3, -2.23 -73.49, -1.07 -79.6 M-9.19 -55.96 C-6.23 -62.16, -4.43 -69.54, -1.07 -79.6" stroke="#1e1e1e" stroke-width="4" fill="none"></path></g></g><mask></mask><g transform="translate(526.9639339038511 510.72514872318334) rotate(0 52.79993438720703 12.5)"><text x="0" y="0" font-family="Virgil, Segoe UI Emoji" font-size="20px" fill="#1e1e1e" text-anchor="start" style="white-space: pre;" direction="ltr" dominant-baseline="text-before-edge">read lease</text></g><g transform="translate(217.93670530919837 757.4329002717363) rotate(0 91.88988494873047 12.5)"><text x="0" y="0" font-family="Virgil, Segoe UI Emoji" font-size="20px" fill="#1e1e1e" text-anchor="start" style="white-space: pre;" direction="ltr" dominant-baseline="text-before-edge">dequeue submission</text></g><g transform="translate(488.31084270345093 603.9428567650716) rotate(0 64.75991821289062 12.5)"><text x="0" y="0" font-family="Virgil, Segoe UI Emoji" font-size="20px" fill="#1e1e1e" text-anchor="start" style="white-space: pre;" direction="ltr" dominant-baseline="text-before-edge">update lease</text></g><g transform="translate(763.7974549669996 555.9550384275792) rotate(0 87.05989074707031 12.5)"><text x="0" y="0" font-family="Virgil, Segoe UI Emoji" font-size="20px" fill="#1e1e1e" text-anchor="start" style="white-space: pre;" direction="ltr" dominant-baseline="text-before-edge">update submission</text></g><g stroke-linecap="round"><g transform="translate(740.4689706338739 712.033512677192) rotate(0 0.3006058029264551 -62.584691670260895)"><path d="M-0.33 -0.86 C-0.15 -21.82, 1.01 -105.42, 1.15 -126.24 M1.69 1.3 C1.76 -19.51, 0.83 -104.25, 0.49 -125.26" stroke="#1e1e1e" stroke-width="4" fill="none"></path></g><g transform="translate(740.4689706338739 712.033512677192) rotate(0 0.3006058029264551 -62.584691670260895)"><path d="M9.34 -101.88 C5.31 -108.1, 2.26 -116.32, 0.49 -125.26 M9.34 -101.88 C6.79 -107.31, 5.27 -112.84, 0.49 -125.26" stroke="#1e1e1e" stroke-width="4" fill="none"></path></g><g transform="translate(740.4689706338739 712.033512677192) rotate(0 0.3006058029264551 -62.584691670260895)"><path d="M-7.76 -101.66 C-6.59 -107.9, -4.44 -116.19, 0.49 -125.26 M-7.76 -101.66 C-6.06 -107, -3.32 -112.58, 0.49 -125.26" stroke="#1e1e1e" stroke-width="4" fill="none"></path></g></g><mask></mask><g stroke-linecap="round" transform="translate(635.4220067448795 439.7169522160391) rotate(181.7114687453121 9.606617908079414 9.305086915510628)"><path d="M8.69 0.28 C10.6 0.07, 13.83 0.38, 15.47 1.49 C17.11 2.61, 18.03 4.96, 18.53 6.97 C19.03 8.98, 19.35 11.8, 18.47 13.56 C17.6 15.32, 15.2 16.7, 13.29 17.54 C11.39 18.38, 8.99 19.1, 7.04 18.6 C5.1 18.09, 2.77 16.31, 1.64 14.5 C0.5 12.7, 0.01 9.77, 0.23 7.77 C0.44 5.77, 1.36 3.85, 2.93 2.5 C4.5 1.15, 8.56 0.11, 9.63 -0.32 C10.7 -0.76, 9.41 -0.28, 9.34 -0.13 M11.52 0.23 C13.5 0.57, 16.63 2.73, 17.84 4.43 C19.06 6.13, 19.13 8.62, 18.84 10.42 C18.54 12.22, 17.42 13.77, 16.09 15.24 C14.76 16.71, 12.8 19.01, 10.88 19.26 C8.95 19.52, 6.41 18.09, 4.56 16.77 C2.72 15.45, 0.55 13.08, -0.18 11.33 C-0.9 9.58, -0.79 8.11, 0.21 6.27 C1.2 4.43, 3.95 1.19, 5.78 0.3 C7.61 -0.59, 10.05 0.91, 11.17 0.91 C12.28 0.92, 12.36 0.33, 12.47 0.32" stroke="#1e1e1e" stroke-width="4" fill="none"></path></g><g stroke-linecap="round"><g transform="translate(696.6320832159118 450.4943420860784) rotate(181.7114687453121 -20.51629797079029 0.4884832850187877)"><path d="M-0.1 0.32 C-6.93 0.36, -34.72 0.35, -41.5 0.47 M-0.82 0.01 C-7.43 0.08, -33.81 0.64, -40.5 0.91" stroke="#1e1e1e" stroke-width="4" fill="none"></path></g></g><mask></mask><g stroke-linecap="round"><g transform="translate(637.7763642240672 166.16003631714648) rotate(0 1.823715727713406 133.68668581934048)"><path d="M-0.14 -0.81 C0.44 43.73, 4.05 222.19, 4.55 266.86 M-1.68 1.38 C-1.26 46.12, 2.91 223.62, 4.08 268.13" stroke="#1e1e1e" stroke-width="4" fill="none"></path></g><g transform="translate(637.7763642240672 166.16003631714648) rotate(0 1.823715727713406 133.68668581934048)"><path d="M-5.04 244.86 C-2.94 255.37, 1.08 261.57, 4.08 268.13 M-5.04 244.86 C-2.94 251.12, 0.86 258.59, 4.08 268.13" stroke="#1e1e1e" stroke-width="4" fill="none"></path></g><g transform="translate(637.7763642240672 166.16003631714648) rotate(0 1.823715727713406 133.68668581934048)"><path d="M12.06 244.44 C7.56 255.09, 4.97 261.46, 4.08 268.13 M12.06 244.44 C9.27 250.95, 8.17 258.54, 4.08 268.13" stroke="#1e1e1e" stroke-width="4" fill="none"></path></g></g><mask></mask><g stroke-linecap="round"><g transform="translate(649.2440275480703 712.1187243581785) rotate(0 -1.923438384358036 -123.19464028559946)"><path d="M-0.76 0.33 C-1.25 -40.85, -3.54 -206.14, -3.91 -247.1 M1.05 -0.54 C0.48 -41.58, -4.17 -204.81, -4.89 -245.94" stroke="#1e1e1e" stroke-width="4" fill="none"></path></g><g transform="translate(649.2440275480703 712.1187243581785) rotate(0 -1.923438384358036 -123.19464028559946)"><path d="M4.21 -222.66 C2.76 -227.94, -0.99 -231.48, -4.89 -245.94 M4.21 -222.66 C0.1 -231.47, -2.45 -240.56, -4.89 -245.94" stroke="#1e1e1e" stroke-width="4" fill="none"></path></g><g transform="translate(649.2440275480703 712.1187243581785) rotate(0 -1.923438384358036 -123.19464028559946)"><path d="M-12.89 -222.25 C-10.58 -227.51, -10.57 -231.14, -4.89 -245.94 M-12.89 -222.25 C-10.53 -231.33, -6.62 -240.58, -4.89 -245.94" stroke="#1e1e1e" stroke-width="4" fill="none"></path></g></g><mask></mask><g transform="translate(615.6156367851806 359.59140206393977) rotate(298.2314309631013 75.09990692138672 12.5)"><text x="0" y="0" font-family="Virgil, Segoe UI Emoji" font-size="20px" fill="#1e1e1e" text-anchor="start" style="white-space: pre;" direction="ltr" dominant-baseline="text-before-edge">read submission</text></g><g stroke-linecap="round" transform="translate(867.860480405198 68.55000125541414) rotate(272.752786963455 7.205128454027545 7.32724927528227)"><path d="M8.5 0.41 C9.94 0.48, 11.64 1.3, 12.57 2.39 C13.51 3.47, 14.06 5.32, 14.1 6.91 C14.14 8.5, 13.67 10.66, 12.82 11.92 C11.97 13.18, 10.52 14.19, 8.99 14.48 C7.46 14.77, 5.08 14.41, 3.63 13.64 C2.18 12.88, 0.79 11.37, 0.28 9.87 C-0.23 8.38, 0.09 6.21, 0.59 4.67 C1.08 3.13, 1.87 1.37, 3.26 0.61 C4.65 -0.15, 8.04 0.22, 8.92 0.12 C9.8 0.01, 8.57 -0.21, 8.54 -0.01 M8.04 0.58 C9.47 0.66, 11.5 1.37, 12.45 2.35 C13.4 3.33, 13.57 4.78, 13.74 6.46 C13.91 8.13, 14.27 10.92, 13.48 12.38 C12.69 13.83, 10.69 14.99, 8.98 15.19 C7.26 15.39, 4.59 14.46, 3.2 13.6 C1.81 12.73, 1.17 11.37, 0.63 9.98 C0.1 8.59, -0.53 6.83, -0.02 5.26 C0.48 3.69, 2.23 1.43, 3.68 0.57 C5.13 -0.29, 7.89 0.19, 8.68 0.13 C9.47 0.06, 8.56 0.13, 8.4 0.18" stroke="#1e1e1e" stroke-width="4" fill="none"></path></g><g stroke-linecap="round"><g transform="translate(1039.6764346207322 245.7193365182518) rotate(272.752786963455 -167.25772236391776 5.736443752138825)"><path d="M0.82 0.05 C-54.68 1.99, -278.06 9.81, -333.83 11.66 M-0.22 -0.97 C-55.74 1.18, -278.76 11.08, -334.42 13.29" stroke="#1e1e1e" stroke-width="4" fill="none"></path></g></g><mask></mask><g stroke-linecap="round"><g transform="translate(650.7362890181925 76.11096658036399) rotate(0 105.18800046431701 -1.09662338036037)"><path d="M-0.47 0.05 C34.71 -0.39, 175.19 -1.33, 210.26 -1.88 M1.49 -0.97 C36.57 -1.86, 174.68 -3.59, 209.25 -3.84" stroke="#1e1e1e" stroke-width="4" fill="none"></path></g><g transform="translate(650.7362890181925 76.11096658036399) rotate(0 105.18800046431701 -1.09662338036037)"><path d="M185.84 4.96 C191.36 2.79, 197.29 0.14, 209.25 -3.84 M185.84 4.96 C191.47 2.97, 196.27 1.58, 209.25 -3.84" stroke="#1e1e1e" stroke-width="4" fill="none"></path></g><g transform="translate(650.7362890181925 76.11096658036399) rotate(0 105.18800046431701 -1.09662338036037)"><path d="M185.66 -12.14 C191.33 -10.3, 197.31 -8.93, 209.25 -3.84 M185.66 -12.14 C191.37 -10.46, 196.21 -8.18, 209.25 -3.84" stroke="#1e1e1e" stroke-width="4" fill="none"></path></g></g><mask></mask><g transform="translate(893.922270996796 63.53824938089588) rotate(0 71.01991271972656 12.5)"><text x="0" y="0" font-family="Virgil, Segoe UI Emoji" font-size="20px" fill="#1e1e1e" text-anchor="start" style="white-space: pre;" direction="ltr" dominant-baseline="text-before-edge">add submission</text></g><g stroke-linecap="round" transform="translate(471.2057768905514 922.482976847991) rotate(273.0612468582206 7.205128454027545 7.327249275282156)"><path d="M7.57 0.45 C9.05 0.34, 10.35 0.39, 11.53 1.32 C12.71 2.25, 14.38 4.45, 14.64 6.05 C14.89 7.65, 13.87 9.55, 13.06 10.92 C12.26 12.28, 11.13 13.67, 9.81 14.22 C8.49 14.77, 6.7 14.81, 5.15 14.21 C3.59 13.6, 1.35 11.89, 0.45 10.6 C-0.44 9.31, -0.6 8.01, -0.22 6.45 C0.15 4.89, 1.33 2.38, 2.69 1.26 C4.05 0.14, 7.15 -0.07, 7.94 -0.25 C8.74 -0.44, 7.57 0.06, 7.46 0.15 M6.28 -0.53 C7.83 -0.68, 10.47 0.93, 11.69 2.1 C12.9 3.27, 13.27 5.15, 13.58 6.5 C13.89 7.85, 14.04 8.94, 13.53 10.21 C13.03 11.48, 11.94 13.48, 10.53 14.11 C9.13 14.75, 6.65 14.47, 5.1 14.01 C3.56 13.54, 2 12.55, 1.28 11.31 C0.55 10.08, 0.66 8.26, 0.77 6.61 C0.87 4.96, 0.92 2.58, 1.9 1.42 C2.88 0.26, 5.76 -0.14, 6.65 -0.35 C7.54 -0.56, 7.08 -0.04, 7.22 0.17" stroke="#1e1e1e" stroke-width="4" fill="none"></path></g><g stroke-linecap="round"><g transform="translate(498.4173353017073 957.8536898954405) rotate(273.0612468582206 -20.516297970790305 0.48848328501890137)"><path d="M0.02 -0.45 C-6.86 -0.18, -34.62 1.15, -41.38 1.32 M-0.64 0.5 C-7.33 0.65, -33.65 0.45, -40.32 0.53" stroke="#1e1e1e" stroke-width="4" fill="none"></path></g></g><mask></mask><g stroke-linecap="round" transform="translate(638.599808149313 925.8792345588547) rotate(273.0612468582206 7.205128454027545 7.327249275282156)"><path d="M5.56 -0.18 C6.97 -0.6, 8.67 0.4, 10.06 1.17 C11.46 1.93, 13.3 2.99, 13.94 4.4 C14.58 5.82, 14.33 8.11, 13.89 9.66 C13.46 11.22, 12.64 12.84, 11.35 13.73 C10.06 14.63, 7.78 15.27, 6.16 15.02 C4.53 14.76, 2.62 13.48, 1.6 12.22 C0.57 10.96, 0.03 9.06, -0.01 7.46 C-0.04 5.86, 0.4 3.85, 1.41 2.62 C2.42 1.4, 5.32 0.5, 6.05 0.13 C6.79 -0.24, 5.79 0.3, 5.83 0.43 M7.7 0.11 C9.05 0.27, 10.97 1.31, 12.21 2.33 C13.44 3.35, 14.97 4.58, 15.1 6.21 C15.24 7.84, 14.02 10.65, 13.01 12.09 C12 13.54, 10.42 14.63, 9.02 14.87 C7.63 15.12, 6.12 14.39, 4.65 13.55 C3.18 12.71, 0.82 11.09, 0.21 9.81 C-0.39 8.54, 0.57 7.24, 1.01 5.92 C1.46 4.6, 1.66 2.9, 2.87 1.9 C4.08 0.91, 7.53 0.36, 8.29 -0.05 C9.04 -0.46, 7.45 -0.62, 7.41 -0.55" stroke="#1e1e1e" stroke-width="4" fill="none"></path></g><g stroke-linecap="round"><g transform="translate(665.8113665604687 961.2499476063042) rotate(273.0612468582206 -20.51629797079029 0.48848328501890137)"><path d="M-0.5 -0.46 C-7.35 -0.24, -33.9 0.8, -40.72 0.96 M0.24 0.49 C-6.69 0.84, -34.23 1.58, -40.99 1.65" stroke="#1e1e1e" stroke-width="4" fill="none"></path></g></g><mask></mask><g transform="translate(491.38557899347774 917.0850488140493) rotate(0 58.71992492675781 12.5)"><text x="0" y="0" font-family="Virgil, Segoe UI Emoji" font-size="20px" fill="#1e1e1e" text-anchor="start" style="white-space: pre;" direction="ltr" dominant-baseline="text-before-edge">put request</text></g><g transform="translate(659.5621858468583 938.048554706301) rotate(0 81.29991149902344 12.5)"><text x="0" y="0" font-family="Virgil, Segoe UI Emoji" font-size="20px" fill="#1e1e1e" text-anchor="start" style="white-space: pre;" direction="ltr" dominant-baseline="text-before-edge">get dependencies</text></g><g stroke-linecap="round"><g transform="translate(476.03385602639764 845.9592204861674) rotate(0 1.3200378458355715 34.65660943615046)"><path d="M1.14 0.58 C1.63 12.06, 2.22 58.42, 2.59 70.01 M0.29 -0.16 C0.64 11.49, 1.17 56.86, 1.61 68.25" stroke="#1e1e1e" stroke-width="4" fill="none"></path></g><g transform="translate(476.03385602639764 845.9592204861674) rotate(0 1.3200378458355715 34.65660943615046)"><path d="M-7.49 44.96 C-3.83 51.12, -1.17 58.7, 1.61 68.25 M-7.49 44.96 C-4.4 53.32, -0.25 61.34, 1.61 68.25" stroke="#1e1e1e" stroke-width="4" fill="none"></path></g><g transform="translate(476.03385602639764 845.9592204861674) rotate(0 1.3200378458355715 34.65660943615046)"><path d="M9.61 44.56 C8.62 50.99, 6.64 58.68, 1.61 68.25 M9.61 44.56 C6.46 53.23, 4.38 61.4, 1.61 68.25" stroke="#1e1e1e" stroke-width="4" fill="none"></path></g></g><mask></mask><g stroke-linecap="round"><g transform="translate(648.1753244226736 844.2632640169402) rotate(0 0.6330111490449042 34.58983710102234)"><path d="M0.02 -1.18 C0.35 10.36, 0.72 57.83, 0.95 69.39 M-1.44 0.82 C-1.2 11.96, -0.53 56.02, -0.16 67.38" stroke="#1e1e1e" stroke-width="4" fill="none"></path></g><g transform="translate(648.1753244226736 844.2632640169402) rotate(0 0.6330111490449042 34.58983710102234)"><path d="M-9.24 44.08 C-9.23 48.55, -4.97 54.35, -0.16 67.38 M-9.24 44.08 C-6.94 49.94, -4.34 54.65, -0.16 67.38" stroke="#1e1e1e" stroke-width="4" fill="none"></path></g><g transform="translate(648.1753244226736 844.2632640169402) rotate(0 0.6330111490449042 34.58983710102234)"><path d="M7.85 43.7 C4.2 48.25, 4.8 54.13, -0.16 67.38 M7.85 43.7 C6.47 49.64, 5.37 54.44, -0.16 67.38" stroke="#1e1e1e" stroke-width="4" fill="none"></path></g></g><mask></mask><g stroke-linecap="round" transform="translate(338.3486617794887 736.5040802444464) rotate(91.4109640259056 7.205128454027545 7.32724927528227)"><path d="M8.53 0.23 C10.01 0.27, 11.69 1.04, 12.74 2.12 C13.79 3.21, 14.76 5.07, 14.83 6.72 C14.91 8.36, 14.16 10.64, 13.19 11.99 C12.23 13.34, 10.58 14.54, 9.05 14.81 C7.52 15.08, 5.36 14.48, 4.01 13.61 C2.67 12.75, 1.66 11, 0.98 9.62 C0.29 8.25, -0.42 6.72, -0.09 5.37 C0.25 4.02, 1.51 2.33, 2.99 1.52 C4.47 0.71, 7.76 0.61, 8.8 0.5 C9.84 0.4, 9.29 0.87, 9.22 0.89 M7.63 -0.47 C9.14 -0.35, 12 0.55, 13.13 1.9 C14.25 3.26, 14.49 6.04, 14.38 7.66 C14.28 9.28, 13.34 10.45, 12.49 11.63 C11.64 12.81, 10.78 14.3, 9.28 14.76 C7.79 15.23, 5.08 15.35, 3.5 14.43 C1.92 13.51, 0.43 10.88, -0.2 9.26 C-0.83 7.65, -0.88 6.01, -0.28 4.73 C0.33 3.46, 2.1 2.29, 3.43 1.61 C4.76 0.92, 6.98 0.78, 7.7 0.6 C8.42 0.41, 7.57 0.39, 7.73 0.51" stroke="#1e1e1e" stroke-width="4" fill="none"></path></g></svg>