<svg version="1.1" xmlns="http://www.w3.org/2000/svg" viewBox="0 0 1363.9656068206496 1857.2362628363844" width="1363.9656068206496" height="1857.2362628363844">
  <!-- svg-source:excalidraw -->
  
  <defs>
    <style class="style-fonts">
      @font-face {
        font-family: "Virgil";
        src: url("https://excalidraw.com/Virgil.woff2");
      }
      @font-face {
        font-family: "Cascadia";
        src: url("https://excalidraw.com/Cascadia.woff2");
      }
      @font-face {
        font-family: "Assistant";
        src: url("https://excalidraw.com/Assistant-Regular.woff2");
      }
    </style>
    
  </defs>
  <rect x="0" y="0" width="1363.9656068206496" height="1857.2362628363844" fill="#ffffff"></rect><g transform="translate(544.6253515950206 272.91899370459475) rotate(0 74.85416412353516 12.5)"><text x="0" y="0" font-family="Virgil, Segoe UI Emoji" font-size="20px" fill="#1e1e1e" text-anchor="start" style="white-space: pre;" direction="ltr" dominant-baseline="text-before-edge">RequestHandler</text></g><g stroke-linecap="round"><g transform="translate(565.1029985704532 337.39742659686397) rotate(0 -63.87992878677788 157.29518674053992)"><path d="M0.63 0.61 C-20.57 53.17, -106.21 262.33, -127.62 314.64 M-0.49 -0.12 C-21.8 52.72, -107.13 263.57, -128.49 316.2" stroke="#1e1e1e" stroke-width="4" fill="none"></path></g><g transform="translate(565.1029985704532 337.39742659686397) rotate(0 -63.87992878677788 157.29518674053992)"><path d="M-127.59 291.22 C-126.97 298.1, -128.14 304.38, -128.49 316.2 M-127.59 291.22 C-126.99 299.26, -128.35 305.46, -128.49 316.2" stroke="#1e1e1e" stroke-width="4" fill="none"></path></g><g transform="translate(565.1029985704532 337.39742659686397) rotate(0 -63.87992878677788 157.29518674053992)"><path d="M-111.74 297.64 C-115.29 302.9, -120.67 307.48, -128.49 316.2 M-111.74 297.64 C-115.7 303.78, -121.63 308.13, -128.49 316.2" stroke="#1e1e1e" stroke-width="4" fill="none"></path></g></g><mask></mask><g stroke-linecap="round"><g transform="translate(627.8583795594541 339.8916520768104) rotate(0 0.812722388968325 78.04584838143563)"><path d="M-0.3 -0.02 C-0.14 26.2, 1.87 130.96, 2.09 157.06 M1.74 -1.08 C1.69 24.84, 1.69 129.52, 1.39 155.45" stroke="#1e1e1e" stroke-width="4" fill="none"></path></g><g transform="translate(627.8583795594541 339.8916520768104) rotate(0 0.812722388968325 78.04584838143563)"><path d="M-7.05 131.91 C-3.83 141.95, 1.14 149.42, 1.39 155.45 M-7.05 131.91 C-3.62 140.17, -1.32 147.05, 1.39 155.45" stroke="#1e1e1e" stroke-width="4" fill="none"></path></g><g transform="translate(627.8583795594541 339.8916520768104) rotate(0 0.812722388968325 78.04584838143563)"><path d="M10.05 132 C6.56 141.96, 4.81 149.39, 1.39 155.45 M10.05 132 C7.68 140.33, 4.19 147.18, 1.39 155.45" stroke="#1e1e1e" stroke-width="4" fill="none"></path></g></g><mask></mask><g stroke-linecap="round"><g transform="translate(722.5176160200025 337.25428375310537) rotate(0 84.67053940400544 163.22913809683308)"><path d="M-0.09 -0.77 C28.26 53.48, 141.01 271.5, 169.15 326.13 M-1.59 1.44 C26.66 55.81, 139.89 273.58, 168.1 327.5" stroke="#1e1e1e" stroke-width="4" fill="none"></path></g><g transform="translate(722.5176160200025 337.25428375310537) rotate(0 84.67053940400544 163.22913809683308)"><path d="M149.66 310.62 C152.57 314.07, 157.41 317.15, 168.1 327.5 M149.66 310.62 C156.27 315.6, 161.35 321.65, 168.1 327.5" stroke="#1e1e1e" stroke-width="4" fill="none"></path></g><g transform="translate(722.5176160200025 337.25428375310537) rotate(0 84.67053940400544 163.22913809683308)"><path d="M164.82 302.72 C164.4 307.91, 165.87 312.75, 168.1 327.5 M164.82 302.72 C166.13 310.56, 165.97 319.34, 168.1 327.5" stroke="#1e1e1e" stroke-width="4" fill="none"></path></g></g><mask></mask><g stroke-linecap="round" transform="translate(524.1285239457382 233.62690512749657) rotate(0 136.83128078817737 48.928571428571445)"><path d="M24.46 0 C72.22 1.01, 122.04 1.95, 249.2 0 M24.46 0 C98.33 0.99, 172.03 0.3, 249.2 0 M249.2 0 C265.37 -1.95, 274.99 9.02, 273.66 24.46 M249.2 0 C263.94 0.46, 272.2 8.61, 273.66 24.46 M273.66 24.46 C274.18 38.18, 272.58 51.67, 273.66 73.39 M273.66 24.46 C274.38 39.35, 274.73 54.28, 273.66 73.39 M273.66 73.39 C274.81 88.5, 265.63 97.7, 249.2 97.86 M273.66 73.39 C275.34 87.81, 263.67 99.43, 249.2 97.86 M249.2 97.86 C164.01 98.71, 76.67 97.88, 24.46 97.86 M249.2 97.86 C189.37 96.79, 130.63 97.41, 24.46 97.86 M24.46 97.86 C8.78 96.81, 1.02 88.56, 0 73.39 M24.46 97.86 C9.1 96.7, -1.16 91.14, 0 73.39 M0 73.39 C0.58 57.77, 0.79 43.43, 0 24.46 M0 73.39 C-0.33 59.44, 0.5 47.04, 0 24.46 M0 24.46 C-1.05 8.23, 7.59 -0.43, 24.46 0 M0 24.46 C-1.51 9.6, 6.84 -0.65, 24.46 0" stroke="#1e1e1e" stroke-width="4" fill="none"></path></g><g stroke-linecap="round" transform="translate(732.1906822897458 253.29376570410795) rotate(0 24.172717660314934 25.763028032704085)"><path d="M12.09 0 C18.74 0.28, 22.62 -0.81, 36.26 0 M12.09 0 C19.62 -0.27, 25.54 -1.14, 36.26 0 M36.26 0 C45.64 0.86, 46.98 4.43, 48.35 12.09 M36.26 0 C42.85 0.46, 47.97 2, 48.35 12.09 M48.35 12.09 C47.83 22, 48.52 33.57, 48.35 39.44 M48.35 12.09 C49.43 19.85, 49.07 26.58, 48.35 39.44 M48.35 39.44 C48.46 47.34, 45.78 49.88, 36.26 51.53 M48.35 39.44 C46.51 49.07, 46.19 51.79, 36.26 51.53 M36.26 51.53 C27.5 51.36, 20.45 50.91, 12.09 51.53 M36.26 51.53 C30.5 51.55, 23.54 50.87, 12.09 51.53 M12.09 51.53 C5.04 50.39, 0.82 46.49, 0 39.44 M12.09 51.53 C2.87 52.96, 0.32 48.07, 0 39.44 M0 39.44 C0.82 34.52, -0.7 26.54, 0 12.09 M0 39.44 C0.32 31.76, -0.33 24.04, 0 12.09 M0 12.09 C-0.57 3.6, 2.72 1.26, 12.09 0 M0 12.09 C-1.31 3.38, 1.93 0.11, 12.09 0" stroke="#1e1e1e" stroke-width="4" fill="none"></path></g><g stroke-linecap="round" transform="translate(722.0126959064553 261.5633796405317) rotate(0 10.814110532246175 6.361241489556562)"><path d="M3.18 0 C8.66 -0.49, 11.1 1.11, 18.45 0 C20.62 2.42, 21.11 -0.5, 21.63 3.18 C22.05 5.28, 21.73 6.5, 21.63 9.54 C21.15 12.42, 20.3 13.94, 18.45 12.72 C11.02 14.31, 7.18 12.17, 3.18 12.72 C1.75 14.66, -0.44 9.24, 0 9.54 C-0.55 7.48, 0.13 5.09, 0 3.18 C0.02 0.73, 2.4 1.76, 3.18 0" stroke="none" stroke-width="0" fill="#ffffff"></path><path d="M3.18 0 C7.26 -0.36, 10.78 0.37, 18.45 0 M3.18 0 C8.79 -0.36, 14.71 0.17, 18.45 0 M18.45 0 C19.89 0.2, 20.99 1.26, 21.63 3.18 M18.45 0 C20.38 -1.02, 22.57 1.61, 21.63 3.18 M21.63 3.18 C21.63 5.13, 21.54 7.08, 21.63 9.54 M21.63 3.18 C21.75 5.05, 21.67 7.1, 21.63 9.54 M21.63 9.54 C22.36 10.84, 19.77 13.41, 18.45 12.72 M21.63 9.54 C22.57 11.79, 20.71 13.1, 18.45 12.72 M18.45 12.72 C13.06 12.44, 7.97 12.52, 3.18 12.72 M18.45 12.72 C14.83 12.53, 11.17 12.52, 3.18 12.72 M3.18 12.72 C1.47 12.22, -0.5 12.29, 0 9.54 M3.18 12.72 C1.22 13.01, -1.06 12.07, 0 9.54 M0 9.54 C-0.11 7.47, -0.07 5.66, 0 3.18 M0 9.54 C-0.09 8.12, -0.05 6.66, 0 3.18 M0 3.18 C-0.66 1.69, 0.49 -0.28, 3.18 0 M0 3.18 C-1.05 1.12, 1.01 -0.59, 3.18 0" stroke="#1e1e1e" stroke-width="4" fill="none"></path></g><g stroke-linecap="round" transform="translate(722.0902013031252 280.76336220420615) rotate(0 10.814110532246175 6.361241489556562)"><path d="M3.18 0 C7.96 1.2, 13.2 1.89, 18.45 0 C20.05 -1.56, 21.63 2, 21.63 3.18 C21.74 4.26, 21.51 6.58, 21.63 9.54 C21.36 12.88, 22.47 14.6, 18.45 12.72 C13.5 12.26, 8.82 14.35, 3.18 12.72 C0.62 10.3, 0.71 11.01, 0 9.54 C0.17 7.65, 0.06 6.21, 0 3.18 C1.34 2.82, 2.5 1.71, 3.18 0" stroke="none" stroke-width="0" fill="#ffffff"></path><path d="M3.18 0 C7.74 0.41, 13.13 0.63, 18.45 0 M3.18 0 C7.85 0.24, 11.76 0.15, 18.45 0 M18.45 0 C19.93 0.2, 21.46 0.18, 21.63 3.18 M18.45 0 C21.51 0.55, 21.54 0.69, 21.63 3.18 M21.63 3.18 C21.55 5.1, 21.66 6.95, 21.63 9.54 M21.63 3.18 C21.66 5.22, 21.76 7.15, 21.63 9.54 M21.63 9.54 C20.83 12.35, 21.38 12.84, 18.45 12.72 M21.63 9.54 C21.77 12.04, 20.98 12.03, 18.45 12.72 M18.45 12.72 C13.83 12.5, 9.26 13.27, 3.18 12.72 M18.45 12.72 C13.82 12.47, 8.95 12.49, 3.18 12.72 M3.18 12.72 C0.56 13.35, 0.14 11.91, 0 9.54 M3.18 12.72 C0 13.13, -0.15 12.19, 0 9.54 M0 9.54 C-0.05 7.17, -0.23 5.28, 0 3.18 M0 9.54 C-0.03 7.57, -0.09 5.77, 0 3.18 M0 3.18 C-0.57 0.78, 0.15 0.05, 3.18 0 M0 3.18 C-0.05 0.47, 0.67 0.93, 3.18 0" stroke="#1e1e1e" stroke-width="4" fill="none"></path></g><g stroke-linecap="round" transform="translate(1113.8477722283023 1286.2352871777314) rotate(268.412856780479 18.487313735197233 18.800658035793845)"><path d="M19.46 -0.33 C23.32 -0.39, 28.73 1.97, 31.62 4.92 C34.52 7.86, 36.47 13.25, 36.86 17.33 C37.25 21.4, 36.28 26.13, 33.98 29.37 C31.67 32.6, 26.8 35.69, 23.02 36.73 C19.23 37.77, 14.74 37.17, 11.27 35.62 C7.8 34.07, 4.01 31.01, 2.2 27.42 C0.4 23.83, -0.51 18.11, 0.46 14.06 C1.43 10, 4.63 5.33, 8.03 3.07 C11.42 0.81, 18.44 0.95, 20.85 0.49 C23.26 0.04, 22.56 0.13, 22.48 0.33 M18.96 0.19 C22.7 0.04, 27.43 1.53, 30.29 4.16 C33.15 6.79, 35.36 11.82, 36.13 15.96 C36.91 20.1, 36.91 25.51, 34.94 29 C32.96 32.48, 28.04 35.75, 24.28 36.87 C20.51 37.98, 16.12 37.22, 12.37 35.67 C8.61 34.12, 3.79 31.14, 1.73 27.59 C-0.33 24.03, -0.81 18.17, 0.01 14.35 C0.83 10.54, 3.55 6.99, 6.67 4.7 C9.79 2.41, 16.56 1.42, 18.71 0.64 C20.86 -0.14, 19.63 -0.07, 19.6 0.02" stroke="#1e1e1e" stroke-width="4" fill="none"></path></g><g stroke-linecap="round"><g transform="translate(1079.3755330406877 1230.7912515923285) rotate(268.412856780479 52.64184250022265 1.2533772023862184)"><path d="M0.36 -0.73 C17.94 -0.63, 88.49 0.93, 105.82 1.56 M-0.92 1.5 C16.53 1.64, 87.21 2.68, 105.16 2.6" stroke="#1e1e1e" stroke-width="4" fill="none"></path></g></g><mask></mask><g stroke-linecap="round" transform="translate(960.404250910085 1077.1729430370885) rotate(357.9355080324675 13.319018164857553 13.544764235448383)"><path d="M14.77 0.57 C17.41 0.64, 20.86 1.7, 22.77 3.7 C24.68 5.71, 25.99 9.6, 26.22 12.6 C26.45 15.6, 25.68 19.42, 24.14 21.7 C22.61 23.99, 19.8 25.66, 17.02 26.29 C14.23 26.91, 10.08 26.7, 7.44 25.44 C4.8 24.19, 2.35 21.3, 1.17 18.76 C-0.01 16.21, -0.42 12.96, 0.37 10.16 C1.15 7.37, 3.44 3.67, 5.88 2.01 C8.31 0.34, 13.28 0.34, 14.98 0.17 C16.67 -0.01, 15.96 0.74, 16.04 0.93 M15.13 -0.15 C17.84 0.38, 21.24 3.4, 23.06 5.61 C24.87 7.81, 25.98 10.23, 26.01 13.09 C26.04 15.95, 24.84 20.37, 23.23 22.75 C21.61 25.14, 19.11 27.04, 16.3 27.4 C13.49 27.76, 8.85 26.34, 6.35 24.9 C3.86 23.47, 2.16 21.41, 1.33 18.78 C0.51 16.15, 0.51 12.06, 1.41 9.11 C2.31 6.15, 4.42 2.55, 6.73 1.05 C9.04 -0.45, 13.69 0.33, 15.28 0.11 C16.88 -0.1, 16.27 -0.52, 16.3 -0.24" stroke="#1e1e1e" stroke-width="4" fill="none"></path></g><g stroke-linecap="round"><g transform="translate(988.8637290478089 1089.253982720065) rotate(357.9355080324675 37.925339859255416 0.9029842823632634)"><path d="M0.51 0.68 C13.14 0.88, 62.8 1.8, 75.56 1.93 M-0.69 -0.01 C11.78 0.34, 61.52 3.09, 74.45 3.53" stroke="#1e1e1e" stroke-width="4" fill="none"></path></g></g><mask></mask><g transform="translate(991.5002357877438 1063.393255768879) rotate(0 29.1875 12.5)"><text x="29.1875" y="0" font-family="Virgil, Segoe UI Emoji" font-size="20px" fill="#1e1e1e" text-anchor="middle" style="white-space: pre;" direction="ltr" dominant-baseline="text-before-edge">Mount</text></g><g transform="translate(550.916821191867 648.0874491330239) rotate(0 75.65625 12.5)"><text x="0" y="0" font-family="Virgil, Segoe UI Emoji" font-size="20px" fill="#1e1e1e" text-anchor="start" style="white-space: pre;" direction="ltr" dominant-baseline="text-before-edge">SubmissionStore</text></g><g stroke-linecap="round" transform="translate(470.88166649814946 986.2195019060975) rotate(0 205.76197947221058 73.57703335011229)"><path d="M32 0 C109.61 -0.36, 187.74 -0.22, 379.52 0 M32 0 C154.4 -2.19, 276.82 -1.89, 379.52 0 M379.52 0 C401.56 -1.68, 411.63 10.97, 411.52 32 M379.52 0 C399.41 0.61, 412.06 12.09, 411.52 32 M411.52 32 C410.04 55.9, 412.11 82.95, 411.52 115.15 M411.52 32 C411.26 60.41, 411.03 90.09, 411.52 115.15 M411.52 115.15 C409.65 135.33, 401.59 145.37, 379.52 147.15 M411.52 115.15 C409.51 136.48, 402.99 145.83, 379.52 147.15 M379.52 147.15 C301.46 146.64, 223.07 145.72, 32 147.15 M379.52 147.15 C275.11 148.23, 172.31 147.18, 32 147.15 M32 147.15 C12.51 146.85, -1.33 134.92, 0 115.15 M32 147.15 C11.17 147.11, 2.29 136.55, 0 115.15 M0 115.15 C-1.75 87.38, 0.6 59.55, 0 32 M0 115.15 C0.89 91.03, -0.18 65.17, 0 32 M0 32 C-1.33 11.18, 12.61 -1.09, 32 0 M0 32 C-0.01 8.66, 12.54 -2.11, 32 0" stroke="#1e1e1e" stroke-width="4" fill="none"></path></g><g transform="translate(223.40316495515094 657.1619457284683) rotate(0 83.95833587646484 12.5)"><text x="0" y="0" font-family="Virgil, Segoe UI Emoji" font-size="20px" fill="#1e1e1e" text-anchor="start" style="white-space: pre;" direction="ltr" dominant-baseline="text-before-edge">Enqueue message</text></g><g stroke-linecap="round" transform="translate(590.9788820353182 1287.6025740029147) rotate(89.94075794909357 10.832769740380755 11.016376007166855)"><path d="M8.88 0.49 C11 -0.03, 13.63 0.44, 15.66 1.5 C17.68 2.57, 20.01 4.73, 21.01 6.88 C22.01 9.04, 22.33 12.14, 21.65 14.43 C20.98 16.72, 18.99 19.39, 16.93 20.63 C14.87 21.87, 11.66 22.25, 9.3 21.86 C6.95 21.46, 4.37 19.95, 2.8 18.25 C1.23 16.55, -0.05 13.96, -0.11 11.64 C-0.16 9.32, 0.89 6.26, 2.48 4.33 C4.06 2.4, 8.15 0.67, 9.4 0.05 C10.64 -0.58, 9.87 0.35, 9.92 0.58 M9.31 0.16 C11.55 -0.38, 14.83 0.17, 16.95 1.49 C19.07 2.8, 21.3 5.78, 22.03 8.07 C22.76 10.36, 22.45 13, 21.32 15.25 C20.19 17.5, 17.36 20.43, 15.25 21.56 C13.13 22.69, 10.94 22.7, 8.61 22.03 C6.29 21.35, 2.82 19.59, 1.31 17.5 C-0.21 15.4, -0.81 11.91, -0.5 9.44 C-0.18 6.97, 1.51 4.26, 3.2 2.66 C4.89 1.07, 8.64 0.21, 9.63 -0.13 C10.62 -0.47, 9.01 0.37, 9.14 0.6" stroke="#1e1e1e" stroke-width="4" fill="none"></path></g><g stroke-linecap="round"><g transform="translate(599.1588069520485 1134.3735686063221) rotate(0 0.9002456782153558 71.68554438748936)"><path d="M-1.06 -0.48 C-0.96 23.38, 0.3 120.44, 0.86 144.35 M0.59 -1.78 C1.03 22.27, 2.87 118.42, 3.08 142.73" stroke="#1e1e1e" stroke-width="4" fill="none"></path></g><g transform="translate(599.1588069520485 1134.3735686063221) rotate(0 0.9002456782153558 71.68554438748936)"><path d="M-5.81 119.37 C-3.5 125.46, 1.81 135.49, 3.08 142.73 M-5.81 119.37 C-3.11 126.55, -0.69 132.36, 3.08 142.73" stroke="#1e1e1e" stroke-width="4" fill="none"></path></g><g transform="translate(599.1588069520485 1134.3735686063221) rotate(0 0.9002456782153558 71.68554438748936)"><path d="M11.29 119.12 C8.05 125.14, 7.82 135.25, 3.08 142.73 M11.29 119.12 C9.42 126.43, 7.27 132.3, 3.08 142.73" stroke="#1e1e1e" stroke-width="4" fill="none"></path></g></g><mask></mask><g transform="translate(325.466609805762 1268.221881866772) rotate(359.85605351349363 86.625 12.925011420556984)"><text x="0" y="0" font-family="Virgil, Segoe UI Emoji" font-size="20.680018272891232px" fill="#1e1e1e" text-anchor="start" style="white-space: pre;" direction="ltr" dominant-baseline="text-before-edge">Enqueue message</text></g><g transform="translate(605.2763211049361 1037.2629975802495) rotate(0 31.94791603088379 12.5)"><text x="31.94791603088379" y="0" font-family="Virgil, Segoe UI Emoji" font-size="20px" fill="#1e1e1e" text-anchor="middle" style="white-space: pre;" direction="ltr" dominant-baseline="text-before-edge">Worker</text></g><g transform="translate(1116.3999560231507 1097.0137110657286) rotate(0 52.6875 25)"><text x="52.6875" y="0" font-family="Virgil, Segoe UI Emoji" font-size="20px" fill="#1e1e1e" text-anchor="middle" style="white-space: pre;" direction="ltr" dominant-baseline="text-before-edge">&lt;&lt;volume&gt;&gt;</text><text x="52.6875" y="25" font-family="Virgil, Segoe UI Emoji" font-size="20px" fill="#1e1e1e" text-anchor="middle" style="white-space: pre;" direction="ltr" dominant-baseline="text-before-edge"> Cache</text></g><g stroke-linecap="round" transform="translate(518.6857232951436 615.9716154360012) rotate(0 145.42068965517242 52)"><path d="M26 0 C118.93 2.2, 207.75 2.79, 264.84 0 M26 0 C98.29 0.39, 170.51 1.21, 264.84 0 M264.84 0 C283.97 1.08, 290.08 8.16, 290.84 26 M264.84 0 C280.32 0.31, 292.47 8.7, 290.84 26 M290.84 26 C290.59 45.05, 290.25 64.81, 290.84 78 M290.84 26 C291.6 45.19, 290.86 65.14, 290.84 78 M290.84 78 C291.27 94.34, 282.49 105.37, 264.84 104 M290.84 78 C289.63 93.25, 280.45 103.78, 264.84 104 M264.84 104 C189.75 104.37, 110.27 104.08, 26 104 M264.84 104 C193.09 102.58, 121.29 103.67, 26 104 M26 104 C8.27 102.7, -0.4 94.68, 0 78 M26 104 C9.61 102.88, 0.11 93.17, 0 78 M0 78 C0.13 61.63, 1.67 49.03, 0 26 M0 78 C1.22 63.43, 1.08 47.34, 0 26 M0 26 C-0.91 8.94, 6.95 -1.91, 26 0 M0 26 C-2.15 10.35, 7.33 -1.03, 26 0" stroke="#1e1e1e" stroke-width="4" fill="none"></path></g><g stroke-linecap="round" transform="translate(739.8087178563663 636.873038063407) rotate(0 25.690129133882138 27.380269208479604)"><path d="M12.85 0 C20.22 -2.06, 28.63 -0.26, 38.54 0 M12.85 0 C22.21 0.24, 30.37 -0.58, 38.54 0 M38.54 0 C45.28 1.36, 49.56 5.93, 51.38 12.85 M38.54 0 C45.08 -0.27, 50.32 4.25, 51.38 12.85 M51.38 12.85 C52.33 20.74, 53.35 27.4, 51.38 41.92 M51.38 12.85 C50.53 23.61, 51.68 34.46, 51.38 41.92 M51.38 41.92 C51.51 51.66, 48.52 55.54, 38.54 54.76 M51.38 41.92 C51.57 50.48, 49.32 57.01, 38.54 54.76 M38.54 54.76 C31.6 56.04, 27.34 53.05, 12.85 54.76 M38.54 54.76 C29.78 54.82, 21.91 55.62, 12.85 54.76 M12.85 54.76 C5.65 54.28, 1.57 51.95, 0 41.92 M12.85 54.76 C3.88 56.75, 0.87 48.81, 0 41.92 M0 41.92 C-0.29 36.61, -0.44 29.96, 0 12.85 M0 41.92 C0.29 34.81, 0.78 28.16, 0 12.85 M0 12.85 C-1.51 5.49, 2.77 1.29, 12.85 0 M0 12.85 C-0.68 5.02, 2.71 -1.14, 12.85 0" stroke="#1e1e1e" stroke-width="4" fill="none"></path></g><g stroke-linecap="round" transform="translate(728.9918213789422 645.6617664513142) rotate(0 11.492952507263086 6.760560298390033)"><path d="M3.38 0 C8.6 -1.2, 11.41 1.19, 19.61 0 C21.35 -2.29, 21.77 2.57, 22.99 3.38 C23.39 5.96, 22.33 7.78, 22.99 10.14 C25.15 14.93, 20.59 11.59, 19.61 13.52 C13.64 12.15, 9.42 14.66, 3.38 13.52 C1.25 12.57, -2.04 11.49, 0 10.14 C0.85 8.59, -0.64 7.74, 0 3.38 C-0.66 -0.76, 2.07 0.63, 3.38 0" stroke="none" stroke-width="0" fill="#ffffff"></path><path d="M3.38 0 C8.03 -0.36, 11.78 0.49, 19.61 0 M3.38 0 C7.6 -0.28, 12.31 0.43, 19.61 0 M19.61 0 C21.43 -0.36, 23.97 1.61, 22.99 3.38 M19.61 0 C21.05 -0.1, 23.44 1.32, 22.99 3.38 M22.99 3.38 C23.15 5.21, 22.8 7.79, 22.99 10.14 M22.99 3.38 C23.04 6.05, 22.85 8.87, 22.99 10.14 M22.99 10.14 C23.33 12.91, 21.92 12.57, 19.61 13.52 M22.99 10.14 C23.58 12.94, 21.49 12.73, 19.61 13.52 M19.61 13.52 C13.9 14.16, 8.77 14, 3.38 13.52 M19.61 13.52 C14.56 13.83, 9.57 13.91, 3.38 13.52 M3.38 13.52 C1.95 13.4, 0.26 12.95, 0 10.14 M3.38 13.52 C2.26 12.55, -0.65 11.95, 0 10.14 M0 10.14 C-0.1 7.18, -0.17 4.88, 0 3.38 M0 10.14 C0.07 8.85, -0.13 7.08, 0 3.38 M0 3.38 C-0.19 1.95, 1.51 0.55, 3.38 0 M0 3.38 C0.41 0.74, 1.02 -0.37, 3.38 0" stroke="#1e1e1e" stroke-width="4" fill="none"></path></g><g stroke-linecap="round" transform="translate(729.0741920778848 666.0670033948984) rotate(0 11.492952507263086 6.760560298390033)"><path d="M3.38 0 C8.85 1.81, 12.32 -0.98, 19.61 0 C20.36 -2.5, 22.5 -1.26, 22.99 3.38 C22.82 4.41, 22.65 7.69, 22.99 10.14 C22.91 10.56, 21.23 14.71, 19.61 13.52 C17.16 12.52, 10.42 13.18, 3.38 13.52 C-0.35 14.58, -1.14 13.2, 0 10.14 C0.28 8.56, 0.6 6.3, 0 3.38 C1.99 2.83, -0.71 0.68, 3.38 0" stroke="none" stroke-width="0" fill="#ffffff"></path><path d="M3.38 0 C8.57 -0.35, 13.46 0.56, 19.61 0 M3.38 0 C7.19 0.24, 11.81 -0.32, 19.61 0 M19.61 0 C21.34 -0.96, 23.39 1.17, 22.99 3.38 M19.61 0 C21.62 -0.09, 21.93 0.54, 22.99 3.38 M22.99 3.38 C23.27 5.32, 22.81 6.66, 22.99 10.14 M22.99 3.38 C22.88 5.85, 22.95 8.48, 22.99 10.14 M22.99 10.14 C23.23 11.54, 20.89 13.87, 19.61 13.52 M22.99 10.14 C22.8 11.46, 20.95 14.36, 19.61 13.52 M19.61 13.52 C12.53 14.07, 6.45 13.77, 3.38 13.52 M19.61 13.52 C16.07 13.53, 13.04 13.36, 3.38 13.52 M3.38 13.52 C0.31 14.36, -0.12 11.89, 0 10.14 M3.38 13.52 C1.66 13.53, -0.24 11.29, 0 10.14 M0 10.14 C0.14 7.88, 0.22 5.42, 0 3.38 M0 10.14 C-0.16 7.98, 0.09 5.54, 0 3.38 M0 3.38 C0.08 0.94, 0.17 0.11, 3.38 0 M0 3.38 C-0.19 0.83, 0.83 -0.83, 3.38 0" stroke="#1e1e1e" stroke-width="4" fill="none"></path></g><g stroke-linecap="round" transform="translate(413.5026309855503 656.5536681262647) rotate(360.7038939184265 12.970671635654838 13.19051352778456)"><path d="M15.45 -0.26 C17.96 0.17, 20.83 2.92, 22.5 5.16 C24.18 7.41, 25.48 10.49, 25.5 13.23 C25.52 15.97, 24.32 19.44, 22.62 21.61 C20.92 23.78, 18.06 25.69, 15.33 26.23 C12.59 26.76, 8.71 26.17, 6.23 24.82 C3.74 23.48, 1.27 20.89, 0.41 18.16 C-0.46 15.43, 0.08 11.13, 1.02 8.45 C1.97 5.76, 3.72 3.41, 6.09 2.04 C8.46 0.68, 13.68 0.49, 15.25 0.26 C16.81 0.04, 15.43 0.54, 15.48 0.69 M10.55 -0.08 C13.04 -0.79, 15.71 0.3, 18.14 1.58 C20.56 2.86, 23.89 4.93, 25.1 7.61 C26.32 10.3, 26.3 14.86, 25.44 17.7 C24.57 20.54, 22.15 23.24, 19.92 24.66 C17.68 26.07, 14.77 26.63, 12.03 26.18 C9.28 25.72, 5.45 24.07, 3.43 21.91 C1.41 19.75, -0.05 15.99, -0.08 13.21 C-0.11 10.44, 1.7 7.46, 3.27 5.26 C4.84 3.06, 8.22 0.72, 9.35 0.01 C10.47 -0.7, 9.77 0.71, 10.01 1.01" stroke="#1e1e1e" stroke-width="4" fill="none"></path></g><g transform="translate(483.64077433903935 60.85043003073952) rotate(0 113.29166412353516 14.327742041425665)"><text x="113.29166412353516" y="0" font-family="Virgil, Segoe UI Emoji" font-size="22.924387266281038px" fill="#1e1e1e" text-anchor="middle" style="white-space: pre;" direction="ltr" dominant-baseline="text-before-edge">WorkerHealthChecker</text></g><g stroke-linecap="round" transform="translate(468.63151898736294 10) rotate(0 181.46982758620686 64.89056720098642)"><path d="M32 0 C97.47 0.34, 160.81 1.39, 330.94 0 M32 0 C111.12 0.7, 189.9 1.8, 330.94 0 M330.94 0 C354.25 0.63, 361.77 12.24, 362.94 32 M330.94 0 C351.84 -1.57, 362.63 8.98, 362.94 32 M362.94 32 C361.85 51.4, 362.95 72.6, 362.94 97.78 M362.94 32 C362.71 55.91, 363.01 80.31, 362.94 97.78 M362.94 97.78 C362.97 118.53, 351.96 130.16, 330.94 129.78 M362.94 97.78 C361.2 119, 352.75 130.97, 330.94 129.78 M330.94 129.78 C244.9 131.23, 161.08 131.26, 32 129.78 M330.94 129.78 C219.44 129.8, 108.17 130.91, 32 129.78 M32 129.78 C10.29 128.26, -0.04 119.79, 0 97.78 M32 129.78 C11.93 130.25, 1.36 119.65, 0 97.78 M0 97.78 C-1.33 81.29, -1.16 62.82, 0 32 M0 97.78 C-0.03 80.73, -0.52 62.81, 0 32 M0 32 C1.98 9.58, 10.44 0.33, 32 0 M0 32 C1.91 9.04, 10.1 1.88, 32 0" stroke="#1e1e1e" stroke-width="4" fill="none"></path></g><g stroke-linecap="round" transform="translate(744.5699139538701 36.08279172307493) rotate(0 32.05859713392689 34.1677153664221)"><path d="M16.03 0 C26.3 1.7, 34.26 1.44, 48.09 0 M16.03 0 C23.3 0.91, 32.36 0.59, 48.09 0 M48.09 0 C57.6 1.57, 63.74 3.98, 64.12 16.03 M48.09 0 C58.46 -1.69, 64.21 6.69, 64.12 16.03 M64.12 16.03 C63.48 29.74, 65.31 42.87, 64.12 52.31 M64.12 16.03 C63.83 29.65, 63.97 44.47, 64.12 52.31 M64.12 52.31 C63.8 63.37, 57.27 68.24, 48.09 68.34 M64.12 52.31 C64.6 64.18, 58.41 66.34, 48.09 68.34 M48.09 68.34 C37.22 69.23, 27.65 69.22, 16.03 68.34 M48.09 68.34 C37.24 69.1, 27.39 67.39, 16.03 68.34 M16.03 68.34 C5.3 69.01, 1.1 63.4, 0 52.31 M16.03 68.34 C6.7 68.87, -0.83 62.29, 0 52.31 M0 52.31 C-1.09 38.52, -0.29 26.79, 0 16.03 M0 52.31 C-0.18 42.33, 0.82 30.27, 0 16.03 M0 16.03 C-0.23 5.67, 7 -1.42, 16.03 0 M0 16.03 C-0.57 7.22, 3.98 -0.54, 16.03 0" stroke="#1e1e1e" stroke-width="4" fill="none"></path></g><g stroke-linecap="round" transform="translate(731.0715572659008 47.0502065320502) rotate(0 14.34200398096732 8.436472929980766)"><path d="M4.22 0 C8.31 1.22, 9.89 -2.18, 24.47 0 C27.69 1.58, 31.78 4.2, 28.68 4.22 C28.59 6.54, 28.26 10.18, 28.68 12.65 C28.15 18.04, 25.12 20.22, 24.47 16.87 C19.03 19.39, 12.73 19.22, 4.22 16.87 C-0.02 18.71, -0.01 14.88, 0 12.65 C1.31 9.66, -1.25 6.81, 0 4.22 C-2.64 3.05, 4.98 3.06, 4.22 0" stroke="none" stroke-width="0" fill="#ffffff"></path><path d="M4.22 0 C9.92 1.32, 15.82 -0.12, 24.47 0 M4.22 0 C9.55 0.18, 12.31 0.66, 24.47 0 M24.47 0 C26.9 -1.37, 28.41 -0.06, 28.68 4.22 M24.47 0 C27.37 1.35, 30.09 -0.29, 28.68 4.22 M28.68 4.22 C29.28 6.76, 29.48 8.41, 28.68 12.65 M28.68 4.22 C28.68 6.1, 28.61 8.31, 28.68 12.65 M28.68 12.65 C27.18 15.37, 27.69 17.9, 24.47 16.87 M28.68 12.65 C28.32 13.47, 28.23 15.18, 24.47 16.87 M24.47 16.87 C19.08 17.71, 11.22 16.06, 4.22 16.87 M24.47 16.87 C19.34 16.3, 14.58 17.4, 4.22 16.87 M4.22 16.87 C2.5 17.28, 1.18 15.93, 0 12.65 M4.22 16.87 C0.57 16.17, 1.68 13.7, 0 12.65 M0 12.65 C-0.18 10.41, 0.03 7.27, 0 4.22 M0 12.65 C0.42 9.2, -0.05 6.27, 0 4.22 M0 4.22 C1.66 -0.01, 0.91 1.63, 4.22 0 M0 4.22 C-1.37 0.86, -0.04 1.55, 4.22 0" stroke="#1e1e1e" stroke-width="4" fill="none"></path></g><g stroke-linecap="round" transform="translate(731.1743472923456 72.51381036165981) rotate(0 14.34200398096732 8.436472929980766)"><path d="M4.22 0 C7.4 -2.3, 16.79 1.46, 24.47 0 C30.37 2.79, 31.98 4.16, 28.68 4.22 C28.13 6.58, 28.44 11.32, 28.68 12.65 C26.53 18.82, 28.83 15.17, 24.47 16.87 C21.9 19.74, 13.61 18.99, 4.22 16.87 C1.4 16.29, 2.94 18.35, 0 12.65 C-1.27 10.66, -1.26 8.18, 0 4.22 C3.57 4.47, 1.53 1.33, 4.22 0" stroke="none" stroke-width="0" fill="#ffffff"></path><path d="M4.22 0 C10.85 -0.09, 18.2 -0.95, 24.47 0 M4.22 0 C10.99 0.72, 18.75 -0.75, 24.47 0 M24.47 0 C27.01 -1.47, 28.76 2.58, 28.68 4.22 M24.47 0 C28.69 -1.69, 28 0.98, 28.68 4.22 M28.68 4.22 C29.56 6.64, 28.22 9.68, 28.68 12.65 M28.68 4.22 C28.62 6.2, 28.37 8, 28.68 12.65 M28.68 12.65 C29.1 16.5, 26.96 15.14, 24.47 16.87 M28.68 12.65 C29.63 13.77, 28.13 16.95, 24.47 16.87 M24.47 16.87 C18.01 16.06, 9.62 15.77, 4.22 16.87 M24.47 16.87 C16.47 17.06, 9.06 16.92, 4.22 16.87 M4.22 16.87 C2.59 17.34, -0.72 14.85, 0 12.65 M4.22 16.87 C3.09 15.11, 1 13.9, 0 12.65 M0 12.65 C-0.01 10.64, 0.72 7.79, 0 4.22 M0 12.65 C-0.13 9.54, 0.27 5.99, 0 4.22 M0 4.22 C-0.49 3.04, 0.22 -0.47, 4.22 0 M0 4.22 C-1.44 2.96, -0.63 -2.13, 4.22 0" stroke="#1e1e1e" stroke-width="4" fill="none"></path></g><g stroke-linecap="round"><g transform="translate(842.267461426101 984.7306824792881) rotate(0 26.983360928564565 -142.1124753037834)"><path d="M-0.59 0.14 C8.45 -47.41, 45.27 -237.37, 54.47 -284.6 M1.3 -0.83 C10.21 -48.27, 44.98 -235.89, 53.79 -283.26" stroke="#1e1e1e" stroke-width="4" fill="none"></path></g><g transform="translate(842.267461426101 984.7306824792881) rotate(0 26.983360928564565 -142.1124753037834)"><path d="M57.91 -258.6 C56.69 -265.6, 54.53 -273.18, 53.79 -283.26 M57.91 -258.6 C56.16 -268.28, 55.48 -276.82, 53.79 -283.26" stroke="#1e1e1e" stroke-width="4" fill="none"></path></g><g transform="translate(842.267461426101 984.7306824792881) rotate(0 26.983360928564565 -142.1124753037834)"><path d="M41.1 -261.72 C45.23 -267.65, 48.4 -274.24, 53.79 -283.26 M41.1 -261.72 C45.81 -270.15, 51.59 -277.49, 53.79 -283.26" stroke="#1e1e1e" stroke-width="4" fill="none"></path></g></g><mask></mask><g stroke-linecap="round" transform="translate(783.7580885232992 1015.7938224776638) rotate(0 36.350067077929566 38.74151885937226)"><path d="M18.18 0 C27.11 -1.06, 38.92 -1.47, 54.53 0 M18.18 0 C31.81 0.39, 47.13 -0.8, 54.53 0 M54.53 0 C66.74 0.31, 71.44 6.59, 72.7 18.18 M54.53 0 C67.18 1.43, 72.6 7.46, 72.7 18.18 M72.7 18.18 C72.37 35, 73.3 46.89, 72.7 59.31 M72.7 18.18 C72.9 29.71, 71.89 41.05, 72.7 59.31 M72.7 59.31 C73.43 69.64, 64.89 77.48, 54.53 77.48 M72.7 59.31 C74.84 70.1, 64.9 77.54, 54.53 77.48 M54.53 77.48 C43.32 76.02, 34.23 78.81, 18.18 77.48 M54.53 77.48 C43.23 77, 31.9 77.63, 18.18 77.48 M18.18 77.48 C4.73 75.92, 0.44 71.38, 0 59.31 M18.18 77.48 C8.35 77.55, 0.97 72.81, 0 59.31 M0 59.31 C1.36 48.32, 0.15 32.86, 0 18.18 M0 59.31 C-0.99 49.66, -0.72 42.24, 0 18.18 M0 18.18 C1.95 4.97, 6.05 -1.74, 18.18 0 M0 18.18 C1.87 3.95, 5.22 -1.17, 18.18 0" stroke="#1e1e1e" stroke-width="4" fill="none"></path></g><g stroke-linecap="round" transform="translate(768.4527971220655 1028.2293717411662) rotate(0 16.261872113810625 9.565807125770903)"><path d="M4.78 0 C12.09 3.06, 19.22 1.04, 27.74 0 C32.14 -1.34, 31.78 4.75, 32.52 4.78 C32 5.74, 31.79 8.66, 32.52 14.35 C31.82 21.09, 30.08 22.35, 27.74 19.13 C19.45 22.62, 12.71 18.26, 4.78 19.13 C2.37 16.15, -0.48 18.44, 0 14.35 C-0.51 10.72, -0.86 6.36, 0 4.78 C-1.45 -1.84, 0.14 -1.78, 4.78 0" stroke="none" stroke-width="0" fill="#ffffff"></path><path d="M4.78 0 C10.93 -1.6, 16.84 -0.53, 27.74 0 M4.78 0 C11.78 -0.92, 18.13 0.07, 27.74 0 M27.74 0 C29.67 0.53, 32.99 2.84, 32.52 4.78 M27.74 0 C30.83 1.4, 34.03 -0.7, 32.52 4.78 M32.52 4.78 C33.01 6.67, 32.39 10.16, 32.52 14.35 M32.52 4.78 C32.08 6.68, 32.71 8.71, 32.52 14.35 M32.52 14.35 C30.77 17.53, 32.79 17.98, 27.74 19.13 M32.52 14.35 C30.78 17.6, 30.44 18.81, 27.74 19.13 M27.74 19.13 C20.89 20.3, 14.57 16.99, 4.78 19.13 M27.74 19.13 C19.88 18.8, 9.52 18.17, 4.78 19.13 M4.78 19.13 C2.03 19.09, 1.99 17.59, 0 14.35 M4.78 19.13 C2.57 20.52, -0.02 16.1, 0 14.35 M0 14.35 C-0.1 10.28, -0.91 8.08, 0 4.78 M0 14.35 C-0.23 11.24, 0.55 7.63, 0 4.78 M0 4.78 C-0.01 -0.15, 3.22 -1.83, 4.78 0 M0 4.78 C-0.83 0.43, 3.63 2.29, 4.78 0" stroke="#1e1e1e" stroke-width="4" fill="none"></path></g><g stroke-linecap="round" transform="translate(768.569346961742 1057.1016178779935) rotate(0 16.261872113810625 9.565807125770903)"><path d="M4.78 0 C11.45 0.97, 23.32 -1.73, 27.74 0 C30.19 3.16, 29.73 -0.72, 32.52 4.78 C31.85 6.46, 32.15 10.6, 32.52 14.35 C31.67 20.76, 31.25 15.7, 27.74 19.13 C20.36 18.73, 15.46 16.56, 4.78 19.13 C1.11 20.03, 2.23 19.73, 0 14.35 C-0.71 10.86, -0.65 7.87, 0 4.78 C-1.45 -0.19, 4.63 -0.05, 4.78 0" stroke="none" stroke-width="0" fill="#ffffff"></path><path d="M4.78 0 C11.99 -0.49, 15.25 -1.12, 27.74 0 M4.78 0 C12.54 0.35, 19.56 0.46, 27.74 0 M27.74 0 C31.4 1.24, 32.44 2.81, 32.52 4.78 M27.74 0 C32.44 -2.29, 31.74 1.68, 32.52 4.78 M32.52 4.78 C32.43 8.8, 31.88 12.3, 32.52 14.35 M32.52 4.78 C32.61 7.04, 32.01 10.15, 32.52 14.35 M32.52 14.35 C34.38 16.38, 29.41 19.18, 27.74 19.13 M32.52 14.35 C32.04 17.21, 30.86 17.9, 27.74 19.13 M27.74 19.13 C23 17.31, 18.94 20.23, 4.78 19.13 M27.74 19.13 C21.99 18.31, 17.8 19.08, 4.78 19.13 M4.78 19.13 C3.59 19.19, 0.85 18.74, 0 14.35 M4.78 19.13 C1.58 17.7, 0.79 18.8, 0 14.35 M0 14.35 C-0.85 10.97, 0.36 6.45, 0 4.78 M0 14.35 C0.53 12.17, 0.06 10.09, 0 4.78 M0 4.78 C1.63 -0.24, 0.87 -1.01, 4.78 0 M0 4.78 C2.03 3.89, 2.93 -0.47, 4.78 0" stroke="#1e1e1e" stroke-width="4" fill="none"></path></g><g stroke-linecap="round"><g transform="translate(440.9650897995349 669.8080938934233) rotate(360.7038939184265 36.93343787779679 0.879367568519001)"><path d="M0.84 0.7 C12.89 1.25, 61.02 2.27, 73 2.28 M-0.18 0.02 C12.19 0.29, 62.72 0.17, 75.26 0.43" stroke="#1e1e1e" stroke-width="4" fill="none"></path></g></g><mask></mask><g stroke-linecap="round"><g transform="translate(495.0007698886004 1582.9061166981537) rotate(180.3945654766811 -0.9440818213400348 56.19468227472089)"><path d="M1 -0.33 C0.77 18.7, -1.13 94.09, -1.57 113.03 M0.06 -1.55 C-0.27 17.24, -1.95 92.41, -2.35 111.24" stroke="#1e1e1e" stroke-width="4" fill="none"></path></g><g transform="translate(495.0007698886004 1582.9061166981537) rotate(180.3945654766811 -0.9440818213400348 56.19468227472089)"><path d="M-10.39 87.57 C-8.91 94.68, -5.04 101.18, -2.35 111.24 M-10.39 87.57 C-7.18 96.93, -3.48 105.78, -2.35 111.24" stroke="#1e1e1e" stroke-width="4" fill="none"></path></g><g transform="translate(495.0007698886004 1582.9061166981537) rotate(180.3945654766811 -0.9440818213400348 56.19468227472089)"><path d="M6.71 87.94 C3.38 95.09, 2.45 101.48, -2.35 111.24 M6.71 87.94 C3.48 97.16, 0.74 105.87, -2.35 111.24" stroke="#1e1e1e" stroke-width="4" fill="none"></path></g></g><mask></mask><g stroke-linecap="round"><g transform="translate(488.0384167057085 1299.4489827740601) rotate(180.3945654766811 -64.73498727799297 42.457961621926074)"><path d="M-0.47 -0.68 C-22.24 13.36, -108.36 70.49, -130.01 84.9 M1.48 1.57 C-20.55 15.77, -109.68 72.71, -131.25 86.43" stroke="#1e1e1e" stroke-width="4" fill="none"></path></g><g transform="translate(488.0384167057085 1299.4489827740601) rotate(180.3945654766811 -64.73498727799297 42.457961621926074)"><path d="M-116.04 66.59 C-122.41 72.58, -126.64 78.95, -131.25 86.43 M-116.04 66.59 C-121.42 74.51, -128.08 81.07, -131.25 86.43" stroke="#1e1e1e" stroke-width="4" fill="none"></path></g><g transform="translate(488.0384167057085 1299.4489827740601) rotate(180.3945654766811 -64.73498727799297 42.457961621926074)"><path d="M-106.84 81.01 C-116.52 81.91, -123.97 83.21, -131.25 86.43 M-106.84 81.01 C-115.65 83.61, -125.71 84.83, -131.25 86.43" stroke="#1e1e1e" stroke-width="4" fill="none"></path></g></g><mask></mask><g stroke-linecap="round"><g transform="translate(479.040231034325 1556.6216661805406) rotate(180.3945654766811 -64.66367750197495 -27.57675265191449)"><path d="M-0.54 -0.02 C-22.17 -8.96, -108.79 -45.16, -130.23 -54.31 M1.37 -1.07 C-19.84 -10.28, -106.12 -47.25, -127.99 -55.99" stroke="#1e1e1e" stroke-width="4" fill="none"></path></g><g transform="translate(479.040231034325 1556.6216661805406) rotate(180.3945654766811 -64.66367750197495 -27.57675265191449)"><path d="M-103.01 -54.86 C-109.55 -56.77, -114.63 -55.29, -127.99 -55.99 M-103.01 -54.86 C-111.79 -55.32, -118.42 -56.33, -127.99 -55.99" stroke="#1e1e1e" stroke-width="4" fill="none"></path></g><g transform="translate(479.040231034325 1556.6216661805406) rotate(180.3945654766811 -64.66367750197495 -27.57675265191449)"><path d="M-109.59 -39.07 C-114.32 -45.07, -117.68 -47.7, -127.99 -55.99 M-109.59 -39.07 C-116.3 -44.61, -120.83 -50.66, -127.99 -55.99" stroke="#1e1e1e" stroke-width="4" fill="none"></path></g></g><mask></mask><g stroke-linecap="round" transform="translate(443.66978717877157 1374.4389315050132) rotate(359.43911670555616 154.41719356836194 55.21699893319976)"><path d="M27.61 0 C117.68 -0.43, 210.89 0.02, 281.23 0 M27.61 0 C91.56 -0.39, 155.45 -1.13, 281.23 0 M281.23 0 C297.7 0.18, 307.04 9.87, 308.83 27.61 M281.23 0 C297.77 -0.93, 307.72 6.95, 308.83 27.61 M308.83 27.61 C309.51 40.09, 306.97 54.83, 308.83 82.83 M308.83 27.61 C308.62 41.02, 309.94 55.52, 308.83 82.83 M308.83 82.83 C310.21 102.93, 298.06 110.68, 281.23 110.43 M308.83 82.83 C310.55 102.73, 301.22 111.02, 281.23 110.43 M281.23 110.43 C214.93 112.88, 146.53 110.15, 27.61 110.43 M281.23 110.43 C220.23 108.32, 158.9 107.96, 27.61 110.43 M27.61 110.43 C8.48 109.97, -0.27 99.33, 0 82.83 M27.61 110.43 C8.88 110.45, -1.04 99.59, 0 82.83 M0 82.83 C0.99 69.91, -0.09 58.53, 0 27.61 M0 82.83 C0.61 63.4, 0.8 41.8, 0 27.61 M0 27.61 C1.32 8.04, 9.65 -1.43, 27.61 0 M0 27.61 C-0.34 9.55, 10.02 1.49, 27.61 0" stroke="#1e1e1e" stroke-width="4" fill="none"></path></g><g stroke-linecap="round" transform="translate(678.4288268610819 1395.5796724542897) rotate(359.43911670555616 27.27945832652563 29.07415953221812)"><path d="M13.64 0 C24.89 1.64, 32.87 1.07, 40.92 0 M13.64 0 C23.88 -0.46, 31.42 -0.08, 40.92 0 M40.92 0 C48.21 0.67, 52.94 3.74, 54.56 13.64 M40.92 0 C48.9 -2.25, 53.36 4.87, 54.56 13.64 M54.56 13.64 C52.7 21.99, 53.62 31.46, 54.56 44.51 M54.56 13.64 C55.31 25.98, 55.11 38.21, 54.56 44.51 M54.56 44.51 C52.98 53.84, 51.51 59.45, 40.92 58.15 M54.56 44.51 C56.14 54.19, 49.22 57.25, 40.92 58.15 M40.92 58.15 C31.22 56.55, 20.24 58.23, 13.64 58.15 M40.92 58.15 C35.82 57.57, 29.58 57.89, 13.64 58.15 M13.64 58.15 C4.28 56.24, -0.28 53.61, 0 44.51 M13.64 58.15 C3.5 56.51, -2.06 53.3, 0 44.51 M0 44.51 C-0.3 37.12, 1.16 30.89, 0 13.64 M0 44.51 C0.44 37.59, 0.55 31.45, 0 13.64 M0 13.64 C0.44 3.11, 4.25 0.3, 13.64 0 M0 13.64 C0.82 6.04, 6.42 0.48, 13.64 0" stroke="#1e1e1e" stroke-width="4" fill="none"></path></g><g stroke-linecap="round" transform="translate(666.8210322119038 1405.1727347125768) rotate(359.43911670555616 12.203968198708857 7.178804822769962)"><path d="M3.59 0 C8.24 1.85, 17.9 -0.8, 20.82 0 C20.91 0.3, 21.89 0.43, 24.41 3.59 C23.77 6.63, 23.7 9.35, 24.41 10.77 C22.65 12.39, 20.92 14.69, 20.82 14.36 C14.14 13.61, 7.25 12.97, 3.59 14.36 C1.67 14.21, -0.7 11.63, 0 10.77 C0.05 8.5, -0.78 4.95, 0 3.59 C0.61 1.67, 2.87 -1.11, 3.59 0" stroke="none" stroke-width="0" fill="#ffffff"></path><path d="M3.59 0 C9.41 0.46, 16.46 0.33, 20.82 0 M3.59 0 C9.43 0.06, 15.71 0.17, 20.82 0 M20.82 0 C22.4 -0.4, 23.92 0.22, 24.41 3.59 M20.82 0 C22.61 0.16, 24.13 1.54, 24.41 3.59 M24.41 3.59 C24.19 5.46, 24.68 6.88, 24.41 10.77 M24.41 3.59 C24.56 5.68, 24.3 7.48, 24.41 10.77 M24.41 10.77 C25.15 13.81, 23.9 14.61, 20.82 14.36 M24.41 10.77 C24.01 12.71, 23.87 15.12, 20.82 14.36 M20.82 14.36 C13.8 14.22, 6.94 14.63, 3.59 14.36 M20.82 14.36 C15.67 14.21, 10.78 13.9, 3.59 14.36 M3.59 14.36 C1.06 14.36, -0.45 12.45, 0 10.77 M3.59 14.36 C0.17 14.21, -1.08 13.69, 0 10.77 M0 10.77 C0.24 8.91, -0.35 7.51, 0 3.59 M0 10.77 C0.1 7.97, 0.02 5.26, 0 3.59 M0 3.59 C-0.15 1.35, 1.55 0.65, 3.59 0 M0 3.59 C0.94 1.43, 0.84 -0.62, 3.59 0" stroke="#1e1e1e" stroke-width="4" fill="none"></path></g><g stroke-linecap="round" transform="translate(667.1206011405109 1426.8384546583823) rotate(359.43911670555616 12.203968198708857 7.178804822769962)"><path d="M3.59 0 C11.23 -0.79, 15.17 0.05, 20.82 0 C20.69 -0.77, 25.78 -0.89, 24.41 3.59 C23.72 6.49, 23.72 7.71, 24.41 10.77 C22.12 13.49, 25.69 16.48, 20.82 14.36 C16.31 12.98, 12.12 14.17, 3.59 14.36 C0.5 12.83, 2.48 13.17, 0 10.77 C-0.79 8.71, 0.21 7.11, 0 3.59 C1.67 0.08, 1.9 1.34, 3.59 0" stroke="none" stroke-width="0" fill="#ffffff"></path><path d="M3.59 0 C10.7 0.35, 17.59 0.69, 20.82 0 M3.59 0 C7.88 0.14, 12.59 -0.18, 20.82 0 M20.82 0 C22.73 -0.98, 23.89 1.34, 24.41 3.59 M20.82 0 C22.93 0.34, 23.72 0.08, 24.41 3.59 M24.41 3.59 C24.69 5.53, 24.28 8.1, 24.41 10.77 M24.41 3.59 C24.29 6.11, 24.57 8.7, 24.41 10.77 M24.41 10.77 C25.1 13.42, 22.87 13.97, 20.82 14.36 M24.41 10.77 C25.07 13.92, 24.11 14.39, 20.82 14.36 M20.82 14.36 C16.36 14.7, 13.52 14.69, 3.59 14.36 M20.82 14.36 C16.54 13.93, 12.31 14.34, 3.59 14.36 M3.59 14.36 C0.74 13.65, -0.89 13.03, 0 10.77 M3.59 14.36 C0.11 14.89, -0.74 13.07, 0 10.77 M0 10.77 C-0.37 9.11, 0.24 7.4, 0 3.59 M0 10.77 C0.02 8.97, -0.05 7.46, 0 3.59 M0 3.59 C0.35 1.84, 2.01 0.21, 3.59 0 M0 3.59 C-0.35 0.58, 2.24 -0.39, 3.59 0" stroke="#1e1e1e" stroke-width="4" fill="none"></path></g><g stroke-linecap="round" transform="translate(483.59311376094377 1554.254156207347) rotate(270.33532342577473 10.832769740380755 11.016376007166855)"><path d="M9.7 0.4 C11.87 -0.02, 14.53 0.94, 16.42 2.16 C18.31 3.38, 20.25 5.48, 21.02 7.73 C21.79 9.98, 21.93 13.55, 21.04 15.64 C20.15 17.73, 17.82 19.2, 15.69 20.28 C13.55 21.35, 10.45 22.58, 8.23 22.11 C6.01 21.64, 3.73 19.42, 2.36 17.46 C0.98 15.49, -0.02 12.56, -0.02 10.31 C-0.03 8.07, 0.79 5.7, 2.32 4 C3.86 2.3, 7.95 0.72, 9.19 0.12 C10.43 -0.48, 9.75 0.3, 9.77 0.4 M11.3 -0.53 C13.38 -0.66, 15.99 0.59, 17.73 2.36 C19.47 4.12, 21.32 7.61, 21.76 10.07 C22.21 12.53, 21.63 15.21, 20.4 17.1 C19.16 19, 16.57 20.82, 14.35 21.45 C12.13 22.08, 9.25 21.76, 7.08 20.86 C4.91 19.95, 2.53 18.13, 1.33 16.01 C0.13 13.89, -0.5 10.29, -0.11 8.12 C0.27 5.94, 1.83 4.41, 3.66 2.96 C5.49 1.52, 9.51 -0.01, 10.87 -0.57 C12.23 -1.12, 11.83 -0.76, 11.82 -0.36" stroke="#1e1e1e" stroke-width="4" fill="none"></path></g><g stroke-linecap="round" transform="translate(10.401782559847561 1378.0791277604812) rotate(360.3723594981833 174.47844827586204 62.390567200986425)"><path d="M31.2 0 C130.22 -3.34, 230.25 -3.24, 317.76 0 M31.2 0 C126.36 0.13, 221.86 0.98, 317.76 0 M317.76 0 C338.07 0.6, 347.76 8.45, 348.96 31.2 M317.76 0 C338.38 -1.19, 349.88 12.34, 348.96 31.2 M348.96 31.2 C349.72 48.56, 350.47 61.61, 348.96 93.59 M348.96 31.2 C350.11 50.93, 349.08 69.76, 348.96 93.59 M348.96 93.59 C350.11 115.71, 340.12 124.84, 317.76 124.78 M348.96 93.59 C346.87 113.04, 338.41 122.51, 317.76 124.78 M317.76 124.78 C219.35 125.07, 122.24 125.42, 31.2 124.78 M317.76 124.78 C258.74 124.25, 199.73 124.69, 31.2 124.78 M31.2 124.78 C8.51 125.7, -1.29 114.22, 0 93.59 M31.2 124.78 C9.2 126.28, -1.06 112.13, 0 93.59 M0 93.59 C-1.82 74, -1.63 52.21, 0 31.2 M0 93.59 C0.45 79.99, 0.91 65.3, 0 31.2 M0 31.2 C-0.61 9.32, 12.21 -0.68, 31.2 0 M0 31.2 C2.15 8.26, 12.51 0.88, 31.2 0" stroke="#1e1e1e" stroke-width="4" fill="none"></path></g><g stroke-linecap="round" transform="translate(275.7356886005533 1403.9477395670115) rotate(360.3723594981833 30.823494771721016 32.85135626986062)"><path d="M15.41 0 C27.51 -1.5, 39.92 -1.32, 46.24 0 M15.41 0 C22.89 0.44, 31.17 0.6, 46.24 0 M46.24 0 C55.31 -1.95, 61.49 4.11, 61.65 15.41 M46.24 0 C57.43 1.94, 60.64 4.44, 61.65 15.41 M61.65 15.41 C63.51 27.39, 62.06 44.02, 61.65 50.29 M61.65 15.41 C61.54 27.76, 62.46 41.55, 61.65 50.29 M61.65 50.29 C63.21 60.63, 54.7 64.54, 46.24 65.7 M61.65 50.29 C61.49 58.29, 57.44 65.46, 46.24 65.7 M46.24 65.7 C35.33 65.33, 23.44 65.31, 15.41 65.7 M46.24 65.7 C36.08 65.35, 26.76 65.94, 15.41 65.7 M15.41 65.7 C3.84 65.54, -1.04 61.87, 0 50.29 M15.41 65.7 C4.08 63.45, 0.81 62.28, 0 50.29 M0 50.29 C-0.92 38.36, -1.2 25.24, 0 15.41 M0 50.29 C0.69 39.51, -0.43 27.78, 0 15.41 M0 15.41 C1.81 4.46, 7.01 -1.86, 15.41 0 M0 15.41 C2.12 6.02, 4.54 -2.03, 15.41 0" stroke="#1e1e1e" stroke-width="4" fill="none"></path></g><g stroke-linecap="round" transform="translate(262.850260229927 1414.2978732578788) rotate(360.3723594981833 13.789458187348913 8.111445992558174)"><path d="M4.06 0 C9.55 -1.84, 16.51 -2.08, 23.52 0 C28.92 -2.44, 26.5 -1.82, 27.58 4.06 C27.2 6.67, 27.28 9.16, 27.58 12.17 C25.48 15.53, 26.03 15.25, 23.52 16.22 C17.66 16.43, 16.26 13.28, 4.06 16.22 C0.79 17.07, 0.66 17.18, 0 12.17 C0.89 10.76, 1.36 6.88, 0 4.06 C-2.6 -0.74, 3.27 -0.81, 4.06 0" stroke="none" stroke-width="0" fill="#ffffff"></path><path d="M4.06 0 C8.67 -1.4, 11.19 -0.77, 23.52 0 M4.06 0 C7.75 0.26, 11.34 -0.97, 23.52 0 M23.52 0 C26.07 -1.03, 28.38 3.04, 27.58 4.06 M23.52 0 C25.22 -0.7, 29.62 2.45, 27.58 4.06 M27.58 4.06 C27.75 7.65, 28.18 10.59, 27.58 12.17 M27.58 4.06 C27.79 6.97, 27.87 9.35, 27.58 12.17 M27.58 12.17 C25.76 13.71, 26.09 14.25, 23.52 16.22 M27.58 12.17 C28.51 14.63, 27.12 14.96, 23.52 16.22 M23.52 16.22 C16.54 15.93, 13.27 15.32, 4.06 16.22 M23.52 16.22 C18.15 16.65, 13.99 16.12, 4.06 16.22 M4.06 16.22 C0.31 17.53, -0.92 12.91, 0 12.17 M4.06 16.22 C2.16 17.94, 1.26 13.32, 0 12.17 M0 12.17 C-0.53 9.08, 0.17 6.52, 0 4.06 M0 12.17 C-0.19 8.99, 0.3 6.11, 0 4.06 M0 4.06 C1.87 -0.5, 3.19 0.76, 4.06 0 M0 4.06 C-0.6 -0.68, 1.62 -2.23, 4.06 0" stroke="#1e1e1e" stroke-width="4" fill="none"></path></g><g stroke-linecap="round" transform="translate(262.78997932055836 1438.7805813440189) rotate(360.3723594981833 13.789458187348913 8.111445992558174)"><path d="M4.06 0 C10.25 -2.15, 15.22 -2.16, 23.52 0 C25.15 -3.17, 28.04 4.78, 27.58 4.06 C27.09 7.18, 26.67 10.52, 27.58 12.17 C27.38 13.9, 24.11 19.66, 23.52 16.22 C19.8 13.3, 11.28 17.06, 4.06 16.22 C2.01 18.53, -1.54 15.85, 0 12.17 C1.31 8.2, -1.15 5.62, 0 4.06 C1.91 0.54, 0.12 -1.28, 4.06 0" stroke="none" stroke-width="0" fill="#ffffff"></path><path d="M4.06 0 C7.36 -0.79, 10.33 -0.86, 23.52 0 M4.06 0 C9.59 -1.01, 16.22 -0.56, 23.52 0 M23.52 0 C27.03 1.68, 26.71 0.75, 27.58 4.06 M23.52 0 C28.27 1.1, 29.16 3.31, 27.58 4.06 M27.58 4.06 C28.12 6.41, 27.8 7.37, 27.58 12.17 M27.58 4.06 C27.94 6.19, 27.26 8.06, 27.58 12.17 M27.58 12.17 C27.45 12.9, 27.04 16.02, 23.52 16.22 M27.58 12.17 C28.47 13.61, 25.39 15.69, 23.52 16.22 M23.52 16.22 C17.95 15.31, 10.97 14.46, 4.06 16.22 M23.52 16.22 C17.31 16.24, 11.85 16.95, 4.06 16.22 M4.06 16.22 C0.43 14.26, 0.7 16.36, 0 12.17 M4.06 16.22 C2.61 14.67, 1.52 13.54, 0 12.17 M0 12.17 C0.18 9.84, 0.58 7.6, 0 4.06 M0 12.17 C0.39 9.43, 0.4 6.59, 0 4.06 M0 4.06 C1.84 2.12, 0.83 -1.77, 4.06 0 M0 4.06 C0.26 -0.88, 0.67 1.22, 4.06 0" stroke="#1e1e1e" stroke-width="4" fill="none"></path></g><g stroke-linecap="round"><g transform="translate(839.3970793619812 1448.3680089489822) rotate(180.3945654766811 -51.16458094893365 125.73291925734361)"><path d="M0.32 0.64 C-16.86 42.76, -85.1 210.58, -102.1 252.38 M-0.97 -0.07 C-18.38 41.75, -86.07 208.6, -102.93 250.74" stroke="#1e1e1e" stroke-width="4" fill="none"></path></g><g transform="translate(839.3970793619812 1448.3680089489822) rotate(180.3945654766811 -51.16458094893365 125.73291925734361)"><path d="M-102.07 225.76 C-101.41 235.71, -101.27 245.91, -102.93 250.74 M-102.07 225.76 C-101.58 233.64, -102.06 241.27, -102.93 250.74" stroke="#1e1e1e" stroke-width="4" fill="none"></path></g><g transform="translate(839.3970793619812 1448.3680089489822) rotate(180.3945654766811 -51.16458094893365 125.73291925734361)"><path d="M-86.21 232.16 C-91.61 239.7, -97.54 247.45, -102.93 250.74 M-86.21 232.16 C-90.49 238.19, -95.73 243.9, -102.93 250.74" stroke="#1e1e1e" stroke-width="4" fill="none"></path></g></g><mask></mask><g stroke-linecap="round" transform="translate(831.6453696890836 1416.19742557322) rotate(719.7513698429675 12.794218660065894 13.011069823795765)"><path d="M13.92 0.51 C16.5 0.7, 20.19 2.42, 22.2 4.27 C24.21 6.13, 25.8 8.87, 25.98 11.65 C26.15 14.44, 24.86 18.6, 23.24 20.98 C21.62 23.37, 18.92 25.37, 16.27 25.97 C13.63 26.56, 9.92 25.78, 7.37 24.56 C4.81 23.34, 2.03 21.09, 0.94 18.65 C-0.16 16.2, 0.03 12.68, 0.81 9.87 C1.59 7.06, 3.39 3.44, 5.61 1.8 C7.83 0.17, 12.69 0.27, 14.13 0.07 C15.57 -0.13, 14.23 0.36, 14.24 0.62 M10.95 -0.59 C13.54 -1.09, 17.22 0.49, 19.5 2 C21.78 3.52, 23.89 5.85, 24.63 8.49 C25.38 11.13, 25.07 15.09, 23.97 17.82 C22.88 20.55, 20.45 23.55, 18.06 24.86 C15.67 26.17, 12.24 26.23, 9.61 25.67 C6.99 25.11, 3.96 23.8, 2.3 21.48 C0.64 19.17, -0.55 14.56, -0.34 11.79 C-0.12 9.01, 1.61 6.87, 3.57 4.84 C5.54 2.81, 10.13 0.43, 11.46 -0.39 C12.8 -1.2, 11.59 -0.27, 11.58 -0.06" stroke="#1e1e1e" stroke-width="4" fill="none"></path></g><g stroke-linecap="round"><g transform="translate(829.6701931652325 1428.6905049416937) rotate(719.7513698429675 -36.4309955066283 0.8674046549197101)"><path d="M0.48 1.01 C-11.73 1.34, -61.34 1.16, -73.39 1.37 M-0.73 0.5 C-13.14 1.05, -62.73 2.76, -74.61 2.72" stroke="#1e1e1e" stroke-width="4" fill="none"></path></g></g><mask></mask><g transform="translate(811.5756503562077 1438.7595548396382) rotate(296.23478967974165 61.88541793823242 12.5)"><text x="0" y="0" font-family="Virgil, Segoe UI Emoji" font-size="20px" fill="#1e1e1e" text-anchor="start" style="white-space: pre;" direction="ltr" dominant-baseline="text-before-edge">Pop message</text></g><g stroke-linecap="round" transform="translate(890.5046110843091 668.0696333844835) rotate(539.3907625610565 13.319018164857553 13.544764235448383)"><path d="M11.93 0.51 C14.57 -0.12, 17.89 0.47, 20.22 1.97 C22.55 3.47, 25.03 6.74, 25.92 9.52 C26.81 12.29, 26.66 15.92, 25.54 18.65 C24.42 21.38, 21.68 24.58, 19.19 25.9 C16.71 27.22, 13.25 27.32, 10.6 26.58 C7.95 25.83, 5.11 23.75, 3.28 21.44 C1.45 19.13, -0.46 15.58, -0.38 12.71 C-0.3 9.83, 1.79 6.31, 3.76 4.2 C5.73 2.08, 10.04 0.64, 11.42 0.02 C12.8 -0.61, 11.94 0.13, 12.04 0.44 M12.49 -0.37 C15.15 -0.81, 18.29 0.17, 20.68 1.99 C23.07 3.81, 26 7.73, 26.84 10.56 C27.69 13.4, 27.2 16.38, 25.75 19 C24.31 21.62, 20.89 24.98, 18.16 26.27 C15.43 27.57, 11.92 27.57, 9.36 26.77 C6.79 25.97, 4.37 23.91, 2.77 21.48 C1.17 19.05, -0.38 15.09, -0.23 12.2 C-0.09 9.31, 1.61 6.26, 3.64 4.14 C5.66 2.01, 10.42 0.16, 11.93 -0.53 C13.44 -1.22, 12.68 -0.4, 12.69 -0.01" stroke="#1e1e1e" stroke-width="4" fill="none"></path></g><g stroke-linecap="round"><g transform="translate(812.6579520259643 679.8570193684418) rotate(539.3907625610565 37.9253398592554 0.9029842823632634)"><path d="M-0.67 -0.03 C12.04 0.55, 63.8 2.71, 76.7 2.96 M1.17 -1.09 C13.77 -0.77, 63.65 0.83, 76.2 1.44" stroke="#1e1e1e" stroke-width="4" fill="none"></path></g></g><mask></mask><g stroke-linecap="round" transform="translate(622.8913293656057 506.48954596604335) rotate(271.1854538197956 12.794239507770286 13.011091024851112)"><path d="M9.68 0.43 C12.27 -0.28, 16.22 0.65, 18.74 1.8 C21.26 2.95, 23.79 4.78, 24.8 7.32 C25.81 9.86, 25.62 14.28, 24.77 17.03 C23.93 19.77, 21.88 22.26, 19.74 23.8 C17.6 25.34, 14.56 26.62, 11.92 26.27 C9.29 25.92, 5.96 23.84, 3.93 21.71 C1.91 19.57, 0.01 16.17, -0.24 13.45 C-0.5 10.73, 0.62 7.64, 2.4 5.4 C4.17 3.17, 9.01 0.85, 10.4 0.05 C11.8 -0.75, 10.74 0.28, 10.77 0.61 M10.37 0.85 C12.93 0.07, 16.61 -0.42, 19.01 0.68 C21.41 1.78, 23.82 4.71, 24.76 7.47 C25.71 10.23, 25.59 14.56, 24.7 17.23 C23.8 19.89, 21.48 21.92, 19.37 23.48 C17.26 25.04, 14.8 26.78, 12.05 26.57 C9.29 26.36, 4.94 24.34, 2.87 22.21 C0.79 20.07, -0.3 16.47, -0.4 13.75 C-0.5 11.04, 0.46 8.25, 2.26 5.89 C4.06 3.54, 9.05 0.49, 10.4 -0.37 C11.75 -1.24, 10.32 0.51, 10.37 0.72" stroke="#1e1e1e" stroke-width="4" fill="none"></path></g><g stroke-linecap="round"><g transform="translate(672.5412696246286 569.7379373862082) rotate(271.1854538197956 -36.43105486958318 0.867406068323362)"><path d="M-1.17 -0.68 C-13.15 -0.58, -61.1 1.12, -73.03 1.66 M0.42 1.57 C-11.64 2.39, -61.75 3.32, -74.06 3.15" stroke="#1e1e1e" stroke-width="4" fill="none"></path></g></g><mask></mask><g stroke-linecap="round" transform="translate(659.1205783711821 800.0494739564083) rotate(450.83778381736636 12.794239507770286 13.011091024851112)"><path d="M13.2 0.35 C15.86 0.41, 19.47 1.87, 21.58 3.78 C23.69 5.69, 25.53 9.12, 25.84 11.81 C26.15 14.5, 25.05 17.63, 23.43 19.94 C21.81 22.24, 18.71 24.85, 16.13 25.67 C13.55 26.48, 10.4 26.01, 7.96 24.82 C5.52 23.64, 2.78 21.09, 1.51 18.56 C0.24 16.04, -0.33 12.41, 0.34 9.66 C1.02 6.91, 3.2 3.6, 5.54 2.04 C7.88 0.48, 12.91 0.56, 14.4 0.31 C15.9 0.06, 14.61 0.36, 14.49 0.54 M12.57 0.15 C15.25 0, 19.62 1.28, 21.86 3.04 C24.11 4.8, 25.83 8.05, 26.04 10.72 C26.26 13.39, 24.8 16.66, 23.15 19.07 C21.5 21.47, 18.69 24.12, 16.13 25.14 C13.56 26.15, 10.23 26.01, 7.74 25.14 C5.25 24.27, 2.56 22.29, 1.2 19.94 C-0.17 17.59, -1.06 14.02, -0.45 11.05 C0.16 8.08, 2.57 3.86, 4.85 2.11 C7.13 0.36, 11.9 0.78, 13.2 0.54 C14.51 0.29, 12.65 0.6, 12.69 0.62" stroke="#1e1e1e" stroke-width="4" fill="none"></path></g><g stroke-linecap="round"><g transform="translate(708.0205473757148 762.5080690017012) rotate(450.83778381736636 -36.43105486958318 0.867406068323362)"><path d="M0.31 -0.8 C-12.07 -0.66, -61.06 0.33, -73.13 0.74 M-0.99 1.4 C-13.64 1.66, -62.31 1.5, -74.22 1.75" stroke="#1e1e1e" stroke-width="4" fill="none"></path></g></g><mask></mask><g transform="translate(371.9549250175099 799.6596074385432) rotate(359.54506719085407 88.48958587646484 12.5)"><text x="0" y="0" font-family="Virgil, Segoe UI Emoji" font-size="20px" fill="#1e1e1e" text-anchor="start" style="white-space: pre;" direction="ltr" dominant-baseline="text-before-edge">Update submission</text></g><g stroke-linecap="round"><g transform="translate(578.3389813866336 978.3315762770922) rotate(0 -0.7142857142857224 -69.28571428571422)"><path d="M0.6 0.8 C0.53 -22.38, -0.66 -114.86, -1.17 -138.21 M-0.55 0.17 C-0.69 -23.46, -2.05 -117.05, -1.98 -140.14" stroke="#1e1e1e" stroke-width="4" fill="none"></path></g><g transform="translate(578.3389813866336 978.3315762770922) rotate(0 -0.7142857142857224 -69.28571428571422)"><path d="M6.74 -116.71 C5.81 -121.83, 3 -129.59, -1.98 -140.14 M6.74 -116.71 C5.24 -122.16, 1.82 -127.12, -1.98 -140.14" stroke="#1e1e1e" stroke-width="4" fill="none"></path></g><g transform="translate(578.3389813866336 978.3315762770922) rotate(0 -0.7142857142857224 -69.28571428571422)"><path d="M-10.37 -116.59 C-7.2 -121.83, -5.92 -129.61, -1.98 -140.14 M-10.37 -116.59 C-7.78 -122.06, -7.12 -127.05, -1.98 -140.14" stroke="#1e1e1e" stroke-width="4" fill="none"></path></g></g><mask></mask><g stroke-linecap="round" transform="translate(563.4062926568964 801.4780453849799) rotate(450.83778381736636 12.794239507770286 13.011091024851112)"><path d="M13.07 -0.2 C15.67 -0.41, 18.84 0.92, 20.85 2.73 C22.85 4.54, 24.57 7.9, 25.1 10.66 C25.63 13.41, 25.29 16.86, 24.01 19.27 C22.72 21.68, 19.92 24.1, 17.38 25.12 C14.84 26.14, 11.36 26.32, 8.76 25.39 C6.17 24.45, 3.3 21.9, 1.8 19.5 C0.3 17.11, -0.76 13.82, -0.23 11 C0.29 8.19, 2.68 4.41, 4.94 2.62 C7.19 0.83, 11.73 0.56, 13.29 0.25 C14.85 -0.05, 14.29 0.54, 14.3 0.8 M14.47 0.69 C17.3 0.9, 20.71 2.21, 22.63 4.16 C24.56 6.11, 26.01 9.67, 26.03 12.39 C26.05 15.11, 24.43 18.19, 22.74 20.48 C21.06 22.77, 18.41 25.45, 15.92 26.12 C13.43 26.8, 10.3 25.83, 7.81 24.55 C5.33 23.26, 2.3 20.96, 0.99 18.43 C-0.31 15.9, -0.72 12.06, -0.03 9.35 C0.67 6.65, 2.7 3.87, 5.16 2.2 C7.62 0.52, 13.15 -0.27, 14.72 -0.68 C16.29 -1.09, 14.82 -0.69, 14.59 -0.26" stroke="#1e1e1e" stroke-width="4" fill="none"></path></g><g stroke-linecap="round"><g transform="translate(612.3062616614291 763.9366404302727) rotate(450.83778381736636 -36.43105486958318 0.867406068323362)"><path d="M0.01 -0.45 C-12.33 -0.03, -60.69 2.03, -72.92 2.32 M-1.44 -1.74 C-14.05 -1.65, -61.74 -0.18, -73.89 0.5" stroke="#1e1e1e" stroke-width="4" fill="none"></path></g></g><mask></mask><g stroke-linecap="round"><g transform="translate(669.6776710251721 976.2157104059486) rotate(0 0.18281231893353578 -69.653336456121)"><path d="M0.92 -0.72 C0.84 -23.91, 0.38 -116.6, 0.11 -139.83 M-0.05 1.51 C-0.38 -21.45, -1.25 -115.12, -0.97 -138.57" stroke="#1e1e1e" stroke-width="4" fill="none"></path></g><g transform="translate(669.6776710251721 976.2157104059486) rotate(0 0.18281231893353578 -69.653336456121)"><path d="M7.59 -115.08 C3.5 -123.75, 0.79 -133.38, -0.97 -138.57 M7.59 -115.08 C4.81 -120.49, 4.72 -127.07, -0.97 -138.57" stroke="#1e1e1e" stroke-width="4" fill="none"></path></g><g transform="translate(669.6776710251721 976.2157104059486) rotate(0 0.18281231893353578 -69.653336456121)"><path d="M-9.51 -115.08 C-7.55 -123.88, -4.2 -133.52, -0.97 -138.57 M-9.51 -115.08 C-8.31 -120.41, -4.41 -126.98, -0.97 -138.57" stroke="#1e1e1e" stroke-width="4" fill="none"></path></g></g><mask></mask><g transform="translate(558.0352141040183 485.16192964762786) rotate(0 70.89583587646484 12.5)"><text x="0" y="0" font-family="Virgil, Segoe UI Emoji" font-size="20px" fill="#1e1e1e" text-anchor="start" style="white-space: pre;" direction="ltr" dominant-baseline="text-before-edge">Add submission</text></g><g transform="translate(934.7823717690806 667.8751088043598) rotate(359.78787160416164 77.38541412353516 12.5)"><text x="0" y="0" font-family="Virgil, Segoe UI Emoji" font-size="20px" fill="#1e1e1e" text-anchor="start" style="white-space: pre;" direction="ltr" dominant-baseline="text-before-edge">Get submissions</text></g><g stroke-linecap="round" transform="translate(1063.1242275103045 1074.1150566691365) rotate(0 145.42068965517245 52)"><path d="M26 0 C81.78 0.03, 139.49 1.01, 264.84 0 M26 0 C100.36 -0.63, 175.59 -0.49, 264.84 0 M264.84 0 C283.97 -1.93, 290.15 8.2, 290.84 26 M264.84 0 C283.24 1.37, 289.27 9.05, 290.84 26 M290.84 26 C292.45 39.32, 292.3 54.61, 290.84 78 M290.84 26 C291.99 45.16, 290.77 63.36, 290.84 78 M290.84 78 C290.93 93.36, 282.1 105.59, 264.84 104 M290.84 78 C292.18 94.88, 281.23 102.53, 264.84 104 M264.84 104 C200.59 102.73, 139.15 102.14, 26 104 M264.84 104 C202.76 102.53, 141.13 102.88, 26 104 M26 104 C7.21 104.02, -0.99 95.59, 0 78 M26 104 C7.77 106.01, 0.31 94.4, 0 78 M0 78 C0.22 68.35, -0.36 58.22, 0 26 M0 78 C-0.9 59.32, -1.24 42.48, 0 26 M0 26 C1.99 10.3, 6.83 0.89, 26 0 M0 26 C1.05 9.01, 10.24 -0.8, 26 0" stroke="#1e1e1e" stroke-width="4" fill="none"></path></g><g stroke-linecap="round" transform="translate(1284.2472220715274 1095.0164792965422) rotate(0 25.690129133882124 27.380269208479604)"><path d="M12.85 0 C21.02 0.36, 26.42 2, 38.54 0 M12.85 0 C21.88 0.31, 31.22 -1.02, 38.54 0 M38.54 0 C46.4 -0.47, 52.31 5.47, 51.38 12.85 M38.54 0 C45.52 0.39, 50.64 6.12, 51.38 12.85 M51.38 12.85 C52.6 24.99, 52.59 36.52, 51.38 41.92 M51.38 12.85 C51.34 24.03, 51.69 32.69, 51.38 41.92 M51.38 41.92 C51.3 52.07, 48.26 54.36, 38.54 54.76 M51.38 41.92 C50.43 49.01, 46.24 55.93, 38.54 54.76 M38.54 54.76 C31.34 53.14, 23.84 53.01, 12.85 54.76 M38.54 54.76 C33.53 55.68, 27.03 54.88, 12.85 54.76 M12.85 54.76 C3.29 55.02, -0.78 52.23, 0 41.92 M12.85 54.76 C4.59 53.83, -2.18 51.38, 0 41.92 M0 41.92 C-0.22 34.28, 0.81 24.92, 0 12.85 M0 41.92 C-0.72 34.06, 1.15 26.6, 0 12.85 M0 12.85 C-1.83 5.18, 5.2 0.3, 12.85 0 M0 12.85 C1.58 3.48, 4.79 -1.25, 12.85 0" stroke="#1e1e1e" stroke-width="4" fill="none"></path></g><g stroke-linecap="round" transform="translate(1273.4303255941031 1103.8052076844494) rotate(0 11.492952507263112 6.760560298390033)"><path d="M3.38 0 C8.55 1.5, 16.93 -1.33, 19.61 0 C19.41 -1.26, 24.85 -0.45, 22.99 3.38 C23.44 5.18, 22.42 7.95, 22.99 10.14 C25.01 14.36, 20.54 16.01, 19.61 13.52 C14.73 12.83, 13.05 13.8, 3.38 13.52 C3.45 16.05, 1.82 13.33, 0 10.14 C-0.04 7.05, -0.05 4.13, 0 3.38 C-0.73 3.49, 1.74 -2.44, 3.38 0" stroke="none" stroke-width="0" fill="#ffffff"></path><path d="M3.38 0 C7.59 0.75, 11.93 -0.3, 19.61 0 M3.38 0 C8.94 -0.42, 13.63 -0.12, 19.61 0 M19.61 0 C22.32 0.6, 22.3 1.3, 22.99 3.38 M19.61 0 C21.49 0.92, 24.04 1.81, 22.99 3.38 M22.99 3.38 C23.18 5.35, 23.2 7.33, 22.99 10.14 M22.99 3.38 C22.98 5.83, 22.97 8.74, 22.99 10.14 M22.99 10.14 C23.57 12.2, 21.45 12.88, 19.61 13.52 M22.99 10.14 C22.56 12.98, 21.52 12.48, 19.61 13.52 M19.61 13.52 C15.07 12.79, 10.46 13.4, 3.38 13.52 M19.61 13.52 C13.79 13.59, 8.36 13.64, 3.38 13.52 M3.38 13.52 C0.74 14.39, 0.13 11.99, 0 10.14 M3.38 13.52 C0.04 13.97, 0.19 12.64, 0 10.14 M0 10.14 C0.15 8, -0.07 5.21, 0 3.38 M0 10.14 C0.2 8.8, -0.13 7.27, 0 3.38 M0 3.38 C0.46 1.28, 1.81 -0.35, 3.38 0 M0 3.38 C0.25 0.5, 0.92 -0.06, 3.38 0" stroke="#1e1e1e" stroke-width="4" fill="none"></path></g><g stroke-linecap="round" transform="translate(1273.5126962930458 1124.2104446280334) rotate(0 11.492952507263112 6.760560298390033)"><path d="M3.38 0 C7.65 -1.63, 8.52 -1.16, 19.61 0 C23.72 -1.57, 22.69 -1.05, 22.99 3.38 C22.54 6.54, 23.72 9.02, 22.99 10.14 C21.67 14.88, 20.87 12.28, 19.61 13.52 C15.41 13.55, 9.22 15.49, 3.38 13.52 C2.95 14.45, 2.3 14.55, 0 10.14 C0.02 6.98, -0.25 6.13, 0 3.38 C0.61 -1.32, -0.55 2.35, 3.38 0" stroke="none" stroke-width="0" fill="#ffffff"></path><path d="M3.38 0 C8.77 -0.37, 13.67 0.17, 19.61 0 M3.38 0 C8.7 -0.02, 14.49 0.32, 19.61 0 M19.61 0 C21.17 0.17, 22.66 1.93, 22.99 3.38 M19.61 0 C22.91 0.68, 22.63 1.73, 22.99 3.38 M22.99 3.38 C23.2 5.97, 23.3 7.84, 22.99 10.14 M22.99 3.38 C22.98 6.06, 23.09 8.44, 22.99 10.14 M22.99 10.14 C22.57 11.75, 21.49 14.03, 19.61 13.52 M22.99 10.14 C22.65 11.36, 21.39 13.38, 19.61 13.52 M19.61 13.52 C15.24 13.39, 12.66 13.77, 3.38 13.52 M19.61 13.52 C13.21 13.58, 7.07 13.88, 3.38 13.52 M3.38 13.52 C1.26 13.11, -0.95 12.79, 0 10.14 M3.38 13.52 C1.32 13.76, 0.59 12.31, 0 10.14 M0 10.14 C-0.09 7.4, -0.29 4.73, 0 3.38 M0 10.14 C-0.19 8.05, 0.04 5.82, 0 3.38 M0 3.38 C0.69 0.78, 1.35 -0.54, 3.38 0 M0 3.38 C-0.2 1.06, 2.23 -0.62, 3.38 0" stroke="#1e1e1e" stroke-width="4" fill="none"></path></g><g transform="translate(1154.6870933480436 1317.6694559392188) rotate(0 27.04166603088379 12.5)"><text x="27.04166603088379" y="0" font-family="Virgil, Segoe UI Emoji" font-size="20px" fill="#1e1e1e" text-anchor="middle" style="white-space: pre;" direction="ltr" dominant-baseline="text-before-edge">Store</text></g><g stroke-linecap="round" transform="translate(331.9100573420077 1701.929264472505) rotate(360.0867791949976 202.75 72.5)"><path d="M32 0 C140.86 -1.06, 250.31 -0.17, 373.5 0 M32 0 C147.22 -1.54, 262.67 -1.18, 373.5 0 M373.5 0 C393.33 1.41, 405.77 11.05, 405.5 32 M373.5 0 C395.34 1.26, 403.66 10.12, 405.5 32 M405.5 32 C404 62.11, 403.48 89.8, 405.5 113 M405.5 32 C406.69 55.27, 406.61 80.47, 405.5 113 M405.5 113 C407.31 133.35, 396.08 145.87, 373.5 145 M405.5 113 C406.58 135.78, 396.83 144.34, 373.5 145 M373.5 145 C304.46 141.88, 233.99 142.32, 32 145 M373.5 145 C304.34 145.52, 235.1 144.68, 32 145 M32 145 C10.51 143.97, 0.8 136.02, 0 113 M32 145 C9.66 144.3, 2.04 135.43, 0 113 M0 113 C-0.45 84.64, 0.62 54.67, 0 32 M0 113 C0.86 87.29, 1.06 60.28, 0 32 M0 32 C-1.81 9.5, 10.53 -1.98, 32 0 M0 32 C0.93 10.43, 11.56 -1.26, 32 0" stroke="#1e1e1e" stroke-width="4" fill="none"></path></g><g stroke-linecap="round" transform="translate(640.2142298671785 1731.2847850334192) rotate(360.0867791949976 35.81796850397029 38.17441380028413)"><path d="M17.91 0 C31.36 1.44, 43.77 1, 53.73 0 M17.91 0 C30.04 0.19, 42.33 0.91, 53.73 0 M53.73 0 C65.94 0.39, 72.08 7.07, 71.64 17.91 M53.73 0 C63.83 -0.55, 72.89 3.94, 71.64 17.91 M71.64 17.91 C70.17 32.89, 71.39 48.33, 71.64 58.44 M71.64 17.91 C72.55 30.59, 72.83 41.63, 71.64 58.44 M71.64 58.44 C72.88 71.25, 66.61 77.61, 53.73 76.35 M71.64 58.44 C73.63 69.72, 63.45 76.56, 53.73 76.35 M53.73 76.35 C45.39 75.09, 36.72 75.02, 17.91 76.35 M53.73 76.35 C41.87 75.48, 31.14 75.94, 17.91 76.35 M17.91 76.35 C6.77 78.03, -0.87 69.77, 0 58.44 M17.91 76.35 C8.01 77.45, 1.58 72.33, 0 58.44 M0 58.44 C1.25 50.85, 0.46 39.82, 0 17.91 M0 58.44 C0.55 47.89, -1.14 36.69, 0 17.91 M0 17.91 C-0.13 3.99, 6.78 -0.21, 17.91 0 M0 17.91 C0.89 4.71, 5.13 -0.53, 17.91 0" stroke="#1e1e1e" stroke-width="4" fill="none"></path></g><g stroke-linecap="round" transform="translate(625.1580031811386 1743.4854978519597) rotate(360.0867791949976 16.02382801493411 9.425781185255346)"><path d="M4.71 0 C8.62 -3.03, 17.18 -3.21, 27.33 0 C32.14 -2.33, 31.76 -0.3, 32.05 4.71 C32.57 9.42, 32.9 10.45, 32.05 14.14 C34.43 15.19, 31.28 16.27, 27.33 18.85 C23.22 21.94, 15.18 17.89, 4.71 18.85 C-0.36 22.11, -1.22 20.65, 0 14.14 C-0.6 10.68, 0.04 8.59, 0 4.71 C-1.06 3.48, -1.32 0.24, 4.71 0" stroke="none" stroke-width="0" fill="#ffffff"></path><path d="M4.71 0 C12.4 0.85, 19.59 -0.95, 27.33 0 M4.71 0 C9.46 0.71, 15.85 0.2, 27.33 0 M27.33 0 C30.92 1.1, 30.45 1.09, 32.05 4.71 M27.33 0 C31.73 -2.03, 33.44 0.67, 32.05 4.71 M32.05 4.71 C31.95 8.76, 31.97 12.34, 32.05 14.14 M32.05 4.71 C32.53 6.67, 32.4 9.29, 32.05 14.14 M32.05 14.14 C32.99 18.54, 32.21 18.28, 27.33 18.85 M32.05 14.14 C29.83 17.49, 28.41 19.62, 27.33 18.85 M27.33 18.85 C20.42 17.7, 17.71 18.26, 4.71 18.85 M27.33 18.85 C19.8 18.12, 12.82 19.47, 4.71 18.85 M4.71 18.85 C0.7 18.25, 1.77 18.24, 0 14.14 M4.71 18.85 C3.15 20.81, -1.81 17.56, 0 14.14 M0 14.14 C0.18 10.28, -0.43 7.62, 0 4.71 M0 14.14 C-0.5 10.41, -0.1 6.77, 0 4.71 M0 4.71 C0.81 1.36, 2.35 -1.09, 4.71 0 M0 4.71 C-0.84 1.04, 1.27 -2.19, 4.71 0" stroke="#1e1e1e" stroke-width="4" fill="none"></path></g><g stroke-linecap="round" transform="translate(625.2297575436367 1771.9352483613175) rotate(360.0867791949976 16.02382801493411 9.425781185255346)"><path d="M4.71 0 C10 -3.03, 17.9 -1.96, 27.33 0 C30.19 -1.87, 34.4 -0.09, 32.05 4.71 C33.04 5.47, 33.23 7.54, 32.05 14.14 C32.85 14.7, 29.94 19.39, 27.33 18.85 C20.49 18.08, 10.22 22.44, 4.71 18.85 C0.36 22.22, -3.34 20.59, 0 14.14 C0.24 9.31, -0.46 8.66, 0 4.71 C-2.89 1.81, -0.6 1.97, 4.71 0" stroke="none" stroke-width="0" fill="#ffffff"></path><path d="M4.71 0 C14.18 -0.9, 20.46 -1.02, 27.33 0 M4.71 0 C11.6 0.03, 18.44 0.39, 27.33 0 M27.33 0 C28.88 -0.48, 33.14 -0.2, 32.05 4.71 M27.33 0 C31.87 -0.9, 33.65 0.07, 32.05 4.71 M32.05 4.71 C32.03 8.38, 31.4 11.3, 32.05 14.14 M32.05 4.71 C32.43 8.28, 32.35 11.74, 32.05 14.14 M32.05 14.14 C33.78 16.71, 28.55 19.03, 27.33 18.85 M32.05 14.14 C29.98 18.05, 28.61 17.92, 27.33 18.85 M27.33 18.85 C21.93 18.25, 16.55 17.53, 4.71 18.85 M27.33 18.85 C23.15 19.58, 17.73 18.43, 4.71 18.85 M4.71 18.85 C3.34 19.81, 1.37 18.98, 0 14.14 M4.71 18.85 C-0.24 19.13, 1.72 18.78, 0 14.14 M0 14.14 C-0.39 11.21, 0.6 7.92, 0 4.71 M0 14.14 C0.05 10.82, 0.28 8.38, 0 4.71 M0 4.71 C0.78 0.48, 0.84 -0.46, 4.71 0 M0 4.71 C-0.3 -0.62, 1.25 0.01, 4.71 0" stroke="#1e1e1e" stroke-width="4" fill="none"></path></g><g stroke-linecap="round"><g transform="translate(463.6994336328941 1520.607061398307) rotate(270.33532342577473 30.845852820067236 0.734425067144457)"><path d="M-0.66 -0.51 C9.86 -0.12, 51.92 2.07, 62.43 2.33 M1.19 -1.83 C11.69 -1.76, 51.73 0, 61.87 0.67" stroke="#1e1e1e" stroke-width="4" fill="none"></path></g></g><mask></mask><g stroke-linecap="round" transform="translate(498.5840677579175 1284.6097908765626) rotate(89.94075794909357 10.832769740380755 11.016376007166855)"><path d="M10.83 0 C12.99 -0.08, 15.55 1.24, 17.3 2.74 C19.06 4.24, 20.9 6.72, 21.34 9 C21.79 11.27, 21.12 14.27, 19.98 16.39 C18.84 18.52, 16.61 20.86, 14.53 21.77 C12.44 22.69, 9.73 22.68, 7.48 21.88 C5.23 21.07, 2.17 19.12, 1.02 16.94 C-0.14 14.76, 0.01 11.24, 0.54 8.8 C1.07 6.36, 2.42 3.8, 4.17 2.31 C5.92 0.82, 9.8 0.22, 11.03 -0.15 C12.27 -0.52, 11.6 -0.1, 11.56 0.1 M13.67 -0.45 C15.75 -0.23, 18.03 2.38, 19.29 4.26 C20.54 6.14, 21.38 8.55, 21.18 10.8 C20.97 13.05, 19.44 16.02, 18.06 17.78 C16.68 19.53, 14.98 20.97, 12.92 21.33 C10.86 21.69, 7.7 21.04, 5.71 19.95 C3.72 18.86, 1.74 17.01, 0.97 14.78 C0.19 12.56, 0.34 8.81, 1.05 6.59 C1.76 4.38, 3.14 2.49, 5.24 1.49 C7.33 0.49, 12.33 0.75, 13.62 0.58 C14.91 0.41, 13.17 0.42, 12.97 0.48" stroke="#1e1e1e" stroke-width="4" fill="none"></path></g><g stroke-linecap="round"><g transform="translate(479.00376888646053 1341.0460434111692) rotate(89.94075794909357 30.845852820067236 0.734425067144457)"><path d="M-0.04 -0.47 C10.26 -0.27, 50.81 1.51, 61.1 1.66 M-1.52 -1.76 C9.24 -1.99, 53.09 -0.86, 63.5 -0.36" stroke="#1e1e1e" stroke-width="4" fill="none"></path></g></g><mask></mask><g stroke-linecap="round"><g transform="translate(569.9700117352896 1341.1816836803785) rotate(89.94075794909357 30.845852820067236 0.734425067144457)"><path d="M-0.94 0.97 C9.61 1.23, 51.68 0.92, 62.22 1.08 M0.77 0.44 C11.3 0.91, 51.36 2.52, 61.55 2.41" stroke="#1e1e1e" stroke-width="4" fill="none"></path></g></g><mask></mask><g stroke-linecap="round"><g transform="translate(512.9266043642115 1139.3858187883732) rotate(0 -1.738806836801075 70.22951121998688)"><path d="M1.05 -0.43 C0.8 22.98, -1.74 116.03, -2.6 139.54 M0.14 -1.71 C-0.1 21.91, -2.19 116.64, -3.09 140.6" stroke="#1e1e1e" stroke-width="4" fill="none"></path></g><g transform="translate(512.9266043642115 1139.3858187883732) rotate(0 -1.738806836801075 70.22951121998688)"><path d="M-10.97 116.87 C-10.22 123.24, -9.37 125.67, -3.09 140.6 M-10.97 116.87 C-8.37 125.29, -4.96 131.69, -3.09 140.6" stroke="#1e1e1e" stroke-width="4" fill="none"></path></g><g transform="translate(512.9266043642115 1139.3858187883732) rotate(0 -1.738806836801075 70.22951121998688)"><path d="M6.13 117.36 C3.29 123.78, 0.55 126.1, -3.09 140.6 M6.13 117.36 C3.35 125.58, 1.39 131.82, -3.09 140.6" stroke="#1e1e1e" stroke-width="4" fill="none"></path></g></g><mask></mask><g transform="translate(519.345503730262 1414.2215141229476) rotate(0 50.48958206176758 12.5)"><text x="0" y="0" font-family="Virgil, Segoe UI Emoji" font-size="20px" fill="#1e1e1e" text-anchor="start" style="white-space: pre;" direction="ltr" dominant-baseline="text-before-edge">BuildStore</text></g><g transform="translate(14.230672606332291 1422.4719433134271) rotate(0 121.08333587646484 11.760904886052572)"><text x="121.08333587646484" y="0" font-family="Virgil, Segoe UI Emoji" font-size="18.817447817684034px" fill="#1e1e1e" text-anchor="middle" style="white-space: pre;" direction="ltr" dominant-baseline="text-before-edge">CacheBuilderHealthChecker</text></g><g transform="translate(408.73358349463365 1747.2038125336103) rotate(360.0867791949976 61.75 12.5)"><text x="61.75" y="0" font-family="Virgil, Segoe UI Emoji" font-size="20px" fill="#1e1e1e" text-anchor="middle" style="white-space: pre;" direction="ltr" dominant-baseline="text-before-edge">CacheBuilder</text></g><g transform="translate(471.916611993345 1242.0906264776927) rotate(267.93395961961284 103.0625 10)"><text x="103.0625" y="0" font-family="Virgil, Segoe UI Emoji" font-size="16px" fill="#1e1e1e" text-anchor="middle" style="white-space: pre;" direction="ltr" dominant-baseline="text-before-edge">Store Dependencies object</text></g><g transform="translate(332.7878843740972 1587.3546183418312) rotate(340.427763101858 72.25 11.938380474976157)"><text x="72.25" y="0" font-family="Virgil, Segoe UI Emoji" font-size="19.101408759961988px" fill="#1e1e1e" text-anchor="middle" style="white-space: pre;" direction="ltr" dominant-baseline="text-before-edge">Get dependency</text></g><g stroke-linecap="round"><g transform="translate(891.1961242437765 1094.0458619913777) rotate(0 32.14285714285711 -0.7142857142856656)"><path d="M-0.9 0.51 C9.76 0.55, 52.76 -0.13, 63.43 -0.51 M0.83 -0.27 C11.92 -0.48, 54.93 -2.09, 65.69 -2.15" stroke="#1e1e1e" stroke-width="2" fill="none"></path></g><g transform="translate(891.1961242437765 1094.0458619913777) rotate(0 32.14285714285711 -0.7142857142856656)"><path d="M42.41 6.95 C49.23 3.39, 55.82 0.58, 65.69 -2.15 M42.41 6.95 C48.63 5.45, 55.56 2.37, 65.69 -2.15" stroke="#1e1e1e" stroke-width="2" fill="none"></path></g><g transform="translate(891.1961242437765 1094.0458619913777) rotate(0 32.14285714285711 -0.7142857142856656)"><path d="M42 -10.14 C48.82 -9.36, 55.51 -7.83, 65.69 -2.15 M42 -10.14 C48.2 -7.03, 55.25 -5.51, 65.69 -2.15" stroke="#1e1e1e" stroke-width="2" fill="none"></path></g></g><mask></mask><g transform="translate(698.0979644959962 799.9009620034169) rotate(359.20429777261893 61.88541793823242 12.5)"><text x="0" y="0" font-family="Virgil, Segoe UI Emoji" font-size="20px" fill="#1e1e1e" text-anchor="start" style="white-space: pre;" direction="ltr" dominant-baseline="text-before-edge">Pop message</text></g><g stroke-linecap="round"><g transform="translate(490.8786639263161 144.04586199137782) rotate(0 -34.28571428571428 251.4285714285714)"><path d="M-0.9 1.05 C-12.39 85.07, -58.35 419.74, -69.67 503.46 M0.83 0.56 C-10.23 84.28, -55.78 418.2, -67.54 501.65" stroke="#1e1e1e" stroke-width="4" fill="none"></path></g><g transform="translate(490.8786639263161 144.04586199137782) rotate(0 -34.28571428571428 251.4285714285714)"><path d="M-72.79 477.21 C-69.93 481.18, -69.44 488.36, -67.54 501.65 M-72.79 477.21 C-71.9 484.65, -69.65 492.89, -67.54 501.65" stroke="#1e1e1e" stroke-width="4" fill="none"></path></g><g transform="translate(490.8786639263161 144.04586199137782) rotate(0 -34.28571428571428 251.4285714285714)"><path d="M-55.85 479.55 C-56.98 482.85, -60.48 489.47, -67.54 501.65 M-55.85 479.55 C-60.72 486.21, -64.23 493.65, -67.54 501.65" stroke="#1e1e1e" stroke-width="4" fill="none"></path></g></g><mask></mask><g stroke-linecap="round"><g transform="translate(805.4818385294909 142.61729056280637) rotate(0 50.714285714285666 257.1428571428571)"><path d="M-0.53 -1.18 C16.51 84.5, 84.96 427.96, 101.94 513.95 M1.39 0.81 C18.34 86.68, 84.73 430, 101.26 515.32" stroke="#1e1e1e" stroke-width="4" fill="none"></path></g><g transform="translate(805.4818385294909 142.61729056280637) rotate(0 50.714285714285666 257.1428571428571)"><path d="M88.4 493.88 C89.94 500.69, 94.91 505.63, 101.26 515.32 M88.4 493.88 C92.45 500.58, 97.43 508.42, 101.26 515.32" stroke="#1e1e1e" stroke-width="4" fill="none"></path></g><g transform="translate(805.4818385294909 142.61729056280637) rotate(0 50.714285714285666 257.1428571428571)"><path d="M105.19 490.63 C102.1 498.27, 102.44 504.1, 101.26 515.32 M105.19 490.63 C103.53 498.46, 102.78 507.41, 101.26 515.32" stroke="#1e1e1e" stroke-width="4" fill="none"></path></g></g><mask></mask><g stroke-linecap="round"><g transform="translate(576.3312973200368 1693.6767755264636) rotate(0 -1.9096036716260585 -55.444356638374074)"><path d="M0.03 -0.5 C-0.49 -18.91, -3.48 -93.11, -4.19 -111.42 M-1.42 -1.81 C-2.03 -19.98, -4.69 -91.73, -5.34 -110.16" stroke="#1e1e1e" stroke-width="4" fill="none"></path></g><g transform="translate(576.3312973200368 1693.6767755264636) rotate(0 -1.9096036716260585 -55.444356638374074)"><path d="M4.06 -86.99 C1.44 -92.44, -0.56 -97.4, -5.34 -110.16 M4.06 -86.99 C0.16 -95.06, -3.01 -102.87, -5.34 -110.16" stroke="#1e1e1e" stroke-width="4" fill="none"></path></g><g transform="translate(576.3312973200368 1693.6767755264636) rotate(0 -1.9096036716260585 -55.444356638374074)"><path d="M-13.03 -86.37 C-12.08 -91.96, -10.51 -97.05, -5.34 -110.16 M-13.03 -86.37 C-11 -94.61, -8.24 -102.64, -5.34 -110.16" stroke="#1e1e1e" stroke-width="4" fill="none"></path></g></g><mask></mask><g stroke-linecap="round"><g transform="translate(739.634472775814 1719.9631723638981) rotate(0 191.58943385542727 -194.86808269969697)"><path d="M-0.6 0.33 C63.46 -64.61, 320.28 -324.19, 384.25 -389.27 M1.29 -0.55 C65.29 -65.89, 320.33 -326.4, 383.86 -391.14" stroke="#1e1e1e" stroke-width="4" fill="none"></path></g><g transform="translate(739.634472775814 1719.9631723638981) rotate(0 191.58943385542727 -194.86808269969697)"><path d="M373.53 -368.38 C377.03 -373.21, 380.3 -381.6, 383.86 -391.14 M373.53 -368.38 C375.93 -374.72, 379.1 -380.7, 383.86 -391.14" stroke="#1e1e1e" stroke-width="4" fill="none"></path></g><g transform="translate(739.634472775814 1719.9631723638981) rotate(0 191.58943385542727 -194.86808269969697)"><path d="M361.31 -380.35 C368.43 -381.61, 375.27 -386.5, 383.86 -391.14 M361.31 -380.35 C366.95 -383.55, 373.38 -386.33, 383.86 -391.14" stroke="#1e1e1e" stroke-width="4" fill="none"></path></g></g><mask></mask><g transform="translate(456.3545334690858 1576.8200127953628) rotate(270.890398827503 92.28125 12.5)"><text x="92.28125" y="0" font-family="Virgil, Segoe UI Emoji" font-size="20px" fill="#1e1e1e" text-anchor="middle" style="white-space: pre;" direction="ltr" dominant-baseline="text-before-edge">Update dependency</text></g><g stroke-linecap="round"><g transform="translate(838.9125327687075 1138.8009712798328) rotate(0 3.691024339780519 134.50242804002562)"><path d="M0.88 0.76 C2.27 45.44, 7.24 223.41, 8.25 267.98 M-0.11 0.11 C1.2 44.92, 6.74 224.16, 7.76 268.97" stroke="#1e1e1e" stroke-width="4" fill="none"></path></g><g transform="translate(838.9125327687075 1138.8009712798328) rotate(0 3.691024339780519 134.50242804002562)"><path d="M-1.43 245.72 C2.5 253.91, 2.21 258.56, 7.76 268.97 M-1.43 245.72 C0.01 251.55, 1.89 256.79, 7.76 268.97" stroke="#1e1e1e" stroke-width="4" fill="none"></path></g><g transform="translate(838.9125327687075 1138.8009712798328) rotate(0 3.691024339780519 134.50242804002562)"><path d="M15.66 245.26 C14.59 253.71, 9.3 258.49, 7.76 268.97 M15.66 245.26 C13.2 251.06, 11.17 256.41, 7.76 268.97" stroke="#1e1e1e" stroke-width="4" fill="none"></path></g></g><mask></mask><g stroke-linecap="round" transform="translate(560.7359709038009 1550.1112990644897) rotate(270.33532342577473 10.832769740380755 11.016376007166855)"><path d="M9.69 -0.35 C11.83 -0.7, 15.03 0.17, 16.98 1.6 C18.93 3.03, 20.7 5.88, 21.39 8.24 C22.07 10.61, 22.01 13.66, 21.1 15.78 C20.2 17.9, 18.17 19.89, 15.94 20.95 C13.7 22, 10.08 22.62, 7.7 22.1 C5.31 21.58, 2.85 19.75, 1.63 17.82 C0.41 15.88, 0.11 12.99, 0.36 10.5 C0.61 8.01, 1.48 4.66, 3.13 2.87 C4.77 1.09, 9.05 0.17, 10.21 -0.21 C11.38 -0.59, 10.1 0.36, 10.12 0.6 M8.15 0.5 C10.22 -0.32, 14.09 -0.3, 16.15 0.69 C18.21 1.68, 19.68 4.16, 20.5 6.46 C21.32 8.76, 21.7 12.1, 21.05 14.5 C20.41 16.9, 18.69 19.63, 16.65 20.86 C14.62 22.09, 11.11 22.38, 8.84 21.9 C6.57 21.42, 4.49 19.69, 3.04 17.97 C1.59 16.25, 0.36 13.82, 0.12 11.58 C-0.11 9.34, 0.27 6.43, 1.63 4.52 C2.99 2.62, 7.24 0.84, 8.29 0.14 C9.34 -0.55, 7.75 0.21, 7.91 0.36" stroke="#1e1e1e" stroke-width="4" fill="none"></path></g><g stroke-linecap="round"><g transform="translate(540.8422907757513 1516.46420425545) rotate(270.33532342577473 30.845852820067236 0.734425067144457)"><path d="M-0.53 -0.45 C9.93 -0.27, 51.94 0.52, 62.25 0.68 M1.39 -1.73 C11.79 -1.39, 51.76 1.3, 61.6 1.81" stroke="#1e1e1e" stroke-width="4" fill="none"></path></g></g><mask></mask><g stroke-linecap="round"><g transform="translate(681.2836253652414 1696.5324677054714) rotate(359.0465079103139 0.7274721043775756 -54.94022222010153)"><path d="M0.54 0.9 C0.63 -17.6, 1.08 -91.9, 1.19 -110.47 M-0.64 0.32 C-0.79 -18.07, -0.05 -90.94, 0.1 -109.24" stroke="#1e1e1e" stroke-width="4" fill="none"></path></g><g transform="translate(681.2836253652414 1696.5324677054714) rotate(359.0465079103139 0.7274721043775756 -54.94022222010153)"><path d="M8.44 -85.67 C6.87 -94.45, 1.43 -102.87, 0.1 -109.24 M8.44 -85.67 C7.32 -91, 4.47 -97.35, 0.1 -109.24" stroke="#1e1e1e" stroke-width="4" fill="none"></path></g><g transform="translate(681.2836253652414 1696.5324677054714) rotate(359.0465079103139 0.7274721043775756 -54.94022222010153)"><path d="M-8.66 -85.82 C-4.16 -94.62, -3.53 -102.99, 0.1 -109.24 M-8.66 -85.82 C-5.52 -91.21, -4.11 -97.52, 0.1 -109.24" stroke="#1e1e1e" stroke-width="4" fill="none"></path></g></g><mask></mask><g transform="translate(550.3381618783352 1579.6771556525055) rotate(270.890398827503 103.58333587646484 12.5)"><text x="103.58333587646484" y="0" font-family="Virgil, Segoe UI Emoji" font-size="20px" fill="#1e1e1e" text-anchor="middle" style="white-space: pre;" direction="ltr" dominant-baseline="text-before-edge">Send pubsub message</text></g><g stroke-linecap="round" transform="translate(666.0216851895151 1552.9684419216323) rotate(270.33532342577473 10.832769740380755 11.016376007166855)"><path d="M13.21 -0.19 C15.44 0.17, 18.21 1.99, 19.58 3.89 C20.96 5.8, 21.66 8.86, 21.45 11.24 C21.25 13.62, 19.86 16.42, 18.34 18.19 C16.82 19.95, 14.53 21.51, 12.33 21.81 C10.14 22.12, 7.23 21.27, 5.17 20.02 C3.12 18.76, 0.79 16.47, 0.02 14.3 C-0.75 12.14, -0.48 9.23, 0.56 7.02 C1.6 4.8, 4.05 2.06, 6.24 1.03 C8.42 0.01, 12.27 0.85, 13.67 0.87 C15.07 0.9, 14.59 1.15, 14.64 1.19 M11.68 0.2 C13.75 -0.01, 16.07 0.88, 17.79 2.5 C19.51 4.13, 21.51 7.54, 21.99 9.93 C22.46 12.32, 22.04 14.98, 20.63 16.84 C19.22 18.69, 15.86 20.43, 13.55 21.04 C11.24 21.65, 8.76 21.32, 6.77 20.51 C4.78 19.69, 2.64 18.18, 1.6 16.15 C0.55 14.13, 0.14 10.69, 0.52 8.36 C0.89 6.04, 2.09 3.71, 3.85 2.19 C5.61 0.68, 9.86 -0.38, 11.06 -0.71 C12.26 -1.04, 11.1 0.02, 11.05 0.23" stroke="#1e1e1e" stroke-width="4" fill="none"></path></g><g stroke-linecap="round"><g transform="translate(646.1280050614655 1519.3213471125923) rotate(270.33532342577473 30.845852820067233 0.734425067144457)"><path d="M-0.58 -1.18 C9.76 -0.82, 50.74 1.14, 61.07 1.64 M1.31 0.82 C12.14 1.44, 53.59 3.46, 63.45 3.27" stroke="#1e1e1e" stroke-width="4" fill="none"></path></g></g><mask></mask><g stroke-linecap="round" transform="translate(695.9788820353182 1282.6025740029147) rotate(89.94075794909357 10.832769740380755 11.016376007166855)"><path d="M12.43 0.45 C14.61 0.6, 17.07 2.27, 18.58 3.88 C20.08 5.49, 21.29 7.75, 21.48 10.12 C21.67 12.48, 21.05 16.13, 19.71 18.08 C18.38 20.04, 15.81 21.43, 13.45 21.87 C11.08 22.3, 7.66 21.79, 5.52 20.69 C3.39 19.59, 1.51 17.38, 0.64 15.26 C-0.23 13.13, -0.47 10.15, 0.31 7.95 C1.09 5.74, 3.28 3.27, 5.33 2.04 C7.38 0.81, 11.3 0.9, 12.61 0.55 C13.91 0.2, 13.25 -0.18, 13.15 -0.07 M11.44 0.26 C13.64 0.36, 16.88 1.17, 18.5 2.8 C20.12 4.42, 20.89 7.53, 21.15 10.01 C21.41 12.49, 21.31 15.75, 20.07 17.66 C18.83 19.58, 16.06 20.91, 13.7 21.5 C11.35 22.09, 8.06 22.1, 5.94 21.2 C3.81 20.31, 1.82 18.41, 0.95 16.13 C0.08 13.84, 0.11 9.76, 0.72 7.5 C1.32 5.24, 2.82 3.77, 4.58 2.56 C6.33 1.36, 9.97 0.74, 11.25 0.27 C12.53 -0.2, 12.16 -0.38, 12.26 -0.27" stroke="#1e1e1e" stroke-width="4" fill="none"></path></g><g stroke-linecap="round"><g transform="translate(705.4548204138293 1138.1235686063224) rotate(0 0.331856426021929 67.30764774172667)"><path d="M-0.57 0.1 C-0.82 22.76, -0.61 112.96, -0.42 135.36 M1.33 -0.89 C1.35 21.48, 1.99 110.85, 1.72 133.63" stroke="#1e1e1e" stroke-width="4" fill="none"></path></g><g transform="translate(705.4548204138293 1138.1235686063224) rotate(0 0.331856426021929 67.30764774172667)"><path d="M-6.81 110.13 C-3.44 117.47, 0.93 128.19, 1.72 133.63 M-6.81 110.13 C-3.74 117.29, -1.81 124.25, 1.72 133.63" stroke="#1e1e1e" stroke-width="4" fill="none"></path></g><g transform="translate(705.4548204138293 1138.1235686063224) rotate(0 0.331856426021929 67.30764774172667)"><path d="M10.29 110.15 C7.02 117.4, 4.77 128.11, 1.72 133.63 M10.29 110.15 C8.35 117.21, 5.26 124.16, 1.72 133.63" stroke="#1e1e1e" stroke-width="4" fill="none"></path></g></g><mask></mask><g stroke-linecap="round"><g transform="translate(674.9700117352896 1336.1816836803785) rotate(89.94075794909357 30.845852820067233 0.734425067144457)"><path d="M0.65 -0.36 C11.09 0.03, 52.25 1.6, 62.56 1.79 M-0.46 -1.59 C9.9 -1.53, 51.62 -0.73, 62.07 -0.17" stroke="#1e1e1e" stroke-width="4" fill="none"></path></g></g><mask></mask><g transform="translate(587.7499478698098 1238.3406264776927) rotate(269.933166444113 93.47916412353516 10)"><text x="93.47916412353516" y="0" font-family="Virgil, Segoe UI Emoji" font-size="16px" fill="#1e1e1e" text-anchor="middle" style="white-space: pre;" direction="ltr" dominant-baseline="text-before-edge">Receive pubsub message</text></g></svg>