<svg version="1.1" xmlns="http://www.w3.org/2000/svg" xmlns:xlink="http://www.w3.org/1999/xlink" width="605" height="305"><desc>title%20Get%20submission%20status%0A%0Aactor%20Client%0Aboundary%20RequestHandler%0Adatabase%20SubmissionStore%0A%0AClient-%3ERequestHandler%3A%20send%20a%20get%20submission%20status%20request%0ARequestHandler-%3ESubmissionStore%3A%20retreive%20Submission%20object%20%22s%22%0ARequestHandler-%3EClient%3A%20return%20s.response</desc><defs/><g><g/><g/><g/><g><rect fill="white" stroke="none" x="0" y="0" width="605" height="305"/></g><g><text fill="black" stroke="none" font-family="sans-serif" font-size="16.5pt" font-style="normal" font-weight="normal" text-decoration="normal" x="194.42792314008784" y="22.6179738" text-anchor="start" dominant-baseline="alphabetic" xml:space="preserve">Get submission status</text></g><g/><g><path fill="none" stroke="black" paint-order="fill stroke markers" d=" M 26.274706680078125 118.97054218800001 L 26.274706680078125 305.945792268" stroke-miterlimit="10" stroke-width="1.2565541" stroke-dasharray="11.598960923076923,5.0262164"/><path fill="none" stroke="black" paint-order="fill stroke markers" d=" M 308.448533949414 118.97054218800001 L 308.448533949414 305.945792268" stroke-miterlimit="10" stroke-width="1.2565541" stroke-dasharray="11.598960923076923,5.0262164"/><path fill="none" stroke="black" paint-order="fill stroke markers" d=" M 542.3454752324218 118.97054218800001 L 542.3454752324218 305.945792268" stroke-miterlimit="10" stroke-width="1.2565541" stroke-dasharray="11.598960923076923,5.0262164"/></g><g><g><path fill="white" stroke="black" paint-order="fill stroke markers" d=" M 34.869536724078124 55.18785607200001 A 8.594830044 8.594830044 0 1 1 34.86953242666346 55.179261243388474 M 26.274706680078125 63.78268611600001 L 26.274706680078125 82.17863814 M 15.418079256078125 70.41729176400001 L 37.13133410407813 70.41729176400001 M 26.274706680078125 82.17863814 L 15.418079256078125 99.36829822800001 M 26.274706680078125 82.17863814 L 37.13133410407813 99.36829822800001" stroke-miterlimit="10" stroke-width="2.5633703640000003" stroke-dasharray=""/></g><g><g/><text fill="black" stroke="none" font-family="sans-serif" font-size="11pt" font-style="normal" font-weight="normal" text-decoration="normal" x="7.5393246000000005" y="114.44694742800002" text-anchor="start" dominant-baseline="alphabetic" xml:space="preserve">Client</text></g><g><path fill="white" stroke="black" paint-order="fill stroke markers" d=" M 338.37965261141403 75.69481898400001 A 22.391794062000002 22.391794062000002 0 1 1 338.3796414155179 75.67242719366996 M 279.799100469414 52.02133974000001 L 279.799100469414 99.36829822800001 M 278.517415287414 75.69481898400001 L 293.59606448741397 75.69481898400001" stroke-miterlimit="10" stroke-width="2.5633703640000003" stroke-dasharray=""/></g><g><g/><text fill="black" stroke="none" font-family="sans-serif" font-size="11pt" font-style="normal" font-weight="normal" text-decoration="normal" x="255.4913806291015" y="114.44694742800002" text-anchor="start" dominant-baseline="alphabetic" xml:space="preserve">RequestHandler</text></g><g><path fill="white" stroke="black" paint-order="fill stroke markers" d=" M 520.3306474004218 89.41638975600002 L 520.3306474004218 57.75122643600001 L 564.3603030644218 57.75122643600001 L 564.3603030644218 89.41638975600002" stroke-miterlimit="10" stroke-width="2.5633703640000003" stroke-dasharray=""/><path fill="white" stroke="black" paint-order="fill stroke markers" d=" M 564.3603030644218 56.65048504440001 L 564.359202332203 56.750002470476886 L 564.355900245619 56.849509944894095 L 564.3503971348755 56.9489975169871 L 564.3426935502793 57.04845523808161 L 564.3327902621821 57.147873162488395 L 564.3206882609047 57.24724134849785 L 564.3063887566371 57.3465498593742 L 564.2898931793178 57.4457887643491 L 564.2712031784907 57.54494813961476 L 564.2503206231404 57.64401806931628 L 564.227247601505 57.74298864654325 L 564.2019864208675 57.841849974320425 L 564.1745396073247 57.940592166597405 L 564.1449099055353 58.03920534923725 L 564.1131002784448 58.13767966100388 L 564.0791139069893 58.23600525454817 L 564.0429541897777 58.334172297392705 L 564.0046247427514 58.43217097291501 L 563.9641293988234 58.529991481329205 L 563.9214722074942 58.62762404066595 L 563.8766574344473 58.72505888775068 L 563.829689561123 58.82228627917988 L 563.7805732842692 58.91929649229543 L 563.7293135154728 59.01607982615686 L 563.6759153806678 59.11262660251144 L 563.6203842196234 59.20892716676198 L 563.5627255854092 59.304971888932315 L 563.5029452438407 59.400751164630265 L 563.4410491729022 59.49625541600807 L 563.3770435621493 59.59147509272019 L 563.3109348120897 59.68640067287828 L 563.2427295335433 59.78102266400345 L 563.172434546981 59.87533160397543 L 563.1000568818431 59.969318061978825 L 563.0256037758356 60.06297263944614 L 562.9490826742071 60.15628597099768 L 562.8705012290042 60.24924872537805 L 562.7898672983057 60.34185160638929 L 562.7071889454376 60.43408535382045 L 562.6224744381661 60.52594074437366 L 562.5357322478716 60.617408592586415 L 562.4469710487006 60.708479751750104 L 562.3561997166992 60.79914511482471 L 562.263427328925 60.88939561534948 L 562.1686631625392 60.97922222834956 L 562.0719166938799 61.06861597123853 L 561.9731975975129 61.15756790471657 L 561.8725157452659 61.24606913366447 L 561.76988120524 61.33411080803308 L 561.6653042408038 61.42168412372834 L 561.5587953095666 61.50878032349165 L 561.4503650623327 61.59539069777562 L 561.3400243420365 61.68150658561499 L 561.2277841826581 61.76711937549275 L 561.1136558081199 61.85222050620124 L 560.9976506311642 61.93680146769832 L 560.8797802522121 62.02085380195832 L 560.7600564582032 62.104369103817845 L 560.6384912214171 62.18733902181633 L 560.5150966982762 62.2697552590311 L 560.3898852281301 62.35160957390711 L 560.2628693320213 62.4328937810811 L 560.1340617114338 62.51359975220007 L 560.003475247022 62.59371941673418 L 559.8711229973238 62.67324476278373 L 559.7370181974537 62.7521678378804 L 559.6011742577801 62.83048074978243 L 559.4636047625836 62.908175667263905 L 559.3243234686992 62.98524482089782 L 559.1833443041401 63.06168050383303 L 559.0406813667054 63.13747507256495 L 558.8963489225698 63.212620947699854 L 558.7503614048576 63.28711061471286 L 558.6027334121989 63.360936624699335 L 558.4534797072698 63.4340915951198 L 558.3026152153166 63.50656821053819 L 558.1501550226625 63.578359223353345 L 557.9961143752 63.64945745452381 L 557.8405086768655 63.71985579428573 L 557.6833534880989 63.78954720286377 L 557.5246645242883 63.85852471117517 L 557.3644576541977 63.92678142152658 L 557.2027488983808 63.994310508303826 L 557.0395544275784 64.06110521865452 L 556.8748905611014 64.12715887316328 L 556.7087737651993 64.19246486651971 L 556.5412206514134 64.25701666817889 L 556.3722479749154 64.32080782301445 L 556.201872632832 64.38383195196405 L 556.0301116625554 64.44608275266734 L 555.8569822400398 64.5075540000961 L 555.6825016780829 64.56823954717684 L 555.5066874245956 64.62813332540541 L 555.3295570608567 64.6872293454539 L 555.151128299755 64.74552169776953 L 554.971418984018 64.80300455316568 L 554.7904470844273 64.8596721634047 L 554.6082306980222 64.91551886177277 L 554.4247880462896 64.97053906364663 L 554.2401374733415 65.0247272670519 L 554.0542974440815 65.07807805321343 L 553.8672865423578 65.13058608709704 L 553.6791234691044 65.18224611794311 L 553.4898270404722 65.23305297979161 L 553.299416185946 65.28300159199867 L 553.1079099464527 65.33208695974473 L 552.9153274724567 65.38030417453389 L 552.7216880220449 65.42764841468485 L 552.5270109590009 65.47411494581308 L 552.3313157508688 65.51969912130417 L 552.1346219670064 65.56439638277854 L 551.9369492766282 65.60820226054732 L 551.7383174468383 65.65111237405922 L 551.5387463406545 65.69312243233865 L 551.3382559150208 65.73422823441479 L 551.1368662188128 65.7744256697417 L 550.9345973908323 65.81371071860933 L 550.7314696577935 65.85207945254552 L 550.5275033323005 65.88952803470889 L 550.3227188108159 65.9260527202724 L 550.117136571621 65.96164985679792 L 549.9107771727687 65.99631588460149 L 549.7036612500267 66.03004733710921 L 549.4958095148147 66.06284084120392 L 549.2872427521331 66.09469311756257 L 549.0779818184843 66.12560098098405 L 548.8680476397873 66.15556134070776 L 548.6574612092851 66.18457120072271 L 548.446243585445 66.21262766006708 L 548.2344158898537 66.23972791311832 L 548.0219993051041 66.26586924987369 L 547.8090150726777 66.2910490562213 L 547.59548449082 66.31526481420151 L 547.3814289124116 66.3385141022587 L 547.1668697428318 66.36079459548343 L 546.9518284378188 66.38210406584494 L 546.7363265013238 66.40244038241397 L 546.520385483361 66.42180151157581 L 546.3040269778521 66.44018551723366 L 546.0872726204675 66.45759056100228 L 545.8701440864622 66.4740149023918 L 545.6526630885088 66.48945689898177 L 545.4348513745258 66.5039150065854 L 545.216730725503 66.51738777940398 L 544.9983229533235 66.52987387017144 L 544.7796498985828 66.54137203028912 L 544.5607334284038 66.55188110995061 L 544.3415954342513 66.56140005825667 L 544.122257829742 66.5699279233204 L 543.9027425484537 66.57746385236243 L 543.6830715417315 66.58400709179611 L 543.463266776493 66.58955698730296 L 543.2433502330316 66.59411298389804 L 543.0233439028183 66.59767462598552 L 542.803269786303 66.60024155740412 L 542.5831498907137 66.60181352146286 L 542.3630062278565 66.60239036096665 L 542.1428608119146 66.601972018232 L 541.9227356572458 66.60055853509284 L 541.7026527761823 66.59815005289633 L 541.4826341768286 66.59474681248865 L 541.2627018608615 66.59034915419102 L 541.0428778213293 66.5849575177656 L 540.8231840404527 66.57857244237155 L 540.6036424874267 66.57119456651108 L 540.3842751162236 66.56282462796563 L 540.1651038633979 66.55346346372208 L 539.9461506458922 66.54311200988904 L 539.7274373588456 66.5317713016033 L 539.5089858734046 66.5194424729262 L 539.290818034536 66.50612675673037 L 539.0729556588415 66.4918254845763 L 538.8554205323773 66.47654008657929 L 538.6382344084747 66.46027209126643 L 538.4214190055651 66.44302312542368 L 538.2049960050082 66.42479491393324 L 537.9889870489236 66.40558927960109 L 537.7734137380271 66.38540814297464 L 537.5582976294698 66.36425352215073 L 537.3436602346837 66.34212753257384 L 537.1295230172291 66.31903238682447 L 536.9159073906494 66.29497039439796 L 536.7028347163293 66.26994396147349 L 536.4903263013586 66.2439555906735 L 536.2784033964017 66.21700788081341 L 536.0670871935725 66.18910352664176 L 535.8563988243153 66.1602453185707 L 535.6463593572914 66.13043614239702 L 535.4369897962723 66.09967897901345 L 535.2283110780398 66.06797690411072 L 535.0203440702919 66.03533308786992 L 534.8131095695559 66.00175079464545 L 534.6066282991092 65.96723338263864 L 534.4009209069068 65.93178430356194 L 534.1960079635165 65.89540710229372 L 533.991909960062 65.85810541652378 L 533.7886473061734 65.81988297638962 L 533.5862403279467 65.7807436041034 L 533.3847092659112 65.74069121356973 L 533.184074273005 65.69972980999431 L 532.9843554125603 65.65786348948332 L 532.7855726562966 65.61509643863396 L 532.587745882324 65.57143293411565 L 532.390894873155 65.52687734224247 L 532.1950393137266 65.48143411853648 L 532.0001987894312 65.43510780728218 L 531.8063927841592 65.38790304107208 L 531.6136406783495 65.33982454034347 L 531.4219617470519 65.29087711290636 L 531.2313751580001 65.2410656534627 L 531.0418999696939 65.19039514311692 L 530.8535551294945 65.13887064887784 L 530.6663594717287 65.08649732315195 L 530.4803317158064 65.03328040322816 L 530.2954904643482 64.97922521075414 L 530.1118542013252 64.92433715120407 L 529.9294412902107 64.86862171333819 L 529.7482699721437 64.81208446865382 L 529.568358364105 64.75473107082834 L 529.3897244571058 64.69656725515374 L 529.2123861143875 64.63759883796311 L 529.0363610696369 64.57783171604902 L 528.8616669252117 64.51727186607387 L 528.6883211503807 64.45592534397218 L 528.516341079577 64.39379828434507 L 528.3457439106644 64.33089689984668 L 528.1765467032175 64.26722748056307 L 528.0087663768162 64.20279639338311 L 527.8424197093532 64.13761008136183 L 527.6775233353566 64.0716750630761 L 527.5140937443265 64.00499793197281 L 527.3521472790858 63.9375853557095 L 527.191700134146 63.86944407548762 L 527.0327683540879 63.80058090537841 L 526.8753678319571 63.7310027316415 L 526.7195143076747 63.660716512036274 L 526.5652233664631 63.58972927512613 L 526.4125104372879 63.518048119575596 L 526.2613907913149 63.44568021344049 L 526.1118795403826 63.372632793451125 L 525.9639916354915 63.29891316428863 L 525.817741865309 63.22452869785448 L 525.6731448546901 63.149486832533334 L 525.5302150632155 63.0737950724492 L 525.388966783745 62.997460986715 L 525.2494141409891 62.92049220867569 L 525.1115710900956 62.842896435144944 L 524.9754514152548 62.76468142563545 L 524.8410687283208 62.68585500158298 L 524.7084364674502 62.60642504556425 L 524.5775678957586 62.526399500508674 L 524.4484760999942 62.44578636890406 L 524.3211739892289 62.3645937119964 L 524.1956742935677 62.28282964898372 L 524.0719895628755 62.20050235620419 L 523.9501321655225 62.11762006631847 L 523.8301142871469 62.0341910674865 L 523.7119479294363 61.95022370253862 L 523.5956449089281 61.86572636814137 L 523.4812168558275 61.78070751395776 L 523.3686752128443 61.695175641802365 L 523.2580312340492 61.60913930479112 L 523.1492959837477 61.52260710648604 L 523.0424803353744 61.43558770003484 L 522.9375949704049 61.348089787305646 L 522.8346503772885 61.26012211801682 L 522.7336568503987 61.17169348886198 L 522.634624489004 61.08281274263036 L 522.5375631962579 60.99348876732251 L 522.4424826782089 60.90373049526153 L 522.3493924428295 60.81354690219982 L 522.2583017990657 60.722947006421535 L 522.1692198559061 60.63193986784075 L 522.0821555214706 60.54053458709549 L 521.9971175021202 60.44874030463767 L 521.9141143015859 60.356566199819014 L 521.8331542201186 60.26402148997322 L 521.7542453536589 60.17111542949413 L 521.6773955930278 60.07785730891038 L 521.6026126231374 59.98425645395631 L 521.5299039222222 59.89032222463943 L 521.4592767610917 59.79606401430437 L 521.3907382024033 59.70149124869363 L 521.3242950999557 59.606613385004955 L 521.2599540980037 59.511439910945654 L 521.197721630594 59.41598034378382 L 521.1376039209214 59.32024422939662 L 521.0796069807068 59.224241141315716 L 521.0237366095957 59.127980679769905 L 520.9699983945791 59.03147247072513 L 520.9183977094332 58.93472616492187 L 520.8689397141839 58.83775143691009 L 520.8216293545894 58.74055798408177 L 520.776471361646 58.64315552570121 L 520.7334702511158 58.54555380193307 L 520.6926303230737 58.44776257286839 L 520.6539556614786 58.3497916175486 L 520.6174501337642 58.25165073298757 L 520.5831173904533 58.15334973319199 L 520.5509608647913 58.054898448179905 L 520.5209837724038 57.95630672299779 L 520.4931891109755 57.85758441673599 L 520.4675796599491 57.75874140154287 L 520.4441579802485 57.659787561637586 L 520.4229264140221 57.56073279232165 L 520.4038870844087 57.46158699898947 L 520.3870418953255 57.36236009613774 L 520.3723925312775 57.26306200637407 L 520.3599404571886 57.16370265942468 L 520.3496869182561 57.06429199114147 L 520.3416329398252 56.96483994250841 L 520.3357793272872 56.86535645864751 L 520.3321266659983 56.76585148782425 L 520.3306753212216 56.666334980452774 L 520.3314254380905 56.56681688810091 L 520.3343769415939 56.46730716249495 L 520.3395295365837 56.367815754524536 L 520.346882707805 56.268352613247544 L 520.3564357199465 56.16892768489523 L 520.3681876177152 56.06955091187757 L 520.382137225931 55.970232231789055 L 520.3982831496448 55.87098157641492 L 520.4166237742776 55.771808870738006 L 520.4371572657822 55.672724031946224 L 520.4598815708266 55.57373696844089 L 520.4847944169992 55.47485757884587 L 520.5118933130361 55.376095751017715 L 520.5411755490705 55.27746136105691 L 520.572638196903 55.17896427232026 L 520.6062781102951 55.08061433443455 L 520.6420919252834 54.98242138231162 L 520.6800760605164 54.884395235164845 L 520.720226717612 54.786545695527266 L 520.7625398815383 54.68888254827129 L 520.8070113210139 54.59141555963026 L 520.853636588932 54.49415447622183 L 520.9024110228045 54.39710902407328 L 520.953329745229 54.30028890764895 L 521.0063876643753 54.20370380887981 L 521.061579474496 54.10736338619524 L 521.1188996564559 54.01127727355723 L 521.1783424782848 53.91545507949698 L 521.2399019957497 53.81990638615403 L 521.3035720529505 53.724640748318095 L 521.3693462829343 53.629667692473575 L 521.4372181083331 53.53499671584691 L 521.5071807420208 53.440637285456866 L 521.5792271877922 53.34659883716785 L 521.653350241063 53.252890774746334 L 521.7295424895896 53.15952246892046 L 521.8077963142106 53.066503256443006 L 521.8881038896087 52.973842439157714 L 521.9704571850933 52.88154928306908 L 522.0548479654036 52.78963301741581 L 522.1412677915317 52.69810283374788 L 522.2297080215671 52.606967885007364 L 522.3201598115606 52.51623728461321 L 522.4126141164085 52.425920105549835 L 522.5070616907573 52.33602537945989 L 522.6034930899283 52.24656209574106 L 522.7018986708619 52.15753920064718 L 522.8022685930821 52.06896559639356 L 522.9045928196803 51.980850140266824 L 523.008861118319 51.893201643739154 L 523.1150630622554 51.80602887158716 L 523.2231880313835 51.71934054101541 L 523.3332252132966 51.63314532078473 L 523.4451636043681 51.5474518303453 L 523.5589920108521 51.46226863897477 L 523.674699050003 51.37760426492128 L 523.7922731512132 51.29346717455169 L 523.9117025571705 51.20986578150492 L 524.032975325034 51.12680844585059 L 524.1560793276278 51.04430347325308 L 524.2810022546544 50.962359114140874 L 524.407731613925 50.88098356288161 L 524.5362547326093 50.800184956962596 L 524.6665587585028 50.71997137617709 L 524.7986306613112 50.64035084181633 L 524.9324572339544 50.5613313158674 L 525.0680250938867 50.48292070021704 L 525.205320684435 50.40512683586149 L 525.3443302761547 50.32795750212234 L 525.4850399682024 50.25142041586866 L 525.6274356897262 50.17552323074529 L 525.7715032012727 50.100273536407514 L 525.9172280962107 50.025678857762045 L 526.0645958021721 49.95174665421458 L 526.2135915825091 49.878484318923874 L 526.364200537768 49.8058991780624 L 526.5164076071787 49.733998490083756 L 526.6701975701611 49.662789444996825 L 526.825555047847 49.59227916364677 L 526.9824645046181 49.52247469700298 L 527.1409102496596 49.45338302545394 L 527.3008764385288 49.38501105810922 L 527.4623470747404 49.3173656321086 L 527.6253060113652 49.25045351193829 L 527.7897369526453 49.18428138875455 L 527.9556234556236 49.118855879714566 L 528.1229489317881 49.054183527314706 L 528.2916966487306 48.990270798736326 L 528.46184973182 48.927124085199026 L 528.6333911658899 48.864749701321536 L 528.8063037969397 48.80315388449026 L 528.9805703338504 48.74234279423555 L 529.1561733501137 48.68232251161576 L 529.333095285574 48.62309903860914 L 529.5113184481855 48.56467829751363 L 529.6908250157803 48.50706613035466 L 529.8715970378513 48.450268298300934 L 530.0536164373468 48.394290481088326 L 530.2368650124787 48.33913827645191 L 530.4213244385421 48.28481719956619 L 530.6069762697481 48.23133268249359 L 530.7938019410684 48.17869007364124 L 530.9817827700914 48.12689463722616 L 531.1708999588909 48.07595155274883 L 531.3611345959057 48.02586591447525 L 531.5524676578306 47.976642730927495 L 531.7448800115187 47.92828692438291 L 531.9383524158951 47.88080333038186 L 532.1328655238806 47.83419669724416 L 532.3283998843265 47.788471685594295 L 532.5249359439597 47.74363286789533 L 532.722454049338 47.69968472799165 L 532.9209344488154 47.65663166066065 L 533.1203572945174 47.614477971173166 L 533.3207026443256 47.57322787486302 L 533.521950463872 47.532885496705475 L 533.7240806285424 47.49345487090473 L 533.9270729254887 47.45493994049049 L 534.1309070556504 47.41734455692372 L 534.3355626357842 47.38067247971144 L 534.5410192005029 47.34492737603081 L 534.747256204321 47.310112820362406 L 534.9542530237102 47.2762322941328 L 535.1619889591608 47.24328918536636 L 535.3704432372526 47.21128678834652 L 535.5795950127314 47.18022830328631 L 535.7894233705939 47.150116836008365 L 535.9999073281793 47.120955397634305 L 536.2110258372671 47.09274690428368 L 536.4227577861825 47.06549417678231 L 536.6350820019069 47.03919994038023 L 536.8479772521956 47.01386682447918 L 537.0614222477012 46.98949736236963 L 537.2753956441019 46.96609399097749 L 537.4898760442363 46.94365905062039 L 537.7048420002433 46.92219478477368 L 537.9202720157062 46.901703339846044 L 538.1361445478033 46.882186764964906 L 538.3524380094609 46.86364701177149 L 538.5691307715134 46.84608593422567 L 538.786201164865 46.82950528842056 L 539.0036274826574 46.81390673240693 L 539.2213879824399 46.79929182602737 L 539.4394608883439 46.78566203076035 L 539.6578243932606 46.77301870957403 L 539.8764566610216 46.76136312679001 L 540.0953358285823 46.750696447956834 L 540.3144400082082 46.74101973973351 L 540.533747289664 46.732333969782786 L 540.7532357424043 46.724640006674434 L 540.9728834177668 46.717938619798346 L 541.1926683511668 46.71223047928761 L 541.4125685642944 46.70751615595155 L 541.6325620673113 46.703796121218545 L 541.8526268610507 46.701070747088984 L 542.0727409392165 46.699340306098 L 542.2928822905843 46.698604971288255 L 542.5130289012025 46.69886481619261 L 542.7331587565934 46.700119814826806 L 542.953249843955 46.702369841692004 L 543.1732801543619 46.705614671787416 L 543.3932276849664 46.709853980632715 L 543.6130704411988 46.715087344300564 L 543.8327864389668 46.72131423945895 L 544.0523537068534 46.72853404342355 L 544.2717502883149 46.73674603421998 L 544.4909542438762 46.745949390656016 L 544.7099436533241 46.75614319240367 L 544.9286966179004 46.767326420091266 L 545.1471912624908 46.77949795540535 L 545.3654057378129 46.792656581202536 L 545.5833182226012 46.80680098163122 L 545.8009069257886 46.82192974226314 L 546.0181500886861 46.83804135023483 L 546.2350259871586 46.85513419439893 L 546.4515129337968 46.87320656548526 L 546.6675892800868 46.89225665627179 L 546.8832334185736 46.912282561765295 L 547.0984237850232 46.93328227939192 L 547.3131388605784 46.95525370919741 L 547.5273571739104 46.97819465405708 L 547.7410573033666 47.00210281989557 L 547.954217879112 47.026975815916224 L 548.1668175852666 47.05281115484016 L 548.378835162037 47.07960625315501 L 548.5902494078423 47.107358431373285 L 548.8010391814339 47.136064914300285 L 549.0111834040104 47.16572283131164 L 549.2206610613243 47.19632921664036 L 549.4294512057847 47.22788100967341 L 549.637532958551 47.260375055257796 L 549.8448855116214 47.29380810401604 L 550.0514881299134 47.3281768126711 L 550.2573201533373 47.36347774438077 L 550.4623609988623 47.39970736908131 L 550.6665901625747 47.436862063840415 L 550.8699872217284 47.47493811321959 L 551.0725318367868 47.51393170964561 L 551.2742037534573 47.55383895379134 L 551.4749828047163 47.59465585496562 L 551.674848912826 47.63637833151234 L 551.873782091342 47.679002211218624 L 552.0717624471124 47.72252323173201 L 552.2687701822666 47.76693704098672 L 552.4647855961952 47.812239197638846 L 552.65978908752 47.85842517151046 L 552.8537611560547 47.905490344042676 L 553.0466824047538 47.95343000875745 L 553.2385335416534 48.00223937172827 L 553.4292953817995 48.05191355205951 L 553.6189488491672 48.10244758237453 L 553.8074749785677 48.15383640931242 L 553.9948549175454 48.20607489403329 L 554.1810699282621 48.25915781273222 L 554.3661013893724 48.31307985716156 L 554.549930797884 48.36783563516181 L 554.7325397710096 48.423419671200804 L 554.9139100480037 48.479826406921255 L 555.0940234919899 48.53705020169659 L 555.272862091774 48.59508533319502 L 555.4504079636448 48.65392599795177 L 555.6266433531633 48.71356631194938 L 555.8015506369373 48.77400031120615 L 555.9751123243843 48.835221952372535 L 556.1473110594801 48.89722511333542 L 556.3181296224947 48.96000359383039 L 556.4875509317139 49.0235511160617 L 556.6555580451484 49.08786132533009 L 556.8221341622267 49.152927790668215 L 556.9872626254758 49.21874400548377 L 557.150926922187 49.285303388210124 L 557.313110686067 49.35259928296446 L 557.4737976988747 49.420624960213395 L 557.6329718920426 49.489373617445885 L 557.7906173482842 49.55883837985349 L 557.9467183031851 49.62901230101787 L 558.1012591467799 49.69988836360538 L 558.254224425113 49.77145948006883 L 558.405598841784 49.8437184933562 L 558.5553672594775 49.916658177626395 L 558.7035147014766 49.99027123897176 L 558.8500263531604 50.0645503161475 L 558.9948875634858 50.13948798130782 L 559.1380838464526 50.21507674074863 L 559.2796008825518 50.29130903565699 L 559.4194245201977 50.36817724286692 L 559.5575407771431 50.44567367562176 L 559.6939358418773 50.52379058434283 L 559.8285960750077 50.602520157404335 L 559.9615080106229 50.68185452191459 L 560.0926583576404 50.76178574450325 L 560.2220340011345 50.84230583211467 L 560.3496220036488 50.92340673280718 L 560.4754096064896 51.00508033655831 L 560.5993842310011 51.08731847607572 L 560.7215334798242 51.17011292761402 L 560.841845138136 51.25345541179703 L 560.9603071748708 51.33733759444579 L 561.0769077439236 51.42175108741194 L 561.1916351853348 51.506687449416525 L 561.3044780264557 51.592138186894125 L 561.4154249830964 51.6780947548422 L 561.5244649606535 51.76454855767558 L 561.6315870552204 51.85149095008604 L 561.7367805546766 51.93891323790678 L 561.8400349397599 52.02680667898187 L 561.9413398851179 52.115162484040454 L 562.0406852603405 52.20397181757565 L 562.138061130973 52.293225798728116 L 562.2334577595093 52.38291550217411 L 562.3268656063663 52.47303195901802 L 562.4182753308369 52.56356615768928 L 562.5076777920249 52.65450904484346 L 562.5950640497588 52.74585152626762 L 562.6804253654855 52.837584467789746 L 562.7637532031446 52.92969869619212 L 562.8450392300218 53.02218500012867 L 562.9242753175823 53.11503413104609 L 563.0014535422831 53.20823680410863 L 563.0765661863662 53.30178369912667 L 563.1496057386298 53.39566546148867 L 563.2205648951795 53.48987270309661 L 563.2894365601587 53.58439600330485 L 563.3562138464584 53.67922590986214 L 563.4208900764056 53.77435293985683 L 563.4834587824312 53.86976758066522 L 563.5439137077167 53.96546029090272 L 563.60224880682 54.06142150137806 L 563.6584582462798 54.15764161605015 L 563.7125364051989 54.254111012987714 L 563.7644778758066 54.350820045331446 L 563.814277463999 54.4477590422587 L 563.861930189859 54.54491830995058 L 563.9074312881535 54.64228813256127 L 563.9507762088106 54.739858773189646 L 563.9919606173744 54.83762047485297 L 564.0309803954385 54.93556346146252 L 564.0678316410574 55.033677938801276 L 564.1025106691375 55.131954095503254 L 564.1350140118045 55.23038210403468 L 564.1653384187516 55.328952121676735 L 564.1934808575631 55.42765429150978 L 564.2194385140189 55.5264787433991 L 564.2432087923746 55.62541559498185 L 564.2647893156225 55.72445495265532 L 564.284177925728 55.82358691256627 L 564.3013726838464 55.92280156160133 L 564.3163718705162 56.022088978378264 L 564.3291739858312 56.121439234238146 L 564.3397777495906 56.22084239423817 L 564.3481821014267 56.32028851814517 L 564.3543862009114 56.41976766142964 L 564.3583894276401 56.51926987626014 L 564.3601913812931 56.61878521249811 M 564.3603030644218 88.31564836440002 L 564.359202332203 88.4151657904769 L 564.355900245619 88.5146732648941 L 564.3503971348755 88.61416083698711 L 564.3426935502793 88.71361855808162 L 564.3327902621821 88.8130364824884 L 564.3206882609047 88.91240466849787 L 564.3063887566371 89.01171317937421 L 564.2898931793178 89.11095208434912 L 564.2712031784907 89.21011145961478 L 564.2503206231404 89.3091813893163 L 564.227247601505 89.40815196654326 L 564.2019864208675 89.50701329432043 L 564.1745396073247 89.60575548659742 L 564.1449099055353 89.70436866923727 L 564.1131002784448 89.80284298100389 L 564.0791139069893 89.90116857454818 L 564.0429541897777 89.99933561739272 L 564.0046247427514 90.09733429291502 L 563.9641293988234 90.19515480132921 L 563.9214722074942 90.29278736066595 L 563.8766574344473 90.3902222077507 L 563.829689561123 90.4874495991799 L 563.7805732842692 90.58445981229544 L 563.7293135154728 90.68124314615687 L 563.6759153806678 90.77778992251145 L 563.6203842196234 90.874090486762 L 563.5627255854092 90.97013520893233 L 563.5029452438407 91.06591448463028 L 563.4410491729022 91.16141873600809 L 563.3770435621493 91.25663841272019 L 563.3109348120897 91.3515639928783 L 563.2427295335433 91.44618598400346 L 563.172434546981 91.54049492397544 L 563.1000568818431 91.63448138197883 L 563.0256037758356 91.72813595944615 L 562.9490826742071 91.82144929099769 L 562.8705012290042 91.91441204537807 L 562.7898672983057 92.0070149263893 L 562.7071889454376 92.09924867382047 L 562.6224744381661 92.19110406437368 L 562.5357322478716 92.28257191258642 L 562.4469710487006 92.37364307175011 L 562.3561997166992 92.46430843482472 L 562.263427328925 92.55455893534949 L 562.1686631625392 92.64438554834958 L 562.0719166938799 92.73377929123853 L 561.9731975975129 92.82273122471658 L 561.8725157452659 92.91123245366448 L 561.76988120524 92.9992741280331 L 561.6653042408038 93.08684744372835 L 561.5587953095666 93.17394364349167 L 561.4503650623327 93.26055401777563 L 561.3400243420365 93.346669905615 L 561.2277841826581 93.43228269549276 L 561.1136558081199 93.51738382620125 L 560.9976506311642 93.60196478769834 L 560.8797802522121 93.68601712195833 L 560.7600564582032 93.76953242381786 L 560.6384912214171 93.85250234181635 L 560.5150966982762 93.9349185790311 L 560.3898852281301 94.01677289390713 L 560.2628693320213 94.09805710108111 L 560.1340617114338 94.17876307220008 L 560.003475247022 94.2588827367342 L 559.8711229973238 94.33840808278374 L 559.7370181974537 94.41733115788041 L 559.6011742577801 94.49564406978244 L 559.4636047625836 94.57333898726392 L 559.3243234686992 94.65040814089784 L 559.1833443041401 94.72684382383305 L 559.0406813667054 94.80263839256496 L 558.8963489225698 94.87778426769987 L 558.7503614048576 94.95227393471288 L 558.6027334121989 95.02609994469935 L 558.4534797072698 95.09925491511981 L 558.3026152153166 95.1717315305382 L 558.1501550226625 95.24352254335335 L 557.9961143752 95.31462077452383 L 557.8405086768655 95.38501911428574 L 557.6833534880989 95.45471052286379 L 557.5246645242883 95.52368803117518 L 557.3644576541977 95.59194474152659 L 557.2027488983808 95.65947382830383 L 557.0395544275784 95.72626853865452 L 556.8748905611014 95.7923221931633 L 556.7087737651993 95.85762818651972 L 556.5412206514134 95.9221799881789 L 556.3722479749154 95.98597114301445 L 556.201872632832 96.04899527196406 L 556.0301116625554 96.11124607266736 L 555.8569822400398 96.17271732009613 L 555.6825016780829 96.23340286717686 L 555.5066874245956 96.29329664540542 L 555.3295570608567 96.3523926654539 L 555.151128299755 96.41068501776955 L 554.971418984018 96.4681678731657 L 554.7904470844273 96.5248354834047 L 554.6082306980222 96.58068218177279 L 554.4247880462896 96.63570238364663 L 554.2401374733415 96.6898905870519 L 554.0542974440815 96.74324137321344 L 553.8672865423578 96.79574940709705 L 553.6791234691044 96.84740943794313 L 553.4898270404722 96.89821629979161 L 553.299416185946 96.94816491199869 L 553.1079099464527 96.99725027974473 L 552.9153274724567 97.0454674945339 L 552.7216880220449 97.09281173468487 L 552.5270109590009 97.13927826581309 L 552.3313157508688 97.18486244130418 L 552.1346219670064 97.22955970277856 L 551.9369492766282 97.27336558054733 L 551.7383174468383 97.31627569405923 L 551.5387463406545 97.35828575233866 L 551.3382559150208 97.3993915544148 L 551.1368662188128 97.43958898974171 L 550.9345973908323 97.47887403860933 L 550.7314696577935 97.51724277254554 L 550.5275033323005 97.5546913547089 L 550.3227188108159 97.5912160402724 L 550.117136571621 97.62681317679792 L 549.9107771727687 97.6614792046015 L 549.7036612500267 97.69521065710921 L 549.4958095148147 97.72800416120393 L 549.2872427521331 97.75985643756258 L 549.0779818184843 97.79076430098405 L 548.8680476397873 97.82072466070777 L 548.6574612092851 97.84973452072273 L 548.446243585445 97.8777909800671 L 548.2344158898537 97.90489123311833 L 548.0219993051041 97.93103256987371 L 547.8090150726777 97.95621237622132 L 547.59548449082 97.98042813420153 L 547.3814289124116 98.0036774222587 L 547.1668697428318 98.02595791548345 L 546.9518284378188 98.04726738584496 L 546.7363265013238 98.06760370241399 L 546.520385483361 98.08696483157581 L 546.3040269778521 98.10534883723366 L 546.0872726204675 98.1227538810023 L 545.8701440864622 98.13917822239182 L 545.6526630885088 98.15462021898179 L 545.4348513745258 98.16907832658542 L 545.216730725503 98.182551099404 L 544.9983229533235 98.19503719017146 L 544.7796498985828 98.20653535028914 L 544.5607334284038 98.21704442995062 L 544.3415954342513 98.22656337825667 L 544.122257829742 98.23509124332041 L 543.9027425484537 98.24262717236243 L 543.6830715417315 98.24917041179611 L 543.463266776493 98.25472030730296 L 543.2433502330316 98.25927630389805 L 543.0233439028183 98.26283794598552 L 542.803269786303 98.26540487740414 L 542.5831498907137 98.26697684146288 L 542.3630062278565 98.26755368096666 L 542.1428608119146 98.26713533823201 L 541.9227356572458 98.26572185509286 L 541.7026527761823 98.26331337289633 L 541.4826341768286 98.25991013248867 L 541.2627018608615 98.25551247419104 L 541.0428778213293 98.25012083776562 L 540.8231840404527 98.24373576237157 L 540.6036424874267 98.2363578865111 L 540.3842751162236 98.22798794796564 L 540.1651038633979 98.21862678372209 L 539.9461506458922 98.20827532988906 L 539.7274373588456 98.1969346216033 L 539.5089858734046 98.18460579292622 L 539.290818034536 98.17129007673037 L 539.0729556588415 98.1569888045763 L 538.8554205323773 98.14170340657931 L 538.6382344084747 98.12543541126645 L 538.4214190055651 98.1081864454237 L 538.2049960050082 98.08995823393326 L 537.9889870489236 98.07075259960111 L 537.7734137380271 98.05057146297464 L 537.5582976294698 98.02941684215075 L 537.3436602346837 98.00729085257386 L 537.1295230172291 97.9841957068245 L 536.9159073906494 97.96013371439797 L 536.7028347163293 97.9351072814735 L 536.4903263013586 97.90911891067351 L 536.2784033964017 97.88217120081342 L 536.0670871935725 97.85426684664178 L 535.8563988243153 97.82540863857072 L 535.6463593572914 97.79559946239702 L 535.4369897962723 97.76484229901347 L 535.2283110780398 97.73314022411074 L 535.0203440702919 97.70049640786993 L 534.8131095695559 97.66691411464545 L 534.6066282991092 97.63239670263864 L 534.4009209069068 97.59694762356195 L 534.1960079635165 97.56057042229372 L 533.991909960062 97.52326873652379 L 533.7886473061734 97.48504629638963 L 533.5862403279467 97.44590692410341 L 533.3847092659112 97.40585453356975 L 533.184074273005 97.36489312999431 L 532.9843554125603 97.32302680948334 L 532.7855726562966 97.28025975863397 L 532.587745882324 97.23659625411567 L 532.390894873155 97.19204066224249 L 532.1950393137266 97.14659743853649 L 532.0001987894312 97.10027112728218 L 531.8063927841592 97.05306636107208 L 531.6136406783495 97.00498786034348 L 531.4219617470519 96.95604043290636 L 531.2313751580001 96.9062289734627 L 531.0418999696939 96.85555846311694 L 530.8535551294945 96.80403396887786 L 530.6663594717287 96.75166064315196 L 530.4803317158064 96.69844372322818 L 530.2954904643482 96.64438853075416 L 530.1118542013252 96.58950047120409 L 529.9294412902107 96.53378503333819 L 529.7482699721437 96.47724778865383 L 529.568358364105 96.41989439082836 L 529.3897244571058 96.36173057515376 L 529.2123861143875 96.30276215796312 L 529.0363610696369 96.24299503604902 L 528.8616669252117 96.18243518607389 L 528.6883211503807 96.1210886639722 L 528.516341079577 96.05896160434507 L 528.3457439106644 95.99606021984668 L 528.1765467032175 95.93239080056308 L 528.0087663768162 95.86795971338313 L 527.8424197093532 95.80277340136185 L 527.6775233353566 95.73683838307612 L 527.5140937443265 95.67016125197281 L 527.3521472790858 95.6027486757095 L 527.191700134146 95.53460739548763 L 527.0327683540879 95.46574422537843 L 526.8753678319571 95.39616605164152 L 526.7195143076747 95.32587983203629 L 526.5652233664631 95.25489259512614 L 526.4125104372879 95.1832114395756 L 526.2613907913149 95.1108435334405 L 526.1118795403826 95.03779611345114 L 525.9639916354915 94.96407648428864 L 525.817741865309 94.88969201785449 L 525.6731448546901 94.81465015253335 L 525.5302150632155 94.7389583924492 L 525.388966783745 94.662624306715 L 525.2494141409891 94.5856555286757 L 525.1115710900956 94.50805975514496 L 524.9754514152548 94.42984474563546 L 524.8410687283208 94.351018321583 L 524.7084364674502 94.27158836556427 L 524.5775678957586 94.19156282050868 L 524.4484760999942 94.11094968890407 L 524.3211739892289 94.02975703199641 L 524.1956742935677 93.94799296898373 L 524.0719895628755 93.8656656762042 L 523.9501321655225 93.78278338631848 L 523.8301142871469 93.69935438748651 L 523.7119479294363 93.61538702253864 L 523.5956449089281 93.53088968814139 L 523.4812168558275 93.44587083395777 L 523.3686752128443 93.36033896180237 L 523.2580312340492 93.27430262479113 L 523.1492959837477 93.18777042648605 L 523.0424803353744 93.10075102003485 L 522.9375949704049 93.01325310730566 L 522.8346503772885 92.92528543801683 L 522.7336568503987 92.836856808862 L 522.634624489004 92.74797606263037 L 522.5375631962579 92.65865208732252 L 522.4424826782089 92.56889381526153 L 522.3493924428295 92.47871022219982 L 522.2583017990657 92.38811032642154 L 522.1692198559061 92.29710318784076 L 522.0821555214706 92.20569790709551 L 521.9971175021202 92.11390362463769 L 521.9141143015859 92.02172951981903 L 521.8331542201186 91.92918480997322 L 521.7542453536589 91.83627874949414 L 521.6773955930278 91.74302062891039 L 521.6026126231374 91.64941977395632 L 521.5299039222222 91.55548554463944 L 521.4592767610917 91.46122733430438 L 521.3907382024033 91.36665456869365 L 521.3242950999557 91.27177670500497 L 521.2599540980037 91.17660323094567 L 521.197721630594 91.08114366378383 L 521.1376039209214 90.98540754939663 L 521.0796069807068 90.88940446131572 L 521.0237366095957 90.79314399976991 L 520.9699983945791 90.69663579072514 L 520.9183977094332 90.59988948492189 L 520.8689397141839 90.5029147569101 L 520.8216293545894 90.40572130408178 L 520.776471361646 90.30831884570122 L 520.7334702511158 90.21071712193307 L 520.6926303230737 90.1129258928684 L 520.6539556614786 90.01495493754861 L 520.6174501337642 89.91681405298758 L 520.5831173904533 89.81851305319199 L 520.5509608647913 89.72006176817992 L 520.5209837724038 89.6214700429978 L 520.4931891109755 89.52274773673601 L 520.4675796599491 89.42390472154288 L 520.4441579802485 89.32495088163759 L 520.4229264140221 89.22589611232166 L 520.4038870844087 89.12675031898948 L 520.3870418953255 89.02752341613775 L 520.3723925312775 88.92822532637408 L 520.3599404571886 88.82886597942469 L 520.3496869182561 88.72945531114148 L 520.3416329398252 88.63000326250842 L 520.3357793272872 88.53051977864753 L 520.3321266659983 88.43101480782425 L 520.3306753212216 88.3314983004528" stroke-miterlimit="10" stroke-width="2.5633703640000003" stroke-dasharray=""/></g><g><g/><text fill="black" stroke="none" font-family="sans-serif" font-size="11pt" font-style="normal" font-weight="normal" text-decoration="normal" x="486.9515772221679" y="114.44694742800002" text-anchor="start" dominant-baseline="alphabetic" xml:space="preserve">SubmissionStore</text></g></g><g><g><g><rect fill="white" stroke="none" x="44.117774900078096" y="149.127840588" width="246.48769082933595" height="19.602243960000003"/></g><text fill="black" stroke="none" font-family="sans-serif" font-size="11pt" font-style="normal" font-weight="normal" text-decoration="normal" x="46.379572280078094" y="162.698624868" text-anchor="start" dominant-baseline="alphabetic" xml:space="preserve">send a get submission status request</text></g><g><path fill="none" stroke="black" paint-order="fill stroke markers" d=" M 26.274706680078125 168.730084548 L 296.033779441414 168.730084548" stroke-miterlimit="10" stroke-width="1.2565541" stroke-dasharray=""/><g transform="translate(308.448533949414,168.730084548) translate(-308.448533949414,-168.730084548)"><path fill="black" stroke="none" paint-order="stroke fill markers" d=" M 295.882992949414 162.447314048 L 308.448533949414 168.730084548 L 295.882992949414 175.012855048 Z"/></g></g><g><g><rect fill="white" stroke="none" x="326.291602169414" y="191.348058348" width="198.21080484300782" height="19.602243960000003"/></g><text fill="black" stroke="none" font-family="sans-serif" font-size="11pt" font-style="normal" font-weight="normal" text-decoration="normal" x="328.553399549414" y="204.918842628" text-anchor="start" dominant-baseline="alphabetic" xml:space="preserve">retreive Submission object "s"</text></g><g><path fill="none" stroke="black" paint-order="fill stroke markers" d=" M 308.448533949414 210.950302308 L 529.9307207244218 210.950302308" stroke-miterlimit="10" stroke-width="1.2565541" stroke-dasharray=""/><g transform="translate(542.3454752324218,210.950302308) translate(-542.3454752324218,-210.950302308)"><path fill="black" stroke="none" paint-order="stroke fill markers" d=" M 529.7799342324217 204.667531808 L 542.3454752324218 210.950302308 L 529.7799342324217 217.233072808 Z"/></g></g><g><g><rect fill="white" stroke="none" x="108.0742720924609" y="233.568276108" width="118.57469644457031" height="19.602243960000003"/></g><text fill="black" stroke="none" font-family="sans-serif" font-size="11pt" font-style="normal" font-weight="normal" text-decoration="normal" x="110.3360694724609" y="247.139060388" text-anchor="start" dominant-baseline="alphabetic" xml:space="preserve">return s.response</text></g><g><path fill="none" stroke="black" paint-order="fill stroke markers" d=" M 308.448533949414 253.170520068 L 38.68946118807813 253.170520068" stroke-miterlimit="10" stroke-width="1.2565541" stroke-dasharray=""/><g transform="translate(26.274706680078125,253.170520068) translate(-26.274706680078125,-253.170520068)"><path fill="black" stroke="none" paint-order="stroke fill markers" d=" M 38.84024768007813 246.887749568 L 26.274706680078125 253.170520068 L 38.84024768007813 259.453290568 Z"/></g></g></g><g/><g/><g/></g></svg>