<svg version="1.1" xmlns="http://www.w3.org/2000/svg" viewBox="0 0 884.9797358699816 560" width="884.9797358699816" height="560">
  <!-- svg-source:excalidraw -->
  
  <defs>
    <style class="style-fonts">
      @font-face {
        font-family: "Virgil";
        src: url("https://excalidraw.com/Virgil.woff2");
      }
      @font-face {
        font-family: "Cascadia";
        src: url("https://excalidraw.com/Cascadia.woff2");
      }
    </style>
    
  </defs>
  <rect x="0" y="0" width="884.9797358699816" height="560" fill="#ffffff"></rect><g stroke-linecap="round" transform="translate(109.58389236412222 10) rotate(0 150 50)"><path d="M25 0 M25 0 C76.15 -0.41, 127.78 2.34, 275 0 M25 0 C108.99 0.09, 194.67 -0.07, 275 0 M275 0 C290.13 -1.42, 299.95 8.03, 300 25 M275 0 C289.9 -2.18, 301.09 9.51, 300 25 M300 25 C300.31 33.55, 301.1 46.84, 300 75 M300 25 C300.18 43.07, 299.09 61.92, 300 75 M300 75 C300.44 89.89, 290.52 100.76, 275 100 M300 75 C300.38 92.65, 293.86 101.97, 275 100 M275 100 C183.49 98.94, 91.11 99.81, 25 100 M275 100 C211.05 100.99, 148.64 101.39, 25 100 M25 100 C7.77 98.03, 0.91 92.37, 0 75 M25 100 C6.83 98.5, 1.77 91.16, 0 75 M0 75 C-1.2 59.53, 0.88 46.07, 0 25 M0 75 C-0.1 58.87, -0.2 45.51, 0 25 M0 25 C-0.9 7.91, 6.69 -1.91, 25 0 M0 25 C0.26 7.52, 6.96 -0.62, 25 0" stroke="#1e1e1e" stroke-width="1" fill="none"></path></g><g transform="translate(149.33389236412222 47.5) rotate(0 110.25 12.5)"><text x="110.25" y="0" font-family="Virgil, Segoe UI Emoji" font-size="20px" fill="#1e1e1e" text-anchor="middle" style="white-space: pre;" direction="ltr" dominant-baseline="text-before-edge">Form the abstractions</text></g><g stroke-linecap="round" transform="translate(109.58389236412222 150) rotate(0 150 50)"><path d="M25 0 M25 0 C97.63 0.95, 169.12 2.06, 275 0 M25 0 C115.22 2.64, 204.96 1.7, 275 0 M275 0 C290.02 -1.91, 300.23 7.63, 300 25 M275 0 C290.3 -0.62, 298.43 9.04, 300 25 M300 25 C299.62 41.29, 300.28 61.66, 300 75 M300 25 C299.14 36.84, 299.87 48.02, 300 75 M300 75 C301.37 90.33, 289.84 98.9, 275 100 M300 75 C299.91 92.01, 290.51 98.98, 275 100 M275 100 C179.75 99.01, 84.03 97.18, 25 100 M275 100 C202.24 98.41, 131.25 98.23, 25 100 M25 100 C9.34 98.52, -0.71 93.15, 0 75 M25 100 C9.7 97.75, 0.65 90.57, 0 75 M0 75 C-1.59 64.46, 0.6 53.25, 0 25 M0 75 C1.15 54.25, 0.46 35.33, 0 25 M0 25 C0.04 7.54, 6.99 1.82, 25 0 M0 25 C-0.12 9.3, 9.15 -2.21, 25 0" stroke="#1e1e1e" stroke-width="1" fill="none"></path></g><g transform="translate(141.81305648765738 187.5) rotate(0 117.77083587646484 12.5)"><text x="117.77083587646484" y="0" font-family="Virgil, Segoe UI Emoji" font-size="20px" fill="#1e1e1e" text-anchor="middle" style="white-space: pre;" direction="ltr" dominant-baseline="text-before-edge">Refine the abstractions</text></g><g stroke-linecap="round" transform="translate(109.58389236412222 310) rotate(0 150 50)"><path d="M25 0 M25 0 C98.82 2.2, 171.98 0.75, 275 0 M25 0 C120.15 -0.49, 215.51 -0.32, 275 0 M275 0 C289.84 -1.1, 299.93 8.63, 300 25 M275 0 C290.51 -1.02, 301.91 10.46, 300 25 M300 25 C300.97 35.02, 299.93 49.16, 300 75 M300 25 C299.89 36.49, 300.05 48.9, 300 75 M300 75 C299.29 93.15, 292.86 98.04, 275 100 M300 75 C300.65 90.57, 289.43 98.54, 275 100 M275 100 C204.07 98.36, 134.28 98.36, 25 100 M275 100 C191.13 98.46, 107.15 97.99, 25 100 M25 100 C6.99 101.82, -0.1 92.51, 0 75 M25 100 C9.15 97.79, 1.97 91.49, 0 75 M0 75 C1.06 53.54, -1.8 35.1, 0 25 M0 75 C1.06 54.99, 0.38 34.55, 0 25 M0 25 C-1.4 9.01, 9.51 0.2, 25 0 M0 25 C1.45 6.69, 9.53 -1.63, 25 0" stroke="#1e1e1e" stroke-width="1" fill="none"></path></g><g transform="translate(157.69847824058706 347.5) rotate(0 101.88541412353516 12.5)"><text x="101.88541412353516" y="0" font-family="Virgil, Segoe UI Emoji" font-size="20px" fill="#1e1e1e" text-anchor="middle" style="white-space: pre;" direction="ltr" dominant-baseline="text-before-edge">Fix the abstractions</text></g><g stroke-linecap="round" transform="translate(109.58389236412222 450) rotate(0 150 50)"><path d="M25 0 M25 0 C90.13 0.37, 157.54 1.18, 275 0 M25 0 C98.33 -0.22, 171.84 -0.53, 275 0 M275 0 C291.95 1.38, 299.52 7.23, 300 25 M275 0 C293.87 1.66, 298.79 7.95, 300 25 M300 25 C299.88 42.38, 298.64 59.73, 300 75 M300 25 C300.31 44.58, 300.43 63.16, 300 75 M300 75 C301.02 90.48, 292.93 100.88, 275 100 M300 75 C300.43 91.54, 289.72 97.78, 275 100 M275 100 C215.62 100.71, 154.36 100.52, 25 100 M275 100 C223.07 99.39, 169.17 100.09, 25 100 M25 100 C8.04 100.98, 0.15 93.35, 0 75 M25 100 C8.92 100.7, -1.36 91.6, 0 75 M0 75 C1.34 55.09, -0.73 34.84, 0 25 M0 75 C-0.97 61.22, -1.1 45.33, 0 25 M0 25 C0.51 8.06, 8.64 0.78, 25 0 M0 25 C0.28 6.97, 6.14 0.43, 25 0" stroke="#1e1e1e" stroke-width="1" fill="none"></path></g><g transform="translate(137.41722824058706 487.5) rotate(0 122.16666412353516 12.5)"><text x="122.16666412353516" y="0" font-family="Virgil, Segoe UI Emoji" font-size="20px" fill="#1e1e1e" text-anchor="middle" style="white-space: pre;" direction="ltr" dominant-baseline="text-before-edge">Extend the abstractions</text></g><g stroke-linecap="round"><g transform="translate(409.5838923641222 70) rotate(0 49.53547808006408 0.4886578803369872)"><path d="M-0.76 0.75 C15.75 0.62, 82.86 -0.1, 99.83 -0.22 M1.04 0.09 C17.31 0.11, 82.16 0.99, 98.79 1.2" stroke="#e03131" stroke-width="1" fill="none"></path></g></g><mask></mask><g stroke-linecap="round"><g transform="translate(409.5838923641222 370) rotate(0 50.545626842747424 0.45279703576417774)"><path d="M-0.4 -0.67 C16.15 -0.83, 82.41 -0.24, 99.2 -0.15 M1.59 1.6 C18.53 1.55, 85.13 1.39, 101.49 1.31" stroke="#e03131" stroke-width="1" fill="none"></path></g></g><mask></mask><g stroke-linecap="round"><g transform="translate(409.5838923641222 510) rotate(0 49.70097987673711 -0.2867653917477355)"><path d="M-0.06 0.77 C16.95 0.75, 84.09 0.76, 100.95 0.51 M-1.55 0.13 C15.49 -0.31, 83.43 -1.36, 100.5 -1.34" stroke="#e03131" stroke-width="1" fill="none"></path></g></g><mask></mask><g stroke-linecap="round"><g transform="translate(509.5838923641222 70) rotate(0 -0.0830955965668636 219.77312457486985)"><path d="M0.34 -0.96 C0.41 72.48, 0.67 366.87, 0.78 440.51 M-0.94 1.14 C-1 74.24, -0.05 365.69, 0.24 438.66" stroke="#e03131" stroke-width="1" fill="none"></path></g></g><mask></mask><g stroke-linecap="round"><g transform="translate(509.5838923641222 270) rotate(0 49.40091059133408 0.11968686745035484)"><path d="M-0.85 0.62 C15.83 0.51, 82.87 -0.3, 99.65 -0.51 M0.9 -0.09 C17.52 -0.07, 82.61 0.69, 99.05 0.75" stroke="#e03131" stroke-width="1" fill="none"></path></g><g transform="translate(509.5838923641222 270) rotate(0 49.40091059133408 0.11968686745035484)"><path d="M71.81 11.87 C77.39 9.75, 84.6 6.52, 97.63 -0.6 M71.17 11.56 C81.52 7.57, 91.44 3.55, 99.26 0.06" stroke="#e03131" stroke-width="1" fill="none"></path></g><g transform="translate(509.5838923641222 270) rotate(0 49.40091059133408 0.11968686745035484)"><path d="M71.98 -8.65 C77.55 -5.33, 84.71 -3.13, 97.63 -0.6 M71.33 -8.96 C81.57 -5.23, 91.43 -1.53, 99.26 0.06" stroke="#e03131" stroke-width="1" fill="none"></path></g></g><mask></mask><g transform="translate(609.5838923641222 250) rotate(0 93.71875 12.5)"><text x="0" y="0" font-family="Virgil, Segoe UI Emoji" font-size="20px" fill="#e03131" text-anchor="start" style="white-space: pre;" direction="ltr" dominant-baseline="text-before-edge">Analysis and design</text></g><g stroke-linecap="round"><g transform="translate(409.5838923641222 210) rotate(0 99.88931437449065 -0.5111057324652108)"><path d="M0.59 0.74 C33.79 0.85, 167.11 0.45, 200.34 0.22 M-0.57 0.08 C32.41 -0.15, 166.29 -1.83, 199.58 -1.78" stroke="#1971c2" stroke-width="1" fill="none"></path></g><g transform="translate(409.5838923641222 210) rotate(0 99.88931437449065 -0.5111057324652108)"><path d="M172.69 9.24 C182.99 4.33, 192.68 0.74, 200.81 -1.4 M170.86 7.81 C181.74 5.36, 190.99 1.72, 200.4 -1.12" stroke="#1971c2" stroke-width="1" fill="none"></path></g><g transform="translate(409.5838923641222 210) rotate(0 99.88931437449065 -0.5111057324652108)"><path d="M172.55 -11.28 C182.83 -8.07, 192.58 -3.55, 200.81 -1.4 M170.72 -12.72 C181.78 -8.09, 191.08 -4.65, 200.4 -1.12" stroke="#1971c2" stroke-width="1" fill="none"></path></g></g><mask></mask><g transform="translate(609.5838923641222 190) rotate(0 132.6979217529297 12.5)"><text x="0" y="0" font-family="Virgil, Segoe UI Emoji" font-size="20px" fill="#1971c2" text-anchor="start" style="white-space: pre;" direction="ltr" dominant-baseline="text-before-edge">Implementation and testing</text></g><g stroke-linecap="round"><g transform="translate(269.5838923641222 110) rotate(0 -0.5967732070452314 20.304040011474868)"><path d="M0.42 0.74 C0.47 7.46, -0.52 32.68, -0.4 39.34 M-0.81 0.08 C-0.9 7.04, -1.86 34.1, -1.56 40.52" stroke="#1e1e1e" stroke-width="1" fill="none"></path></g><g transform="translate(269.5838923641222 110) rotate(0 -0.5967732070452314 20.304040011474868)"><path d="M-7.14 21.05 C-7.99 28.19, -4.13 30.89, -3.53 41.59 M-8.25 22.15 C-7.56 26, -4.08 31.79, -1.68 40.18" stroke="#1e1e1e" stroke-width="1" fill="none"></path></g><g transform="translate(269.5838923641222 110) rotate(0 -0.5967732070452314 20.304040011474868)"><path d="M6.54 21.07 C2.37 28.25, 2.9 30.95, -3.53 41.59 M5.43 22.16 C2.72 25.93, 2.79 31.72, -1.68 40.18" stroke="#1e1e1e" stroke-width="1" fill="none"></path></g></g><mask></mask><g stroke-linecap="round"><g transform="translate(269.5838923641222 250) rotate(0 0.2322988858285271 29.611091275932267)"><path d="M-0.69 0.16 C-0.51 10.05, 0.48 48.85, 0.51 59.01 M1.15 -0.81 C1.27 9.23, 0.28 49.99, -0.17 60.03" stroke="#1e1e1e" stroke-width="1" fill="none"></path></g><g transform="translate(269.5838923641222 250) rotate(0 0.2322988858285271 29.611091275932267)"><path d="M-9.25 32.37 C-8.91 37.79, -3.03 47.09, -0.41 59.34 M-10.21 31.43 C-6.37 40.11, -3.83 49.93, -0.66 60.34" stroke="#1e1e1e" stroke-width="1" fill="none"></path></g><g transform="translate(269.5838923641222 250) rotate(0 0.2322988858285271 29.611091275932267)"><path d="M11.26 33.03 C6.49 38.17, 7.27 47.31, -0.41 59.34 M10.3 32.09 C7.22 40.66, 2.85 50.26, -0.66 60.34" stroke="#1e1e1e" stroke-width="1" fill="none"></path></g></g><mask></mask><g stroke-linecap="round"><g transform="translate(269.5838923641222 410) rotate(0 -0.05057407688428839 19.870313323289167)"><path d="M-0.92 -0.59 C-0.67 6.25, 0.18 33.37, 0.37 40.33 M0.79 1.71 C1.03 8.24, -0.17 32.09, -0.38 38.38" stroke="#1e1e1e" stroke-width="1" fill="none"></path></g><g transform="translate(269.5838923641222 410) rotate(0 -0.05057407688428839 19.870313323289167)"><path d="M-7.43 19.95 C-4.78 23.59, -2.13 28.23, -1.42 39.87 M-7.37 19.75 C-4.63 24.2, -4.12 28.34, -0.2 37.86" stroke="#1e1e1e" stroke-width="1" fill="none"></path></g><g transform="translate(269.5838923641222 410) rotate(0 -0.05057407688428839 19.870313323289167)"><path d="M6.24 20.51 C6.13 23.93, 6.02 28.46, -1.42 39.87 M6.3 20.31 C5.62 24.62, 2.72 28.62, -0.2 37.86" stroke="#1e1e1e" stroke-width="1" fill="none"></path></g></g><mask></mask><g stroke-linecap="round"><g transform="translate(109.58389236412222 530) rotate(0 -49.174380449970386 -160.90601200896234)"><path d="M-0.63 0.44 C-17.05 -36.44, -99.03 -167.66, -99.11 -221.09 C-99.19 -274.53, -17.75 -303.4, -1.11 -320.18 M1.24 -0.37 C-15.21 -37.16, -99.58 -166.48, -99.58 -220.13 C-99.59 -273.78, -15.63 -305.41, 1.19 -322.26" stroke="#1e1e1e" stroke-width="1" fill="none"></path></g><g transform="translate(109.58389236412222 530) rotate(0 -49.174380449970386 -160.90601200896234)"><path d="M-15.9 -296.64 C-14.07 -305.89, -6.98 -308.81, -0.56 -323.78 M-16.99 -298.97 C-11.07 -306.02, -5.27 -314.42, 0.29 -321.49" stroke="#1e1e1e" stroke-width="1" fill="none"></path></g><g transform="translate(109.58389236412222 530) rotate(0 -49.174380449970386 -160.90601200896234)"><path d="M-27.23 -313.74 C-22.55 -318.68, -12.64 -317.35, -0.56 -323.78 M-28.33 -316.07 C-18.61 -317.29, -8.99 -319.92, 0.29 -321.49" stroke="#1e1e1e" stroke-width="1" fill="none"></path></g></g><mask></mask></svg>