<svg version="1.1" xmlns="http://www.w3.org/2000/svg" viewBox="0 0 510.47496197679334 441.5723997969453" width="510.47496197679334" height="441.5723997969453">
  <!-- svg-source:excalidraw -->
  
  <defs>
    <style class="style-fonts">
      @font-face {
        font-family: "Virgil";
        src: url("https://excalidraw.com/Virgil.woff2");
      }
      @font-face {
        font-family: "Cascadia";
        src: url("https://excalidraw.com/Cascadia.woff2");
      }
      @font-face {
        font-family: "Assistant";
        src: url("https://excalidraw.com/Assistant-Regular.woff2");
      }
    </style>
    
  </defs>
  <rect x="0" y="0" width="510.47496197679334" height="441.5723997969453" fill="#ffffff"></rect><g stroke-linecap="round"><g transform="translate(59.26360771643681 212.68959356874075) rotate(0 68.48153909924599 48.74077647362401)"><path d="M0.91 -0.81 C23.7 15.45, 114.05 80.51, 136.56 96.95 M-0.07 1.37 C22.55 17.85, 112.33 82.49, 135.4 98.2" stroke="#1e1e1e" stroke-width="2" fill="none"></path></g><g transform="translate(59.26360771643681 212.68959356874075) rotate(0 68.48153909924599 48.74077647362401)"><path d="M111.26 91.68 C116.73 92.67, 124.05 93.54, 135.4 98.2 M111.26 91.68 C118.44 94.16, 126.79 95.83, 135.4 98.2" stroke="#1e1e1e" stroke-width="2" fill="none"></path></g><g transform="translate(59.26360771643681 212.68959356874075) rotate(0 68.48153909924599 48.74077647362401)"><path d="M121.1 77.69 C123.7 82.74, 128.22 87.57, 135.4 98.2 M121.1 77.69 C125.18 84.83, 130.3 91.1, 135.4 98.2" stroke="#1e1e1e" stroke-width="2" fill="none"></path></g></g><mask></mask><g stroke-linecap="round" transform="translate(182.39014511159257 305.82064462564495) rotate(0 97.61370602974137 46.70790687598924)"><path d="M89.16 0.13 C102.36 -1.15, 118.06 1.48, 131.28 3.8 C144.49 6.13, 158.69 9.32, 168.46 14.08 C178.24 18.85, 185.64 25.78, 189.92 32.4 C194.2 39.02, 195.88 47.04, 194.13 53.81 C192.38 60.58, 187.14 67.56, 179.41 73 C171.68 78.44, 160 83.2, 147.75 86.43 C135.5 89.66, 119.89 91.65, 105.92 92.39 C91.95 93.14, 77.06 93.1, 63.92 90.91 C50.77 88.72, 37.05 84.22, 27.04 79.28 C17.03 74.34, 8.28 67.82, 3.87 61.29 C-0.55 54.75, -1.4 46.83, 0.56 40.07 C2.51 33.31, 7.8 26.27, 15.62 20.74 C23.44 15.21, 33.19 10.18, 47.47 6.86 C61.76 3.55, 90.42 1.64, 101.31 0.87 C112.21 0.09, 112.78 1.67, 112.82 2.2 M143.06 5.2 C155.2 7.64, 167.14 13.48, 175.43 18.86 C183.73 24.23, 189.94 30.9, 192.85 37.45 C195.76 44, 196.42 51.28, 192.9 58.16 C189.37 65.03, 181.38 73.61, 171.71 78.69 C162.05 83.76, 148.07 86.12, 134.88 88.63 C121.7 91.13, 106.54 93.68, 92.59 93.7 C78.64 93.72, 63.36 91.8, 51.18 88.76 C39.01 85.73, 28.01 81, 19.52 75.49 C11.03 69.97, 3.08 62.71, 0.24 55.67 C-2.6 48.63, -1.68 39.85, 2.48 33.23 C6.64 26.62, 15.74 21.13, 25.18 15.99 C34.61 10.85, 46.36 4.83, 59.1 2.37 C71.85 -0.08, 87.31 0.49, 101.66 1.26 C116.01 2.03, 138.13 6.05, 145.21 6.99 C152.3 7.93, 145.34 6.27, 144.18 6.9" stroke="#1e1e1e" stroke-width="4" fill="none"></path></g><g stroke-linecap="round" transform="translate(124.09752067848831 71.67544454138579) rotate(0 188.18872064915251 179.94847762777977)"><path d="M0 0 C100.33 -0.08, 199.59 0.27, 376.38 0 M0 0 C137 -0.88, 273.41 -1.31, 376.38 0 M376.38 0 C378.4 83.2, 378.58 168.55, 376.38 359.9 M376.38 0 C377.99 141.97, 379.05 284.34, 376.38 359.9 M376.38 359.9 C296.32 360.49, 216.9 358.43, 0 359.9 M376.38 359.9 C275.02 360.77, 173 360.24, 0 359.9 M0 359.9 C-0.91 217.84, -0.77 76.26, 0 0 M0 359.9 C-1.28 255.79, -2.15 151.66, 0 0" stroke="#1e1e1e" stroke-width="4" fill="none"></path></g><g stroke-linecap="round" transform="translate(28.53549975720057 169.6360327807979) rotate(0 16.985872196381365 19.621610985474945)"><path d="M15.17 0.35 C18.66 -0.29, 23.55 1.24, 26.57 3.56 C29.58 5.89, 32.21 10.36, 33.26 14.3 C34.31 18.23, 34.37 23.45, 32.89 27.19 C31.41 30.93, 27.69 34.73, 24.39 36.73 C21.09 38.74, 16.53 40.12, 13.08 39.2 C9.63 38.29, 5.85 34.75, 3.69 31.27 C1.53 27.78, -0.11 22.47, 0.12 18.31 C0.34 14.16, 2.58 9.38, 5.05 6.35 C7.53 3.31, 13.09 1.11, 14.94 0.09 C16.8 -0.92, 16.1 0.02, 16.18 0.28 M16.4 -0.53 C19.69 -0.8, 24.38 1.64, 27.14 4.25 C29.89 6.85, 32.13 11.1, 32.93 15.09 C33.73 19.09, 33.63 24.51, 31.93 28.22 C30.24 31.93, 26.02 35.64, 22.76 37.35 C19.49 39.07, 15.8 39.71, 12.36 38.51 C8.92 37.32, 4.27 33.8, 2.14 30.16 C0.02 26.53, -1.01 20.92, -0.39 16.68 C0.23 12.44, 3.16 7.37, 5.85 4.7 C8.55 2.03, 13.88 1.26, 15.77 0.65 C17.65 0.04, 16.97 0.9, 17.15 1.04" stroke="#1e1e1e" stroke-width="2" fill="none"></path></g><g stroke-linecap="round"><g transform="translate(45.65412487320623 209.85085420882024) rotate(0 0.6998842917746515 25.75574193731063)"><path d="M-0.57 -0.52 C-0.3 8.24, 0.56 43.2, 0.97 51.98 M1.33 1.82 C1.46 10.27, -0.21 42.04, -0.2 50.11" stroke="#1e1e1e" stroke-width="2" fill="none"></path></g></g><mask></mask><g stroke-linecap="round"><g transform="translate(45.934078589916226 223.00867889418578) rotate(0 17.497107294368675 12.737894110300203)"><path d="M-0.43 0.47 C5.58 4.92, 29.45 21.98, 35.49 26.16 M1.55 -0.33 C7.49 3.82, 29.14 19.86, 34.81 24.39" stroke="#1e1e1e" stroke-width="2" fill="none"></path></g></g><mask></mask><g stroke-linecap="round"><g transform="translate(46.49398602333599 262.20219923357126) rotate(0 21.556436186662154 17.21715357765879)"><path d="M0.5 0.68 C7.9 6.35, 36.74 28.72, 43.98 34.46 M-0.7 -0.01 C6.66 5.82, 36.1 30.49, 43.49 36.02" stroke="#1e1e1e" stroke-width="2" fill="none"></path></g></g><mask></mask><g stroke-linecap="round"><g transform="translate(45.934078589916 223.00867889418578) rotate(0 -14.277639552204732 15.817384994109261)"><path d="M0.87 0.03 C-3.83 5.31, -22.75 27.17, -27.72 32.34 M-0.13 -1 C-4.97 3.87, -23.27 25.08, -28.23 30.59" stroke="#1e1e1e" stroke-width="2" fill="none"></path></g></g><mask></mask><g stroke-linecap="round"><g transform="translate(44.8620050145164 261.034643075292) rotate(0 -16.65724614423891 15.117500702334382)"><path d="M0.83 0.7 C-4.93 5.64, -27.86 24.72, -33.71 29.63 M-0.19 0.03 C-6.22 5.11, -29.58 25.61, -34.86 30.85" stroke="#1e1e1e" stroke-width="2" fill="none"></path></g></g><mask></mask><g transform="translate(30.503798839333285 151.8500553185927) rotate(0 14.687461853027344 6.789489683091006)"><text x="0" y="0" font-family="Virgil, Segoe UI Emoji" font-size="10.86318349294558px" fill="#1e1e1e" text-anchor="start" style="white-space: pre;" direction="ltr" dominant-baseline="text-before-edge">Client</text></g><g transform="translate(232.02220560918613 327.5010738145925) rotate(0 47.95833206176758 25)"><text x="47.95833206176758" y="0" font-family="Virgil, Segoe UI Emoji" font-size="20px" fill="#1e1e1e" text-anchor="middle" style="white-space: pre;" direction="ltr" dominant-baseline="text-before-edge">Create </text><text x="47.95833206176758" y="25" font-family="Virgil, Segoe UI Emoji" font-size="20px" fill="#1e1e1e" text-anchor="middle" style="white-space: pre;" direction="ltr" dominant-baseline="text-before-edge">submission</text></g><g transform="translate(221.67027545859673 10) rotate(0 78.5034408569336 21.805864348487603)"><text x="78.5034408569336" y="0" font-family="Virgil, Segoe UI Emoji" font-size="34.889382957580125px" fill="#1e1e1e" text-anchor="middle" style="white-space: pre;" direction="ltr" dominant-baseline="text-before-edge">Envicutor</text></g><g stroke-linecap="round" transform="translate(257.0625516415405 102.69809225238623) rotate(0 116.98870602974137 64.875)"><path d="M123.24 -0.76 C137.48 -1.47, 154.18 1.54, 167.5 5.38 C180.82 9.23, 193.35 16.09, 203.14 22.31 C212.93 28.53, 221.21 35.22, 226.23 42.72 C231.25 50.22, 233.74 59, 233.24 67.33 C232.75 75.65, 229.5 85.05, 223.27 92.66 C217.04 100.27, 207 107.41, 195.88 112.99 C184.75 118.58, 170.57 123.43, 156.52 126.17 C142.48 128.92, 126.49 129.98, 111.62 129.47 C96.75 128.96, 80.9 126.73, 67.32 123.12 C53.73 119.5, 40.08 114.02, 30.12 107.78 C20.17 101.53, 12.76 93.37, 7.6 85.66 C2.44 77.95, -1.45 69.56, -0.83 61.52 C-0.22 53.48, 4.64 44.76, 11.27 37.44 C17.89 30.11, 27.85 23.33, 38.9 17.57 C49.94 11.81, 60.94 5.65, 77.55 2.89 C94.15 0.12, 126.24 0.75, 138.51 0.98 C150.79 1.21, 151.54 3.31, 151.21 4.28 M169.66 6.69 C183.28 9.61, 195.77 17.27, 205.47 23.71 C215.18 30.15, 223.03 37.4, 227.91 45.35 C232.79 53.29, 235.7 63.14, 234.77 71.4 C233.84 79.67, 229.22 87.77, 222.34 94.94 C215.46 102.1, 204.99 108.94, 193.49 114.4 C182 119.86, 167.66 125.22, 153.35 127.7 C139.04 130.17, 122.57 130.24, 107.62 129.23 C92.66 128.23, 76.85 125.46, 63.62 121.69 C50.38 117.92, 37.86 112.92, 28.21 106.62 C18.57 100.32, 10.59 91.69, 5.76 83.87 C0.93 76.05, -1.75 67.53, -0.76 59.69 C0.24 51.84, 4.56 44.02, 11.72 36.78 C18.87 29.54, 30.5 21.96, 42.17 16.26 C53.84 10.56, 67.88 5.35, 81.76 2.58 C95.64 -0.18, 110.93 -1.08, 125.45 -0.33 C139.97 0.42, 161.71 5.68, 168.9 7.08 C176.08 8.48, 169.07 7.12, 168.55 8.05" stroke="#1e1e1e" stroke-width="4" fill="none"></path></g><g transform="translate(296.84784614060754 130.19953982290917) rotate(0 76.97990417480469 37.5)"><text x="76.97990417480469" y="0" font-family="Virgil, Segoe UI Emoji" font-size="20px" fill="#1e1e1e" text-anchor="middle" style="white-space: pre;" direction="ltr" dominant-baseline="text-before-edge">Get submission </text><text x="76.97990417480469" y="25" font-family="Virgil, Segoe UI Emoji" font-size="20px" fill="#1e1e1e" text-anchor="middle" style="white-space: pre;" direction="ltr" dominant-baseline="text-before-edge">status and </text><text x="76.97990417480469" y="50" font-family="Virgil, Segoe UI Emoji" font-size="20px" fill="#1e1e1e" text-anchor="middle" style="white-space: pre;" direction="ltr" dominant-baseline="text-before-edge">result</text></g><g stroke-linecap="round"><g transform="translate(68.96246618036844 185.5264306746194) rotate(0 90.40257809722425 2.302155981943997)"><path d="M-0.48 -0.53 C29.49 -0.04, 150.16 2.89, 180.38 3.68 M1.47 1.81 C31.2 2.35, 149.44 4.14, 179.21 4.74" stroke="#1e1e1e" stroke-width="2" fill="none"></path></g><g transform="translate(68.96246618036844 185.5264306746194) rotate(0 90.40257809722425 2.302155981943997)"><path d="M155.57 12.88 C162.82 9.45, 170.35 7.37, 179.21 4.74 M155.57 12.88 C161.87 11.28, 168.15 9.21, 179.21 4.74" stroke="#1e1e1e" stroke-width="2" fill="none"></path></g><g transform="translate(68.96246618036844 185.5264306746194) rotate(0 90.40257809722425 2.302155981943997)"><path d="M155.87 -4.22 C163.13 -1.73, 170.55 2.11, 179.21 4.74 M155.87 -4.22 C162.07 -1.19, 168.27 1.37, 179.21 4.74" stroke="#1e1e1e" stroke-width="2" fill="none"></path></g></g><mask></mask><g mask="url(#mask-zXu1nEa6Fi9bZvOsFZQb3)" stroke-linecap="round"><g transform="translate(331.000801162736 304.76382058536274) rotate(0 4.917770537049023 -34.59416959430382)"><path d="M0 0 C1.64 -11.53, 8.2 -57.66, 9.84 -69.19" stroke="#1e1e1e" stroke-width="2.5" fill="none" stroke-dasharray="8 10"></path></g><g transform="translate(331.000801162736 304.76382058536274) rotate(0 4.917770537049023 -34.59416959430382)"><path d="M14.99 -44.73 C13.45 -52.05, 11.9 -59.38, 9.84 -69.19" stroke="#1e1e1e" stroke-width="2.5" fill="none"></path></g><g transform="translate(331.000801162736 304.76382058536274) rotate(0 4.917770537049023 -34.59416959430382)"><path d="M-1.94 -47.13 C1.59 -53.74, 5.11 -60.34, 9.84 -69.19" stroke="#1e1e1e" stroke-width="2.5" fill="none"></path></g></g><mask id="mask-zXu1nEa6Fi9bZvOsFZQb3"><rect x="0" y="0" fill="#fff" width="440.83634223683407" height="473.9521597739704"></rect><rect x="277.3386232744922" y="257.6696509910589" fill="#000" width="117.15989685058594" height="25" opacity="1"></rect></mask><g transform="translate(277.3386232744922 257.6696509910589) rotate(0 58.579948425292855 12.5)"><text x="58.57994842529297" y="0" font-family="Virgil, Segoe UI Emoji" font-size="20px" fill="#1e1e1e" text-anchor="middle" style="white-space: pre;" direction="ltr" dominant-baseline="text-before-edge">&lt;&lt;includes&gt;&gt;</text></g></svg>