<svg version="1.1" xmlns="http://www.w3.org/2000/svg" viewBox="0 0 1481.6183646674795 945.8725239341857" width="1481.6183646674795" height="945.8725239341857">
  <!-- svg-source:excalidraw -->
  
  <defs>
    <style class="style-fonts">
      @font-face {
        font-family: "Virgil";
        src: url("https://excalidraw.com/Virgil.woff2");
      }
      @font-face {
        font-family: "Cascadia";
        src: url("https://excalidraw.com/Cascadia.woff2");
      }
      @font-face {
        font-family: "Assistant";
        src: url("https://excalidraw.com/Assistant-Regular.woff2");
      }
    </style>
    
  </defs>
  <rect x="0" y="0" width="1481.6183646674795" height="945.8725239341857" fill="#ffffff"></rect><g stroke-linecap="round"><g transform="translate(100.01939447570294 404.2789882955776) rotate(0 123.59076501989148 51.02824867547133)"><path d="M0.91 -0.81 C42.07 16.21, 205.9 84.32, 246.78 101.52 M-0.07 1.37 C40.92 18.62, 204.18 86.3, 245.61 102.78" stroke="#1e1e1e" stroke-width="2" fill="none"></path></g><g transform="translate(100.01939447570294 404.2789882955776) rotate(0 123.59076501989148 51.02824867547133)"><path d="M220.63 101.83 C226.37 101.23, 233.94 100.51, 245.61 102.78 M220.63 101.83 C228.03 102.47, 236.66 102.31, 245.61 102.78" stroke="#1e1e1e" stroke-width="2" fill="none"></path></g><g transform="translate(100.01939447570294 404.2789882955776) rotate(0 123.59076501989148 51.02824867547133)"><path d="M227.08 85.99 C230.9 89.95, 236.64 93.73, 245.61 102.78 M227.08 85.99 C232.52 91.88, 239.03 96.92, 245.61 102.78" stroke="#1e1e1e" stroke-width="2" fill="none"></path></g></g><mask></mask><g stroke-linecap="round" transform="translate(415.2321303943788 751.7519251588492) rotate(0 108.03259824643362 49.38486797156884)"><path d="M102.97 -0.7 C116.92 -1.62, 132.92 1.32, 146.56 3.83 C160.21 6.35, 174.6 9.85, 184.86 14.38 C195.11 18.91, 202.85 24.69, 208.09 31.01 C213.33 37.34, 217.05 45.67, 216.3 52.34 C215.55 59, 210.16 65.01, 203.58 70.99 C196.99 76.97, 187.93 83.81, 176.81 88.23 C165.7 92.64, 151.3 95.72, 136.9 97.47 C122.5 99.23, 104.9 100.01, 90.4 98.76 C75.89 97.51, 62.09 93.63, 49.87 89.99 C37.65 86.35, 25.18 82.27, 17.08 76.93 C8.99 71.6, 3.67 64.52, 1.29 57.97 C-1.1 51.42, -1 44.13, 2.78 37.63 C6.56 31.14, 14.78 24.43, 23.98 19 C33.18 13.57, 43.32 8.38, 57.99 5.06 C72.66 1.73, 101.58 -0.17, 112 -0.94 C122.42 -1.72, 120.8 -0.63, 120.51 0.39 M152.87 3.86 C166.53 5.7, 180.23 10.87, 190.14 16.11 C200.05 21.36, 208.33 28.79, 212.31 35.34 C216.28 41.88, 215.97 48.63, 213.99 55.41 C212.01 62.18, 207.84 70.15, 200.41 75.99 C192.99 81.82, 181.58 86.56, 169.45 90.4 C157.33 94.24, 142.02 97.93, 127.67 99.04 C113.31 100.16, 97.34 99.01, 83.34 97.12 C69.35 95.22, 55.34 91.37, 43.7 87.66 C32.07 83.95, 20.58 80.7, 13.53 74.85 C6.48 68.99, 2.52 59.5, 1.38 52.54 C0.24 45.58, 1.96 39.41, 6.69 33.08 C11.42 26.75, 19.89 19.5, 29.77 14.56 C39.65 9.63, 52.47 5.9, 65.98 3.46 C79.49 1.03, 96.48 -0.44, 110.83 -0.06 C125.17 0.32, 144.94 4.99, 152.04 5.77 C159.15 6.55, 154.09 4.29, 153.45 4.63" stroke="#1e1e1e" stroke-width="4" fill="none"></path></g><g mask="url(#mask-K_gz8GZEiDj2hgurnnM5z)" stroke-linecap="round"><g transform="translate(1016.2804756635958 259.0196381579185) rotate(0 -188.0362971548193 263.09691640157575)"><path d="M0.11 0.94 C-62.53 88.35, -313.65 437.99, -376.23 525.37" stroke="#1e1e1e" stroke-width="2.5" fill="none" stroke-dasharray="8 10"></path></g><g transform="translate(1016.2804756635958 259.0196381579185) rotate(0 -188.0362971548193 263.09691640157575)"><path d="M-369.48 501.3 C-369.52 507.41, -374.25 515.24, -376.23 525.37" stroke="#1e1e1e" stroke-width="2.5" fill="none"></path></g><g transform="translate(1016.2804756635958 259.0196381579185) rotate(0 -188.0362971548193 263.09691640157575)"><path d="M-355.59 511.26 C-359.38 514.75, -367.79 519.94, -376.23 525.37" stroke="#1e1e1e" stroke-width="2.5" fill="none"></path></g></g><mask id="mask-K_gz8GZEiDj2hgurnnM5z"><rect x="0" y="0" fill="#fff" width="1492.3530699732344" height="885.21347096107"></rect><rect x="768.4420964470089" y="509.61655455949403" fill="#000" width="119.60416412353516" height="25" opacity="1"></rect></mask><g transform="translate(768.4420964470089 509.61655455949403) rotate(0 59.77637839242817 12.558177316934234)"><text x="59.80208206176758" y="0" font-family="Virgil, Segoe UI Emoji" font-size="20px" fill="#1e1e1e" text-anchor="middle" style="white-space: pre;" direction="ltr" dominant-baseline="text-before-edge">&lt;&lt;extends&gt;&gt;</text></g><g stroke-linecap="round" transform="translate(352.93317812058535 489.57064462564495) rotate(0 97.61370602974137 46.70790687598924)"><path d="M89.16 0.13 C102.36 -1.15, 118.06 1.48, 131.28 3.8 C144.49 6.13, 158.69 9.32, 168.46 14.08 C178.24 18.85, 185.64 25.78, 189.92 32.4 C194.2 39.02, 195.88 47.04, 194.13 53.81 C192.38 60.58, 187.14 67.56, 179.41 73 C171.68 78.44, 160 83.2, 147.75 86.43 C135.5 89.66, 119.89 91.65, 105.92 92.39 C91.95 93.14, 77.06 93.1, 63.92 90.91 C50.77 88.72, 37.05 84.22, 27.04 79.28 C17.03 74.34, 8.28 67.82, 3.87 61.29 C-0.55 54.75, -1.4 46.83, 0.56 40.07 C2.51 33.31, 7.8 26.27, 15.62 20.74 C23.44 15.21, 33.19 10.18, 47.47 6.86 C61.76 3.55, 90.42 1.64, 101.31 0.87 C112.21 0.09, 112.78 1.67, 112.82 2.2 M143.06 5.2 C155.2 7.64, 167.14 13.48, 175.43 18.86 C183.73 24.23, 189.94 30.9, 192.85 37.45 C195.76 44, 196.42 51.28, 192.9 58.16 C189.37 65.03, 181.38 73.61, 171.71 78.69 C162.05 83.76, 148.07 86.12, 134.88 88.63 C121.7 91.13, 106.54 93.68, 92.59 93.7 C78.64 93.72, 63.36 91.8, 51.18 88.76 C39.01 85.73, 28.01 81, 19.52 75.49 C11.03 69.97, 3.08 62.71, 0.24 55.67 C-2.6 48.63, -1.68 39.85, 2.48 33.23 C6.64 26.62, 15.74 21.13, 25.18 15.99 C34.61 10.85, 46.36 4.83, 59.1 2.37 C71.85 -0.08, 87.31 0.49, 101.66 1.26 C116.01 2.03, 138.13 6.05, 145.21 6.99 C152.3 7.93, 145.34 6.27, 144.18 6.9" stroke="#1e1e1e" stroke-width="4" fill="none"></path></g><g stroke-linecap="round" transform="translate(318.3905536874811 75.42544454138579) rotate(0 576.3137206491525 429.94847762777977)"><path d="M0 0 C305.52 -0.34, 610.34 -0.11, 1152.63 0 M0 0 C418.12 -1.86, 835.86 -2.15, 1152.63 0 M1152.63 0 C1155.74 200.41, 1155.85 402.18, 1152.63 859.9 M1152.63 0 C1155.52 339.84, 1156.18 679.93, 1152.63 859.9 M1152.63 859.9 C908.77 859.77, 665.33 858.41, 0 859.9 M1152.63 859.9 C841.97 861.05, 530.88 860.7, 0 859.9 M0 859.9 C-1.86 521.36, -1.77 183.14, 0 0 M0 859.9 C-2.29 610.76, -2.84 361.62, 0 0" stroke="#1e1e1e" stroke-width="4" fill="none"></path></g><g stroke-linecap="round" transform="translate(42.82377173831401 334.5954792981379) rotate(0 31.272365430284367 36.12497385912161)"><path d="M24.31 1.43 C30.03 -0.44, 38.15 0.71, 43.75 3.45 C49.36 6.19, 54.72 12.04, 57.93 17.89 C61.15 23.74, 63.6 31.76, 63.04 38.57 C62.48 45.38, 58.66 53.13, 54.58 58.73 C50.5 64.34, 44.34 70.43, 38.57 72.2 C32.8 73.96, 25.59 72.23, 19.96 69.31 C14.34 66.38, 7.98 60.57, 4.82 54.63 C1.66 48.69, 0.71 40.65, 0.99 33.67 C1.28 26.69, 2.27 18.31, 6.54 12.73 C10.82 7.15, 23.1 2.29, 26.64 0.21 C30.19 -1.88, 27.87 -0.56, 27.82 0.22 M18.15 3.16 C23.09 0.06, 30.6 -1.37, 36.68 -0.08 C42.75 1.22, 50.5 5.62, 54.59 10.92 C58.68 16.21, 60.41 24.37, 61.23 31.7 C62.05 39.03, 62.55 48.6, 59.5 54.91 C56.44 61.22, 48.91 66.87, 42.9 69.56 C36.88 72.24, 29.17 72.69, 23.41 71 C17.64 69.32, 12.41 64.44, 8.32 59.42 C4.23 54.41, -0.71 47.62, -1.13 40.9 C-1.55 34.17, 2.33 25.57, 5.78 19.08 C9.23 12.6, 17.34 4.52, 19.57 2 C21.8 -0.51, 18.96 3.26, 19.14 3.99" stroke="#1e1e1e" stroke-width="2" fill="none"></path></g><g stroke-linecap="round"><g transform="translate(74.34054603771233 408.6342202512619) rotate(0 1.2885436248576525 47.41840539476493)"><path d="M-0.57 -0.52 C-0.11 15.46, 1.54 79.3, 2.15 95.31 M1.33 1.82 C1.66 17.49, 0.77 78.15, 0.97 93.43" stroke="#1e1e1e" stroke-width="2" fill="none"></path></g></g><mask></mask><g stroke-linecap="round"><g transform="translate(74.85596348765534 432.85884039858774) rotate(0 32.213590621443586 23.451493972410844)"><path d="M-0.43 0.47 C10.49 8.49, 53.97 39.84, 64.93 47.58 M1.55 -0.33 C12.4 7.39, 53.67 37.72, 64.24 45.82" stroke="#1e1e1e" stroke-width="2" fill="none"></path></g></g><mask></mask><g stroke-linecap="round"><g transform="translate(75.8867983875416 505.0172833906213) rotate(0 39.68714364561856 31.698173171500457)"><path d="M0.5 0.68 C13.95 11.17, 66.96 52.86, 80.24 63.43 M-0.7 -0.01 C12.7 10.65, 66.32 54.62, 79.75 64.98" stroke="#1e1e1e" stroke-width="2" fill="none"></path></g></g><mask></mask><g stroke-linecap="round"><g transform="translate(74.85596348765512 432.85884039858774) rotate(0 -26.286289947097885 29.121085921784925)"><path d="M0.87 0.03 C-7.84 9.74, -42.77 49.35, -51.74 58.95 M-0.13 -1 C-8.97 8.31, -43.28 47.25, -52.25 57.19" stroke="#1e1e1e" stroke-width="2" fill="none"></path></g></g><mask></mask><g stroke-linecap="round"><g transform="translate(72.8821892692672 502.8677180094651) rotate(0 -30.6673382716142 27.83254229692716)"><path d="M0.83 0.7 C-9.6 9.88, -51.21 45.91, -61.73 55.06 M-0.19 0.03 C-10.89 9.35, -52.93 46.8, -62.88 56.28" stroke="#1e1e1e" stroke-width="2" fill="none"></path></g></g><mask></mask><g transform="translate(46.447569648771605 301.8500553185927) rotate(0 27.03125 12.5)"><text x="0" y="0" font-family="Virgil, Segoe UI Emoji" font-size="20px" fill="#1e1e1e" text-anchor="start" style="white-space: pre;" direction="ltr" dominant-baseline="text-before-edge">Client</text></g><g transform="translate(446.2375685160807 784.5859297744323) rotate(0 83.41666412353516 12.5)"><text x="0" y="0" font-family="Virgil, Segoe UI Emoji" font-size="20px" fill="#1e1e1e" text-anchor="start" style="white-space: pre;" direction="ltr" dominant-baseline="text-before-edge">Execute Program</text></g><g stroke-linecap="round" transform="translate(898.4301339148253 133.66705216415266) rotate(0 120.50763580214806 57.662593295836814)"><path d="M131.68 -0.46 C146.58 -0.54, 164.38 3.45, 177.84 6.99 C191.31 10.52, 202.68 14.99, 212.47 20.76 C222.27 26.53, 232 34.66, 236.61 41.59 C241.21 48.52, 241.68 55.11, 240.09 62.35 C238.5 69.58, 234.08 78.28, 227.07 85.01 C220.07 91.75, 209.81 98.1, 198.07 102.75 C186.33 107.4, 171.55 110.88, 156.64 112.93 C141.73 114.97, 124.03 115.61, 108.63 115.04 C93.22 114.47, 77.86 112.81, 64.22 109.51 C50.58 106.22, 36.69 101.17, 26.8 95.26 C16.91 89.36, 9.15 81.33, 4.88 74.1 C0.62 66.88, -0.17 59.14, 1.23 51.92 C2.64 44.69, 6.33 37.1, 13.32 30.75 C20.31 24.4, 31.28 18.35, 43.17 13.81 C55.07 9.28, 66.9 5.48, 84.69 3.52 C102.48 1.57, 136.47 1.8, 149.92 2.08 C163.38 2.36, 165.81 4.41, 165.41 5.21 M64.75 6.44 C76.69 2.27, 94.52 -0.21, 109.77 -1.06 C125.02 -1.91, 141.32 -1, 156.25 1.34 C171.17 3.68, 187.3 8.13, 199.33 12.98 C211.36 17.83, 221.49 23.65, 228.43 30.44 C235.38 37.22, 239.66 46.09, 240.98 53.7 C242.31 61.31, 241.37 69.43, 236.4 76.09 C231.44 82.74, 221.24 87.97, 211.2 93.64 C201.15 99.32, 189.75 106.34, 176.14 110.15 C162.53 113.96, 145.11 115.95, 129.52 116.52 C113.93 117.1, 97.29 116.31, 82.6 113.58 C67.9 110.85, 52.84 105.17, 41.35 100.15 C29.87 95.13, 20.53 89.51, 13.69 83.46 C6.85 77.4, 1.71 71.28, 0.3 63.82 C-1.1 56.36, 0.73 45.98, 5.27 38.71 C9.81 31.44, 17.36 25.67, 27.56 20.19 C37.76 14.71, 59.92 8.13, 66.46 5.84 C73.01 3.55, 66.01 5.61, 66.8 6.47" stroke="#1e1e1e" stroke-width="4" fill="none"></path></g><g stroke-linecap="round" transform="translate(1067.9580599144451 717.9296634015959) rotate(0 120.67031071610697 74.78690355079289)"><path d="M109.27 0.22 C123.55 -1.67, 142.05 1.37, 156.8 4.18 C171.55 6.98, 185.88 11.14, 197.79 17.03 C209.7 22.92, 221.14 31.08, 228.27 39.52 C235.4 47.95, 239.29 58.1, 240.57 67.65 C241.85 77.21, 240.4 87.61, 235.97 96.84 C231.54 106.07, 223.94 115.68, 213.97 123.01 C204 130.35, 189.71 136.54, 176.14 140.87 C162.58 145.19, 147.77 148.16, 132.6 148.96 C117.42 149.77, 100.02 148.52, 85.07 145.69 C70.12 142.86, 54.76 138.14, 42.89 131.99 C31.01 125.85, 20.95 117.27, 13.82 108.83 C6.68 100.4, 1.45 90.85, 0.09 81.39 C-1.27 71.92, 1.2 61.23, 5.68 52.06 C10.15 42.89, 17.1 33.75, 26.96 26.38 C36.81 19.01, 50.21 12.29, 64.8 7.83 C79.39 3.36, 105.55 0.76, 114.49 -0.41 C123.44 -1.57, 118.37 -0.67, 118.45 0.82 M128.11 1.55 C143.07 0.89, 160.17 3.62, 173.85 7.45 C187.53 11.29, 199.95 17.36, 210.19 24.56 C220.43 31.75, 229.94 41.54, 235.28 50.62 C240.63 59.7, 243.46 69.67, 242.26 79.03 C241.07 88.4, 235.06 98.44, 228.12 106.81 C221.18 115.18, 212.09 122.88, 200.62 129.26 C189.15 135.64, 173.8 141.49, 159.32 145.09 C144.84 148.68, 129.18 151.23, 113.74 150.85 C98.29 150.46, 80.8 146.95, 66.66 142.79 C52.53 138.62, 39.1 132.99, 28.91 125.86 C18.73 118.73, 10.56 109.04, 5.55 100.02 C0.53 91.01, -2.42 81.27, -1.2 71.77 C0.02 62.27, 6.08 51.75, 12.85 43.01 C19.62 34.27, 27.99 25.7, 39.42 19.34 C50.85 12.98, 66.76 7.82, 81.41 4.85 C96.06 1.89, 119.75 2.11, 127.31 1.56 C134.87 1.01, 126.63 0.5, 126.76 1.55" stroke="#1e1e1e" stroke-width="4" fill="none"></path></g><g transform="translate(1085.9275566570268 780.0480480908109) rotate(0 98.96875 12.5)"><text x="0" y="0" font-family="Virgil, Segoe UI Emoji" font-size="20px" fill="#1e1e1e" text-anchor="start" style="white-space: pre;" direction="ltr" dominant-baseline="text-before-edge">Check Worker health</text></g><g stroke-linecap="round" transform="translate(949.7190724110931 455.8664351149878) rotate(0 120.39534669415775 73.16002952481836)"><path d="M123.04 0.36 C137.72 -0.58, 153.99 2.79, 167.98 6.57 C181.98 10.34, 196.38 16.36, 207.01 23.01 C217.64 29.65, 226.1 38.04, 231.74 46.46 C237.39 54.88, 241.15 64.12, 240.89 73.53 C240.62 82.94, 236.34 94.22, 230.14 102.91 C223.95 111.6, 214.51 119.22, 203.71 125.69 C192.92 132.16, 179.46 138.37, 165.37 141.73 C151.29 145.09, 134.77 146.15, 119.18 145.84 C103.6 145.53, 86.22 143.43, 71.86 139.88 C57.5 136.33, 43.76 131.04, 33.04 124.53 C22.31 118.03, 13.08 109.68, 7.51 100.85 C1.95 92.03, -0.79 81.01, -0.36 71.59 C0.08 62.16, 3.88 52.83, 10.11 44.3 C16.33 35.78, 26.12 27.1, 36.99 20.42 C47.86 13.75, 59.72 7.59, 75.34 4.26 C90.96 0.92, 120.23 0.77, 130.73 0.39 C141.22 0.02, 138.62 0.87, 138.3 2.02 M65.59 6.59 C77.74 1.67, 95.16 0.51, 110.56 0.26 C125.97 0, 143.46 2.22, 158.03 5.06 C172.61 7.9, 186.26 11.7, 198.01 17.3 C209.75 22.9, 221.33 30.46, 228.49 38.66 C235.65 46.85, 239.79 56.87, 240.98 66.45 C242.17 76.03, 240.45 87.06, 235.65 96.13 C230.86 105.21, 222.27 114.04, 212.2 120.91 C202.14 127.78, 188.9 133.34, 175.25 137.34 C161.6 141.34, 145.77 144.07, 130.32 144.91 C114.87 145.75, 97.41 144.88, 82.54 142.39 C67.67 139.91, 52.91 136.19, 41.12 130 C29.33 123.82, 18.41 113.66, 11.79 105.29 C5.17 96.92, 2.57 88.92, 1.4 79.78 C0.22 70.63, 0.34 59.56, 4.74 50.42 C9.15 41.28, 17.54 31.99, 27.85 24.94 C38.15 17.88, 60.28 10.72, 66.58 8.1 C72.87 5.48, 64.88 8.02, 65.62 9.23" stroke="#1e1e1e" stroke-width="4" fill="none"></path></g><g transform="translate(967.2976703983802 516.3616116467929) rotate(0 100.23958587646484 12.5)"><text x="0" y="0" font-family="Virgil, Segoe UI Emoji" font-size="20px" fill="#1e1e1e" text-anchor="start" style="white-space: pre;" direction="ltr" dominant-baseline="text-before-edge">Check Builder health</text></g><g transform="translate(1065.6992457645322 659.4782938721087) rotate(0 153.4895782470703 25)"><text x="153.4895782470703" y="0" font-family="Virgil, Segoe UI Emoji" font-size="20px" fill="#2f9e44" text-anchor="middle" style="white-space: pre;" direction="ltr" dominant-baseline="text-before-edge">WorkerHealthChecker subsystem</text><text x="153.4895782470703" y="25" font-family="Virgil, Segoe UI Emoji" font-size="20px" fill="#2f9e44" text-anchor="middle" style="white-space: pre;" direction="ltr" dominant-baseline="text-before-edge"></text></g><g mask="url(#mask-ST1d3JlceZTCokdQYHUJw)" stroke-linecap="round"><g transform="translate(1052.219879985727 789.1428046294568) rotate(0 -202.27223598937104 3.3971980251503737)"><path d="M-0.55 0.75 C-68.06 2.03, -336.77 6.51, -403.95 7.67" stroke="#1e1e1e" stroke-width="2.5" fill="none" stroke-dasharray="8 10"></path></g><g transform="translate(1052.219879985727 789.1428046294568) rotate(0 -202.27223598937104 3.3971980251503737)"><path d="M-380.61 -1.27 C-388.53 3.12, -397.48 7.15, -403.95 7.67" stroke="#1e1e1e" stroke-width="2.5" fill="none"></path></g><g transform="translate(1052.219879985727 789.1428046294568) rotate(0 -202.27223598937104 3.3971980251503737)"><path d="M-380.32 15.82 C-388.35 13.51, -397.41 10.82, -403.95 7.67" stroke="#1e1e1e" stroke-width="2.5" fill="none"></path></g></g><mask id="mask-ST1d3JlceZTCokdQYHUJw"><rect x="0" y="0" fill="#fff" width="1556.764351964469" height="895.9372006797576"></rect><rect x="790.1476943503599" y="780.0400026546072" fill="#000" width="119.59989929199219" height="25" opacity="1"></rect></mask><g stroke-linecap="round" transform="translate(911.7651247230309 654.0847249014109) rotate(0 279.13309340667075 140.20625572094218)"><path d="M0 0 C196.66 -0.12, 391.52 -0.7, 558.27 0 M0 0 C186.6 -1.25, 373.66 -1.38, 558.27 0 M558.27 0 C558.39 99.75, 560.42 196.01, 558.27 280.41 M558.27 0 C558.43 101.98, 557.82 203.62, 558.27 280.41 M558.27 280.41 C397.43 281.94, 236.85 282.49, 0 280.41 M558.27 280.41 C433.26 281.39, 308.27 281.43, 0 280.41 M0 280.41 C2.36 199.37, 0.35 119.62, 0 0 M0 280.41 C1.13 192.97, 0.23 106.06, 0 0" stroke="#1e1e1e" stroke-width="2" fill="none"></path></g><g transform="translate(458.76903854747025 302.63184195703525) rotate(0 121 11.75919298696408)"><text x="0" y="0" font-family="Virgil, Segoe UI Emoji" font-size="18.81470877914264px" fill="#2f9e44" text-anchor="start" style="white-space: pre;" direction="ltr" dominant-baseline="text-before-edge">RequestHandler subsystem</text></g><g transform="translate(775.0448074817393 93.47460049809433) rotate(0 115.92708587646484 12.5)"><text x="0" y="0" font-family="Virgil, Segoe UI Emoji" font-size="20px" fill="#2f9e44" text-anchor="start" style="white-space: pre;" direction="ltr" dominant-baseline="text-before-edge">CacheBuilder subsystem</text></g><g transform="translate(913.6456192585348 175.97861500659747) rotate(0 100.36458587646484 12.5)"><text x="0" y="0" font-family="Virgil, Segoe UI Emoji" font-size="20px" fill="#1e1e1e" text-anchor="start" style="white-space: pre;" direction="ltr" dominant-baseline="text-before-edge">Install Dependencies</text></g><g transform="translate(402.5652386181789 511.2510738145925) rotate(0 47.95833206176758 25)"><text x="47.95833206176758" y="0" font-family="Virgil, Segoe UI Emoji" font-size="20px" fill="#1e1e1e" text-anchor="middle" style="white-space: pre;" direction="ltr" dominant-baseline="text-before-edge">Create </text><text x="47.95833206176758" y="25" font-family="Virgil, Segoe UI Emoji" font-size="20px" fill="#1e1e1e" text-anchor="middle" style="white-space: pre;" direction="ltr" dominant-baseline="text-before-edge">submission</text></g><g mask="url(#mask-nNjkA7BVtQDwpuQwucVXD)" stroke-linecap="round"><g transform="translate(407.31457320119284 591.6375352888381) rotate(0 18.56216892413147 80.28915283283709)"><path d="M0.66 0.37 C6.73 27.19, 30.13 133.97, 36.09 160.55" stroke="#1e1e1e" stroke-width="2.5" fill="none" stroke-dasharray="8 10"></path></g><g transform="translate(407.31457320119284 591.6375352888381) rotate(0 18.56216892413147 80.28915283283709)"><path d="M22.66 139.46 C26.88 143.42, 29.88 149.73, 36.09 160.55" stroke="#1e1e1e" stroke-width="2.5" fill="none"></path></g><g transform="translate(407.31457320119284 591.6375352888381) rotate(0 18.56216892413147 80.28915283283709)"><path d="M39.36 135.76 C39.01 140.83, 37.44 148.14, 36.09 160.55" stroke="#1e1e1e" stroke-width="2.5" fill="none"></path></g></g><mask id="mask-nNjkA7BVtQDwpuQwucVXD"><rect x="0" y="0" fill="#fff" width="544.4389110494558" height="852.2158409545123"></rect><rect x="367.29679370003123" y="659.4266881216754" fill="#000" width="117.15989685058594" height="25" opacity="1"></rect></mask><g transform="translate(367.29679370003123 659.4266881216754) rotate(0 58.392957662791105 12.66890326812836)"><text x="58.57994842529297" y="0" font-family="Virgil, Segoe UI Emoji" font-size="20px" fill="#1e1e1e" text-anchor="middle" style="white-space: pre;" direction="ltr" dominant-baseline="text-before-edge">&lt;&lt;includes&gt;&gt;</text></g><g transform="translate(790.1476943503599 780.0400026546072) rotate(0 59.82204185612488 13.31307513229558)"><text x="59.799949645996094" y="0" font-family="Virgil, Segoe UI Emoji" font-size="20px" fill="#1e1e1e" text-anchor="middle" style="white-space: pre;" direction="ltr" dominant-baseline="text-before-edge">&lt;&lt;extends&gt;&gt;</text></g><g mask="url(#mask-5VU0efriKf4-05sI8c_UA)" stroke-linecap="round"><g transform="translate(1050.8413452796974 450.3587563202) rotate(0 -12.48153969766372 -99.39769663891161)"><path d="M1.11 -0.35 C-2.96 -33.61, -19.93 -165.49, -24.13 -198.52" stroke="#1e1e1e" stroke-width="2.5" fill="none" stroke-dasharray="8 10"></path></g><g transform="translate(1050.8413452796974 450.3587563202) rotate(0 -12.48153969766372 -99.39769663891161)"><path d="M-12.67 -176.3 C-17.16 -182, -19.82 -189.17, -24.13 -198.52" stroke="#1e1e1e" stroke-width="2.5" fill="none"></path></g><g transform="translate(1050.8413452796974 450.3587563202) rotate(0 -12.48153969766372 -99.39769663891161)"><path d="M-29.63 -174.13 C-28.65 -180.68, -25.83 -188.56, -24.13 -198.52" stroke="#1e1e1e" stroke-width="2.5" fill="none"></path></g></g><mask id="mask-5VU0efriKf4-05sI8c_UA"><rect x="0" y="0" fill="#fff" width="1175.8044246750248" height="749.1541495980232"></rect><rect x="978.5577235202661" y="338.46105968128813" fill="#000" width="119.60416412353516" height="25" opacity="1"></rect></mask><g transform="translate(978.5577235202661 338.46105968128813) rotate(0 60.773521696403634 12.462603516504487)"><text x="59.80208206176758" y="0" font-family="Virgil, Segoe UI Emoji" font-size="20px" fill="#1e1e1e" text-anchor="middle" style="white-space: pre;" direction="ltr" dominant-baseline="text-before-edge">&lt;&lt;extends&gt;&gt;</text></g><g stroke-linecap="round" transform="translate(419.6383734448798 138.4267472069505) rotate(0 120.50763580214806 57.662593295836814)"><path d="M65.7 7.12 C77.88 3.2, 96.93 0.84, 112.17 -0.01 C127.42 -0.86, 142.6 -0.41, 157.17 2.03 C171.74 4.47, 187.75 9.58, 199.59 14.64 C211.42 19.7, 221.41 26.08, 228.2 32.38 C234.98 38.69, 239.32 45.45, 240.3 52.49 C241.27 59.53, 238.68 67.59, 234.05 74.61 C229.41 81.64, 222.32 88.99, 212.48 94.64 C202.64 100.3, 188.66 104.96, 175.03 108.53 C161.4 112.1, 146.05 115.4, 130.7 116.05 C115.34 116.71, 97.67 114.82, 82.9 112.46 C68.12 110.1, 53.83 106.52, 42.06 101.9 C30.29 97.27, 19.28 91.28, 12.27 84.7 C5.25 78.12, 1.18 70.09, -0.02 62.42 C-1.23 54.76, 0.35 45.76, 5.04 38.73 C9.73 31.7, 16.7 26.07, 28.1 20.24 C39.5 14.4, 64.49 6.24, 73.44 3.71 C82.4 1.17, 81.03 3.91, 81.82 5.02 M124.4 -0.23 C139.06 -1.06, 155.52 1.99, 169.43 4.98 C183.34 7.96, 197.35 12.11, 207.88 17.66 C218.4 23.2, 226.83 31.52, 232.58 38.22 C238.33 44.91, 242.86 50.47, 242.36 57.82 C241.87 65.17, 236.1 75.4, 229.59 82.34 C223.08 89.27, 214.25 94.55, 203.32 99.4 C192.4 104.26, 178.44 108.91, 164.06 111.47 C149.69 114.02, 132.68 114.81, 117.08 114.73 C101.48 114.64, 84.48 113.72, 70.48 110.96 C56.47 108.19, 43.26 103.49, 33.06 98.13 C22.86 92.78, 14.75 85.78, 9.29 78.83 C3.83 71.89, -0.04 63.89, 0.3 56.49 C0.63 49.09, 4.96 41.37, 11.32 34.46 C17.68 27.56, 27.53 20.05, 38.45 15.07 C49.37 10.1, 62.7 7.05, 76.85 4.61 C91 2.17, 115.44 0.96, 123.36 0.45 C131.28 -0.05, 124.27 0.72, 124.4 1.58" stroke="#1e1e1e" stroke-width="4" fill="none"></path></g><g transform="translate(434.85385878858915 180.7383100493953) rotate(0 95.79166412353516 12.5)"><text x="0" y="0" font-family="Virgil, Segoe UI Emoji" font-size="20px" fill="#1e1e1e" text-anchor="start" style="white-space: pre;" direction="ltr" dominant-baseline="text-before-edge">Cache Dependencies</text></g><g mask="url(#mask-7MyTc4UA0anNDuMerjb1f)" stroke-linecap="round"><g transform="translate(675.3796419493347 185.62238966899213) rotate(0 104.3183701220392 -1.5158815351810517)"><path d="M-0.61 -0.47 C33.98 -0.91, 172.64 -2.27, 207.46 -2.61" stroke="#1e1e1e" stroke-width="2.5" fill="none" stroke-dasharray="8 10"></path></g><g transform="translate(675.3796419493347 185.62238966899213) rotate(0 104.3183701220392 -1.5158815351810517)"><path d="M184.05 6.17 C190.15 1.75, 198.51 0.63, 207.46 -2.61" stroke="#1e1e1e" stroke-width="2.5" fill="none"></path></g><g transform="translate(675.3796419493347 185.62238966899213) rotate(0 104.3183701220392 -1.5158815351810517)"><path d="M183.88 -10.93 C190.04 -10.33, 198.44 -6.42, 207.46 -2.61" stroke="#1e1e1e" stroke-width="2.5" fill="none"></path></g></g><mask id="mask-7MyTc4UA0anNDuMerjb1f"><rect x="0" y="0" fill="#fff" width="984.016382193413" height="288.65415273935423"></rect><rect x="719.8959300096062" y="171.60650813381108" fill="#000" width="119.60416412353516" height="25" opacity="1"></rect></mask><g transform="translate(719.8959300096062 171.60650813381108) rotate(0 58.90725857093935 12.47527422830467)"><text x="59.80208206176758" y="0" font-family="Virgil, Segoe UI Emoji" font-size="20px" fill="#1e1e1e" text-anchor="middle" style="white-space: pre;" direction="ltr" dominant-baseline="text-before-edge">&lt;&lt;extends&gt;&gt;</text></g><g transform="translate(814.7133084675895 10) rotate(0 78.5034408569336 21.805864348487603)"><text x="78.5034408569336" y="0" font-family="Virgil, Segoe UI Emoji" font-size="34.889382957580125px" fill="#1e1e1e" text-anchor="middle" style="white-space: pre;" direction="ltr" dominant-baseline="text-before-edge">Envicutor</text></g><g stroke-linecap="round" transform="translate(320.86610056459244 77.92280481254875) rotate(0 574.3526112882035 102.36262775832552)"><path d="M0 0 C297.52 0, 595.04 0, 1148.71 0 M0 0 C448.16 0, 896.31 0, 1148.71 0 M1148.71 0 C1148.71 46.21, 1148.71 92.42, 1148.71 204.73 M1148.71 0 C1148.71 56.11, 1148.71 112.21, 1148.71 204.73 M1148.71 204.73 C719.27 204.73, 289.83 204.73, 0 204.73 M1148.71 204.73 C861.81 204.73, 574.91 204.73, 0 204.73 M0 204.73 C0 137.47, 0 70.21, 0 0 M0 204.73 C0 158.93, 0 113.13, 0 0" stroke="#1e1e1e" stroke-width="2" fill="none"></path></g><g stroke-linecap="round" transform="translate(911.4844998229033 284.5494029391198) rotate(0 280.06693242228806 184.69865765381905)"><path d="M0 0 C141.19 0, 282.39 0, 560.13 0 M0 0 C195.85 0, 391.71 0, 560.13 0 M560.13 0 C560.13 147.29, 560.13 294.58, 560.13 369.4 M560.13 0 C560.13 129.82, 560.13 259.63, 560.13 369.4 M560.13 369.4 C387.86 369.4, 215.58 369.4, 0 369.4 M560.13 369.4 C416.61 369.4, 273.08 369.4, 0 369.4 M0 369.4 C0 293.52, 0 217.64, 0 0 M0 369.4 C0 223.93, 0 78.47, 0 0" stroke="#1e1e1e" stroke-width="2" fill="none"></path></g><g stroke-linecap="round" transform="translate(317.4983253606347 654.0777063620098) rotate(0 296.8187358373128 140.8974087860879)"><path d="M0 0 C186.37 0, 372.74 0, 593.64 0 M0 0 C206.23 0, 412.47 0, 593.64 0 M593.64 0 C593.64 69.62, 593.64 139.24, 593.64 281.79 M593.64 0 C593.64 66.07, 593.64 132.15, 593.64 281.79 M593.64 281.79 C428.09 281.79, 262.54 281.79, 0 281.79 M593.64 281.79 C430.33 281.79, 267.03 281.79, 0 281.79 M0 281.79 C0 190.48, 0 99.16, 0 0 M0 281.79 C0 217.44, 0 153.09, 0 0" stroke="#1e1e1e" stroke-width="2" fill="none"></path></g><g stroke-linecap="round" transform="translate(318.53553939814174 285.0445470191612) rotate(0 296.47358779237317 184.1107685352647)"><path d="M0 0 C183.6 0, 367.2 0, 592.95 0 M0 0 C181.17 0, 362.35 0, 592.95 0 M592.95 0 C592.95 107.35, 592.95 214.7, 592.95 368.22 M592.95 0 C592.95 85.95, 592.95 171.89, 592.95 368.22 M592.95 368.22 C441.76 368.22, 290.58 368.22, 0 368.22 M592.95 368.22 C428.84 368.22, 264.73 368.22, 0 368.22 M0 368.22 C0 270.64, 0 173.06, 0 0 M0 368.22 C0 250.86, 0 133.5, 0 0" stroke="#1e1e1e" stroke-width="2" fill="none"></path></g><g stroke-linecap="round" transform="translate(611.3555846505333 353.94809225238623) rotate(0 97.61370602974137 46.70790687598924)"><path d="M102.89 -0.78 C116.34 -1.27, 132.47 1.28, 144.7 4.81 C156.92 8.35, 168.25 14.83, 176.26 20.4 C184.28 25.97, 190.34 31.88, 192.79 38.24 C195.24 44.6, 194.55 52, 190.98 58.56 C187.4 65.12, 180.53 72.41, 171.36 77.6 C162.18 82.8, 148.99 87.09, 135.92 89.74 C122.85 92.4, 107.05 93.91, 92.96 93.54 C78.88 93.17, 63.77 90.84, 51.41 87.51 C39.06 84.19, 27.15 79.14, 18.82 73.58 C10.48 68.03, 3.79 60.95, 1.4 54.19 C-0.99 47.43, 0.8 39.46, 4.48 33.05 C8.16 26.63, 14.28 20.53, 23.48 15.7 C32.69 10.87, 44.1 6.37, 59.72 4.04 C75.33 1.71, 105.47 1.95, 117.16 1.74 C128.84 1.53, 130.08 2.15, 129.81 2.77 M68.34 3.43 C80.51 0.63, 97.09 -0.65, 111.12 0.09 C125.15 0.83, 140.75 3.79, 152.55 7.86 C164.35 11.93, 174.9 18.5, 181.92 24.51 C188.93 30.53, 193.4 37.14, 194.66 43.96 C195.92 50.78, 194.46 59.13, 189.48 65.42 C184.5 71.71, 175.3 77.35, 164.8 81.72 C154.3 86.08, 140.15 89.56, 126.48 91.61 C112.82 93.65, 96.89 95.12, 82.82 94 C68.75 92.87, 53.75 89.06, 42.04 84.87 C30.33 80.69, 19.51 74.77, 12.56 68.89 C5.62 63.01, 1.33 56.35, 0.39 49.59 C-0.55 42.84, 1.91 34.61, 6.91 28.38 C11.92 22.15, 20.19 16.38, 30.4 12.21 C40.62 8.03, 61.46 4.78, 68.22 3.35 C74.99 1.91, 70.2 3.18, 71 3.6" stroke="#1e1e1e" stroke-width="4" fill="none"></path></g><g transform="translate(660.9760370243475 375.62852144133376) rotate(0 47.969940185546875 25)"><text x="47.969940185546875" y="0" font-family="Virgil, Segoe UI Emoji" font-size="20px" fill="#1e1e1e" text-anchor="middle" style="white-space: pre;" direction="ltr" dominant-baseline="text-before-edge">Get </text><text x="47.969940185546875" y="25" font-family="Virgil, Segoe UI Emoji" font-size="20px" fill="#1e1e1e" text-anchor="middle" style="white-space: pre;" direction="ltr" dominant-baseline="text-before-edge">submission</text></g><g stroke-linecap="round"><g transform="translate(111.84476057353822 366.1363952846359) rotate(0 243.9582451067157 21.791982037522757)"><path d="M-0.48 -0.53 C80.68 6.45, 406.09 35.37, 487.49 42.66 M1.47 1.81 C82.38 8.84, 405.37 36.62, 486.32 43.72" stroke="#1e1e1e" stroke-width="2" fill="none"></path></g><g transform="translate(111.84476057353822 366.1363952846359) rotate(0 243.9582451067157 21.791982037522757)"><path d="M462.18 50.21 C469.61 47.35, 477.31 45.84, 486.32 43.72 M462.18 50.21 C468.61 49.05, 475.03 47.43, 486.32 43.72" stroke="#1e1e1e" stroke-width="2" fill="none"></path></g><g transform="translate(111.84476057353822 366.1363952846359) rotate(0 243.9582451067157 21.791982037522757)"><path d="M463.65 33.17 C470.69 36.2, 477.88 40.59, 486.32 43.72 M463.65 33.17 C469.67 36.63, 475.69 39.62, 486.32 43.72" stroke="#1e1e1e" stroke-width="2" fill="none"></path></g></g><mask></mask><g transform="translate(1095.9895400023279 291.3171861021592) rotate(0 183.2916717529297 25)"><text x="183.2916717529297" y="0" font-family="Virgil, Segoe UI Emoji" font-size="20px" fill="#2f9e44" text-anchor="middle" style="white-space: pre;" direction="ltr" dominant-baseline="text-before-edge">CacheBuilderHealthChecker subsystem</text><text x="183.2916717529297" y="25" font-family="Virgil, Segoe UI Emoji" font-size="20px" fill="#2f9e44" text-anchor="middle" style="white-space: pre;" direction="ltr" dominant-baseline="text-before-edge"></text></g><g mask="url(#mask-zXu1nEa6Fi9bZvOsFZQb3)" stroke-linecap="round"><g transform="translate(551.0852434766878 518.9590914436221) rotate(0 42.15681433917598 -40.545879094086786)"><path d="M0 0 C14.05 -13.52, 70.26 -67.58, 84.31 -81.09" stroke="#1e1e1e" stroke-width="2.5" fill="none" stroke-dasharray="8 10"></path></g><g transform="translate(551.0852434766878 518.9590914436221) rotate(0 42.15681433917598 -40.545879094086786)"><path d="M73.31 -58.64 C76.6 -65.37, 79.9 -72.09, 84.31 -81.09" stroke="#1e1e1e" stroke-width="2.5" fill="none"></path></g><g transform="translate(551.0852434766878 518.9590914436221) rotate(0 42.15681433917598 -40.545879094086786)"><path d="M61.45 -70.97 C68.3 -74, 75.14 -77.03, 84.31 -81.09" stroke="#1e1e1e" stroke-width="2.5" fill="none"></path></g></g><mask id="mask-zXu1nEa6Fi9bZvOsFZQb3"><rect x="0" y="0" fill="#fff" width="735.3988721550397" height="700.0508496317957"></rect><rect x="534.6691398776313" y="465.91321234953557" fill="#000" width="117.14583587646484" height="25" opacity="1"></rect></mask><g transform="translate(534.6691398776313 465.91321234953557) rotate(0 58.57291793823242 12.499999999999773)"><text x="58.57291793823242" y="0" font-family="Virgil, Segoe UI Emoji" font-size="20px" fill="#1e1e1e" text-anchor="middle" style="white-space: pre;" direction="ltr" dominant-baseline="text-before-edge">&lt;&lt;includes&gt;&gt;</text></g><g transform="translate(511.62358264956015 661.7597864582922) rotate(0 86.125 12.5)"><text x="86.125" y="0" font-family="Virgil, Segoe UI Emoji" font-size="20px" fill="#2f9e44" text-anchor="middle" style="white-space: pre;" direction="ltr" dominant-baseline="text-before-edge">Worker subsystem</text></g></svg>