<svg version="1.1" xmlns="http://www.w3.org/2000/svg" viewBox="0 0 649.9382034549826 402.95264314102315" width="1949.8146103649478" height="1208.8579294230694">
  <!-- svg-source:excalidraw -->
  
  <defs>
    <style class="style-fonts">
      @font-face {
        font-family: "Virgil";
        src: url("https://excalidraw.com/Virgil.woff2");
      }
      @font-face {
        font-family: "Cascadia";
        src: url("https://excalidraw.com/Cascadia.woff2");
      }
      @font-face {
        font-family: "Assistant";
        src: url("https://excalidraw.com/Assistant-Regular.woff2");
      }
    </style>
    
  </defs>
  <rect x="0" y="0" width="649.9382034549826" height="402.95264314102315" fill="#ffffff"></rect><g stroke-linecap="round"><g transform="translate(95.38750753731756 176.81949567072343) rotate(0 71.88698899790552 44.29912457514979)"><path d="M0.91 -0.81 C24.84 13.97, 119.72 73.1, 143.37 88.06 M-0.07 1.37 C23.68 16.37, 118.01 75.08, 142.21 89.32" stroke="#1e1e1e" stroke-width="2" fill="none"></path></g><g transform="translate(95.38750753731756 176.81949567072343) rotate(0 71.88698899790552 44.29912457514979)"><path d="M117.69 84.42 C123.28 84.95, 130.71 85.35, 142.21 89.32 M117.69 84.42 C124.98 86.36, 133.45 87.5, 142.21 89.32" stroke="#1e1e1e" stroke-width="2" fill="none"></path></g><g transform="translate(95.38750753731756 176.81949567072343) rotate(0 71.88698899790552 44.29912457514979)"><path d="M126.57 69.81 C129.55 74.56, 134.46 79.11, 142.21 89.32 M126.57 69.81 C131.08 76.61, 136.64 82.55, 142.21 89.32" stroke="#1e1e1e" stroke-width="2" fill="none"></path></g></g><mask></mask><g stroke-linecap="round" transform="translate(232.78397089895952 259.22204695059827) rotate(0 97.61370602974137 46.70790687598924)"><path d="M89.16 0.13 C102.36 -1.15, 118.06 1.48, 131.28 3.8 C144.49 6.13, 158.69 9.32, 168.46 14.08 C178.24 18.85, 185.64 25.78, 189.92 32.4 C194.2 39.02, 195.88 47.04, 194.13 53.81 C192.38 60.58, 187.14 67.56, 179.41 73 C171.68 78.44, 160 83.2, 147.75 86.43 C135.5 89.66, 119.89 91.65, 105.92 92.39 C91.95 93.14, 77.06 93.1, 63.92 90.91 C50.77 88.72, 37.05 84.22, 27.04 79.28 C17.03 74.34, 8.28 67.82, 3.87 61.29 C-0.55 54.75, -1.4 46.83, 0.56 40.07 C2.51 33.31, 7.8 26.27, 15.62 20.74 C23.44 15.21, 33.19 10.18, 47.47 6.86 C61.76 3.55, 90.42 1.64, 101.31 0.87 C112.21 0.09, 112.78 1.67, 112.82 2.2 M143.06 5.2 C155.2 7.64, 167.14 13.48, 175.43 18.86 C183.73 24.23, 189.94 30.9, 192.85 37.45 C195.76 44, 196.42 51.28, 192.9 58.16 C189.37 65.03, 181.38 73.61, 171.71 78.69 C162.05 83.76, 148.07 86.12, 134.88 88.63 C121.7 91.13, 106.54 93.68, 92.59 93.7 C78.64 93.72, 63.36 91.8, 51.18 88.76 C39.01 85.73, 28.01 81, 19.52 75.49 C11.03 69.97, 3.08 62.71, 0.24 55.67 C-2.6 48.63, -1.68 39.85, 2.48 33.23 C6.64 26.62, 15.74 21.13, 25.18 15.99 C34.61 10.85, 46.36 4.83, 59.1 2.37 C71.85 -0.08, 87.31 0.49, 101.66 1.26 C116.01 2.03, 138.13 6.05, 145.21 6.99 C152.3 7.93, 145.34 6.27, 144.18 6.9" stroke="#1e1e1e" stroke-width="4" fill="none"></path></g><g stroke-linecap="round" transform="translate(42.82377173831401 103.25391296836688) rotate(0 31.272365430284367 36.12497385912161)"><path d="M24.31 1.43 C30.03 -0.44, 38.15 0.71, 43.75 3.45 C49.36 6.19, 54.72 12.04, 57.93 17.89 C61.15 23.74, 63.6 31.76, 63.04 38.57 C62.48 45.38, 58.66 53.13, 54.58 58.73 C50.5 64.34, 44.34 70.43, 38.57 72.2 C32.8 73.96, 25.59 72.23, 19.96 69.31 C14.34 66.38, 7.98 60.57, 4.82 54.63 C1.66 48.69, 0.71 40.65, 0.99 33.67 C1.28 26.69, 2.27 18.31, 6.54 12.73 C10.82 7.15, 23.1 2.29, 26.64 0.21 C30.19 -1.88, 27.87 -0.56, 27.82 0.22 M18.15 3.16 C23.09 0.06, 30.6 -1.37, 36.68 -0.08 C42.75 1.22, 50.5 5.62, 54.59 10.92 C58.68 16.21, 60.41 24.37, 61.23 31.7 C62.05 39.03, 62.55 48.6, 59.5 54.91 C56.44 61.22, 48.91 66.87, 42.9 69.56 C36.88 72.24, 29.17 72.69, 23.41 71 C17.64 69.32, 12.41 64.44, 8.32 59.42 C4.23 54.41, -0.71 47.62, -1.13 40.9 C-1.55 34.17, 2.33 25.57, 5.78 19.08 C9.23 12.6, 17.34 4.52, 19.57 2 C21.8 -0.51, 18.96 3.26, 19.14 3.99" stroke="#1e1e1e" stroke-width="4" fill="none"></path></g><g stroke-linecap="round"><g transform="translate(74.34054603771233 177.2926539214909) rotate(0 1.2885436248576525 47.41840539476493)"><path d="M-0.57 -0.52 C-0.11 15.46, 1.54 79.3, 2.15 95.31 M1.33 1.82 C1.66 17.49, 0.77 78.15, 0.97 93.43" stroke="#1e1e1e" stroke-width="4" fill="none"></path></g></g><mask></mask><g stroke-linecap="round"><g transform="translate(74.85596348765534 201.51727406881673) rotate(0 32.213590621443586 23.451493972410844)"><path d="M-0.43 0.47 C10.49 8.49, 53.97 39.84, 64.93 47.58 M1.55 -0.33 C12.4 7.39, 53.67 37.72, 64.24 45.82" stroke="#1e1e1e" stroke-width="4" fill="none"></path></g></g><mask></mask><g stroke-linecap="round"><g transform="translate(75.8867983875416 273.6757170608503) rotate(0 39.68714364561856 31.698173171500457)"><path d="M0.5 0.68 C13.95 11.17, 66.96 52.86, 80.24 63.43 M-0.7 -0.01 C12.7 10.65, 66.32 54.62, 79.75 64.98" stroke="#1e1e1e" stroke-width="4" fill="none"></path></g></g><mask></mask><g stroke-linecap="round"><g transform="translate(74.85596348765512 201.51727406881673) rotate(0 -26.286289947097885 29.121085921784925)"><path d="M0.87 0.03 C-7.84 9.74, -42.77 49.35, -51.74 58.95 M-0.13 -1 C-8.97 8.31, -43.28 47.25, -52.25 57.19" stroke="#1e1e1e" stroke-width="4" fill="none"></path></g></g><mask></mask><g stroke-linecap="round"><g transform="translate(72.8821892692672 271.52615167969407) rotate(0 -30.6673382716142 27.83254229692716)"><path d="M0.83 0.7 C-9.6 9.88, -51.21 45.91, -61.73 55.06 M-0.19 0.03 C-10.89 9.35, -52.93 46.8, -62.88 56.28" stroke="#1e1e1e" stroke-width="4" fill="none"></path></g></g><mask></mask><g transform="translate(46.447569648771605 70.50848898882168) rotate(0 27.03125 12.5)"><text x="0" y="0" font-family="Virgil, Segoe UI Emoji" font-size="20px" fill="#1e1e1e" text-anchor="start" style="white-space: pre;" direction="ltr" dominant-baseline="text-before-edge">Client</text></g><g transform="translate(282.4160313965531 280.9024761395458) rotate(0 47.95833206176758 25)"><text x="47.95833206176758" y="0" font-family="Virgil, Segoe UI Emoji" font-size="20px" fill="#1e1e1e" text-anchor="middle" style="white-space: pre;" direction="ltr" dominant-baseline="text-before-edge">Create </text><text x="47.95833206176758" y="25" font-family="Virgil, Segoe UI Emoji" font-size="20px" fill="#1e1e1e" text-anchor="middle" style="white-space: pre;" direction="ltr" dominant-baseline="text-before-edge">submission</text></g><g stroke-linecap="round" transform="translate(200.32305006903334 54.73110607049375) rotate(0 219.80757669297464 169.1107685352647)"><path d="M0 0 C136.12 0, 272.25 0, 439.62 0 M0 0 C134.32 0, 268.65 0, 439.62 0 M439.62 0 C439.62 98.6, 439.62 197.21, 439.62 338.22 M439.62 0 C439.62 78.94, 439.62 157.89, 439.62 338.22 M439.62 338.22 C327.52 338.22, 215.43 338.22, 0 338.22 M439.62 338.22 C317.94 338.22, 196.27 338.22, 0 338.22 M0 338.22 C0 248.59, 0 158.96, 0 0 M0 338.22 C0 230.42, 0 122.63, 0 0" stroke="#1e1e1e" stroke-width="4" fill="none"></path></g><g stroke-linecap="round" transform="translate(414.7477910151456 89.83856031671712) rotate(0 97.61370602974137 46.70790687598924)"><path d="M102.89 -0.78 C116.34 -1.27, 132.47 1.28, 144.7 4.81 C156.92 8.35, 168.25 14.83, 176.26 20.4 C184.28 25.97, 190.34 31.88, 192.79 38.24 C195.24 44.6, 194.55 52, 190.98 58.56 C187.4 65.12, 180.53 72.41, 171.36 77.6 C162.18 82.8, 148.99 87.09, 135.92 89.74 C122.85 92.4, 107.05 93.91, 92.96 93.54 C78.88 93.17, 63.77 90.84, 51.41 87.51 C39.06 84.19, 27.15 79.14, 18.82 73.58 C10.48 68.03, 3.79 60.95, 1.4 54.19 C-0.99 47.43, 0.8 39.46, 4.48 33.05 C8.16 26.63, 14.28 20.53, 23.48 15.7 C32.69 10.87, 44.1 6.37, 59.72 4.04 C75.33 1.71, 105.47 1.95, 117.16 1.74 C128.84 1.53, 130.08 2.15, 129.81 2.77 M68.34 3.43 C80.51 0.63, 97.09 -0.65, 111.12 0.09 C125.15 0.83, 140.75 3.79, 152.55 7.86 C164.35 11.93, 174.9 18.5, 181.92 24.51 C188.93 30.53, 193.4 37.14, 194.66 43.96 C195.92 50.78, 194.46 59.13, 189.48 65.42 C184.5 71.71, 175.3 77.35, 164.8 81.72 C154.3 86.08, 140.15 89.56, 126.48 91.61 C112.82 93.65, 96.89 95.12, 82.82 94 C68.75 92.87, 53.75 89.06, 42.04 84.87 C30.33 80.69, 19.51 74.77, 12.56 68.89 C5.62 63.01, 1.33 56.35, 0.39 49.59 C-0.55 42.84, 1.91 34.61, 6.91 28.38 C11.92 22.15, 20.19 16.38, 30.4 12.21 C40.62 8.03, 61.46 4.78, 68.22 3.35 C74.99 1.91, 70.2 3.18, 71 3.6" stroke="#1e1e1e" stroke-width="4" fill="none"></path></g><g transform="translate(464.36824338895985 111.51898950566465) rotate(0 47.969940185546875 25)"><text x="47.969940185546875" y="0" font-family="Virgil, Segoe UI Emoji" font-size="20px" fill="#1e1e1e" text-anchor="middle" style="white-space: pre;" direction="ltr" dominant-baseline="text-before-edge">Get </text><text x="47.969940185546875" y="25" font-family="Virgil, Segoe UI Emoji" font-size="20px" fill="#1e1e1e" text-anchor="middle" style="white-space: pre;" direction="ltr" dominant-baseline="text-before-edge">submission</text></g><g stroke-linecap="round"><g transform="translate(111.66596634436655 133.20754309068707) rotate(0 145.99241905904535 4.500117091558877)"><path d="M-0.48 -0.53 C48.02 0.69, 242.81 6.55, 291.56 8.08 M1.47 1.81 C49.73 3.08, 242.09 7.8, 290.39 9.13" stroke="#1e1e1e" stroke-width="2" fill="none"></path></g><g transform="translate(111.66596634436655 133.20754309068707) rotate(0 145.99241905904535 4.500117091558877)"><path d="M266.68 17.07 C273.96 13.71, 281.51 11.7, 290.39 9.13 M266.68 17.07 C273 15.52, 279.3 13.51, 290.39 9.13" stroke="#1e1e1e" stroke-width="2" fill="none"></path></g><g transform="translate(111.66596634436655 133.20754309068707) rotate(0 145.99241905904535 4.500117091558877)"><path d="M267.12 -0.02 C274.36 2.53, 281.76 6.44, 290.39 9.13 M267.12 -0.02 C273.3 3.06, 279.49 5.67, 290.39 9.13" stroke="#1e1e1e" stroke-width="2" fill="none"></path></g></g><mask></mask><g mask="url(#mask-zXu1nEa6Fi9bZvOsFZQb3)" stroke-linecap="round"><g transform="translate(395.7985042642392 262.4148529234494) rotate(0 32.55543572231841 -40.17937399864081)"><path d="M0 0 C10.85 -13.39, 54.26 -66.97, 65.11 -80.36" stroke="#1e1e1e" stroke-width="2.5" fill="none" stroke-dasharray="8 10"></path></g><g transform="translate(395.7985042642392 262.4148529234494) rotate(0 32.55543572231841 -40.17937399864081)"><path d="M56.96 -56.72 C59.4 -63.8, 61.84 -70.88, 65.11 -80.36" stroke="#1e1e1e" stroke-width="2.5" fill="none"></path></g><g transform="translate(395.7985042642392 262.4148529234494) rotate(0 32.55543572231841 -40.17937399864081)"><path d="M43.68 -67.49 C50.1 -71.34, 56.51 -75.2, 65.11 -80.36" stroke="#1e1e1e" stroke-width="2.5" fill="none"></path></g></g><mask id="mask-zXu1nEa6Fi9bZvOsFZQb3"><rect x="0" y="0" fill="#fff" width="560.909375708876" height="442.77360092073104"></rect><rect x="369.77399156126467" y="209.73547892480838" fill="#000" width="117.15989685058594" height="25" opacity="1"></rect></mask><g transform="translate(369.77399156126467 209.73547892480838) rotate(0 58.57994842529297 12.500000000000227)"><text x="58.57994842529297" y="0" font-family="Virgil, Segoe UI Emoji" font-size="20px" fill="#1e1e1e" text-anchor="middle" style="white-space: pre;" direction="ltr" dominant-baseline="text-before-edge">&lt;&lt;includes&gt;&gt;</text></g><g transform="translate(362.9537426428644 10) rotate(0 57.611549377441406 16.002300470626096)"><text x="0" y="0" font-family="Virgil, Segoe UI Emoji" font-size="25.603680753001875px" fill="#1e1e1e" text-anchor="start" style="white-space: pre;" direction="ltr" dominant-baseline="text-before-edge">Envicutor</text></g></svg>