<svg version="1.1" xmlns="http://www.w3.org/2000/svg" xmlns:xlink="http://www.w3.org/1999/xlink" width="638" height="554"><desc>title%20Worker%20health%20checking%0Acontrol%20WorkerHealthChecker%0Adatabase%20SubmissionStore%0A%0Aactivate%20WorkerHealthChecker%0Aactivate%20SubmissionStore%0Aloop%20every%20n%20seconds%0A%20%20WorkerHealthChecker%20-%3E%20SubmissionStore%3A%20get%20all%20Submission%20objects%20%22s%22%5Cnwith%20lease%20not%20null%20and%20status%20not%20%22FINISHED%22%0A%20%20loop%20for%20each%20submission%20in%20s%0A%20%20%20%20opt%20submission.lease%20-%20now()%20%3E%20threshold%0A%20%20%20%20%20%20WorkerHealthChecker%20-%3E%20SubmissionStore%3A%20reset%20response%20and%20lease%20in%20Submission%20object%0A%20%20%20%20%20%20WorkerHealthChecker%20-%3E%20SubmissionStore%3A%20enqueue%20the%20submission%20id%20in%20the%20SubmissionStore%0A%20%20%20%20end%0A%20%20end%0Aend%0Adeactivate%20SubmissionStore%0Adeactivate%20WorkerHealthChecker%0A</desc><defs/><g><g/><g/><g/><g/><g><rect fill="white" stroke="none" x="0" y="0" width="638" height="554"/></g><g><text fill="black" stroke="none" font-family="sans-serif" font-size="16.5pt" font-style="normal" font-weight="normal" text-decoration="normal" x="197.59638169313155" y="24.50280495" text-anchor="start" dominant-baseline="alphabetic" xml:space="preserve">Worker health checking</text></g><g/><g><path fill="none" stroke="black" paint-order="fill stroke markers" d=" M 114.3464231 129.701514202 L 114.3464231 554.416800002" stroke-miterlimit="10" stroke-width="1.3612669416666667" stroke-dasharray="12.565541,5.445067766666667"/><path fill="none" stroke="black" paint-order="fill stroke markers" d=" M 523.8046685333334 129.701514202 L 523.8046685333334 554.416800002" stroke-miterlimit="10" stroke-width="1.3612669416666667" stroke-dasharray="12.565541,5.445067766666667"/></g><g><g><path fill="white" stroke="black" paint-order="fill stroke markers" d=" M 138.6042000005 82.819480731 A 24.2577769005 24.2577769005 0 1 1 138.60418787161257 82.79522295814245 M 111.07938243999999 58.561703830499994 L 120.88050442 50.39410218049999 M 111.07938243999999 58.561703830499994 L 120.88050442 66.72930548049999" stroke-miterlimit="10" stroke-width="2.7769845610000004" stroke-dasharray=""/></g><g><g/><text fill="black" stroke="none" font-family="sans-serif" font-size="11pt" font-style="normal" font-weight="normal" text-decoration="normal" x="38.33600897646484" y="124.800953212" text-anchor="start" dominant-baseline="alphabetic" xml:space="preserve">WorkerHealthChecker</text></g><g><path fill="white" stroke="black" paint-order="fill stroke markers" d=" M 499.95527171533337 97.684515734 L 499.95527171533337 63.380588804000006 L 547.6540653513333 63.380588804000006 L 547.6540653513333 97.684515734" stroke-miterlimit="10" stroke-width="2.7769845610000004" stroke-dasharray=""/><path fill="white" stroke="black" paint-order="fill stroke markers" d=" M 547.6540653513333 62.1881189631 L 547.6528728914296 62.29592950801663 L 547.6492956309636 62.403729271968594 L 547.6433339276583 62.51150747506936 L 547.634988377679 62.619253339588404 L 547.6242598155737 62.72695609102909 L 547.6111493141899 62.834604959206004 L 547.5956581845667 62.94218917932205 L 547.5777879758041 63.04969799304486 L 547.557540474908 63.15712064958265 L 547.5349177066119 63.2644464067593 L 547.5099219331735 63.371664532088516 L 547.4825556541495 63.47876430384712 L 547.4528216061449 63.58573501214718 L 547.4207227625398 63.692565960007016 L 547.3862623331917 63.79924646442086 L 547.3494437641149 63.90576585742718 L 547.3102707371355 64.01211348717543 L 547.2687471695237 64.11827871899126 L 547.2248772136018 64.22425093643996 L 547.1786652563284 64.3300195423881 L 547.1301159188611 64.43557396006322 L 547.079234056093 64.54090363411153 L 547.0260247561681 64.64599803165338 L 546.9704933399719 64.75084664333659 L 546.9126453605999 64.85543898438739 L 546.8524866028017 64.95976459565881 L 546.7900230824031 65.06381304467668 L 546.7252610457039 65.16757392668278 L 546.6582069688538 65.27103686567541 L 546.5888675572049 65.37419151544687 L 546.5172497446403 65.47702756061814 L 546.4433606928816 65.5795347176704 L 546.3672077907726 65.68170273597339 L 546.2887986535397 65.7835213988104 L 546.2081411220316 65.88498052439998 L 546.1252432619342 65.98606996691414 L 546.0401133629643 66.08677961749288 L 545.9527599380409 66.18709940525505 L 545.8631917224337 66.28701929830548 L 545.7714176728897 66.38652930473813 L 545.6774469667373 66.48561947363528 L 545.5812890009687 66.58427989606261 L 545.4829533913006 66.6825007060601 L 545.3824499712118 66.7802720816286 L 545.2797887909607 66.87758424571203 L 545.1749801165796 66.97442746717506 L 545.0680344288487 67.07079206177627 L 544.9589624222477 67.1666683931365 L 544.8477750038865 67.2620468737025 L 544.7344832924139 67.35691796570569 L 544.619098616907 67.45127218211596 L 544.5016325157369 67.54510008759026 L 544.382096735416 67.63839229941624 L 544.2605032294227 67.73113948845047 L 544.1368641570064 67.82333238005134 L 544.011191881971 67.9149617550065 L 543.8834989714395 68.00601845045483 L 543.7537981945965 68.09649336080267 L 543.6221025214115 68.18637743863435 L 543.4884251213423 68.27566169561702 L 543.3527793620174 68.36433720339936 L 543.2151788078995 68.45239509450451 L 543.0756372189296 68.53982656321674 L 542.9341685491503 68.62662286646201 L 542.7907869453105 68.71277532468237 L 542.6455067454514 68.79827532270376 L 542.4983424774715 68.88311431059763 L 542.3493088576754 68.9672838045359 L 542.1984207893005 69.0507753876393 L 542.0456933610282 69.13358071081912 L 541.8911418454738 69.21569149361203 L 541.7347816976604 69.29709952500816 L 541.5766285534721 69.37779666427225 L 541.4166982280918 69.45777484175761 L 541.2550067144186 69.53702605971311 L 541.0915701814694 69.61554239308303 L 540.9264049727608 69.69331599029945 L 540.7595276046765 69.77033907406746 L 540.590954764814 69.84660394214286 L 540.4207033103169 69.92210296810242 L 540.2487902661887 69.99682860210643 L 540.0752328235907 70.07077337165379 L 539.9000483381224 70.14392988232913 L 539.7232543280863 70.21629081854239 L 539.5448684727363 70.28784894426022 L 539.364908610509 70.35859710372968 L 539.183392737241 70.42852822219379 L 539.000339004368 70.49763530659898 L 538.815765717111 70.5659114462944 L 538.6296913326448 70.63334981372294 L 538.4421344582529 70.69994366510412 L 538.2531138494662 70.76568634110825 L 538.0626484081884 70.83057126752253 L 537.8707571808045 70.89459195590838 L 537.6774593562777 70.95774200425032 L 537.4827742642292 71.02001509759614 L 537.286721373006 71.08140500868842 L 537.0893202877338 71.14190559858717 L 536.8905907483568 71.20151081728383 L 536.690552627663 71.26021470430622 L 536.4892259292981 71.31801138931453 L 536.286630785764 71.37489509268845 L 536.0827874564062 71.43086012610503 L 535.877716325388 71.48590089310757 L 535.6714378996512 71.54001188966522 L 535.4639728068669 71.59318770472345 L 535.2553417933711 71.64542302074504 L 535.0455657220917 71.69671261424193 L 534.8346655704607 71.7470513562975 L 534.6226624283177 71.79643421307951 L 534.4095774958 71.84485624634341 L 534.1954320812237 71.89231261392625 L 533.9802475989513 71.93879857023082 L 533.7640455672521 71.9843094667002 L 533.546847606149 72.02884075228269 L 533.328675435257 72.07238797388683 L 533.1095508716114 72.11494677682676 L 532.889495827486 72.15651290525764 L 532.668532308202 72.19708220260128 L 532.446682409927 72.23665061196175 L 532.223968317466 72.27521417653107 L 532.0004123020425 72.31276903998494 L 531.7760367190721 72.3493114468683 L 531.5508640059257 72.38483774297092 L 531.3249166796874 72.41934437569277 L 531.0982173349012 72.45282789439938 L 530.8707886413127 72.48528495076673 L 530.6426533416019 72.51671229911628 L 530.4138342491086 72.54710679673934 L 530.1843542455513 72.5764654042115 L 529.9542362787392 72.60478518569649 L 529.7235033602772 72.63206330923974 L 529.4921785632648 72.65829704705163 L 529.2602850199889 72.68348377578025 L 529.0278459196109 72.70762097677371 L 528.7948845058468 72.73070623633201 L 528.5614240746438 72.75273724594847 L 528.3274879718508 72.77371180254045 L 528.0930995908828 72.79362780866978 L 527.8582823703829 72.81248327275246 L 527.6230597918773 72.83027630925778 L 527.3874553774276 72.84700513889692 L 527.1514926872793 72.86266808880085 L 526.9151953175046 72.87726359268764 L 526.6785868976436 72.89079019101906 L 526.441691088341 72.90324653114655 L 526.2045315789805 72.91463136744649 L 525.9671320853154 72.9249435614447 L 525.7295163470969 72.93418208193043 L 525.4917081257013 72.94234600505929 L 525.2537312017522 72.94943451444577 L 525.0156093727438 72.95544690124485 L 524.7773664506607 72.96038256422287 L 524.5390262595963 72.96424100981763 L 524.3006126333713 72.9670218521878 L 524.0621494131495 72.96872481325143 L 523.8236604450544 72.96934972271386 L 523.5851695777839 72.96889651808466 L 523.346700660226 72.96736524468392 L 523.1082775390738 72.96475605563768 L 522.8699240564408 72.96106921186271 L 522.6316640474764 72.95630508204027 L 522.3935213379832 72.9504641425794 L 522.1555197420336 72.94354697756918 L 521.9176830595887 72.93555427872033 L 521.6800350741188 72.9264868452961 L 521.4425995502243 72.91634558403224 L 521.2054002312595 72.90513150904647 L 520.9684608369591 72.89284574173689 L 520.7318050610648 72.87948951067006 L 520.495456568957 72.86506415145789 L 520.259438995288 72.84957110662431 L 520.0237759416184 72.8330119254609 L 519.7884909740573 72.81538826387197 L 519.5536076209053 72.79670188420899 L 519.319149370302 72.77695465509434 L 519.0851396678771 72.7561485512345 L 518.8516019144057 72.73428565322251 L 518.6185594634688 72.71136814732996 L 518.3860356191171 72.68739832528833 L 518.1540536335413 72.66237858405984 L 517.9226367047467 72.63631142559778 L 517.6918079742331 72.60919945659627 L 517.4615905246816 72.58104538822961 L 517.232007377645 72.55185203588118 L 517.0030814912467 72.5216223188619 L 516.7748357578847 72.49035926011825 L 516.5472930019421 72.45806598593009 L 516.3204759775048 72.4247457255979 L 516.0944073660863 72.39040181111994 L 515.8691097743593 72.35503767685907 L 515.6446057318952 72.31865685919922 L 515.4209176889113 72.28126299619186 L 515.1980680140255 72.24285982719209 L 514.9760789920193 72.20345119248485 L 514.7549728216103 72.16304103290075 L 514.5347716132309 72.12163338942209 L 514.3154973868187 72.07923240277869 L 514.0971720696135 72.03584231303388 L 513.8798174939651 71.99146745916049 L 513.6634553951501 71.94611227860693 L 513.4481074091977 71.89978130685344 L 513.2337950707275 71.85247917695861 L 513.0205398107944 71.80421061909601 L 512.8083629547469 71.75498046008119 L 512.5972857200936 71.70479362288901 L 512.3873292143822 71.65365512616141 L 512.1785144330884 71.60157008370541 L 511.97086225751605 71.54854370398188 L 511.76439345270984 71.49458128958457 L 511.5591286653782 71.43968823671 L 511.3550884218287 71.38387003461766 L 511.15229312591583 71.32713226508127 L 510.950763057 71.26948060183051 L 510.75051836792034 71.21092080998365 L 510.5515790829787 71.15145874547107 L 510.35396509593795 71.0911003544497 L 510.1576961680321 71.0298516727083 L 509.96279192599025 70.96771882506403 L 509.76927186007435 70.90470802474988 L 509.5771553221296 70.84082557279336 L 509.38646152364976 70.77607785738643 L 509.19720953385576 70.71047135324669 L 509.0094182777889 70.64401262096986 L 508.82310653441823 70.5767083063738 L 508.63829293476283 70.50856513983389 L 508.4549959600287 70.43958993560999 L 508.2732339397606 70.36978959116503 L 508.093025050009 70.29917108647531 L 507.9143873115127 70.22774148333244 L 507.7373385878968 70.1555079246372 L 507.561896583886 70.08247763368529 L 507.3880788435346 70.00865791344492 L 507.21590274847165 69.9340561458266 L 507.04538551616326 69.85867979094495 L 506.87654419819063 69.78253638637263 L 506.70939567854475 69.70563354638664 L 506.54395667193836 69.62797896120689 L 506.38024372213425 69.54958039622719 L 506.2182732002909 69.47044569123871 L 506.0580613033256 69.39058275964601 L 505.89962405229454 69.30999958767568 L 505.7429772907907 69.22870423357777 L 505.5881366833598 69.14670482681996 L 505.4351177139335 69.06400956727457 L 505.28393568428123 68.98062672439866 L 505.13460571248 68.89656463640702 L 504.98714273140246 68.8118317094384 L 504.8415614872239 68.72643641671489 L 504.6978765379474 68.6403872976946 L 504.55610225194823 68.55369295721772 L 504.41625280653676 68.46636206464606 L 504.278342186541 68.37840335299609 L 504.1423841829081 68.28982561806569 L 504.00839239132495 68.20063771755453 L 503.8763802108592 68.11084857017835 L 503.74636084261886 68.02046715477704 L 503.6183472884324 67.92950250941684 L 503.4923523495485 67.83796373048648 L 503.36838862535615 67.74585997178757 L 503.2464685121244 67.65320044361923 L 503.12660420176303 67.55999441185705 L 503.0088076806031 67.46625119702654 L 502.8930907281987 67.37198017337107 L 502.77946491614847 67.27719076791445 L 502.66794160693905 67.18189245951821 L 502.5585319528084 67.08609477793381 L 502.4512468946307 66.98980730284956 L 502.34609716082247 66.89303966293272 L 502.2430932662694 66.79580153486665 L 502.14224551127506 66.69810264238313 L 502.043563980531 66.59995275528999 L 501.94705854210804 66.50136168849414 L 501.8527388464696 66.40233930102012 L 501.7606143255066 66.30289549502413 L 501.6706941915944 66.20304021480393 L 501.5829874366715 66.1027834458043 L 501.4975028313402 66.00213521361863 L 501.4142489239899 65.90110558298623 L 501.3332340399419 65.799704656786 L 501.25446628061707 65.69794257502603 L 501.1779535227258 65.59582951382973 L 501.10370341748 65.4933756844181 L 501.0317233898284 65.3905913320887 L 500.9620206377138 65.28748673519112 L 500.8946021313533 65.18407220409914 L 500.8294746125413 65.08035808017966 L 500.7666445939754 64.97635473475869 L 500.7061183586052 64.87207256808405 L 500.6479019590037 64.76752200828555 L 500.5920012167624 64.66271351033203 L 500.538421721909 64.55765755498592 L 500.48716883234823 64.45236464775525 L 500.4382476733264 64.34684531784296 L 500.3916631369185 64.24111011709415 L 500.34741988153957 64.13516961894075 L 500.3055223314782 64.0290344173443 L 500.2659746764544 63.92271512573653 L 500.2287808712008 63.81622237595798 L 500.1939446350669 63.70956681719489 L 500.1614694516473 63.602759114914264 L 500.13135856843326 63.49580994979732 L 500.103614996488 63.38873001667144 L 500.07824151014563 63.28153002344071 L 500.05524064673364 63.17422069001512 L 500.03461470631913 63.066812747238586 L 500.01636575147904 62.959316935815885 L 500.0004956070936 62.85174400523857 L 499.9870058601641 62.74410471271006 L 499.9758978596539 62.636409822069915 L 499.9671727163538 62.52867010271744 L 499.9608313027709 62.4208963285348 L 499.9568742530413 62.313099276809595 L 499.95530196286654 62.20528972715717 L 499.9561145894745 62.09747846044265 L 499.9593120516031 61.98967625770286 L 499.9648940295088 61.88189389906824 L 499.97285996499846 61.77414216268484 L 499.9832090614852 61.66643182363649 L 499.99594028406796 61.558773652867366 L 500.0110523596351 61.4511784161048 L 500.0285437769916 61.34365687278283 L 500.0484127870105 61.236219774966166 L 500.0706574028071 61.12887786627507 L 500.09527539993854 61.02164188081096 L 500.12226431662555 60.91452254208302 L 500.151621453999 60.807530561935856 L 500.18334387636946 60.70067663947832 L 500.2174284115213 60.593971460013606 L 500.25387165102944 60.487425693970756 L 500.2926699506001 60.381049995837586 L 500.3338194304358 60.27485500309525 L 500.3773159756228 60.16885133515453 L 500.4231552365429 60.06304959229389 L 500.4713326293081 59.95746035459945 L 500.5218433362194 59.852094180906974 L 500.574682306248 59.746961607746044 L 500.6298442555411 59.64207314828636 L 500.6873236679497 59.537439291286454 L 500.74711479558044 59.43307050004484 L 500.8092116593704 59.32897721135367 L 500.87360804968495 59.22516983445505 L 500.9402975269387 59.12165875000019 L 501.0092734222395 59.01845430901127 L 501.08052883805533 58.91556683184637 L 501.1540566489039 58.81300660716748 L 501.2298495020656 58.7107838909116 L 501.307899818318 58.60890890526517 L 501.3881997926947 58.507391837641855 L 501.4707413952652 58.406242839663825 L 501.55551637193787 58.30547202614659 L 501.64251624528583 58.205089474087515 L 501.7317323153942 58.105105221658164 L 501.8231556607303 58.00552926720046 L 501.9167771390358 57.90637156822687 L 502.0125873882409 57.807642040424646 L 502.11057682740045 57.709350556664305 L 502.21073565765226 57.61150694601232 L 502.3130538631968 57.514120992748204 L 502.4175212122987 57.417202435386145 L 502.52412725831016 57.320760965701105 L 502.63286134071535 57.224806227759686 L 502.74371258619675 57.12934781695572 L 502.8566699097221 57.03439527905074 L 502.97172201565314 56.93995810921942 L 503.0888573988753 56.84604575110002 L 503.2080643459478 56.75266759585011 L 503.3293309362752 56.65983298120741 L 503.4526450432996 56.567551190555996 L 503.577994335713 56.47583145199805 L 503.70536627869075 56.384682937430995 L 503.83474813514454 56.29411476163032 L 503.96612696699657 56.20413598133814 L 504.0994896364732 56.1147555943575 L 504.23482280741865 56.02598253865261 L 504.3721129466285 55.937825691455075 L 504.51134632520325 55.85029386837614 L 504.6525090199211 55.763395822525176 L 504.79558691463023 55.677140243634355 L 504.9405657016604 55.591535757189675 L 505.08743088325366 55.50659092356846 L 505.23616777301436 55.42231423718327 L 505.38676149737734 55.33871412563253 L 505.5391969970957 55.25579894885771 L 505.69345902874653 55.1735769983074 L 505.84953216625513 55.092056496108135 L 506.0074008024379 55.01124559424221 L 506.16704915056283 54.93115237373246 L 506.328461245928 54.851784843834196 L 506.4916209474585 54.77315094123426 L 506.65651193932007 54.6952585292574 L 506.82311773255094 54.61811539707989 L 506.99142166671066 54.54172925895067 L 507.16140691154607 54.46610775341989 L 507.3330564686743 54.391258442575094 L 507.5063531732827 54.317188811284986 L 507.6812796958452 54.24390626645098 L 507.8578185438554 54.171418136266475 L 508.03595206357545 54.09973166948409 L 508.215662441802 54.028854034690774 L 508.3969317076469 53.95879231959093 L 508.5797417343346 53.88955353029769 L 508.76407424101484 53.82114459063227 L 508.9499107945905 53.753572341431656 L 509.1372328115611 53.68684353986444 L 509.3260215598811 53.62096485875517 L 509.5162581608329 53.55594288591707 L 509.707923590915 53.49178412349323 L 509.9009986837441 53.42849498730643 L 510.09546413197177 53.366081806217544 L 510.2913004892153 53.304550821492676 L 510.4884881720022 53.24390818617902 L 510.68700746172834 53.18415996448957 L 510.8868385066304 53.12531213119671 L 511.08796132377023 53.067370571034715 L 511.2903558010338 53.01034107811134 L 511.4940016991421 52.95422935532834 L 511.6988786536749 52.89904101381123 L 511.90496617710755 52.84478157234818 L 512.1122436608595 52.79145645683812 L 512.3206903773549 52.73907099974815 L 512.5302854820961 52.687630439580346 L 512.7410080157471 52.637139920347835 L 512.9528369062301 52.58760449106049 L 513.1657509708327 52.53902910521993 L 513.3797289183259 52.49141862032429 L 513.5947493510931 52.444777797382365 L 513.8107907672703 52.399111300437596 L 514.0278315628958 52.354423696101605 L 514.2458500340712 52.3107194530976 L 514.4648243791307 52.26800294181345 L 514.6847327008225 52.2262784338647 L 514.9055530084977 52.18555010166736 L 515.1272632203094 52.14582201802072 L 515.3498411654213 52.10709815570004 L 515.5732645862242 52.06938238705927 L 515.7975111405624 52.032678483643856 L 516.0225584039673 51.996990115813546 L 516.2483838719 51.96232085237539 L 516.4749649620021 51.928674160226834 L 516.7022790163533 51.89605340400906 L 516.9303033037373 51.8644618457705 L 517.1590150219158 51.833902644640645 L 517.3883912999074 51.80437885651416 L 517.6184092002756 51.775893433745246 L 517.8490457214217 51.74844922485244 L 518.0802777998861 51.722048974233765 L 518.3120823126534 51.69669532189228 L 518.5444360794658 51.672390803172085 L 518.7773158651399 51.649137848504814 L 519.0106983818915 51.626938783166544 L 519.2445602916633 51.60579582704531 L 519.4788782084592 51.58571109441911 L 519.7136287006826 51.56668659374447 L 519.9487882934802 51.54872422745561 L 520.1843334710886 51.53182579177417 L 520.4202406791862 51.515992976529645 L 520.656486327249 51.50122736499037 L 520.8930467909088 51.4875304337052 L 521.1298984143166 51.47490355235584 L 521.3670175125072 51.4633479836199 L 521.6043803737687 51.45286488304463 L 521.8419632620124 51.443455298931354 L 522.0797424191477 51.43512017223063 L 522.3176940674571 51.4278603364482 L 522.5557944119738 51.42167651756158 L 522.7940196428619 51.41656933394751 L 523.032345937797 51.41253929632009 L 523.270749464348 51.40958680767973 L 523.5092063823608 51.407712163272826 L 523.7476928463427 51.40691555056227 L 523.9861850078457 51.40719704920866 L 524.2246590178526 51.40855663106237 L 524.463091029161 51.41099416016634 L 524.7014571987685 51.414509392769695 L 524.9397336902567 51.419101977352106 L 525.1778966761752 51.42477145465894 L 525.4159223404238 51.431517257747196 L 525.6537868806342 51.43933871204218 L 525.8914665105509 51.44823503540498 L 526.128937462409 51.45820533821068 L 526.3661759893109 51.4692486234373 L 526.6031583676018 51.48136378676553 L 526.8398608992414 51.49454961668913 L 527.0762599141738 51.50880479463608 L 527.3123317726944 51.524127895100484 L 527.548052867814 51.54051738578506 L 527.7833996276197 51.5579716277544 L 528.0183485176316 51.57648887559884 L 528.2528760431563 51.59606727760904 L 528.4869587516371 51.6167048759611 L 528.7205732349978 51.6383996069124 L 528.9536961319849 51.66114930100791 L 529.186304130503 51.684951683297186 L 529.4183739699461 51.70980437356183 L 529.6498824435236 51.735704886553535 L 529.880806400581 51.76265063224257 L 530.1111227489152 51.79063891607683 L 530.3408084570832 51.81966693925126 L 530.5698405567056 51.849731798987726 L 530.7981961447632 51.88083048882531 L 531.0258523858877 51.91295989892094 L 531.2527865146444 51.94611681636038 L 531.4789758378098 51.980297925479526 L 531.7043977366401 52.01549980819594 L 531.929029669133 52.0517189443507 L 532.1528491722827 52.08895171206036 L 532.3758338643253 52.127194388079175 L 532.5979614469773 52.16644314817141 L 532.8192097076658 52.20669406749378 L 533.0395565217489 52.247943120987884 L 533.2589798547288 52.29018618378274 L 533.4774577644552 52.33341903160728 L 533.6949684033191 52.37763734121275 L 533.9114900204379 52.422836690805035 L 534.1270009638303 52.46901256048684 L 534.3414796825815 52.516160332709674 L 534.5549047289985 52.564275292735616 L 534.7672547607544 52.613352629108746 L 534.9785085430232 52.663387434136325 L 535.1886449506023 52.71437470437956 L 535.3976429700264 52.7663093411539 L 535.6054817016676 52.819186151038956 L 535.8121403618259 52.8729998463978 L 536.0175982848076 52.92774504590574 L 536.2218349249915 52.983416275088445 L 536.4248298588839 53.040007966869396 L 536.6265627871604 53.09751446212657 L 536.8270135366965 53.15593001025836 L 537.0261620625841 53.21524876975863 L 537.2239884501367 53.27546480880087 L 537.4204729168804 53.33657210583136 L 537.6155958145322 53.3985645501713 L 537.8093376309649 53.461435942627936 L 538.0016789921583 53.52517999611441 L 538.1926006641368 53.58979033627848 L 538.3820835548919 53.655260502139996 L 538.5701087162928 53.721583946736914 L 538.7566573459799 53.78875403778004 L 538.9417107892456 53.85676405831625 L 539.1252505408999 53.92560720740017 L 539.3072582471206 53.995276600774254 L 539.4877157072887 54.065765271557225 L 539.6666048758085 54.13706617094075 L 539.8439078639122 54.2091721688943 L 540.0196069414491 54.28207605487816 L 540.1936845386574 54.35577053856451 L 540.3661232479227 54.43024825056637 L 540.5369058255177 54.50550174317461 L 540.706015193327 54.581523491102686 L 540.8734344405545 54.658305892239156 L 541.0391468254154 54.73584126840789 L 541.2031357768091 54.81412186613588 L 541.3653848959771 54.89313985742859 L 541.5258779581427 54.97288734055273 L 541.6845989141335 55.05335634082646 L 541.841531891986 55.1345388114168 L 541.9966611985334 55.21642663414435 L 542.1499713209743 55.29901162029506 L 542.301446928424 55.38228551143916 L 542.4510728734481 55.46623998025691 L 542.5988341935769 55.55086663137139 L 542.7447161128014 55.63615700218803 L 542.8887040430512 55.722102563740805 L 543.0307835856535 55.80869472154519 L 543.1709405327722 55.89592481645755 L 543.3091608688294 55.98378412554111 L 543.4454307719068 56.07226386293816 L 543.5797366151276 56.1613551807487 L 543.7120649680194 56.251049169915184 L 543.842402597857 56.34133686111345 L 543.9707364709864 56.4322092256496 L 544.097053754127 56.52365717636293 L 544.2213418156557 56.615671568534566 L 544.3435882268701 56.70824320080196 L 544.4637807632308 56.80136281607904 L 544.5819074055845 56.89502110248188 L 544.6979563413652 56.98920869425987 L 544.811915965776 57.083916172732344 L 544.9237748829497 57.17913406723036 L 545.0335219070876 57.27485285604382 L 545.1411460635787 57.37106296737362 L 545.2466365900972 57.467754780288786 L 545.3499829376782 57.56491862568861 L 545.4511747717731 57.662544787269525 L 545.550201973283 57.76062350249672 L 545.64705463957 57.859144963580405 L 545.7417230854484 57.95809931845658 L 545.8341978441523 58.05747667177222 L 545.9244696682831 58.15726708587479 L 546.0125295307334 58.257460581806065 L 546.0983686255905 58.358047140299924 L 546.1819783690165 58.459016702784346 L 546.2633504001064 58.56035917238722 L 546.3424765817254 58.66206441494605 L 546.4193490013208 58.764122260021324 L 546.493959971715 58.866522501913586 L 546.566302031873 58.96925490068398 L 546.6363679476492 59.072309183178234 L 546.7041507125102 59.17567504405398 L 546.7696435482362 59.279342146811274 L 546.8328399055981 59.38330012482622 L 546.8937334650128 59.48753858238766 L 546.9523181371752 59.59204709573668 L 547.0085880636668 59.69681521410906 L 547.062537617542 59.80183246078026 L 547.1141614038903 59.907088334113126 L 547.1634542603759 60.012572308608036 L 547.2104112577546 60.11827383595545 L 547.2550277003654 60.22418234609071 L 547.2972991266015 60.33028724825106 L 547.3372213093553 60.43657793203471 L 547.374790256442 60.54304376846186 L 547.410002210998 60.64967411103757 L 547.4428536518574 60.75645829681646 L 547.4733412939032 60.86338564746893 L 547.5014620883969 60.97044547034902 L 547.5272132232823 61.07762705956367 L 547.5505921234675 61.184919697043256 L 547.5715964510817 61.29231265361346 L 547.59022410571 61.399795190068104 L 547.6064732246023 61.50735655824312 L 547.6203421828602 61.614986002091314 L 547.6318295935995 61.72267275875801 L 547.6409343080886 61.830406059657264 L 547.6476554158638 61.93817513154877 L 547.6519922448198 62.04596919761514 L 547.6539443612774 62.15377747853961 M 547.6540653513333 96.4920458931 L 547.6528728914296 96.59985643801662 L 547.6492956309636 96.70765620196859 L 547.6433339276583 96.81543440506935 L 547.634988377679 96.9231802695884 L 547.6242598155737 97.03088302102908 L 547.6111493141899 97.138531889206 L 547.5956581845667 97.24611610932205 L 547.5777879758041 97.35362492304485 L 547.557540474908 97.46104757958265 L 547.5349177066119 97.5683733367593 L 547.5099219331735 97.67559146208852 L 547.4825556541495 97.78269123384712 L 547.4528216061449 97.88966194214719 L 547.4207227625398 97.99649289000702 L 547.3862623331917 98.10317339442086 L 547.3494437641149 98.20969278742717 L 547.3102707371355 98.31604041717543 L 547.2687471695237 98.42220564899125 L 547.2248772136018 98.52817786643996 L 547.1786652563284 98.6339464723881 L 547.1301159188611 98.73950089006323 L 547.079234056093 98.84483056411152 L 547.0260247561681 98.94992496165337 L 546.9704933399719 99.05477357333659 L 546.9126453605999 99.15936591438738 L 546.8524866028017 99.2636915256588 L 546.7900230824031 99.36773997467667 L 546.7252610457039 99.47150085668278 L 546.6582069688538 99.5749637956754 L 546.5888675572049 99.67811844544686 L 546.5172497446403 99.78095449061813 L 546.4433606928816 99.8834616476704 L 546.3672077907726 99.98562966597338 L 546.2887986535397 100.08744832881038 L 546.2081411220316 100.18890745439998 L 546.1252432619342 100.28999689691415 L 546.0401133629643 100.39070654749288 L 545.9527599380409 100.49102633525506 L 545.8631917224337 100.59094622830548 L 545.7714176728897 100.69045623473812 L 545.6774469667373 100.78954640363527 L 545.5812890009687 100.8882068260626 L 545.4829533913006 100.9864276360601 L 545.3824499712118 101.0841990116286 L 545.2797887909607 101.18151117571202 L 545.1749801165796 101.27835439717506 L 545.0680344288487 101.37471899177628 L 544.9589624222477 101.4705953231365 L 544.8477750038865 101.56597380370249 L 544.7344832924139 101.6608448957057 L 544.619098616907 101.75519911211595 L 544.5016325157369 101.84902701759025 L 544.382096735416 101.94231922941623 L 544.2605032294227 102.03506641845047 L 544.1368641570064 102.12725931005133 L 544.011191881971 102.2188886850065 L 543.8834989714395 102.30994538045483 L 543.7537981945965 102.40042029080266 L 543.6221025214115 102.49030436863434 L 543.4884251213423 102.579588625617 L 543.3527793620174 102.66826413339936 L 543.2151788078995 102.75632202450451 L 543.0756372189296 102.84375349321674 L 542.9341685491503 102.93054979646202 L 542.7907869453105 103.01670225468237 L 542.6455067454514 103.10220225270375 L 542.4983424774715 103.18704124059762 L 542.3493088576754 103.27121073453588 L 542.1984207893005 103.3547023176393 L 542.0456933610282 103.4375076408191 L 541.8911418454738 103.51961842361202 L 541.7347816976604 103.60102645500817 L 541.5766285534721 103.68172359427226 L 541.4166982280918 103.7617017717576 L 541.2550067144186 103.84095298971312 L 541.0915701814694 103.91946932308304 L 540.9264049727608 103.99724292029944 L 540.7595276046765 104.07426600406745 L 540.590954764814 104.15053087214287 L 540.4207033103169 104.22602989810241 L 540.2487902661887 104.30075553210642 L 540.0752328235907 104.37470030165377 L 539.9000483381224 104.44785681232914 L 539.7232543280863 104.52021774854238 L 539.5448684727363 104.59177587426021 L 539.364908610509 104.66252403372968 L 539.183392737241 104.73245515219378 L 539.000339004368 104.80156223659897 L 538.815765717111 104.86983837629438 L 538.6296913326448 104.93727674372295 L 538.4421344582529 105.0038705951041 L 538.2531138494662 105.06961327110824 L 538.0626484081884 105.13449819752252 L 537.8707571808045 105.19851888590837 L 537.6774593562777 105.26166893425032 L 537.4827742642292 105.32394202759615 L 537.286721373006 105.38533193868841 L 537.0893202877338 105.44583252858716 L 536.8905907483568 105.50543774728384 L 536.690552627663 105.56414163430621 L 536.4892259292981 105.62193831931454 L 536.286630785764 105.67882202268845 L 536.0827874564062 105.73478705610502 L 535.877716325388 105.78982782310756 L 535.6714378996512 105.84393881966523 L 535.4639728068669 105.89711463472344 L 535.2553417933711 105.94934995074503 L 535.0455657220917 106.00063954424192 L 534.8346655704607 106.0509782862975 L 534.6226624283177 106.1003611430795 L 534.4095774958 106.14878317634341 L 534.1954320812237 106.19623954392625 L 533.9802475989513 106.2427255002308 L 533.7640455672521 106.2882363967002 L 533.546847606149 106.33276768228268 L 533.328675435257 106.37631490388682 L 533.1095508716114 106.41887370682676 L 532.889495827486 106.46043983525765 L 532.668532308202 106.50100913260128 L 532.446682409927 106.54057754196174 L 532.223968317466 106.57914110653107 L 532.0004123020425 106.61669596998493 L 531.7760367190721 106.65323837686829 L 531.5508640059257 106.6887646729709 L 531.3249166796874 106.72327130569276 L 531.0982173349012 106.75675482439937 L 530.8707886413127 106.78921188076673 L 530.6426533416019 106.82063922911627 L 530.4138342491086 106.85103372673933 L 530.1843542455513 106.8803923342115 L 529.9542362787392 106.90871211569649 L 529.7235033602772 106.93599023923973 L 529.4921785632648 106.96222397705162 L 529.2602850199889 106.98741070578025 L 529.0278459196109 107.0115479067737 L 528.7948845058468 107.03463316633201 L 528.5614240746438 107.05666417594847 L 528.3274879718508 107.07763873254045 L 528.0930995908828 107.09755473866979 L 527.8582823703829 107.11641020275246 L 527.6230597918773 107.13420323925777 L 527.3874553774276 107.1509320688969 L 527.1514926872793 107.16659501880085 L 526.9151953175046 107.18119052268763 L 526.6785868976436 107.19471712101905 L 526.441691088341 107.20717346114655 L 526.2045315789805 107.21855829744648 L 525.9671320853154 107.22887049144471 L 525.7295163470969 107.23810901193042 L 525.4917081257013 107.24627293505928 L 525.2537312017522 107.25336144444577 L 525.0156093727438 107.25937383124486 L 524.7773664506607 107.26430949422287 L 524.5390262595963 107.26816793981763 L 524.3006126333713 107.27094878218779 L 524.0621494131495 107.27265174325143 L 523.8236604450544 107.27327665271386 L 523.5851695777839 107.27282344808465 L 523.346700660226 107.27129217468391 L 523.1082775390738 107.26868298563768 L 522.8699240564408 107.2649961418627 L 522.6316640474764 107.26023201204026 L 522.3935213379832 107.2543910725794 L 522.1555197420336 107.24747390756917 L 521.9176830595887 107.23948120872033 L 521.6800350741188 107.23041377529609 L 521.4425995502243 107.22027251403225 L 521.2054002312595 107.20905843904646 L 520.9684608369591 107.1967726717369 L 520.7318050610648 107.18341644067004 L 520.495456568957 107.16899108145788 L 520.259438995288 107.15349803662431 L 520.0237759416184 107.1369388554609 L 519.7884909740573 107.11931519387196 L 519.5536076209053 107.10062881420897 L 519.319149370302 107.08088158509435 L 519.0851396678771 107.0600754812345 L 518.8516019144057 107.03821258322252 L 518.6185594634688 107.01529507732995 L 518.3860356191171 106.99132525528832 L 518.1540536335413 106.96630551405984 L 517.9226367047467 106.94023835559778 L 517.6918079742331 106.91312638659626 L 517.4615905246816 106.88497231822961 L 517.232007377645 106.85577896588119 L 517.0030814912467 106.8255492488619 L 516.7748357578847 106.79428619011826 L 516.5472930019421 106.76199291593008 L 516.3204759775048 106.72867265559789 L 516.0944073660863 106.69432874111995 L 515.8691097743593 106.65896460685907 L 515.6446057318952 106.62258378919921 L 515.4209176889113 106.58518992619184 L 515.1980680140255 106.5467867571921 L 514.9760789920193 106.50737812248485 L 514.7549728216103 106.46696796290075 L 514.5347716132309 106.42556031942208 L 514.3154973868187 106.38315933277867 L 514.0971720696135 106.33976924303387 L 513.8798174939651 106.29539438916049 L 513.6634553951501 106.25003920860692 L 513.4481074091977 106.20370823685344 L 513.2337950707275 106.15640610695861 L 513.0205398107944 106.108137549096 L 512.8083629547469 106.05890739008117 L 512.5972857200936 106.00872055288902 L 512.3873292143822 105.9575820561614 L 512.1785144330884 105.90549701370541 L 511.97086225751605 105.85247063398188 L 511.76439345270984 105.79850821958458 L 511.5591286653782 105.74361516670999 L 511.3550884218287 105.68779696461766 L 511.15229312591583 105.63105919508126 L 510.950763057 105.5734075318305 L 510.75051836792034 105.51484773998365 L 510.5515790829787 105.45538567547108 L 510.35396509593795 105.3950272844497 L 510.1576961680321 105.33377860270829 L 509.96279192599025 105.27164575506403 L 509.76927186007435 105.20863495474987 L 509.5771553221296 105.14475250279335 L 509.38646152364976 105.08000478738643 L 509.19720953385576 105.01439828324668 L 509.0094182777889 104.94793955096986 L 508.82310653441823 104.8806352363738 L 508.63829293476283 104.8124920698339 L 508.4549959600287 104.74351686560999 L 508.2732339397606 104.67371652116503 L 508.093025050009 104.6030980164753 L 507.9143873115127 104.53166841333243 L 507.7373385878968 104.4594348546372 L 507.561896583886 104.38640456368528 L 507.3880788435346 104.31258484344491 L 507.21590274847165 104.2379830758266 L 507.04538551616326 104.16260672094495 L 506.87654419819063 104.08646331637262 L 506.70939567854475 104.00956047638662 L 506.54395667193836 103.93190589120688 L 506.38024372213425 103.85350732622719 L 506.2182732002909 103.77437262123871 L 506.0580613033256 103.694509689646 L 505.89962405229454 103.61392651767568 L 505.7429772907907 103.53263116357778 L 505.5881366833598 103.45063175681996 L 505.4351177139335 103.36793649727457 L 505.28393568428123 103.28455365439865 L 505.13460571248 103.20049156640701 L 504.98714273140246 103.1157586394384 L 504.8415614872239 103.03036334671489 L 504.6978765379474 102.94431422769459 L 504.55610225194823 102.85761988721772 L 504.41625280653676 102.77028899464605 L 504.278342186541 102.68233028299609 L 504.1423841829081 102.5937525480657 L 504.00839239132495 102.50456464755453 L 503.8763802108592 102.41477550017834 L 503.74636084261886 102.32439408477703 L 503.6183472884324 102.23342943941684 L 503.4923523495485 102.14189066048647 L 503.36838862535615 102.04978690178756 L 503.2464685121244 101.95712737361922 L 503.12660420176303 101.86392134185704 L 503.0088076806031 101.77017812702654 L 502.8930907281987 101.67590710337106 L 502.77946491614847 101.58111769791444 L 502.66794160693905 101.48581938951821 L 502.5585319528084 101.39002170793381 L 502.4512468946307 101.29373423284954 L 502.34609716082247 101.19696659293271 L 502.2430932662694 101.09972846486664 L 502.14224551127506 101.00202957238312 L 502.043563980531 100.90387968528998 L 501.94705854210804 100.80528861849413 L 501.8527388464696 100.70626623102011 L 501.7606143255066 100.60682242502413 L 501.6706941915944 100.50696714480392 L 501.5829874366715 100.40671037580431 L 501.4975028313402 100.30606214361863 L 501.4142489239899 100.20503251298624 L 501.3332340399419 100.103631586786 L 501.25446628061707 100.00186950502604 L 501.1779535227258 99.89975644382972 L 501.10370341748 99.79730261441809 L 501.0317233898284 99.69451826208869 L 500.9620206377138 99.59141366519111 L 500.8946021313533 99.48799913409913 L 500.8294746125413 99.38428501017967 L 500.7666445939754 99.28028166475868 L 500.7061183586052 99.17599949808405 L 500.6479019590037 99.07144893828554 L 500.5920012167624 98.96664044033201 L 500.538421721909 98.86158448498593 L 500.48716883234823 98.75629157775525 L 500.4382476733264 98.65077224784297 L 500.3916631369185 98.54503704709414 L 500.34741988153957 98.43909654894075 L 500.3055223314782 98.33296134734431 L 500.2659746764544 98.22664205573652 L 500.2287808712008 98.12014930595798 L 500.1939446350669 98.01349374719489 L 500.1614694516473 97.90668604491427 L 500.13135856843326 97.79973687979731 L 500.103614996488 97.69265694667143 L 500.07824151014563 97.58545695344071 L 500.05524064673364 97.47814762001512 L 500.03461470631913 97.37073967723859 L 500.01636575147904 97.26324386581588 L 500.0004956070936 97.15567093523856 L 499.9870058601641 97.04803164271006 L 499.9758978596539 96.94033675206991 L 499.9671727163538 96.83259703271744 L 499.9608313027709 96.7248232585348 L 499.9568742530413 96.6170262068096 L 499.95530196286654 96.50921665715717" stroke-miterlimit="10" stroke-width="2.7769845610000004" stroke-dasharray=""/></g><g><g/><text fill="black" stroke="none" font-family="sans-serif" font-size="11pt" font-style="normal" font-weight="normal" text-decoration="normal" x="465.85675059510095" y="124.800953212" text-anchor="start" dominant-baseline="alphabetic" xml:space="preserve">SubmissionStore</text></g></g><g><path fill="white" stroke="black" paint-order="fill stroke markers" d=" M 106.17882145 137.869115852 L 122.51402474999999 137.869115852 L 122.51402474999999 497.2435884519999 L 106.17882145 497.2435884519999 L 106.17882145 137.869115852" stroke-miterlimit="10" stroke-width="1.3612669416666667" stroke-dasharray=""/><path fill="white" stroke="black" paint-order="fill stroke markers" d=" M 515.6370668833333 137.869115852 L 531.9722701833334 137.869115852 L 531.9722701833334 497.2435884519999 L 515.6370668833333 497.2435884519999 L 515.6370668833333 137.869115852" stroke-miterlimit="10" stroke-width="1.3612669416666667" stroke-dasharray=""/><g><g><rect fill="white" stroke="none" x="160.91693707459635" y="206.47696971199997" width="206.1922327429297" height="21.23576429"/></g><g><rect fill="white" stroke="none" x="160.91693707459635" y="222.81217301199996" width="316.3172174841406" height="21.23576429"/></g><text fill="black" stroke="none" font-family="sans-serif" font-size="11pt" font-style="normal" font-weight="normal" text-decoration="normal" x="163.36721756959633" y="221.17865268199995" text-anchor="start" dominant-baseline="alphabetic" xml:space="preserve">get all Submission objects "s"</text><text fill="black" stroke="none" font-family="sans-serif" font-size="11pt" font-style="normal" font-weight="normal" text-decoration="normal" x="163.36721756959633" y="237.51385598199994" text-anchor="start" dominant-baseline="alphabetic" xml:space="preserve">with lease not null and status not "FINISHED"</text></g><g><path fill="none" stroke="black" paint-order="fill stroke markers" d=" M 122.51402474999999 244.04793730199998 L 502.18774949966667 244.04793730199998" stroke-miterlimit="10" stroke-width="1.3612669416666667" stroke-dasharray=""/><g transform="translate(515.6370668833333,244.04793730199998) translate(-515.6370668833333,-244.04793730199998)"><path fill="black" stroke="none" paint-order="stroke fill markers" d=" M 502.02439746666664 237.24160259366664 L 515.6370668833333 244.04793730199998 L 502.02439746666664 250.85427201033332 Z"/></g></g><g><g><rect fill="white" stroke="none" x="157.67734356873697" y="356.76084007199995" width="322.79640449585935" height="21.23576429"/></g><text fill="black" stroke="none" font-family="sans-serif" font-size="11pt" font-style="normal" font-weight="normal" text-decoration="normal" x="160.12762406373696" y="371.46252304199993" text-anchor="start" dominant-baseline="alphabetic" xml:space="preserve">reset response and lease in Submission object</text></g><g><path fill="none" stroke="black" paint-order="fill stroke markers" d=" M 122.51402474999999 377.99660436199997 L 502.18774949966667 377.99660436199997" stroke-miterlimit="10" stroke-width="1.3612669416666667" stroke-dasharray=""/><g transform="translate(515.6370668833333,377.99660436199997) translate(-515.6370668833333,-377.99660436199997)"><path fill="black" stroke="none" paint-order="stroke fill markers" d=" M 502.02439746666664 371.19026965366663 L 515.6370668833333 377.99660436199997 L 502.02439746666664 384.8029390703333 Z"/></g></g><g><g><rect fill="white" stroke="none" x="141.84401532166666" y="402.49940931199995" width="354.46306099" height="21.23576429"/></g><text fill="black" stroke="none" font-family="sans-serif" font-size="11pt" font-style="normal" font-weight="normal" text-decoration="normal" x="144.29429581666665" y="417.20109228199993" text-anchor="start" dominant-baseline="alphabetic" xml:space="preserve">enqueue the submission id in the SubmissionStore</text></g><g><path fill="none" stroke="black" paint-order="fill stroke markers" d=" M 122.51402474999999 423.735173602 L 502.18774949966667 423.735173602" stroke-miterlimit="10" stroke-width="1.3612669416666667" stroke-dasharray=""/><g transform="translate(515.6370668833333,423.735173602) translate(-515.6370668833333,-423.735173602)"><path fill="black" stroke="none" paint-order="stroke fill markers" d=" M 502.02439746666664 416.92883889366664 L 515.6370668833333 423.735173602 L 502.02439746666664 430.5415083103333 Z"/></g></g><g><g/><path fill="none" stroke="black" paint-order="fill stroke markers" d=" M 24.502804949999998 162.37192080199998 L 605.4806850333333 162.37192080199998 L 605.4806850333333 497.2435884519999 L 24.502804949999998 497.2435884519999 L 24.502804949999998 162.37192080199998 Z" stroke-miterlimit="10" stroke-width="2.3336004714285714" stroke-dasharray=""/><path fill="white" stroke="black" paint-order="fill stroke markers" d=" M 24.502804949999998 162.37192080199998 L 24.502804949999998 181.974164762 L 82.73571154999999 181.974164762 L 92.53683353 172.17304278199998 L 92.53683353 162.37192080199998 L 24.502804949999998 162.37192080199998" stroke-miterlimit="10" stroke-width="2.3336004714285714" stroke-dasharray=""/><text fill="black" stroke="none" font-family="sans-serif" font-size="8.8pt" font-style="normal" font-weight="bold" text-decoration="normal" x="40.83800825" y="175.44008344199997" text-anchor="start" dominant-baseline="alphabetic" xml:space="preserve">loop</text><g><rect fill="white" stroke="none" x="106.421756335" y="163.67873706599997" width="105.81722511353516" height="16.988611432000003"/></g><text fill="black" stroke="none" font-family="sans-serif" font-size="8.8pt" font-style="normal" font-weight="bold" text-decoration="normal" x="108.87203683" y="175.44008344199997" text-anchor="start" dominant-baseline="alphabetic" xml:space="preserve">[every n seconds]</text></g><g><g/><path fill="none" stroke="black" paint-order="fill stroke markers" d=" M 40.83800825 268.55074225199996 L 589.1454817333333 268.55074225199996 L 589.1454817333333 472.74078350199994 L 40.83800825 472.74078350199994 L 40.83800825 268.55074225199996 Z" stroke-miterlimit="10" stroke-width="2.3336004714285714" stroke-dasharray=""/><path fill="white" stroke="black" paint-order="fill stroke markers" d=" M 40.83800825 268.55074225199996 L 40.83800825 288.152986212 L 99.07091485000001 288.152986212 L 108.87203683000001 278.35186423199997 L 108.87203683000001 268.55074225199996 L 40.83800825 268.55074225199996" stroke-miterlimit="10" stroke-width="2.3336004714285714" stroke-dasharray=""/><text fill="black" stroke="none" font-family="sans-serif" font-size="8.8pt" font-style="normal" font-weight="bold" text-decoration="normal" x="57.173211550000005" y="281.618904892" text-anchor="start" dominant-baseline="alphabetic" xml:space="preserve">loop</text><g><rect fill="white" stroke="none" x="122.75695963500002" y="269.857558516" width="153.17138923707031" height="16.988611432000003"/></g><text fill="black" stroke="none" font-family="sans-serif" font-size="8.8pt" font-style="normal" font-weight="bold" text-decoration="normal" x="125.20724013000002" y="281.618904892" text-anchor="start" dominant-baseline="alphabetic" xml:space="preserve">[for each submission in s]</text></g><g><g/><path fill="none" stroke="black" paint-order="fill stroke markers" d=" M 57.17321155 312.65579116199996 L 572.8102784333333 312.65579116199996 L 572.8102784333333 448.23797855199996 L 57.17321155 448.23797855199996 L 57.17321155 312.65579116199996 Z" stroke-miterlimit="10" stroke-width="2.3336004714285714" stroke-dasharray=""/><path fill="white" stroke="black" paint-order="fill stroke markers" d=" M 57.17321155 312.65579116199996 L 57.17321155 332.25803512199997 L 109.63528418088379 332.25803512199997 L 119.43640616088379 322.45691314199996 L 119.43640616088379 312.65579116199996 L 57.17321155 312.65579116199996" stroke-miterlimit="10" stroke-width="2.3336004714285714" stroke-dasharray=""/><text fill="black" stroke="none" font-family="sans-serif" font-size="8.8pt" font-style="normal" font-weight="bold" text-decoration="normal" x="73.50841485" y="325.723953802" text-anchor="start" dominant-baseline="alphabetic" xml:space="preserve">opt</text><g><rect fill="white" stroke="none" x="133.3213289658838" y="313.962607426" width="224.71306099" height="16.988611432000003"/></g><text fill="black" stroke="none" font-family="sans-serif" font-size="8.8pt" font-style="normal" font-weight="bold" text-decoration="normal" x="135.77160946088378" y="325.723953802" text-anchor="start" dominant-baseline="alphabetic" xml:space="preserve">[submission.lease - now() &gt; threshold]</text></g></g><g/><g/></g></svg>