<svg version="1.1" xmlns="http://www.w3.org/2000/svg" xmlns:xlink="http://www.w3.org/1999/xlink" width="735" height="469"><desc>title%20Worker%20health%20checking%0Acontrol%20WorkerHealthChecker%0Adatabase%20SubmissionStore%0A%0Aactivate%20WorkerHealthChecker%0Aactivate%20SubmissionStore%0Aloop%20every%20n%20seconds%0A%20%20WorkerHealthChecker%20-%3E%20SubmissionStore%3A%20get%20next%20Submission%20object%20%22s%22%20with%20lease%20not%20null%20and%20status%20not%20%22ran%22%0A%20%20opt%20s.lease%20-%20now()%20%3E%20threshold%0A%20%20%20%20WorkerHealthChecker%20-%3E%20SubmissionStore%3A%20reset%20response%20and%20lease%20in%20Submission%20object%0A%20%20%20%20WorkerHealthChecker%20-%3E%20SubmissionStore%3A%20enqueue%20the%20submission%20id%20in%20the%20SubmissionStore%0A%20%20end%0Aend%0Adeactivate%20SubmissionStore%0Adeactivate%20WorkerHealthChecker%0A</desc><defs/><g><g/><g/><g/><g><rect fill="white" stroke="none" x="0" y="0" width="735" height="469"/></g><g><text fill="black" stroke="none" font-family="sans-serif" font-size="16.5pt" font-style="normal" font-weight="normal" text-decoration="normal" x="246.34450664020187" y="24.50280495" text-anchor="start" dominant-baseline="alphabetic" xml:space="preserve">Worker health checking</text></g><g/><g><path fill="none" stroke="black" paint-order="fill stroke markers" d=" M 98.01121979999999 129.701514202 L 98.01121979999999 469.473742842" stroke-miterlimit="10" stroke-width="1.3612669416666667" stroke-dasharray="12.565541,5.445067766666667"/><path fill="none" stroke="black" paint-order="fill stroke markers" d=" M 637.6361217274741 129.701514202 L 637.6361217274741 469.473742842" stroke-miterlimit="10" stroke-width="1.3612669416666667" stroke-dasharray="12.565541,5.445067766666667"/></g><g><g><path fill="white" stroke="black" paint-order="fill stroke markers" d=" M 122.2689967005 82.819480731 A 24.2577769005 24.2577769005 0 1 1 122.26898457161255 82.79522295814245 M 94.74417913999999 58.561703830499994 L 104.54530111999999 50.39410218049999 M 94.74417913999999 58.561703830499994 L 104.54530111999999 66.72930548049999" stroke-miterlimit="10" stroke-width="2.7769845610000004" stroke-dasharray=""/></g><g><g/><text fill="black" stroke="none" font-family="sans-serif" font-size="11pt" font-style="normal" font-weight="normal" text-decoration="normal" x="22.000805676464836" y="124.800953212" text-anchor="start" dominant-baseline="alphabetic" xml:space="preserve">WorkerHealthChecker</text></g><g><path fill="white" stroke="black" paint-order="fill stroke markers" d=" M 613.7867249094742 97.684515734 L 613.7867249094742 63.380588804000006 L 661.4855185454741 63.380588804000006 L 661.4855185454741 97.684515734" stroke-miterlimit="10" stroke-width="2.7769845610000004" stroke-dasharray=""/><path fill="white" stroke="black" paint-order="fill stroke markers" d=" M 661.4855185454741 62.1881189631 L 661.4843260855704 62.29592950801663 L 661.4807488251043 62.403729271968594 L 661.4747871217991 62.51150747506936 L 661.4664415718197 62.619253339588404 L 661.4557130097145 62.72695609102909 L 661.4426025083307 62.834604959206004 L 661.4271113787074 62.94218917932205 L 661.4092411699448 63.04969799304486 L 661.3889936690488 63.15712064958265 L 661.3663709007526 63.2644464067593 L 661.3413751273142 63.371664532088516 L 661.3140088482902 63.47876430384712 L 661.2842748002856 63.58573501214718 L 661.2521759566805 63.692565960007016 L 661.2177155273324 63.79924646442086 L 661.1808969582556 63.90576585742718 L 661.1417239312763 64.01211348717543 L 661.1002003636645 64.11827871899126 L 661.0563304077425 64.22425093643996 L 661.0101184504691 64.3300195423881 L 660.9615691130018 64.43557396006322 L 660.9106872502338 64.54090363411153 L 660.8574779503089 64.64599803165338 L 660.8019465341126 64.75084664333659 L 660.7440985547406 64.85543898438739 L 660.6839397969425 64.95976459565881 L 660.6214762765438 65.06381304467668 L 660.5567142398446 65.16757392668278 L 660.4896601629946 65.27103686567541 L 660.4203207513457 65.37419151544687 L 660.348702938781 65.47702756061814 L 660.2748138870223 65.5795347176704 L 660.1986609849133 65.68170273597339 L 660.1202518476805 65.7835213988104 L 660.0395943161724 65.88498052439998 L 659.956696456075 65.98606996691414 L 659.8715665571051 66.08677961749288 L 659.7842131321817 66.18709940525505 L 659.6946449165745 66.28701929830548 L 659.6028708670304 66.38652930473813 L 659.508900160878 66.48561947363528 L 659.4127421951094 66.58427989606261 L 659.3144065854414 66.6825007060601 L 659.2139031653526 66.7802720816286 L 659.1112419851014 66.87758424571203 L 659.0064333107204 66.97442746717506 L 658.8994876229895 67.07079206177627 L 658.7904156163885 67.1666683931365 L 658.6792281980272 67.2620468737025 L 658.5659364865546 67.35691796570569 L 658.4505518110477 67.45127218211596 L 658.3330857098777 67.54510008759026 L 658.2135499295567 67.63839229941624 L 658.0919564235635 67.73113948845047 L 657.9683173511471 67.82333238005134 L 657.8426450761117 67.9149617550065 L 657.7149521655803 68.00601845045483 L 657.5852513887372 68.09649336080267 L 657.4535557155523 68.18637743863435 L 657.319878315483 68.27566169561702 L 657.1842325561581 68.36433720339936 L 657.0466320020403 68.45239509450451 L 656.9070904130704 68.53982656321674 L 656.765621743291 68.62662286646201 L 656.6222401394513 68.71277532468237 L 656.4769599395921 68.79827532270376 L 656.3297956716123 68.88311431059763 L 656.1807620518161 68.9672838045359 L 656.0298739834412 69.0507753876393 L 655.8771465551689 69.13358071081912 L 655.7225950396146 69.21569149361203 L 655.5662348918012 69.29709952500816 L 655.4080817476129 69.37779666427225 L 655.2481514222326 69.45777484175761 L 655.0864599085594 69.53702605971311 L 654.9230233756101 69.61554239308303 L 654.7578581669015 69.69331599029945 L 654.5909807988172 69.77033907406746 L 654.4224079589548 69.84660394214286 L 654.2521565044576 69.92210296810242 L 654.0802434603295 69.99682860210643 L 653.9066860177314 70.07077337165379 L 653.7315015322631 70.14392988232913 L 653.5547075222271 70.21629081854239 L 653.3763216668771 70.28784894426022 L 653.1963618046498 70.35859710372968 L 653.0148459313817 70.42852822219379 L 652.8317921985088 70.49763530659898 L 652.6472189112518 70.5659114462944 L 652.4611445267856 70.63334981372294 L 652.2735876523936 70.69994366510412 L 652.084567043607 70.76568634110825 L 651.8941016023291 70.83057126752253 L 651.7022103749453 70.89459195590838 L 651.5089125504185 70.95774200425032 L 651.3142274583699 71.02001509759614 L 651.1181745671468 71.08140500868842 L 650.9207734818746 71.14190559858717 L 650.7220439424975 71.20151081728383 L 650.5220058218038 71.26021470430622 L 650.3206791234388 71.31801138931453 L 650.1180839799048 71.37489509268845 L 649.914240650547 71.43086012610503 L 649.7091695195287 71.48590089310757 L 649.502891093792 71.54001188966522 L 649.2954260010076 71.59318770472345 L 649.0867949875119 71.64542302074504 L 648.8770189162325 71.69671261424193 L 648.6661187646015 71.7470513562975 L 648.4541156224584 71.79643421307951 L 648.2410306899408 71.84485624634341 L 648.0268852753644 71.89231261392625 L 647.8117007930921 71.93879857023082 L 647.5954987613928 71.9843094667002 L 647.3783008002897 72.02884075228269 L 647.1601286293977 72.07238797388683 L 646.9410040657522 72.11494677682676 L 646.7209490216268 72.15651290525764 L 646.4999855023427 72.19708220260128 L 646.2781356040678 72.23665061196175 L 646.0554215116067 72.27521417653107 L 645.8318654961832 72.31276903998494 L 645.6074899132128 72.3493114468683 L 645.3823172000665 72.38483774297092 L 645.1563698738281 72.41934437569277 L 644.9296705290419 72.45282789439938 L 644.7022418354535 72.48528495076673 L 644.4741065357426 72.51671229911628 L 644.2452874432494 72.54710679673934 L 644.015807439692 72.5764654042115 L 643.78568947288 72.60478518569649 L 643.5549565544179 72.63206330923974 L 643.3236317574056 72.65829704705163 L 643.0917382141297 72.68348377578025 L 642.8592991137516 72.70762097677371 L 642.6263376999875 72.73070623633201 L 642.3928772687846 72.75273724594847 L 642.1589411659916 72.77371180254045 L 641.9245527850236 72.79362780866978 L 641.6897355645236 72.81248327275246 L 641.454512986018 72.83027630925778 L 641.2189085715684 72.84700513889692 L 640.98294588142 72.86266808880085 L 640.7466485116454 72.87726359268764 L 640.5100400917844 72.89079019101906 L 640.2731442824818 72.90324653114655 L 640.0359847731213 72.91463136744649 L 639.7985852794561 72.9249435614447 L 639.5609695412377 72.93418208193043 L 639.323161319842 72.94234600505929 L 639.085184395893 72.94943451444577 L 638.8470625668846 72.95544690124485 L 638.6088196448014 72.96038256422287 L 638.3704794537371 72.96424100981763 L 638.1320658275121 72.9670218521878 L 637.8936026072903 72.96872481325143 L 637.6551136391952 72.96934972271386 L 637.4166227719246 72.96889651808466 L 637.1781538543668 72.96736524468392 L 636.9397307332146 72.96475605563768 L 636.7013772505816 72.96106921186271 L 636.4631172416172 72.95630508204027 L 636.224974532124 72.9504641425794 L 635.9869729361743 72.94354697756918 L 635.7491362537295 72.93555427872033 L 635.5114882682595 72.9264868452961 L 635.274052744365 72.91634558403224 L 635.0368534254003 72.90513150904647 L 634.7999140310999 72.89284574173689 L 634.5632582552056 72.87948951067006 L 634.3269097630978 72.86506415145789 L 634.0908921894287 72.84957110662431 L 633.8552291357591 72.8330119254609 L 633.619944168198 72.81538826387197 L 633.385060815046 72.79670188420899 L 633.1506025644427 72.77695465509434 L 632.9165928620179 72.7561485512345 L 632.6830551085465 72.73428565322251 L 632.4500126576096 72.71136814732996 L 632.2174888132579 72.68739832528833 L 631.985506827682 72.66237858405984 L 631.7540898988874 72.63631142559778 L 631.5232611683739 72.60919945659627 L 631.2930437188223 72.58104538822961 L 631.0634605717858 72.55185203588118 L 630.8345346853874 72.5216223188619 L 630.6062889520255 72.49035926011825 L 630.3787461960828 72.45806598593009 L 630.1519291716455 72.4247457255979 L 629.9258605602271 72.39040181111994 L 629.7005629685001 72.35503767685907 L 629.476058926036 72.31865685919922 L 629.2523708830521 72.28126299619186 L 629.0295212081662 72.24285982719209 L 628.8075321861601 72.20345119248485 L 628.586426015751 72.16304103290075 L 628.3662248073716 72.12163338942209 L 628.1469505809595 72.07923240277869 L 627.9286252637543 72.03584231303388 L 627.7112706881059 71.99146745916049 L 627.4949085892908 71.94611227860693 L 627.2795606033385 71.89978130685344 L 627.0652482648683 71.85247917695861 L 626.8519930049351 71.80421061909601 L 626.6398161488877 71.75498046008119 L 626.4287389142344 71.70479362288901 L 626.218782408523 71.65365512616141 L 626.0099676272291 71.60157008370541 L 625.8023154516568 71.54854370398188 L 625.5958466468506 71.49458128958457 L 625.390581859519 71.43968823671 L 625.1865416159695 71.38387003461766 L 624.9837463200565 71.32713226508127 L 624.7822162511408 71.26948060183051 L 624.5819715620611 71.21092080998365 L 624.3830322771195 71.15145874547107 L 624.1854182900787 71.0911003544497 L 623.9891493621728 71.0298516727083 L 623.794245120131 70.96771882506403 L 623.6007250542151 70.90470802474988 L 623.4086085162703 70.84082557279336 L 623.2179147177906 70.77607785738643 L 623.0286627279966 70.71047135324669 L 622.8408714719296 70.64401262096986 L 622.654559728559 70.5767083063738 L 622.4697461289036 70.50856513983389 L 622.2864491541695 70.43958993560999 L 622.1046871339013 70.36978959116503 L 621.9244782441498 70.29917108647531 L 621.7458405056535 70.22774148333244 L 621.5687917820376 70.1555079246372 L 621.3933497780267 70.08247763368529 L 621.2195320376753 70.00865791344492 L 621.0473559426124 69.9340561458266 L 620.876838710304 69.85867979094495 L 620.7079973923314 69.78253638637263 L 620.5408488726855 69.70563354638664 L 620.3754098660792 69.62797896120689 L 620.211696916275 69.54958039622719 L 620.0497263944317 69.47044569123871 L 619.8895144974664 69.39058275964601 L 619.7310772464352 69.30999958767568 L 619.5744304849314 69.22870423357777 L 619.4195898775006 69.14670482681996 L 619.2665709080743 69.06400956727457 L 619.115388878422 68.98062672439866 L 618.9660589066207 68.89656463640702 L 618.8185959255431 68.8118317094384 L 618.6730146813646 68.72643641671489 L 618.5293297320882 68.6403872976946 L 618.387555446089 68.55369295721772 L 618.2477060006776 68.46636206464606 L 618.1097953806818 68.37840335299609 L 617.9738373770488 68.28982561806569 L 617.8398455854657 68.20063771755453 L 617.707833405 68.11084857017835 L 617.5778140367596 68.02046715477704 L 617.4498004825731 67.92950250941684 L 617.3238055436892 67.83796373048648 L 617.1998418194969 67.74585997178757 L 617.0779217062652 67.65320044361923 L 616.9580573959038 67.55999441185705 L 616.8402608747439 67.46625119702654 L 616.7245439223394 67.37198017337107 L 616.6109181102892 67.27719076791445 L 616.4993948010798 67.18189245951821 L 616.3899851469491 67.08609477793381 L 616.2827000887714 66.98980730284956 L 616.1775503549632 66.89303966293272 L 616.0745464604101 66.79580153486665 L 615.9736987054158 66.69810264238313 L 615.8750171746717 66.59995275528999 L 615.7785117362488 66.50136168849414 L 615.6841920406104 66.40233930102012 L 615.5920675196473 66.30289549502413 L 615.5021473857352 66.20304021480393 L 615.4144406308122 66.1027834458043 L 615.3289560254809 66.00213521361863 L 615.2457021181307 65.90110558298623 L 615.1646872340826 65.799704656786 L 615.0859194747578 65.69794257502603 L 615.0094067168666 65.59582951382973 L 614.9351566116208 65.4933756844181 L 614.8631765839692 65.3905913320887 L 614.7934738318545 65.28748673519112 L 614.726055325494 65.18407220409914 L 614.660927806682 65.08035808017966 L 614.5980977881161 64.97635473475869 L 614.5375715527459 64.87207256808405 L 614.4793551531444 64.76752200828555 L 614.4234544109032 64.66271351033203 L 614.3698749160498 64.55765755498592 L 614.3186220264889 64.45236464775525 L 614.2697008674671 64.34684531784296 L 614.2231163310593 64.24111011709415 L 614.1788730756804 64.13516961894075 L 614.1369755256189 64.0290344173443 L 614.0974278705952 63.92271512573653 L 614.0602340653415 63.81622237595798 L 614.0253978292077 63.70956681719489 L 613.992922645788 63.602759114914264 L 613.962811762574 63.49580994979732 L 613.9350681906287 63.38873001667144 L 613.9096947042864 63.28153002344071 L 613.8866938408744 63.17422069001512 L 613.8660679004599 63.066812747238586 L 613.8478189456198 62.959316935815885 L 613.8319488012344 62.85174400523857 L 613.8184590543049 62.74410471271006 L 613.8073510537946 62.636409822069915 L 613.7986259104946 62.52867010271744 L 613.7922844969116 62.4208963285348 L 613.788327447182 62.313099276809595 L 613.7867551570073 62.20528972715717 L 613.7875677836153 62.09747846044265 L 613.7907652457438 61.98967625770286 L 613.7963472236495 61.88189389906824 L 613.8043131591392 61.77414216268484 L 613.8146622556259 61.66643182363649 L 613.8273934782087 61.558773652867366 L 613.8425055537758 61.4511784161048 L 613.8599969711324 61.34365687278283 L 613.8798659811512 61.236219774966166 L 613.9021105969479 61.12887786627507 L 613.9267285940793 61.02164188081096 L 613.9537175107663 60.91452254208302 L 613.9830746481397 60.807530561935856 L 614.0147970705102 60.70067663947832 L 614.0488816056621 60.593971460013606 L 614.0853248451701 60.487425693970756 L 614.1241231447409 60.381049995837586 L 614.1652726245766 60.27485500309525 L 614.2087691697636 60.16885133515453 L 614.2546084306837 60.06304959229389 L 614.3027858234489 59.95746035459945 L 614.3532965303601 59.852094180906974 L 614.4061355003887 59.746961607746044 L 614.4612974496819 59.64207314828636 L 614.5187768620905 59.537439291286454 L 614.5785679897213 59.43307050004484 L 614.6406648535111 59.32897721135367 L 614.7050612438256 59.22516983445505 L 614.7717507210795 59.12165875000019 L 614.8407266163803 59.01845430901127 L 614.9119820321961 58.91556683184637 L 614.9855098430447 58.81300660716748 L 615.0613026962063 58.7107838909116 L 615.1393530124587 58.60890890526517 L 615.2196529868355 58.507391837641855 L 615.3021945894059 58.406242839663825 L 615.3869695660786 58.30547202614659 L 615.4739694394266 58.205089474087515 L 615.563185509535 58.105105221658164 L 615.6546088548711 58.00552926720046 L 615.7482303331766 57.90637156822687 L 615.8440405823816 57.807642040424646 L 615.9420300215412 57.709350556664305 L 616.0421888517931 57.61150694601232 L 616.1445070573376 57.514120992748204 L 616.2489744064394 57.417202435386145 L 616.3555804524509 57.320760965701105 L 616.4643145348562 57.224806227759686 L 616.5751657803374 57.12934781695572 L 616.6881231038628 57.03439527905074 L 616.803175209794 56.93995810921942 L 616.9203105930161 56.84604575110002 L 617.0395175400885 56.75266759585011 L 617.1607841304159 56.65983298120741 L 617.2840982374403 56.567551190555996 L 617.4094475298538 56.47583145199805 L 617.5368194728314 56.384682937430995 L 617.6662013292853 56.29411476163032 L 617.7975801611374 56.20413598133814 L 617.930942830614 56.1147555943575 L 618.0662760015593 56.02598253865261 L 618.2035661407692 55.937825691455075 L 618.342799519344 55.85029386837614 L 618.4839622140619 55.763395822525176 L 618.627040108771 55.677140243634355 L 618.7720188958011 55.591535757189675 L 618.9188840773944 55.50659092356846 L 619.0676209671551 55.42231423718327 L 619.218214691518 55.33871412563253 L 619.3706501912365 55.25579894885771 L 619.5249122228872 55.1735769983074 L 619.6809853603959 55.092056496108135 L 619.8388539965787 55.01124559424221 L 619.9985023447036 54.93115237373246 L 620.1599144400687 54.851784843834196 L 620.3230741415992 54.77315094123426 L 620.4879651334608 54.6952585292574 L 620.6545709266917 54.61811539707989 L 620.8228748608515 54.54172925895067 L 620.9928601056868 54.46610775341989 L 621.164509662815 54.391258442575094 L 621.3378063674235 54.317188811284986 L 621.512732889986 54.24390626645098 L 621.6892717379961 54.171418136266475 L 621.8674052577162 54.09973166948409 L 622.0471156359428 54.028854034690774 L 622.2283849017876 53.95879231959093 L 622.4111949284753 53.88955353029769 L 622.5955274351555 53.82114459063227 L 622.7813639887313 53.753572341431656 L 622.9686860057019 53.68684353986444 L 623.1574747540218 53.62096485875517 L 623.3477113549736 53.55594288591707 L 623.5393767850558 53.49178412349323 L 623.7324518778848 53.42849498730643 L 623.9269173261125 53.366081806217544 L 624.1227536833561 53.304550821492676 L 624.3199413661429 53.24390818617902 L 624.5184606558691 53.18415996448957 L 624.7182917007711 53.12531213119671 L 624.9194145179109 53.067370571034715 L 625.1218089951745 53.01034107811134 L 625.3254548932829 52.95422935532834 L 625.5303318478157 52.89904101381123 L 625.7364193712483 52.84478157234818 L 625.9436968550002 52.79145645683812 L 626.1521435714957 52.73907099974815 L 626.3617386762369 52.687630439580346 L 626.5724612098878 52.637139920347835 L 626.7842901003709 52.58760449106049 L 626.9972041649735 52.53902910521993 L 627.2111821124666 52.49141862032429 L 627.4262025452339 52.444777797382365 L 627.642243961411 52.399111300437596 L 627.8592847570366 52.354423696101605 L 628.0773032282119 52.3107194530976 L 628.2962775732715 52.26800294181345 L 628.5161858949632 52.2262784338647 L 628.7370062026384 52.18555010166736 L 628.9587164144501 52.14582201802072 L 629.181294359562 52.10709815570004 L 629.404717780365 52.06938238705927 L 629.6289643347031 52.032678483643856 L 629.8540115981081 51.996990115813546 L 630.0798370660408 51.96232085237539 L 630.3064181561429 51.928674160226834 L 630.533732210494 51.89605340400906 L 630.7617564978781 51.8644618457705 L 630.9904682160566 51.833902644640645 L 631.2198444940482 51.80437885651416 L 631.4498623944163 51.775893433745246 L 631.6804989155625 51.74844922485244 L 631.9117309940268 51.722048974233765 L 632.1435355067941 51.69669532189228 L 632.3758892736065 51.672390803172085 L 632.6087690592807 51.649137848504814 L 632.8421515760323 51.626938783166544 L 633.0760134858041 51.60579582704531 L 633.3103314025999 51.58571109441911 L 633.5450818948234 51.56668659374447 L 633.780241487621 51.54872422745561 L 634.0157866652294 51.53182579177417 L 634.251693873327 51.515992976529645 L 634.4879395213898 51.50122736499037 L 634.7244999850495 51.4875304337052 L 634.9613516084573 51.47490355235584 L 635.198470706648 51.4633479836199 L 635.4358335679094 51.45286488304463 L 635.6734164561532 51.443455298931354 L 635.9111956132884 51.43512017223063 L 636.1491472615978 51.4278603364482 L 636.3872476061146 51.42167651756158 L 636.6254728370027 51.41656933394751 L 636.8637991319378 51.41253929632009 L 637.1022026584887 51.40958680767973 L 637.3406595765016 51.407712163272826 L 637.5791460404835 51.40691555056227 L 637.8176382019865 51.40719704920866 L 638.0561122119933 51.40855663106237 L 638.2945442233017 51.41099416016634 L 638.5329103929092 51.414509392769695 L 638.7711868843975 51.419101977352106 L 639.009349870316 51.42477145465894 L 639.2473755345645 51.431517257747196 L 639.485240074775 51.43933871204218 L 639.7229197046917 51.44823503540498 L 639.9603906565497 51.45820533821068 L 640.1976291834517 51.4692486234373 L 640.4346115617426 51.48136378676553 L 640.6713140933822 51.49454961668913 L 640.9077131083145 51.50880479463608 L 641.1437849668351 51.524127895100484 L 641.3795060619548 51.54051738578506 L 641.6148528217605 51.5579716277544 L 641.8498017117723 51.57648887559884 L 642.0843292372971 51.59606727760904 L 642.3184119457778 51.6167048759611 L 642.5520264291386 51.6383996069124 L 642.7851493261256 51.66114930100791 L 643.0177573246438 51.684951683297186 L 643.2498271640868 51.70980437356183 L 643.4813356376643 51.735704886553535 L 643.7122595947218 51.76265063224257 L 643.942575943056 51.79063891607683 L 644.172261651224 51.81966693925126 L 644.4012937508463 51.849731798987726 L 644.629649338904 51.88083048882531 L 644.8573055800284 51.91295989892094 L 645.0842397087852 51.94611681636038 L 645.3104290319505 51.980297925479526 L 645.5358509307808 52.01549980819594 L 645.7604828632738 52.0517189443507 L 645.9843023664234 52.08895171206036 L 646.207287058466 52.127194388079175 L 646.429414641118 52.16644314817141 L 646.6506629018065 52.20669406749378 L 646.8710097158896 52.247943120987884 L 647.0904330488695 52.29018618378274 L 647.3089109585959 52.33341903160728 L 647.5264215974598 52.37763734121275 L 647.7429432145786 52.422836690805035 L 647.958454157971 52.46901256048684 L 648.1729328767223 52.516160332709674 L 648.3863579231393 52.564275292735616 L 648.5987079548952 52.613352629108746 L 648.8099617371639 52.663387434136325 L 649.0200981447431 52.71437470437956 L 649.2290961641671 52.7663093411539 L 649.4369348958083 52.819186151038956 L 649.6435935559666 52.8729998463978 L 649.8490514789484 52.92774504590574 L 650.0532881191323 52.983416275088445 L 650.2562830530246 53.040007966869396 L 650.4580159813012 53.09751446212657 L 650.6584667308373 53.15593001025836 L 650.8576152567249 53.21524876975863 L 651.0554416442775 53.27546480880087 L 651.2519261110211 53.33657210583136 L 651.4470490086729 53.3985645501713 L 651.6407908251057 53.461435942627936 L 651.833132186299 53.52517999611441 L 652.0240538582775 53.58979033627848 L 652.2135367490326 53.655260502139996 L 652.4015619104335 53.721583946736914 L 652.5881105401206 53.78875403778004 L 652.7731639833863 53.85676405831625 L 652.9567037350406 53.92560720740017 L 653.1387114412613 53.995276600774254 L 653.3191689014294 54.065765271557225 L 653.4980580699493 54.13706617094075 L 653.675361058053 54.2091721688943 L 653.8510601355898 54.28207605487816 L 654.0251377327982 54.35577053856451 L 654.1975764420635 54.43024825056637 L 654.3683590196584 54.50550174317461 L 654.5374683874677 54.581523491102686 L 654.7048876346953 54.658305892239156 L 654.8706000195562 54.73584126840789 L 655.0345889709498 54.81412186613588 L 655.1968380901178 54.89313985742859 L 655.3573311522835 54.97288734055273 L 655.5160521082743 55.05335634082646 L 655.6729850861268 55.1345388114168 L 655.8281143926741 55.21642663414435 L 655.981424515115 55.29901162029506 L 656.1329001225647 55.38228551143916 L 656.2825260675888 55.46623998025691 L 656.4302873877176 55.55086663137139 L 656.5761693069421 55.63615700218803 L 656.720157237192 55.722102563740805 L 656.8622367797942 55.80869472154519 L 657.0023937269129 55.89592481645755 L 657.1406140629701 55.98378412554111 L 657.2768839660475 56.07226386293816 L 657.4111898092683 56.1613551807487 L 657.5435181621601 56.251049169915184 L 657.6738557919978 56.34133686111345 L 657.8021896651271 56.4322092256496 L 657.9285069482678 56.52365717636293 L 658.0527950097965 56.615671568534566 L 658.1750414210109 56.70824320080196 L 658.2952339573716 56.80136281607904 L 658.4133605997253 56.89502110248188 L 658.5294095355059 56.98920869425987 L 658.6433691599168 57.083916172732344 L 658.7552280770905 57.17913406723036 L 658.8649751012283 57.27485285604382 L 658.9725992577195 57.37106296737362 L 659.0780897842379 57.467754780288786 L 659.1814361318189 57.56491862568861 L 659.2826279659139 57.662544787269525 L 659.3816551674238 57.76062350249672 L 659.4785078337108 57.859144963580405 L 659.5731762795891 57.95809931845658 L 659.665651038293 58.05747667177222 L 659.7559228624239 58.15726708587479 L 659.8439827248742 58.257460581806065 L 659.9298218197313 58.358047140299924 L 660.0134315631573 58.459016702784346 L 660.0948035942472 58.56035917238722 L 660.1739297758661 58.66206441494605 L 660.2508021954616 58.764122260021324 L 660.3254131658557 58.866522501913586 L 660.3977552260137 58.96925490068398 L 660.46782114179 59.072309183178234 L 660.535603906651 59.17567504405398 L 660.601096742377 59.279342146811274 L 660.6642930997389 59.38330012482622 L 660.7251866591536 59.48753858238766 L 660.783771331316 59.59204709573668 L 660.8400412578076 59.69681521410906 L 660.8939908116828 59.80183246078026 L 660.945614598031 59.907088334113126 L 660.9949074545167 60.012572308608036 L 661.0418644518953 60.11827383595545 L 661.0864808945062 60.22418234609071 L 661.1287523207423 60.33028724825106 L 661.168674503496 60.43657793203471 L 661.2062434505827 60.54304376846186 L 661.2414554051387 60.64967411103757 L 661.2743068459981 60.75645829681646 L 661.304794488044 60.86338564746893 L 661.3329152825377 60.97044547034902 L 661.358666417423 61.07762705956367 L 661.3820453176082 61.184919697043256 L 661.4030496452225 61.29231265361346 L 661.4216772998508 61.399795190068104 L 661.437926418743 61.50735655824312 L 661.451795377001 61.614986002091314 L 661.4632827877402 61.72267275875801 L 661.4723875022294 61.830406059657264 L 661.4791086100046 61.93817513154877 L 661.4834454389605 62.04596919761514 L 661.4853975554181 62.15377747853961 M 661.4855185454741 96.4920458931 L 661.4843260855704 96.59985643801662 L 661.4807488251043 96.70765620196859 L 661.4747871217991 96.81543440506935 L 661.4664415718197 96.9231802695884 L 661.4557130097145 97.03088302102908 L 661.4426025083307 97.138531889206 L 661.4271113787074 97.24611610932205 L 661.4092411699448 97.35362492304485 L 661.3889936690488 97.46104757958265 L 661.3663709007526 97.5683733367593 L 661.3413751273142 97.67559146208852 L 661.3140088482902 97.78269123384712 L 661.2842748002856 97.88966194214719 L 661.2521759566805 97.99649289000702 L 661.2177155273324 98.10317339442086 L 661.1808969582556 98.20969278742717 L 661.1417239312763 98.31604041717543 L 661.1002003636645 98.42220564899125 L 661.0563304077425 98.52817786643996 L 661.0101184504691 98.6339464723881 L 660.9615691130018 98.73950089006323 L 660.9106872502338 98.84483056411152 L 660.8574779503089 98.94992496165337 L 660.8019465341126 99.05477357333659 L 660.7440985547406 99.15936591438738 L 660.6839397969425 99.2636915256588 L 660.6214762765438 99.36773997467667 L 660.5567142398446 99.47150085668278 L 660.4896601629946 99.5749637956754 L 660.4203207513457 99.67811844544686 L 660.348702938781 99.78095449061813 L 660.2748138870223 99.8834616476704 L 660.1986609849133 99.98562966597338 L 660.1202518476805 100.08744832881038 L 660.0395943161724 100.18890745439998 L 659.956696456075 100.28999689691415 L 659.8715665571051 100.39070654749288 L 659.7842131321817 100.49102633525506 L 659.6946449165745 100.59094622830548 L 659.6028708670304 100.69045623473812 L 659.508900160878 100.78954640363527 L 659.4127421951094 100.8882068260626 L 659.3144065854414 100.9864276360601 L 659.2139031653526 101.0841990116286 L 659.1112419851014 101.18151117571202 L 659.0064333107204 101.27835439717506 L 658.8994876229895 101.37471899177628 L 658.7904156163885 101.4705953231365 L 658.6792281980272 101.56597380370249 L 658.5659364865546 101.6608448957057 L 658.4505518110477 101.75519911211595 L 658.3330857098777 101.84902701759025 L 658.2135499295567 101.94231922941623 L 658.0919564235635 102.03506641845047 L 657.9683173511471 102.12725931005133 L 657.8426450761117 102.2188886850065 L 657.7149521655803 102.30994538045483 L 657.5852513887372 102.40042029080266 L 657.4535557155523 102.49030436863434 L 657.319878315483 102.579588625617 L 657.1842325561581 102.66826413339936 L 657.0466320020403 102.75632202450451 L 656.9070904130704 102.84375349321674 L 656.765621743291 102.93054979646202 L 656.6222401394513 103.01670225468237 L 656.4769599395921 103.10220225270375 L 656.3297956716123 103.18704124059762 L 656.1807620518161 103.27121073453588 L 656.0298739834412 103.3547023176393 L 655.8771465551689 103.4375076408191 L 655.7225950396146 103.51961842361202 L 655.5662348918012 103.60102645500817 L 655.4080817476129 103.68172359427226 L 655.2481514222326 103.7617017717576 L 655.0864599085594 103.84095298971312 L 654.9230233756101 103.91946932308304 L 654.7578581669015 103.99724292029944 L 654.5909807988172 104.07426600406745 L 654.4224079589548 104.15053087214287 L 654.2521565044576 104.22602989810241 L 654.0802434603295 104.30075553210642 L 653.9066860177314 104.37470030165377 L 653.7315015322631 104.44785681232914 L 653.5547075222271 104.52021774854238 L 653.3763216668771 104.59177587426021 L 653.1963618046498 104.66252403372968 L 653.0148459313817 104.73245515219378 L 652.8317921985088 104.80156223659897 L 652.6472189112518 104.86983837629438 L 652.4611445267856 104.93727674372295 L 652.2735876523936 105.0038705951041 L 652.084567043607 105.06961327110824 L 651.8941016023291 105.13449819752252 L 651.7022103749453 105.19851888590837 L 651.5089125504185 105.26166893425032 L 651.3142274583699 105.32394202759615 L 651.1181745671468 105.38533193868841 L 650.9207734818746 105.44583252858716 L 650.7220439424975 105.50543774728384 L 650.5220058218038 105.56414163430621 L 650.3206791234388 105.62193831931454 L 650.1180839799048 105.67882202268845 L 649.914240650547 105.73478705610502 L 649.7091695195287 105.78982782310756 L 649.502891093792 105.84393881966523 L 649.2954260010076 105.89711463472344 L 649.0867949875119 105.94934995074503 L 648.8770189162325 106.00063954424192 L 648.6661187646015 106.0509782862975 L 648.4541156224584 106.1003611430795 L 648.2410306899408 106.14878317634341 L 648.0268852753644 106.19623954392625 L 647.8117007930921 106.2427255002308 L 647.5954987613928 106.2882363967002 L 647.3783008002897 106.33276768228268 L 647.1601286293977 106.37631490388682 L 646.9410040657522 106.41887370682676 L 646.7209490216268 106.46043983525765 L 646.4999855023427 106.50100913260128 L 646.2781356040678 106.54057754196174 L 646.0554215116067 106.57914110653107 L 645.8318654961832 106.61669596998493 L 645.6074899132128 106.65323837686829 L 645.3823172000665 106.6887646729709 L 645.1563698738281 106.72327130569276 L 644.9296705290419 106.75675482439937 L 644.7022418354535 106.78921188076673 L 644.4741065357426 106.82063922911627 L 644.2452874432494 106.85103372673933 L 644.015807439692 106.8803923342115 L 643.78568947288 106.90871211569649 L 643.5549565544179 106.93599023923973 L 643.3236317574056 106.96222397705162 L 643.0917382141297 106.98741070578025 L 642.8592991137516 107.0115479067737 L 642.6263376999875 107.03463316633201 L 642.3928772687846 107.05666417594847 L 642.1589411659916 107.07763873254045 L 641.9245527850236 107.09755473866979 L 641.6897355645236 107.11641020275246 L 641.454512986018 107.13420323925777 L 641.2189085715684 107.1509320688969 L 640.98294588142 107.16659501880085 L 640.7466485116454 107.18119052268763 L 640.5100400917844 107.19471712101905 L 640.2731442824818 107.20717346114655 L 640.0359847731213 107.21855829744648 L 639.7985852794561 107.22887049144471 L 639.5609695412377 107.23810901193042 L 639.323161319842 107.24627293505928 L 639.085184395893 107.25336144444577 L 638.8470625668846 107.25937383124486 L 638.6088196448014 107.26430949422287 L 638.3704794537371 107.26816793981763 L 638.1320658275121 107.27094878218779 L 637.8936026072903 107.27265174325143 L 637.6551136391952 107.27327665271386 L 637.4166227719246 107.27282344808465 L 637.1781538543668 107.27129217468391 L 636.9397307332146 107.26868298563768 L 636.7013772505816 107.2649961418627 L 636.4631172416172 107.26023201204026 L 636.224974532124 107.2543910725794 L 635.9869729361743 107.24747390756917 L 635.7491362537295 107.23948120872033 L 635.5114882682595 107.23041377529609 L 635.274052744365 107.22027251403225 L 635.0368534254003 107.20905843904646 L 634.7999140310999 107.1967726717369 L 634.5632582552056 107.18341644067004 L 634.3269097630978 107.16899108145788 L 634.0908921894287 107.15349803662431 L 633.8552291357591 107.1369388554609 L 633.619944168198 107.11931519387196 L 633.385060815046 107.10062881420897 L 633.1506025644427 107.08088158509435 L 632.9165928620179 107.0600754812345 L 632.6830551085465 107.03821258322252 L 632.4500126576096 107.01529507732995 L 632.2174888132579 106.99132525528832 L 631.985506827682 106.96630551405984 L 631.7540898988874 106.94023835559778 L 631.5232611683739 106.91312638659626 L 631.2930437188223 106.88497231822961 L 631.0634605717858 106.85577896588119 L 630.8345346853874 106.8255492488619 L 630.6062889520255 106.79428619011826 L 630.3787461960828 106.76199291593008 L 630.1519291716455 106.72867265559789 L 629.9258605602271 106.69432874111995 L 629.7005629685001 106.65896460685907 L 629.476058926036 106.62258378919921 L 629.2523708830521 106.58518992619184 L 629.0295212081662 106.5467867571921 L 628.8075321861601 106.50737812248485 L 628.586426015751 106.46696796290075 L 628.3662248073716 106.42556031942208 L 628.1469505809595 106.38315933277867 L 627.9286252637543 106.33976924303387 L 627.7112706881059 106.29539438916049 L 627.4949085892908 106.25003920860692 L 627.2795606033385 106.20370823685344 L 627.0652482648683 106.15640610695861 L 626.8519930049351 106.108137549096 L 626.6398161488877 106.05890739008117 L 626.4287389142344 106.00872055288902 L 626.218782408523 105.9575820561614 L 626.0099676272291 105.90549701370541 L 625.8023154516568 105.85247063398188 L 625.5958466468506 105.79850821958458 L 625.390581859519 105.74361516670999 L 625.1865416159695 105.68779696461766 L 624.9837463200565 105.63105919508126 L 624.7822162511408 105.5734075318305 L 624.5819715620611 105.51484773998365 L 624.3830322771195 105.45538567547108 L 624.1854182900787 105.3950272844497 L 623.9891493621728 105.33377860270829 L 623.794245120131 105.27164575506403 L 623.6007250542151 105.20863495474987 L 623.4086085162703 105.14475250279335 L 623.2179147177906 105.08000478738643 L 623.0286627279966 105.01439828324668 L 622.8408714719296 104.94793955096986 L 622.654559728559 104.8806352363738 L 622.4697461289036 104.8124920698339 L 622.2864491541695 104.74351686560999 L 622.1046871339013 104.67371652116503 L 621.9244782441498 104.6030980164753 L 621.7458405056535 104.53166841333243 L 621.5687917820376 104.4594348546372 L 621.3933497780267 104.38640456368528 L 621.2195320376753 104.31258484344491 L 621.0473559426124 104.2379830758266 L 620.876838710304 104.16260672094495 L 620.7079973923314 104.08646331637262 L 620.5408488726855 104.00956047638662 L 620.3754098660792 103.93190589120688 L 620.211696916275 103.85350732622719 L 620.0497263944317 103.77437262123871 L 619.8895144974664 103.694509689646 L 619.7310772464352 103.61392651767568 L 619.5744304849314 103.53263116357778 L 619.4195898775006 103.45063175681996 L 619.2665709080743 103.36793649727457 L 619.115388878422 103.28455365439865 L 618.9660589066207 103.20049156640701 L 618.8185959255431 103.1157586394384 L 618.6730146813646 103.03036334671489 L 618.5293297320882 102.94431422769459 L 618.387555446089 102.85761988721772 L 618.2477060006776 102.77028899464605 L 618.1097953806818 102.68233028299609 L 617.9738373770488 102.5937525480657 L 617.8398455854657 102.50456464755453 L 617.707833405 102.41477550017834 L 617.5778140367596 102.32439408477703 L 617.4498004825731 102.23342943941684 L 617.3238055436892 102.14189066048647 L 617.1998418194969 102.04978690178756 L 617.0779217062652 101.95712737361922 L 616.9580573959038 101.86392134185704 L 616.8402608747439 101.77017812702654 L 616.7245439223394 101.67590710337106 L 616.6109181102892 101.58111769791444 L 616.4993948010798 101.48581938951821 L 616.3899851469491 101.39002170793381 L 616.2827000887714 101.29373423284954 L 616.1775503549632 101.19696659293271 L 616.0745464604101 101.09972846486664 L 615.9736987054158 101.00202957238312 L 615.8750171746717 100.90387968528998 L 615.7785117362488 100.80528861849413 L 615.6841920406104 100.70626623102011 L 615.5920675196473 100.60682242502413 L 615.5021473857352 100.50696714480392 L 615.4144406308122 100.40671037580431 L 615.3289560254809 100.30606214361863 L 615.2457021181307 100.20503251298624 L 615.1646872340826 100.103631586786 L 615.0859194747578 100.00186950502604 L 615.0094067168666 99.89975644382972 L 614.9351566116208 99.79730261441809 L 614.8631765839692 99.69451826208869 L 614.7934738318545 99.59141366519111 L 614.726055325494 99.48799913409913 L 614.660927806682 99.38428501017967 L 614.5980977881161 99.28028166475868 L 614.5375715527459 99.17599949808405 L 614.4793551531444 99.07144893828554 L 614.4234544109032 98.96664044033201 L 614.3698749160498 98.86158448498593 L 614.3186220264889 98.75629157775525 L 614.2697008674671 98.65077224784297 L 614.2231163310593 98.54503704709414 L 614.1788730756804 98.43909654894075 L 614.1369755256189 98.33296134734431 L 614.0974278705952 98.22664205573652 L 614.0602340653415 98.12014930595798 L 614.0253978292077 98.01349374719489 L 613.992922645788 97.90668604491427 L 613.962811762574 97.79973687979731 L 613.9350681906287 97.69265694667143 L 613.9096947042864 97.58545695344071 L 613.8866938408744 97.47814762001512 L 613.8660679004599 97.37073967723859 L 613.8478189456198 97.26324386581588 L 613.8319488012344 97.15567093523856 L 613.8184590543049 97.04803164271006 L 613.8073510537946 96.94033675206991 L 613.7986259104946 96.83259703271744 L 613.7922844969116 96.7248232585348 L 613.788327447182 96.6170262068096 L 613.7867551570073 96.50921665715717" stroke-miterlimit="10" stroke-width="2.7769845610000004" stroke-dasharray=""/></g><g><g/><text fill="black" stroke="none" font-family="sans-serif" font-size="11pt" font-style="normal" font-weight="normal" text-decoration="normal" x="579.6882037892417" y="124.800953212" text-anchor="start" dominant-baseline="alphabetic" xml:space="preserve">SubmissionStore</text></g></g><g><path fill="white" stroke="black" paint-order="fill stroke markers" d=" M 89.84361815 137.869115852 L 106.17882144999999 137.869115852 L 106.17882144999999 412.30053129199996 L 89.84361815 412.30053129199996 L 89.84361815 137.869115852" stroke-miterlimit="10" stroke-width="1.3612669416666667" stroke-dasharray=""/><path fill="white" stroke="black" paint-order="fill stroke markers" d=" M 629.4685200774741 137.869115852 L 645.8037233774742 137.869115852 L 645.8037233774742 412.30053129199996 L 629.4685200774741 412.30053129199996 L 629.4685200774741 137.869115852" stroke-miterlimit="10" stroke-width="1.3612669416666667" stroke-dasharray=""/><g><g><rect fill="white" stroke="none" x="125.50881202166671" y="206.476969712" width="484.6297174841406" height="21.23576429"/></g><text fill="black" stroke="none" font-family="sans-serif" font-size="11pt" font-style="normal" font-weight="normal" text-decoration="normal" x="127.95909251666671" y="221.17865268199998" text-anchor="start" dominant-baseline="alphabetic" xml:space="preserve">get next Submission object "s" with lease not null and status not "ran"</text></g><g><path fill="none" stroke="black" paint-order="fill stroke markers" d=" M 106.17882144999999 227.712734002 L 616.0192026938074 227.712734002" stroke-miterlimit="10" stroke-width="1.3612669416666667" stroke-dasharray=""/><g transform="translate(629.4685200774741,227.712734002) translate(-629.4685200774741,-227.712734002)"><path fill="black" stroke="none" paint-order="stroke fill markers" d=" M 615.8558506608074 220.90639929366665 L 629.4685200774741 227.712734002 L 615.8558506608074 234.51906871033333 Z"/></g></g><g><g><rect fill="white" stroke="none" x="206.42546851580735" y="296.32058786199997" width="322.79640449585935" height="21.23576429"/></g><text fill="black" stroke="none" font-family="sans-serif" font-size="11pt" font-style="normal" font-weight="normal" text-decoration="normal" x="208.87574901080734" y="311.02227083199995" text-anchor="start" dominant-baseline="alphabetic" xml:space="preserve">reset response and lease in Submission object</text></g><g><path fill="none" stroke="black" paint-order="fill stroke markers" d=" M 106.17882144999999 317.556352152 L 616.0192026938074 317.556352152" stroke-miterlimit="10" stroke-width="1.3612669416666667" stroke-dasharray=""/><g transform="translate(629.4685200774741,317.556352152) translate(-629.4685200774741,-317.556352152)"><path fill="black" stroke="none" paint-order="stroke fill markers" d=" M 615.8558506608074 310.75001744366665 L 629.4685200774741 317.556352152 L 615.8558506608074 324.3626868603333 Z"/></g></g><g><g><rect fill="white" stroke="none" x="190.59214026873704" y="342.059157102" width="354.46306099" height="21.23576429"/></g><text fill="black" stroke="none" font-family="sans-serif" font-size="11pt" font-style="normal" font-weight="normal" text-decoration="normal" x="193.04242076373703" y="356.76084007199995" text-anchor="start" dominant-baseline="alphabetic" xml:space="preserve">enqueue the submission id in the SubmissionStore</text></g><g><path fill="none" stroke="black" paint-order="fill stroke markers" d=" M 106.17882144999999 363.294921392 L 616.0192026938074 363.294921392" stroke-miterlimit="10" stroke-width="1.3612669416666667" stroke-dasharray=""/><g transform="translate(629.4685200774741,363.294921392) translate(-629.4685200774741,-363.294921392)"><path fill="black" stroke="none" paint-order="stroke fill markers" d=" M 615.8558506608074 356.48858668366665 L 629.4685200774741 363.294921392 L 615.8558506608074 370.10125610033333 Z"/></g></g><g><g/><path fill="none" stroke="black" paint-order="fill stroke markers" d=" M 24.502804949999998 162.37192080199998 L 702.9769349274741 162.37192080199998 L 702.9769349274741 412.30053129199996 L 24.502804949999998 412.30053129199996 L 24.502804949999998 162.37192080199998 Z" stroke-miterlimit="10" stroke-width="2.3336004714285714" stroke-dasharray=""/><path fill="white" stroke="black" paint-order="fill stroke markers" d=" M 24.502804949999998 162.37192080199998 L 24.502804949999998 181.974164762 L 82.73571154999999 181.974164762 L 92.53683353 172.17304278199998 L 92.53683353 162.37192080199998 L 24.502804949999998 162.37192080199998" stroke-miterlimit="10" stroke-width="2.3336004714285714" stroke-dasharray=""/><text fill="black" stroke="none" font-family="sans-serif" font-size="8.8pt" font-style="normal" font-weight="bold" text-decoration="normal" x="40.83800825" y="175.44008344199997" text-anchor="start" dominant-baseline="alphabetic" xml:space="preserve">loop</text><g><rect fill="white" stroke="none" x="106.421756335" y="163.67873706599997" width="105.81722511353516" height="16.988611432000003"/></g><text fill="black" stroke="none" font-family="sans-serif" font-size="8.8pt" font-style="normal" font-weight="bold" text-decoration="normal" x="108.87203683" y="175.44008344199997" text-anchor="start" dominant-baseline="alphabetic" xml:space="preserve">[every n seconds]</text></g><g><g/><path fill="none" stroke="black" paint-order="fill stroke markers" d=" M 40.838008249999994 252.21553895199997 L 686.6417316274741 252.21553895199997 L 686.6417316274741 387.797726342 L 40.838008249999994 387.797726342 L 40.838008249999994 252.21553895199997 Z" stroke-miterlimit="10" stroke-width="2.3336004714285714" stroke-dasharray=""/><path fill="white" stroke="black" paint-order="fill stroke markers" d=" M 40.838008249999994 252.21553895199997 L 40.838008249999994 271.817782912 L 93.30008088088378 271.817782912 L 103.10120286088379 262.016660932 L 103.10120286088379 252.21553895199997 L 40.838008249999994 252.21553895199997" stroke-miterlimit="10" stroke-width="2.3336004714285714" stroke-dasharray=""/><text fill="black" stroke="none" font-family="sans-serif" font-size="8.8pt" font-style="normal" font-weight="bold" text-decoration="normal" x="57.17321154999999" y="265.283701592" text-anchor="start" dominant-baseline="alphabetic" xml:space="preserve">opt</text><g><rect fill="white" stroke="none" x="116.98612566588379" y="253.522355216" width="164.23388923707031" height="16.988611432000003"/></g><text fill="black" stroke="none" font-family="sans-serif" font-size="8.8pt" font-style="normal" font-weight="bold" text-decoration="normal" x="119.43640616088379" y="265.283701592" text-anchor="start" dominant-baseline="alphabetic" xml:space="preserve">[s.lease - now() &gt; threshold]</text></g></g><g/><g/></g></svg>