<svg version="1.1" xmlns="http://www.w3.org/2000/svg" xmlns:xlink="http://www.w3.org/1999/xlink" width="710" height="496"><desc>title%20Worker%20health%20checking%0Acontrol%20WorkerHealthChecker%0Adatabase%20SubmissionStore%0A%0Aactivate%20WorkerHealthChecker%0Aactivate%20SubmissionStore%0Aloop%20every%20n%20seconds%0A%20%20WorkerHealthChecker%20-%3E%20SubmissionStore%3A%20get%20all%20Submission%20objects%20%22s%22%20with%20lease%20not%20null%20and%20status%20not%20%22ran%22%0A%20%20loop%20for%20each%20submission%20in%20s%0A%20%20%20%20opt%20submission.lease%20-%20now()%20%3E%20threshold%0A%20%20%20%20%20%20WorkerHealthChecker%20-%3E%20SubmissionStore%3A%20reset%20response%20and%20lease%20in%20Submission%20object%0A%20%20%20%20%20%20WorkerHealthChecker%20-%3E%20SubmissionStore%3A%20enqueue%20the%20submission%20id%20in%20the%20SubmissionStore%0A%20%20%20%20end%0A%20%20end%0Aend%0Adeactivate%20SubmissionStore%0Adeactivate%20WorkerHealthChecker%0A</desc><defs/><g><g/><g/><g/><g><rect fill="white" stroke="none" x="0" y="0" width="710" height="496"/></g><g><text fill="black" stroke="none" font-family="sans-serif" font-size="16.5pt" font-style="normal" font-weight="normal" text-decoration="normal" x="240.27092173378907" y="22.6179738" text-anchor="start" dominant-baseline="alphabetic" xml:space="preserve">Worker health checking</text></g><g/><g><path fill="none" stroke="black" paint-order="fill stroke markers" d=" M 105.5505444 119.724474648 L 105.5505444 496.6907046480001" stroke-miterlimit="10" stroke-width="1.2565541" stroke-dasharray="11.598960923076923,5.0262164"/><path fill="none" stroke="black" paint-order="fill stroke markers" d=" M 604.4766506300781 119.724474648 L 604.4766506300781 496.6907046480001" stroke-miterlimit="10" stroke-width="1.2565541" stroke-dasharray="11.598960923076923,5.0262164"/></g><g><g><path fill="white" stroke="black" paint-order="fill stroke markers" d=" M 127.94233846200001 76.448751444 A 22.391794062000002 22.391794062000002 0 1 1 127.94232726610392 76.42635965366995 M 102.53481456 54.05695738199999 L 111.58200408 46.51763278199999 M 102.53481456 54.05695738199999 L 111.58200408 61.596281981999994" stroke-miterlimit="10" stroke-width="2.5633703640000003" stroke-dasharray=""/></g><g><g/><text fill="black" stroke="none" font-family="sans-serif" font-size="11pt" font-style="normal" font-weight="normal" text-decoration="normal" x="33.60041012265626" y="115.200879888" text-anchor="start" dominant-baseline="alphabetic" xml:space="preserve">WorkerHealthChecker</text></g><g><path fill="white" stroke="black" paint-order="fill stroke markers" d=" M 582.4618227980781 90.170322216 L 582.4618227980781 58.505158896 L 626.4914784620781 58.505158896 L 626.4914784620781 90.170322216" stroke-miterlimit="10" stroke-width="2.5633703640000003" stroke-dasharray=""/><path fill="white" stroke="black" paint-order="fill stroke markers" d=" M 626.4914784620781 57.404417504399994 L 626.4903777298593 57.50393493047687 L 626.4870756432753 57.60344240489408 L 626.4815725325318 57.702929976987086 L 626.4738689479356 57.802387698081596 L 626.4639656598384 57.90180562248838 L 626.451863658561 58.00117380849784 L 626.4375641542935 58.10048231937419 L 626.4210685769741 58.19972122434909 L 626.402378576147 58.29888059961475 L 626.3814960207967 58.39795052931627 L 626.3584229991613 58.49692110654324 L 626.3331618185238 58.59578243432041 L 626.305715004981 58.69452462659739 L 626.2760853031916 58.79313780923724 L 626.2442756761011 58.89161212100387 L 626.2102893046456 58.989937714548155 L 626.174129587434 59.08810475739269 L 626.1358001404077 59.186103432915 L 626.0953047964797 59.28392394132919 L 626.0526476051505 59.38155650066594 L 626.0078328321036 59.478991347750664 L 625.9608649587793 59.576218739179865 L 625.9117486819255 59.67322895229542 L 625.8604889131291 59.77001228615685 L 625.8070907783241 59.86655906251143 L 625.7515596172797 59.96285962676197 L 625.6939009830655 60.0589043489323 L 625.634120641497 60.15468362463025 L 625.5722245705585 60.250187876008056 L 625.5082189598056 60.345407552720175 L 625.442110209746 60.440333132878266 L 625.3739049311996 60.53495512400344 L 625.3036099446373 60.62926406397542 L 625.2312322794994 60.72325052197881 L 625.1567791734919 60.816905099446124 L 625.0802580718635 60.910218430997666 L 625.0016766266605 61.00318118537804 L 624.921042695962 61.09578406638928 L 624.8383643430939 61.18801781382044 L 624.7536498358224 61.27987320437365 L 624.6669076455279 61.3713410525864 L 624.5781464463569 61.46241221175009 L 624.4873751143555 61.5530775748247 L 624.3946027265813 61.643328075349466 L 624.2998385601956 61.73315468834955 L 624.2030920915362 61.822548431238516 L 624.1043729951692 61.91150036471656 L 624.0036911429222 62.00000159366446 L 623.9010566028963 62.08804326803307 L 623.7964796384601 62.17561658372833 L 623.6899707072229 62.26271278349164 L 623.581540459989 62.34932315777561 L 623.4711997396928 62.43543904561498 L 623.3589595803144 62.521051835492734 L 623.2448312057762 62.60615296620123 L 623.1288260288205 62.690733927698304 L 623.0109556498684 62.774786261958305 L 622.8912318558595 62.85830156381783 L 622.7696666190734 62.941271481816315 L 622.6462720959325 63.02368771903109 L 622.5210606257864 63.1055420339071 L 622.3940447296776 63.186826241081086 L 622.2652371090901 63.26753221220006 L 622.1346506446783 63.34765187673417 L 622.0022983949801 63.42717722278372 L 621.86819359511 63.50610029788039 L 621.7323496554365 63.58441320978242 L 621.5947801602399 63.66210812726389 L 621.4554988663555 63.739177280897806 L 621.3145197017964 63.81561296383302 L 621.1718567643617 63.89140753256494 L 621.0275243202261 63.96655340769984 L 620.8815368025139 64.04104307471285 L 620.7339088098552 64.11486908469932 L 620.5846551049261 64.1880240551198 L 620.4337906129729 64.26050067053818 L 620.2813304203188 64.33229168335333 L 620.1272897728563 64.4033899145238 L 619.9716840745218 64.47378825428571 L 619.8145288857552 64.54347966286376 L 619.6558399219446 64.61245717117517 L 619.495633051854 64.68071388152656 L 619.3339242960371 64.74824296830381 L 619.1707298252347 64.8150376786545 L 619.0060659587577 64.88109133316327 L 618.8399491628556 64.9463973265197 L 618.6723960490697 65.01094912817888 L 618.5034233725717 65.07474028301444 L 618.3330480304883 65.13776441196404 L 618.1612870602117 65.20001521266732 L 617.9881576376961 65.2614864600961 L 617.8136770757392 65.32217200717683 L 617.6378628222519 65.3820657854054 L 617.460732458513 65.44116180545389 L 617.2823036974113 65.49945415776952 L 617.1025943816743 65.55693701316567 L 616.9216224820836 65.61360462340468 L 616.7394060956785 65.66945132177275 L 616.5559634439459 65.72447152364661 L 616.3713128709978 65.77865972705189 L 616.1854728417378 65.83201051321342 L 615.9984619400141 65.88451854709703 L 615.8102988667607 65.9361785779431 L 615.6210024381285 65.9869854397916 L 615.4305915836023 66.03693405199866 L 615.239085344109 66.08601941974472 L 615.046502870113 66.13423663453388 L 614.8528634197012 66.18158087468484 L 614.6581863566572 66.22804740581307 L 614.4624911485251 66.27363158130416 L 614.2657973646627 66.31832884277853 L 614.0681246742845 66.3621347205473 L 613.8694928444946 66.40504483405921 L 613.6699217383108 66.44705489233864 L 613.4694313126771 66.48816069441477 L 613.2680416164691 66.52835812974169 L 613.0657727884886 66.56764317860932 L 612.8626450554498 66.60601191254551 L 612.6586787299568 66.64346049470888 L 612.4538942084722 66.67998518027238 L 612.2483119692773 66.7155823167979 L 612.041952570425 66.75024834460147 L 611.834836647683 66.7839797971092 L 611.626984912471 66.81677330120391 L 611.4184181497894 66.84862557756256 L 611.2091572161406 66.87953344098403 L 610.9992230374436 66.90949380070775 L 610.7886366069414 66.9385036607227 L 610.5774189831013 66.96656012006707 L 610.36559128751 66.9936603731183 L 610.1531747027605 67.01980170987368 L 609.940190470334 67.04498151622128 L 609.7266598884763 67.0691972742015 L 609.5126043100679 67.09244656225869 L 609.2980451404881 67.11472705548341 L 609.0830038354751 67.13603652584493 L 608.8675018989801 67.15637284241396 L 608.6515608810173 67.1757339715758 L 608.4352023755084 67.19411797723365 L 608.2184480181238 67.21152302100226 L 608.0013194841185 67.22794736239179 L 607.7838384861651 67.24338935898176 L 607.5660267721821 67.25784746658539 L 607.3479061231593 67.27132023940396 L 607.1294983509798 67.28380633017143 L 606.9108252962391 67.29530449028911 L 606.6919088260601 67.3058135699506 L 606.4727708319076 67.31533251825665 L 606.2534332273983 67.3238603833204 L 606.03391794611 67.33139631236241 L 605.8142469393878 67.3379395517961 L 605.5944421741493 67.34348944730294 L 605.3745256306879 67.34804544389803 L 605.1545193004746 67.3516070859855 L 604.9344451839593 67.3541740174041 L 604.71432528837 67.35574598146285 L 604.4941816255129 67.35632282096664 L 604.2740362095709 67.35590447823199 L 604.0539110549021 67.35449099509283 L 603.8338281738386 67.35208251289632 L 603.6138095744849 67.34867927248864 L 603.3938772585178 67.344281614191 L 603.1740532189856 67.33888997776559 L 602.954359438109 67.33250490237154 L 602.734817885083 67.32512702651107 L 602.51545051388 67.31675708796561 L 602.2962792610542 67.30739592372207 L 602.0773260435485 67.29704446988903 L 601.8586127565019 67.28570376160329 L 601.640161271061 67.27337493292619 L 601.4219934321923 67.26005921673035 L 601.2041310564978 67.24575794457628 L 600.9865959300336 67.23047254657928 L 600.769409806131 67.21420455126642 L 600.5525944032214 67.19695558542367 L 600.3361714026645 67.17872737393323 L 600.1201624465799 67.15952173960108 L 599.9045891356834 67.13934060297463 L 599.6894730271262 67.11818598215072 L 599.47483563234 67.09605999257383 L 599.2606984148854 67.07296484682446 L 599.0470827883057 67.04890285439795 L 598.8340101139856 67.02387642147347 L 598.6215016990149 66.99788805067348 L 598.409578794058 66.9709403408134 L 598.1982625912289 66.94303598664175 L 597.9875742219716 66.91417777857069 L 597.7775347549477 66.884368602397 L 597.5681651939286 66.85361143901343 L 597.3594864756961 66.82190936411071 L 597.1515194679482 66.7892655478699 L 596.9442849672122 66.75568325464543 L 596.7378036967655 66.72116584263863 L 596.5320963045631 66.68571676356193 L 596.3271833611728 66.6493395622937 L 596.1230853577183 66.61203787652377 L 595.9198227038297 66.57381543638961 L 595.717415725603 66.5346760641034 L 595.5158846635675 66.49462367356972 L 595.3152496706613 66.4536622699943 L 595.1155308102166 66.4117959494833 L 594.9167480539529 66.36902889863394 L 594.7189212799803 66.32536539411564 L 594.5220702708114 66.28080980224246 L 594.3262147113829 66.23536657853647 L 594.1313741870875 66.18904026728217 L 593.9375681818155 66.14183550107207 L 593.7448160760058 66.09375700034346 L 593.5531371447082 66.04480957290635 L 593.3625505556564 65.99499811346269 L 593.1730753673502 65.9443276031169 L 592.9847305271508 65.89280310887783 L 592.797534869385 65.84042978315193 L 592.6115071134627 65.78721286322815 L 592.4266658620045 65.73315767075412 L 592.2430295989815 65.67826961120406 L 592.060616687867 65.62255417333817 L 591.8794453698 65.56601692865381 L 591.6995337617614 65.50866353082833 L 591.5208998547621 65.45049971515373 L 591.3435615120438 65.3915312979631 L 591.1675364672932 65.331764176049 L 590.992842322868 65.27120432607386 L 590.819496548037 65.20985780397217 L 590.6475164772334 65.14773074434505 L 590.4769193083207 65.08482935984667 L 590.3077221008738 65.02115994056305 L 590.1399417744725 64.9567288533831 L 589.9735951070095 64.89154254136182 L 589.8086987330129 64.82560752307609 L 589.6452691419828 64.7589303919728 L 589.4833226767421 64.69151781570949 L 589.3228755318023 64.62337653548761 L 589.1639437517442 64.5545133653784 L 589.0065432296134 64.48493519164148 L 588.850689705331 64.41464897203626 L 588.6963987641194 64.34366173512612 L 588.5436858349442 64.27198057957558 L 588.3925661889712 64.19961267344047 L 588.2430549380389 64.12656525345112 L 588.0951670331478 64.05284562428861 L 587.9489172629653 63.97846115785447 L 587.8043202523464 63.90341929253332 L 587.6613904608718 63.82772753244919 L 587.5201421814013 63.751393446714985 L 587.3805895386454 63.67442466867568 L 587.2427464877519 63.59682889514493 L 587.1066268129111 63.51861388563544 L 586.9722441259771 63.439787461582966 L 586.8396118651065 63.36035750556424 L 586.708743293415 63.28033196050866 L 586.5796514976505 63.19971882890405 L 586.4523493868852 63.118526171996386 L 586.326849691224 63.03676210898371 L 586.2031649605318 62.95443481620418 L 586.0813075631788 62.87155252631846 L 585.9612896848032 62.78812352748649 L 585.8431233270926 62.70415616253861 L 585.7268203065844 62.619658828141354 L 585.6123922534838 62.534639973957745 L 585.4998506105006 62.44910810180235 L 585.3892066317055 62.36307176479111 L 585.280471381404 62.27653956648603 L 585.1736557330307 62.189520160034824 L 585.0687703680612 62.102022247305634 L 584.9658257749448 62.014054578016804 L 584.864832248055 61.92562594886197 L 584.7657998866603 61.83674520263035 L 584.6687385939142 61.7474212273225 L 584.5736580758652 61.657662955261515 L 584.4805678404858 61.567479362199805 L 584.389477196722 61.47687946642152 L 584.3003952535624 61.38587232784074 L 584.2133309191269 61.29446704709548 L 584.1282928997765 61.202672764637654 L 584.0452896992422 61.110498659819 L 583.9643296177749 61.017953949973204 L 583.8854207513152 60.92504788949412 L 583.8085709906841 60.83178976891037 L 583.7337880207937 60.7381889139563 L 583.6610793198785 60.644254684639414 L 583.590452158748 60.54999647430436 L 583.5219136000596 60.455423708693615 L 583.455470497612 60.36054584500494 L 583.39112949566 60.26537237094564 L 583.3288970282503 60.16991280378381 L 583.2687793185777 60.07417668939661 L 583.2107823783631 59.9781736013157 L 583.154912007252 59.88191313976989 L 583.1011737922354 59.785404930725115 L 583.0495731070895 59.68865862492186 L 583.0001151118402 59.59168389691008 L 582.9528047522457 59.494490444081755 L 582.9076467593023 59.3970879857012 L 582.8646456487721 59.299486261933055 L 582.82380572073 59.20169503286838 L 582.7851310591349 59.103724077548584 L 582.7486255314205 59.00558319298756 L 582.7142927881096 58.907282193191975 L 582.6821362624476 58.80883090817989 L 582.6521591700601 58.710239182997775 L 582.6243645086319 58.611516876735976 L 582.5987550576054 58.51267386154286 L 582.5753333779048 58.41372002163757 L 582.5541018116784 58.31466525232164 L 582.535062482065 58.215519458989455 L 582.5182172929818 58.11629255613773 L 582.5035679289338 58.01699446637406 L 582.4911158548449 57.917635119424666 L 582.4808623159124 57.818224451141454 L 582.4728083374815 57.7187724025084 L 582.4669547249435 57.6192889186475 L 582.4633020636546 57.51978394782424 L 582.4618507188779 57.42026744045276 L 582.4626008357468 57.3207493481009 L 582.4655523392502 57.221239622494934 L 582.47070493424 57.12174821452452 L 582.4780581054613 57.02228507324753 L 582.4876111176028 56.92286014489522 L 582.4993630153715 56.82348337187756 L 582.5133126235874 56.72416469178904 L 582.5294585473011 56.62491403641491 L 582.5477991719339 56.52574133073799 L 582.5683326634385 56.42665649194621 L 582.5910569684829 56.32766942844088 L 582.6159698146555 56.22879003884586 L 582.6430687106924 56.1300282110177 L 582.6723509467269 56.031393821056895 L 582.7038135945593 55.932896732320245 L 582.7374535079514 55.83454679443454 L 582.7732673229397 55.73635384231161 L 582.8112514581727 55.63832769516483 L 582.8514021152683 55.54047815552725 L 582.8937152791946 55.442815008271275 L 582.9381867186702 55.34534801963025 L 582.9848119865883 55.24808693622182 L 583.0335864204608 55.15104148407327 L 583.0845051428853 55.054221367648935 L 583.1375630620316 54.957636268879796 L 583.1927548721524 54.861295846195226 L 583.2500750541122 54.76520973355722 L 583.3095178759411 54.66938753949697 L 583.371077393406 54.57383884615402 L 583.4347474506068 54.47857320831808 L 583.5005216805906 54.38360015247356 L 583.5683935059894 54.288929175846896 L 583.6383561396771 54.19456974545685 L 583.7104025854485 54.10053129716784 L 583.7845256387193 54.00682323474632 L 583.8607178872459 53.913454928920444 L 583.9389717118669 53.820435716442994 L 584.019279287265 53.7277748991577 L 584.1016325827496 53.635481743069064 L 584.1860233630599 53.5435654774158 L 584.272443189188 53.45203529374787 L 584.3608834192235 53.36090034500735 L 584.451335209217 53.2701697446132 L 584.5437895140648 53.17985256554982 L 584.6382370884136 53.08995783945988 L 584.7346684875846 53.00049455574105 L 584.8330740685182 52.911471660647166 L 584.9334439907384 52.82289805639355 L 585.0357682173366 52.73478260026681 L 585.1400365159753 52.64713410373914 L 585.2462384599118 52.55996133158715 L 585.3543634290398 52.4732730010154 L 585.4644006109529 52.387077780784715 L 585.5763390020244 52.30138429034529 L 585.6901674085084 52.21620109897476 L 585.8058744476593 52.13153672492127 L 585.9234485488695 52.047399634551674 L 586.0428779548268 51.963798241504904 L 586.1641507226904 51.88074090585058 L 586.2872547252841 51.79823593325307 L 586.4121776523107 51.71629157414086 L 586.5389070115813 51.6349160228816 L 586.6674301302656 51.55411741696258 L 586.7977341561591 51.47390383617708 L 586.9298060589675 51.394283301816316 L 587.0636326316107 51.315263775867386 L 587.199200491543 51.23685316021703 L 587.3364960820913 51.159059295861475 L 587.475505673811 51.081889962122325 L 587.6162153658587 51.005352875868645 L 587.7586110873825 50.92945569074528 L 587.902678598929 50.8542059964075 L 588.048403493867 50.77961131776203 L 588.1957711998284 50.70567911421457 L 588.3447669801654 50.63241677892386 L 588.4953759354244 50.559831638062384 L 588.647583004835 50.487930950083744 L 588.8013729678174 50.41672190499681 L 588.9567304455034 50.34621162364676 L 589.1136399022744 50.276407157002964 L 589.2720856473159 50.207315485453925 L 589.4320518361851 50.13894351810921 L 589.5935224723967 50.071298092108584 L 589.7564814090215 50.00438597193828 L 589.9209123503016 49.938213848754536 L 590.0867988532799 49.87278833971455 L 590.2541243294444 49.80811598731469 L 590.4228720463869 49.74420325873631 L 590.5930251294764 49.68105654519901 L 590.7645665635462 49.61868216132152 L 590.937479194596 49.557086344490244 L 591.1117457315067 49.496275254235535 L 591.28734874777 49.436254971615746 L 591.4642706832303 49.37703149860913 L 591.6424938458418 49.31861075751362 L 591.8220004134366 49.260998590354646 L 592.0027724355076 49.20420075830092 L 592.1847918350031 49.148222941088314 L 592.368040410135 49.0930707364519 L 592.5524998361984 49.03874965956618 L 592.7381516674044 48.985265142493574 L 592.9249773387247 48.93262253364123 L 593.1129581677477 48.880827097226145 L 593.3020753565472 48.82988401274882 L 593.492309993562 48.779798374475234 L 593.6836430554869 48.73057519092748 L 593.876055409175 48.6822193843829 L 594.0695278135514 48.634735790381846 L 594.2640409215369 48.58812915724415 L 594.4595752819828 48.54240414559428 L 594.656111341616 48.497565327895316 L 594.8536294469943 48.45361718799164 L 595.0521098464717 48.41056412066064 L 595.2515326921737 48.36841043117315 L 595.4518780419819 48.32716033486301 L 595.6531258615283 48.28681795670546 L 595.8552560261987 48.247387330904715 L 596.058248323145 48.20887240049048 L 596.2620824533067 48.17127701692371 L 596.4667380334405 48.13460493971143 L 596.6721945981592 48.0988598360308 L 596.8784316019774 48.06404528036239 L 597.0854284213665 48.030164754132784 L 597.2931643568171 47.997221645366345 L 597.5016186349089 47.96521924834651 L 597.7107704103877 47.9341607632863 L 597.9205987682502 47.90404929600835 L 598.1310827258357 47.87488785763429 L 598.3422012349234 47.846679364283666 L 598.5539331838388 47.819426636782296 L 598.7662573995632 47.793132400380216 L 598.9791526498519 47.76779928447917 L 599.1925976453575 47.74342982236962 L 599.4065710417582 47.72002645097748 L 599.6210514418926 47.69759151062038 L 599.8360173978996 47.67612724477367 L 600.0514474133626 47.65563579984603 L 600.2673199454596 47.636119224964894 L 600.4836134071172 47.61757947177148 L 600.7003061691697 47.60001839422566 L 600.9173765625213 47.58343774842055 L 601.1348028803137 47.567839192406915 L 601.3525633800962 47.55322428602736 L 601.5706362860002 47.53959449076034 L 601.7889997909169 47.52695116957402 L 602.0076320586779 47.515295586789996 L 602.2265112262386 47.50462890795682 L 602.4456154058645 47.4949521997335 L 602.6649226873203 47.48626642978277 L 602.8844111400606 47.47857246667442 L 603.1040588154231 47.47187107979833 L 603.3238437488232 47.4661629392876 L 603.5437439619507 47.46144861595154 L 603.7637374649676 47.45772858121853 L 603.983802258707 47.45500320708897 L 604.2039163368728 47.45327276609799 L 604.4240576882406 47.45253743128824 L 604.6442042988588 47.4527972761926 L 604.8643341542497 47.45405227482679 L 605.0844252416113 47.45630230169199 L 605.3044555520182 47.4595471317874 L 605.5244030826227 47.4637864406327 L 605.7442458388551 47.46901980430055 L 605.9639618366231 47.475246699458935 L 606.1835291045097 47.48246650342354 L 606.4029256859712 47.49067849421997 L 606.6221296415325 47.499881850656 L 606.8411190509804 47.51007565240366 L 607.0598720155567 47.52125888009125 L 607.2783666601471 47.533430415405334 L 607.4965811354692 47.54658904120252 L 607.7144936202575 47.56073344163121 L 607.9320823234449 47.575862202263124 L 608.1493254863424 47.59197381023482 L 608.3662013848149 47.609066654398916 L 608.5826883314531 47.62713902548525 L 608.7987646777431 47.64618911627178 L 609.0144088162299 47.66621502176528 L 609.2295991826795 47.687214739391905 L 609.4443142582347 47.709186169197395 L 609.6585325715668 47.732127114057064 L 609.8722327010229 47.756035279895556 L 610.0853932767683 47.78090827591621 L 610.2979929829229 47.806743614840144 L 610.5100105596933 47.833538713155 L 610.7214248054986 47.86129089137327 L 610.9322145790902 47.88999737430027 L 611.1423588016667 47.91965529131163 L 611.3518364589806 47.950261676640345 L 611.560626603441 47.9818134696734 L 611.7687083562073 48.014307515257784 L 611.9760609092777 48.047740564016024 L 612.1826635275697 48.08210927267109 L 612.3884955509936 48.11741020438076 L 612.5935363965186 48.1536398290813 L 612.797765560231 48.1907945238404 L 613.0011626193847 48.228870573219574 L 613.2037072344431 48.2678641696456 L 613.4053791511136 48.30777141379133 L 613.6061582023726 48.34858831496561 L 613.8060243104823 48.39031079151233 L 614.0049574889983 48.43293467121861 L 614.2029378447687 48.476455691732 L 614.3999455799229 48.520869500986706 L 614.5959609938515 48.56617165763883 L 614.7909644851763 48.61235763151045 L 614.984936553711 48.65942280404266 L 615.1778578024101 48.70736246875744 L 615.3697089393097 48.75617183172826 L 615.5604707794558 48.8058460120595 L 615.7501242468235 48.85638004237452 L 615.938650376224 48.907768869312406 L 616.1260303152017 48.96000735403328 L 616.3122453259184 49.01309027273221 L 616.4972767870287 49.06701231716155 L 616.6811061955403 49.1217680951618 L 616.8637151686659 49.17735213120079 L 617.04508544566 49.23375886692124 L 617.2251988896462 49.290982661696574 L 617.4040374894303 49.34901779319501 L 617.5815833613011 49.407858457951754 L 617.7578187508196 49.467498771949366 L 617.9327260345937 49.52793277120614 L 618.1062877220406 49.58915441237252 L 618.2784864571364 49.65115757333541 L 618.449305020151 49.71393605383038 L 618.6187263293702 49.777483576061684 L 618.7867334428047 49.841793785330076 L 618.953309559883 49.9068602506682 L 619.1184380231321 49.97267646548376 L 619.2821023198433 50.03923584821011 L 619.4442860837233 50.10653174296445 L 619.604973096531 50.17455742021338 L 619.7641472896989 50.24330607744587 L 619.9217927459405 50.31277083985348 L 620.0778937008414 50.38294476101786 L 620.2324345444362 50.45382082360537 L 620.3853998227693 50.525391940068815 L 620.5367742394403 50.59765095335619 L 620.6865426571338 50.67059063762638 L 620.8346900991329 50.744203698971745 L 620.9812017508167 50.81848277614749 L 621.1260629611421 50.89342044130781 L 621.2692592441089 50.969009200748616 L 621.4107762802081 51.045241495656974 L 621.550599917854 51.12210970286691 L 621.6887161747994 51.19960613562175 L 621.8251112395336 51.277723044342814 L 621.959771472664 51.35645261740432 L 622.0926834082792 51.435786981914575 L 622.2238337552967 51.51571820450324 L 622.3532093987908 51.596238292114656 L 622.4807974013052 51.67733919280717 L 622.6065850041459 51.759012796558295 L 622.7305596286574 51.84125093607571 L 622.8527088774805 51.92404538761401 L 622.9730205357923 52.007387871797015 L 623.0914825725271 52.09127005444578 L 623.2080831415799 52.17568354741193 L 623.3228105829911 52.26061990941651 L 623.435653424112 52.34607064689411 L 623.5466003807527 52.432027214842186 L 623.6556403583098 52.51848101767557 L 623.7627624528767 52.605423410086026 L 623.8679559523329 52.69284569790677 L 623.9712103374162 52.78073913898186 L 624.0725152827742 52.86909494404044 L 624.1718606579968 52.957904277575636 L 624.2692365286293 53.0471582587281 L 624.3646331571656 53.136847962174095 L 624.4580410040226 53.22696441901801 L 624.5494507284932 53.31749861768927 L 624.6388531896812 53.408441504843445 L 624.7262394474151 53.49978398626761 L 624.8116007631418 53.59151692778973 L 624.8949286008009 53.68363115619211 L 624.9762146276781 53.77611746012866 L 625.0554507152386 53.868966591046075 L 625.1326289399394 53.96216926410862 L 625.2077415840225 54.05571615912666 L 625.2807811362861 54.149597921488656 L 625.3517402928358 54.243805163096596 L 625.420611957815 54.33832846330484 L 625.4873892441148 54.43315836986213 L 625.5520654740619 54.52828539985682 L 625.6146341800875 54.623700040665206 L 625.675089105373 54.719392750902706 L 625.7334242044763 54.815353961378044 L 625.7896336439361 54.91157407605014 L 625.8437118028552 55.0080434729877 L 625.8956532734629 55.10475250533143 L 625.9454528616553 55.20169150225869 L 625.9931055875153 55.29885076995057 L 626.0386066858098 55.39622059256126 L 626.0819516064669 55.49379123318963 L 626.1231360150307 55.591552934852956 L 626.1621557930948 55.68949592146251 L 626.1990070387137 55.78761039880126 L 626.2336860667938 55.88588655550324 L 626.2661894094608 55.98431456403467 L 626.2965138164079 56.08288458167672 L 626.3246562552195 56.18158675150977 L 626.3506139116752 56.28041120339909 L 626.3743841900309 56.37934805498184 L 626.3959647132788 56.47838741265531 L 626.4153533233844 56.57751937256626 L 626.4325480815027 56.67673402160132 L 626.4475472681725 56.77602143837825 L 626.4603493834875 56.87537169423813 L 626.4709531472469 56.974774854238156 L 626.479357499083 57.074220978145156 L 626.4855615985678 57.173700121429626 L 626.4895648252964 57.27320233626013 L 626.4913667789494 57.3727176724981 M 626.4914784620781 89.0695808244 L 626.4903777298593 89.16909825047689 L 626.4870756432753 89.26860572489409 L 626.4815725325318 89.3680932969871 L 626.4738689479356 89.46755101808161 L 626.4639656598384 89.56696894248839 L 626.451863658561 89.66633712849786 L 626.4375641542935 89.7656456393742 L 626.4210685769741 89.86488454434911 L 626.402378576147 89.96404391961477 L 626.3814960207967 90.06311384931628 L 626.3584229991613 90.16208442654325 L 626.3331618185238 90.26094575432042 L 626.305715004981 90.3596879465974 L 626.2760853031916 90.45830112923726 L 626.2442756761011 90.55677544100388 L 626.2102893046456 90.65510103454817 L 626.174129587434 90.7532680773927 L 626.1358001404077 90.85126675291501 L 626.0953047964797 90.9490872613292 L 626.0526476051505 91.04671982066594 L 626.0078328321036 91.14415466775068 L 625.9608649587793 91.24138205917988 L 625.9117486819255 91.33839227229542 L 625.8604889131291 91.43517560615686 L 625.8070907783241 91.53172238251143 L 625.7515596172797 91.62802294676199 L 625.6939009830655 91.72406766893232 L 625.634120641497 91.81984694463027 L 625.5722245705585 91.91535119600807 L 625.5082189598056 92.01057087272018 L 625.442110209746 92.10549645287828 L 625.3739049311996 92.20011844400345 L 625.3036099446373 92.29442738397543 L 625.2312322794994 92.38841384197882 L 625.1567791734919 92.48206841944614 L 625.0802580718635 92.57538175099768 L 625.0016766266605 92.66834450537806 L 624.921042695962 92.76094738638929 L 624.8383643430939 92.85318113382046 L 624.7536498358224 92.94503652437366 L 624.6669076455279 93.0365043725864 L 624.5781464463569 93.1275755317501 L 624.4873751143555 93.2182408948247 L 624.3946027265813 93.30849139534948 L 624.2998385601956 93.39831800834956 L 624.2030920915362 93.48771175123852 L 624.1043729951692 93.57666368471656 L 624.0036911429222 93.66516491366447 L 623.9010566028963 93.75320658803308 L 623.7964796384601 93.84077990372833 L 623.6899707072229 93.92787610349166 L 623.581540459989 94.01448647777562 L 623.4711997396928 94.10060236561499 L 623.3589595803144 94.18621515549275 L 623.2448312057762 94.27131628620124 L 623.1288260288205 94.35589724769832 L 623.0109556498684 94.43994958195832 L 622.8912318558595 94.52346488381785 L 622.7696666190734 94.60643480181633 L 622.6462720959325 94.68885103903109 L 622.5210606257864 94.77070535390712 L 622.3940447296776 94.8519895610811 L 622.2652371090901 94.93269553220007 L 622.1346506446783 95.01281519673418 L 622.0022983949801 95.09234054278373 L 621.86819359511 95.1712636178804 L 621.7323496554365 95.24957652978243 L 621.5947801602399 95.32727144726391 L 621.4554988663555 95.40434060089783 L 621.3145197017964 95.48077628383304 L 621.1718567643617 95.55657085256495 L 621.0275243202261 95.63171672769985 L 620.8815368025139 95.70620639471286 L 620.7339088098552 95.78003240469934 L 620.5846551049261 95.8531873751198 L 620.4337906129729 95.92566399053818 L 620.2813304203188 95.99745500335334 L 620.1272897728563 96.06855323452382 L 619.9716840745218 96.13895157428573 L 619.8145288857552 96.20864298286378 L 619.6558399219446 96.27762049117517 L 619.495633051854 96.34587720152658 L 619.3339242960371 96.41340628830382 L 619.1707298252347 96.48020099865451 L 619.0060659587577 96.54625465316329 L 618.8399491628556 96.6115606465197 L 618.6723960490697 96.67611244817888 L 618.5034233725717 96.73990360301444 L 618.3330480304883 96.80292773196405 L 618.1612870602117 96.86517853266734 L 617.9881576376961 96.92664978009611 L 617.8136770757392 96.98733532717685 L 617.6378628222519 97.0472291054054 L 617.460732458513 97.10632512545389 L 617.2823036974113 97.16461747776954 L 617.1025943816743 97.22210033316568 L 616.9216224820836 97.27876794340469 L 616.7394060956785 97.33461464177277 L 616.5559634439459 97.38963484364662 L 616.3713128709978 97.4438230470519 L 616.1854728417378 97.49717383321342 L 615.9984619400141 97.54968186709704 L 615.8102988667607 97.60134189794312 L 615.6210024381285 97.6521487597916 L 615.4305915836023 97.70209737199868 L 615.239085344109 97.75118273974472 L 615.046502870113 97.79939995453388 L 614.8528634197012 97.84674419468486 L 614.6581863566572 97.89321072581308 L 614.4624911485251 97.93879490130416 L 614.2657973646627 97.98349216277855 L 614.0681246742845 98.02729804054732 L 613.8694928444946 98.07020815405922 L 613.6699217383108 98.11221821233865 L 613.4694313126771 98.15332401441479 L 613.2680416164691 98.1935214497417 L 613.0657727884886 98.23280649860932 L 612.8626450554498 98.27117523254553 L 612.6586787299568 98.30862381470888 L 612.4538942084722 98.34514850027239 L 612.2483119692773 98.38074563679791 L 612.041952570425 98.41541166460149 L 611.834836647683 98.4491431171092 L 611.626984912471 98.48193662120391 L 611.4184181497894 98.51378889756256 L 611.2091572161406 98.54469676098404 L 610.9992230374436 98.57465712070776 L 610.7886366069414 98.60366698072272 L 610.5774189831013 98.63172344006709 L 610.36559128751 98.65882369311832 L 610.1531747027605 98.6849650298737 L 609.940190470334 98.7101448362213 L 609.7266598884763 98.73436059420152 L 609.5126043100679 98.75760988225869 L 609.2980451404881 98.77989037548343 L 609.0830038354751 98.80119984584495 L 608.8675018989801 98.82153616241398 L 608.6515608810173 98.8408972915758 L 608.4352023755084 98.85928129723365 L 608.2184480181238 98.87668634100228 L 608.0013194841185 98.89311068239181 L 607.7838384861651 98.90855267898178 L 607.5660267721821 98.92301078658541 L 607.3479061231593 98.93648355940398 L 607.1294983509798 98.94896965017145 L 606.9108252962391 98.96046781028913 L 606.6919088260601 98.9709768899506 L 606.4727708319076 98.98049583825666 L 606.2534332273983 98.9890237033204 L 606.03391794611 98.99655963236242 L 605.8142469393878 99.0031028717961 L 605.5944421741493 99.00865276730295 L 605.3745256306879 99.01320876389804 L 605.1545193004746 99.01677040598551 L 604.9344451839593 99.01933733740412 L 604.71432528837 99.02090930146286 L 604.4941816255129 99.02148614096664 L 604.2740362095709 99.021067798232 L 604.0539110549021 99.01965431509285 L 603.8338281738386 99.01724583289632 L 603.6138095744849 99.01384259248866 L 603.3938772585178 99.00944493419102 L 603.1740532189856 99.00405329776561 L 602.954359438109 98.99766822237156 L 602.734817885083 98.99029034651109 L 602.51545051388 98.98192040796563 L 602.2962792610542 98.97255924372207 L 602.0773260435485 98.96220778988905 L 601.8586127565019 98.95086708160329 L 601.640161271061 98.93853825292621 L 601.4219934321923 98.92522253673036 L 601.2041310564978 98.91092126457629 L 600.9865959300336 98.8956358665793 L 600.769409806131 98.87936787126644 L 600.5525944032214 98.86211890542369 L 600.3361714026645 98.84389069393325 L 600.1201624465799 98.8246850596011 L 599.9045891356834 98.80450392297463 L 599.6894730271262 98.78334930215074 L 599.47483563234 98.76122331257385 L 599.2606984148854 98.73812816682448 L 599.0470827883057 98.71406617439796 L 598.8340101139856 98.6890397414735 L 598.6215016990149 98.6630513706735 L 598.409578794058 98.6361036608134 L 598.1982625912289 98.60819930664177 L 597.9875742219716 98.57934109857071 L 597.7775347549477 98.54953192239701 L 597.5681651939286 98.51877475901345 L 597.3594864756961 98.48707268411073 L 597.1515194679482 98.45442886786992 L 596.9442849672122 98.42084657464544 L 596.7378036967655 98.38632916263863 L 596.5320963045631 98.35088008356193 L 596.3271833611728 98.31450288229371 L 596.1230853577183 98.27720119652378 L 595.9198227038297 98.23897875638961 L 595.717415725603 98.1998393841034 L 595.5158846635675 98.15978699356974 L 595.3152496706613 98.1188255899943 L 595.1155308102166 98.07695926948332 L 594.9167480539529 98.03419221863396 L 594.7189212799803 97.99052871411565 L 594.5220702708114 97.94597312224248 L 594.3262147113829 97.90052989853648 L 594.1313741870875 97.85420358728217 L 593.9375681818155 97.80699882107207 L 593.7448160760058 97.75892032034346 L 593.5531371447082 97.70997289290635 L 593.3625505556564 97.66016143346269 L 593.1730753673502 97.60949092311692 L 592.9847305271508 97.55796642887785 L 592.797534869385 97.50559310315195 L 592.6115071134627 97.45237618322817 L 592.4266658620045 97.39832099075414 L 592.2430295989815 97.34343293120408 L 592.060616687867 97.28771749333818 L 591.8794453698 97.23118024865381 L 591.6995337617614 97.17382685082835 L 591.5208998547621 97.11566303515374 L 591.3435615120438 97.0566946179631 L 591.1675364672932 96.99692749604901 L 590.992842322868 96.93636764607388 L 590.819496548037 96.87502112397219 L 590.6475164772334 96.81289406434506 L 590.4769193083207 96.74999267984667 L 590.3077221008738 96.68632326056307 L 590.1399417744725 96.62189217338312 L 589.9735951070095 96.55670586136183 L 589.8086987330129 96.4907708430761 L 589.6452691419828 96.4240937119728 L 589.4833226767421 96.3566811357095 L 589.3228755318023 96.28853985548761 L 589.1639437517442 96.21967668537842 L 589.0065432296134 96.1500985116415 L 588.850689705331 96.07981229203628 L 588.6963987641194 96.00882505512612 L 588.5436858349442 95.93714389957559 L 588.3925661889712 95.86477599344049 L 588.2430549380389 95.79172857345112 L 588.0951670331478 95.71800894428863 L 587.9489172629653 95.64362447785447 L 587.8043202523464 95.56858261253333 L 587.6613904608718 95.4928908524492 L 587.5201421814013 95.41655676671499 L 587.3805895386454 95.33958798867569 L 587.2427464877519 95.26199221514494 L 587.1066268129111 95.18377720563545 L 586.9722441259771 95.10495078158299 L 586.8396118651065 95.02552082556426 L 586.708743293415 94.94549528050867 L 586.5796514976505 94.86488214890406 L 586.4523493868852 94.7836894919964 L 586.326849691224 94.70192542898371 L 586.2031649605318 94.61959813620419 L 586.0813075631788 94.53671584631847 L 585.9612896848032 94.4532868474865 L 585.8431233270926 94.36931948253863 L 585.7268203065844 94.28482214814137 L 585.6123922534838 94.19980329395776 L 585.4998506105006 94.11427142180236 L 585.3892066317055 94.02823508479112 L 585.280471381404 93.94170288648604 L 585.1736557330307 93.85468348003484 L 585.0687703680612 93.76718556730565 L 584.9658257749448 93.67921789801682 L 584.864832248055 93.59078926886198 L 584.7657998866603 93.50190852263036 L 584.6687385939142 93.41258454732251 L 584.5736580758652 93.32282627526152 L 584.4805678404858 93.23264268219981 L 584.389477196722 93.14204278642153 L 584.3003952535624 93.05103564784075 L 584.2133309191269 92.9596303670955 L 584.1282928997765 92.86783608463767 L 584.0452896992422 92.77566197981902 L 583.9643296177749 92.68311726997321 L 583.8854207513152 92.59021120949413 L 583.8085709906841 92.49695308891037 L 583.7337880207937 92.40335223395631 L 583.6610793198785 92.30941800463943 L 583.590452158748 92.21515979430437 L 583.5219136000596 92.12058702869363 L 583.455470497612 92.02570916500495 L 583.39112949566 91.93053569094566 L 583.3288970282503 91.83507612378382 L 583.2687793185777 91.73934000939661 L 583.2107823783631 91.64333692131571 L 583.154912007252 91.5470764597699 L 583.1011737922354 91.45056825072513 L 583.0495731070895 91.35382194492188 L 583.0001151118402 91.25684721691009 L 582.9528047522457 91.15965376408177 L 582.9076467593023 91.06225130570121 L 582.8646456487721 90.96464958193306 L 582.82380572073 90.86685835286839 L 582.7851310591349 90.7688873975486 L 582.7486255314205 90.67074651298756 L 582.7142927881096 90.57244551319198 L 582.6821362624476 90.4739942281799 L 582.6521591700601 90.37540250299779 L 582.6243645086319 90.276680196736 L 582.5987550576054 90.17783718154287 L 582.5753333779048 90.07888334163758 L 582.5541018116784 89.97982857232165 L 582.535062482065 89.88068277898947 L 582.5182172929818 89.78145587613774 L 582.5035679289338 89.68215778637406 L 582.4911158548449 89.58279843942468 L 582.4808623159124 89.48338777114147 L 582.4728083374815 89.38393572250841 L 582.4669547249435 89.28445223864752 L 582.4633020636546 89.18494726782424 L 582.4618507188779 89.08543076045278" stroke-miterlimit="10" stroke-width="2.5633703640000003" stroke-dasharray=""/></g><g><g/><text fill="black" stroke="none" font-family="sans-serif" font-size="11pt" font-style="normal" font-weight="normal" text-decoration="normal" x="549.0827526198242" y="115.200879888" text-anchor="start" dominant-baseline="alphabetic" xml:space="preserve">SubmissionStore</text></g></g><g><path fill="white" stroke="black" paint-order="fill stroke markers" d=" M 98.0112198 127.263799248 L 113.08986900000001 127.263799248 L 113.08986900000001 443.9154324480001 L 98.0112198 443.9154324480001 L 98.0112198 127.263799248" stroke-miterlimit="10" stroke-width="1.2565541" stroke-dasharray=""/><path fill="white" stroke="black" paint-order="fill stroke markers" d=" M 596.9373260300781 127.263799248 L 612.0159752300781 127.263799248 L 612.0159752300781 443.9154324480001 L 596.9373260300781 443.9154324480001 L 596.9373260300781 127.263799248" stroke-miterlimit="10" stroke-width="1.2565541" stroke-dasharray=""/><g><g><rect fill="white" stroke="none" x="130.93293722" y="190.59412588799998" width="448.1613205900781" height="19.602243960000003"/></g><text fill="black" stroke="none" font-family="sans-serif" font-size="11pt" font-style="normal" font-weight="normal" text-decoration="normal" x="133.1947346" y="204.16491016799998" text-anchor="start" dominant-baseline="alphabetic" xml:space="preserve">get all Submission objects "s" with lease not null and status not "ran"</text></g><g><path fill="none" stroke="black" paint-order="fill stroke markers" d=" M 113.08986900000001 210.196369848 L 584.5225715220781 210.196369848" stroke-miterlimit="10" stroke-width="1.2565541" stroke-dasharray=""/><g transform="translate(596.9373260300781,210.196369848) translate(-596.9373260300781,-210.196369848)"><path fill="black" stroke="none" paint-order="stroke fill markers" d=" M 584.3717850300781 203.913599348 L 596.9373260300781 210.196369848 L 584.3717850300781 216.479140348 Z"/></g></g><g><g><rect fill="white" stroke="none" x="201.21563680496095" y="314.239049328" width="307.59592142015623" height="19.602243960000003"/></g><text fill="black" stroke="none" font-family="sans-serif" font-size="11pt" font-style="normal" font-weight="normal" text-decoration="normal" x="203.47743418496094" y="327.8098336080001" text-anchor="start" dominant-baseline="alphabetic" xml:space="preserve">reset response and lease in Submission object</text></g><g><path fill="none" stroke="black" paint-order="fill stroke markers" d=" M 113.08986900000001 333.84129328800003 L 584.5225715220781 333.84129328800003" stroke-miterlimit="10" stroke-width="1.2565541" stroke-dasharray=""/><g transform="translate(596.9373260300781,333.84129328800003) translate(-596.9373260300781,-333.84129328800003)"><path fill="black" stroke="none" paint-order="stroke fill markers" d=" M 584.3717850300781 327.558522788 L 596.9373260300781 333.84129328800003 L 584.3717850300781 340.12406378800006 Z"/></g></g><g><g><rect fill="white" stroke="none" x="188.1767116340625" y="356.45926708800005" width="333.6737717619531" height="19.602243960000003"/></g><text fill="black" stroke="none" font-family="sans-serif" font-size="11pt" font-style="normal" font-weight="normal" text-decoration="normal" x="190.4385090140625" y="370.03005136800004" text-anchor="start" dominant-baseline="alphabetic" xml:space="preserve">enqueue the submission id in the SubmissionStore</text></g><g><path fill="none" stroke="black" paint-order="fill stroke markers" d=" M 113.08986900000001 376.06151104800006 L 584.5225715220781 376.06151104800006" stroke-miterlimit="10" stroke-width="1.2565541" stroke-dasharray=""/><g transform="translate(596.9373260300781,376.06151104800006) translate(-596.9373260300781,-376.06151104800006)"><path fill="black" stroke="none" paint-order="stroke fill markers" d=" M 584.3717850300781 369.77874054800003 L 596.9373260300781 376.06151104800006 L 584.3717850300781 382.3442815480001 Z"/></g></g><g><g/><path fill="none" stroke="black" paint-order="fill stroke markers" d=" M 22.6179738 149.88177304799999 L 679.8698966300781 149.88177304799999 L 679.8698966300781 443.91543244800016 L 22.6179738 443.91543244800016 L 22.6179738 149.88177304799999 Z" stroke-miterlimit="10" stroke-width="2.154092742857143" stroke-dasharray=""/><path fill="white" stroke="black" paint-order="fill stroke markers" d=" M 22.6179738 149.88177304799999 L 22.6179738 167.976152088 L 77.50595457304688 167.976152088 L 86.55314409304688 158.92896256799997 L 86.55314409304688 149.88177304799999 L 22.6179738 149.88177304799999" stroke-miterlimit="10" stroke-width="2.154092742857143" stroke-dasharray=""/><text fill="black" stroke="none" font-family="sans-serif" font-size="8.8pt" font-style="normal" font-weight="bold" text-decoration="normal" x="37.696623" y="161.94469240799998" text-anchor="start" dominant-baseline="alphabetic" xml:space="preserve">loop</text><g><rect fill="white" stroke="none" x="99.36999591304688" y="151.08806498399997" width="104.17302408128906" height="15.681795168000004"/></g><text fill="black" stroke="none" font-family="sans-serif" font-size="8.8pt" font-style="normal" font-weight="bold" text-decoration="normal" x="101.63179329304688" y="161.94469240799998" text-anchor="start" dominant-baseline="alphabetic" xml:space="preserve">[every n seconds]</text></g><g><g/><path fill="none" stroke="black" paint-order="fill stroke markers" d=" M 37.696623 232.81434364799998 L 664.7912474300781 232.81434364799998 L 664.7912474300781 421.2974586480001 L 37.696623 421.2974586480001 L 37.696623 232.81434364799998 Z" stroke-miterlimit="10" stroke-width="2.154092742857143" stroke-dasharray=""/><path fill="white" stroke="black" paint-order="fill stroke markers" d=" M 37.696623 232.81434364799998 L 37.696623 250.90872268799998 L 92.58460377304688 250.90872268799998 L 101.63179329304688 241.86153316799997 L 101.63179329304688 232.81434364799998 L 37.696623 232.81434364799998" stroke-miterlimit="10" stroke-width="2.154092742857143" stroke-dasharray=""/><text fill="black" stroke="none" font-family="sans-serif" font-size="8.8pt" font-style="normal" font-weight="bold" text-decoration="normal" x="52.7752722" y="244.87726300799997" text-anchor="start" dominant-baseline="alphabetic" xml:space="preserve">loop</text><g><rect fill="white" stroke="none" x="114.44864511304688" y="234.02063558399996" width="149.73195352464845" height="15.681795168000004"/></g><text fill="black" stroke="none" font-family="sans-serif" font-size="8.8pt" font-style="normal" font-weight="bold" text-decoration="normal" x="116.71044249304688" y="244.87726300799997" text-anchor="start" dominant-baseline="alphabetic" xml:space="preserve">[for each submission in s]</text></g><g><g/><path fill="none" stroke="black" paint-order="fill stroke markers" d=" M 52.7752722 273.526696488 L 649.7125982300781 273.526696488 L 649.7125982300781 398.6794848480001 L 52.7752722 398.6794848480001 L 52.7752722 273.526696488 Z" stroke-miterlimit="10" stroke-width="2.154092742857143" stroke-dasharray=""/><path fill="white" stroke="black" paint-order="fill stroke markers" d=" M 52.7752722 273.526696488 L 52.7752722 291.621075528 L 101.151564740625 291.621075528 L 110.19875426062501 282.57388600800004 L 110.19875426062501 273.526696488 L 52.7752722 273.526696488" stroke-miterlimit="10" stroke-width="2.154092742857143" stroke-dasharray=""/><text fill="black" stroke="none" font-family="sans-serif" font-size="8.8pt" font-style="normal" font-weight="bold" text-decoration="normal" x="67.8539214" y="285.589615848" text-anchor="start" dominant-baseline="alphabetic" xml:space="preserve">opt</text><g><rect fill="white" stroke="none" x="123.015606080625" y="274.732988424" width="218.4193924894922" height="15.681795168000004"/></g><text fill="black" stroke="none" font-family="sans-serif" font-size="8.8pt" font-style="normal" font-weight="bold" text-decoration="normal" x="125.27740346062501" y="285.589615848" text-anchor="start" dominant-baseline="alphabetic" xml:space="preserve">[submission.lease - now() &gt; threshold]</text></g></g><g/><g/></g></svg>