<svg version="1.1" xmlns="http://www.w3.org/2000/svg" xmlns:xlink="http://www.w3.org/1999/xlink" width="584" height="454"><desc>title%20Worker%20health%20checking%0Acontrol%20WorkerHealthChecker%0Adatabase%20InMemoryStore%0A%0Aactivate%20WorkerHealthChecker%0Aactivate%20InMemoryStore%0Aloop%20every%20n%20seconds%0A%20%20WorkerHealthChecker%20-%3E%20InMemoryStore%3Aget%20all%20leases%0A%20%20%20loop%20for%20each%20lease%0A%20%20%20%20opt%20lease%20-%20now()%20%3E%20threshold%0A%0A%20%20%20%20%20%20WorkerHealthChecker%20-%3E%20InMemoryStore%3A%20enqueue%20the%20submission%20id%20in%20the%20InMemoryStore%0A%20%20%20%20end%0A%20%20end%0Aend%0Adeactivate%20InMemoryStore%0Adeactivate%20WorkerHealthChecker%0A</desc><defs/><g><g/><g/><g><rect fill="white" stroke="none" x="0" y="0" width="584" height="454"/></g><g><text fill="black" stroke="none" font-family="sans-serif" font-size="16.5pt" font-style="normal" font-weight="normal" text-decoration="normal" x="177.724275615625" y="22.6179738" text-anchor="start" dominant-baseline="alphabetic" xml:space="preserve">Worker health checking</text></g><g/><g><path fill="none" stroke="black" paint-order="fill stroke markers" d=" M 105.5505444 119.724474648 L 105.5505444 454.4704868880001" stroke-miterlimit="10" stroke-width="1.2565541" stroke-dasharray="11.598960923076923,5.0262164"/><path fill="none" stroke="black" paint-order="fill stroke markers" d=" M 479.38335839375 119.724474648 L 479.38335839375 454.4704868880001" stroke-miterlimit="10" stroke-width="1.2565541" stroke-dasharray="11.598960923076923,5.0262164"/></g><g><g><path fill="white" stroke="black" paint-order="fill stroke markers" d=" M 127.94233846200001 76.448751444 A 22.391794062000002 22.391794062000002 0 1 1 127.94232726610392 76.42635965366995 M 102.53481456 54.05695738199999 L 111.58200408 46.51763278199999 M 102.53481456 54.05695738199999 L 111.58200408 61.596281981999994" stroke-miterlimit="10" stroke-width="2.5633703640000003" stroke-dasharray=""/></g><g><g/><text fill="black" stroke="none" font-family="sans-serif" font-size="11pt" font-style="normal" font-weight="normal" text-decoration="normal" x="33.60041012265626" y="115.200879888" text-anchor="start" dominant-baseline="alphabetic" xml:space="preserve">WorkerHealthChecker</text></g><g><path fill="white" stroke="black" paint-order="fill stroke markers" d=" M 457.36853056175 90.170322216 L 457.36853056175 58.505158896 L 501.39818622574995 58.505158896 L 501.39818622574995 90.170322216" stroke-miterlimit="10" stroke-width="2.5633703640000003" stroke-dasharray=""/><path fill="white" stroke="black" paint-order="fill stroke markers" d=" M 501.39818622574995 57.404417504399994 L 501.39708549353116 57.50393493047687 L 501.39378340694714 57.60344240489408 L 501.38828029620373 57.702929976987086 L 501.38057671160743 57.802387698081596 L 501.3706734235103 57.90180562248838 L 501.35857142223296 58.00117380849784 L 501.34427191796533 58.10048231937419 L 501.327776340646 58.19972122434909 L 501.3090863398189 58.29888059961475 L 501.2882037844686 58.39795052931627 L 501.26513076283317 58.49692110654324 L 501.23986958219564 58.59578243432041 L 501.2124227686529 58.69452462659739 L 501.18279306686355 58.79313780923724 L 501.150983439773 58.89161212100387 L 501.11699706831746 58.989937714548155 L 501.0808373511058 59.08810475739269 L 501.04250790407957 59.186103432915 L 501.0020125601515 59.28392394132919 L 500.95935536882234 59.38155650066594 L 500.9145405957756 59.478991347750664 L 500.8675727224512 59.576218739179865 L 500.8184564455974 59.67322895229542 L 500.76719667680095 59.77001228615685 L 500.71379854199597 59.86655906251143 L 500.65826738095154 59.96285962676197 L 500.60060874673735 60.0589043489323 L 500.5408284051689 60.15468362463025 L 500.4789323342304 60.250187876008056 L 500.41492672347755 60.345407552720175 L 500.3488179734179 60.440333132878266 L 500.2806126948714 60.53495512400344 L 500.2103177083092 60.62926406397542 L 500.1379400431713 60.72325052197881 L 500.0634869371638 60.816905099446124 L 499.9869658355354 60.910218430997666 L 499.9083843903324 61.00318118537804 L 499.8277504596339 61.09578406638928 L 499.7450721067657 61.18801781382044 L 499.66035759949426 61.27987320437365 L 499.5736154091997 61.3713410525864 L 499.48485421002874 61.46241221175009 L 499.3940828780274 61.5530775748247 L 499.3013104902531 61.643328075349466 L 499.2065463238674 61.73315468834955 L 499.109799855208 61.822548431238516 L 499.0110807588411 61.91150036471656 L 498.910398906594 62.00000159366446 L 498.8077643665682 62.08804326803307 L 498.703187402132 62.17561658372833 L 498.5966784708948 62.26271278349164 L 498.4882482236609 62.34932315777561 L 498.3779075033647 62.43543904561498 L 498.2656673439863 62.521051835492734 L 498.1515389694481 62.60615296620123 L 498.0355337924924 62.690733927698304 L 497.91766341354025 62.774786261958305 L 497.7979396195313 62.85830156381783 L 497.6763743827452 62.941271481816315 L 497.55297985960436 63.02368771903109 L 497.42776838945827 63.1055420339071 L 497.30075249334953 63.186826241081086 L 497.17194487276197 63.26753221220006 L 497.0413584083502 63.34765187673417 L 496.909006158652 63.42717722278372 L 496.77490135878196 63.50610029788039 L 496.63905741910827 63.58441320978242 L 496.5014879239118 63.66210812726389 L 496.36220663002734 63.739177280897806 L 496.2212274654683 63.81561296383302 L 496.07856452803355 63.89140753256494 L 495.934232083898 63.96655340769984 L 495.78824456618577 64.04104307471285 L 495.64061657352704 64.11486908469932 L 495.49136286859795 64.1880240551198 L 495.3404983766447 64.26050067053818 L 495.1880381839907 64.33229168335333 L 495.03399753652826 64.4033899145238 L 494.87839183819364 64.47378825428571 L 494.72123664942706 64.54347966286376 L 494.5625476856165 64.61245717117517 L 494.402340815526 64.68071388152656 L 494.24063205970907 64.74824296830381 L 494.07743758890655 64.8150376786545 L 493.91277372242956 64.88109133316327 L 493.7466569265275 64.9463973265197 L 493.5791038127416 65.01094912817888 L 493.41013113624354 65.07474028301444 L 493.2397557941601 65.13776441196404 L 493.0679948238836 65.20001521266732 L 492.89486540136795 65.2614864600961 L 492.72038483941105 65.32217200717683 L 492.5445705859238 65.3820657854054 L 492.3674402221849 65.44116180545389 L 492.1890114610832 65.49945415776952 L 492.0093021453461 65.55693701316567 L 491.82833024575547 65.61360462340468 L 491.6461138593504 65.66945132177275 L 491.4626712076177 65.72447152364661 L 491.27802063466964 65.77865972705189 L 491.09218060540974 65.83201051321342 L 490.90516970368594 65.88451854709703 L 490.71700663043265 65.9361785779431 L 490.52771020180035 65.9869854397916 L 490.33729934727415 66.03693405199866 L 490.1457931077809 66.08601941974472 L 489.95321063378486 66.13423663453388 L 489.75957118337305 66.18158087468484 L 489.5648941203291 66.22804740581307 L 489.369198912197 66.27363158130416 L 489.1725051283346 66.31832884277853 L 488.97483243795637 66.3621347205473 L 488.77620060816656 66.40504483405921 L 488.57662950198267 66.44705489233864 L 488.376139076349 66.48816069441477 L 488.17474938014095 66.52835812974169 L 487.97248055216045 66.56764317860932 L 487.7693528191217 66.60601191254551 L 487.5653864936287 66.64346049470888 L 487.360601972144 66.67998518027238 L 487.15501973294926 66.7155823167979 L 486.94866033409687 66.75024834460147 L 486.7415444113549 66.7839797971092 L 486.5336926761429 66.81677330120391 L 486.3251259134613 66.84862557756256 L 486.1158649798125 66.87953344098403 L 485.9059308011155 66.90949380070775 L 485.69534437061327 66.9385036607227 L 485.48412674677326 66.96656012006707 L 485.2722990511819 66.9936603731183 L 485.05988246643227 67.01980170987368 L 484.8468982340058 67.04498151622128 L 484.6333676521482 67.0691972742015 L 484.4193120737398 67.09244656225869 L 484.20475290415993 67.11472705548341 L 483.9897115991469 67.13603652584493 L 483.77420966265197 67.15637284241396 L 483.5582686446891 67.1757339715758 L 483.3419101391803 67.19411797723365 L 483.1251557817957 67.21152302100226 L 482.90802724779047 67.22794736239179 L 482.690546249837 67.24338935898176 L 482.47273453585393 67.25784746658539 L 482.2546138868311 67.27132023940396 L 482.03620611465175 67.28380633017143 L 481.81753305991094 67.29530449028911 L 481.598616589732 67.3058135699506 L 481.3794785955795 67.31533251825665 L 481.16014099107025 67.3238603833204 L 480.9406257097819 67.33139631236241 L 480.72095470305965 67.3379395517961 L 480.5011499378212 67.34348944730294 L 480.2812333943598 67.34804544389803 L 480.0612270641465 67.3516070859855 L 479.8411529476311 67.3541740174041 L 479.6210330520418 67.35574598146285 L 479.4008893891848 67.35632282096664 L 479.1807439732428 67.35590447823199 L 478.960618818574 67.35449099509283 L 478.74053593751046 67.35208251289632 L 478.5205173381568 67.34867927248864 L 478.30058502218975 67.344281614191 L 478.0807609826575 67.33888997776559 L 477.8610672017809 67.33250490237154 L 477.6415256487549 67.32512702651107 L 477.4221582775519 67.31675708796561 L 477.20298702472616 67.30739592372207 L 476.9840338072203 67.29704446988903 L 476.76532052017376 67.28570376160329 L 476.5468690347329 67.27337493292619 L 476.32870119586414 67.26005921673035 L 476.11083882016965 67.24575794457628 L 475.89330369370543 67.23047254657928 L 475.67611756980284 67.21420455126642 L 475.4593021668933 67.19695558542367 L 475.24287916633637 67.17872737393323 L 475.02687021025184 67.15952173960108 L 474.8112968993552 67.13934060297463 L 474.5961807907981 67.11818598215072 L 474.38154339601186 67.09605999257383 L 474.16740617855726 67.07296484682446 L 473.9537905519776 67.04890285439795 L 473.74071787765746 67.02387642147347 L 473.5282094626868 66.99788805067348 L 473.3162865577299 66.9709403408134 L 473.1049703549008 66.94303598664175 L 472.89428198564354 66.91417777857069 L 472.68424251861956 66.884368602397 L 472.47487295760055 66.85361143901343 L 472.2661942393681 66.82190936411071 L 472.0582272316201 66.7892655478699 L 471.85099273088406 66.75568325464543 L 471.64451146043734 66.72116584263863 L 471.438804068235 66.68571676356193 L 471.2338911248447 66.6493395622937 L 471.0297931213902 66.61203787652377 L 470.8265304675015 66.57381543638961 L 470.6241234892749 66.5346760641034 L 470.42259242723935 66.49462367356972 L 470.22195743433315 66.4536622699943 L 470.02223857388844 66.4117959494833 L 469.82345581762485 66.36902889863394 L 469.6256290436522 66.32536539411564 L 469.4287780344833 66.28080980224246 L 469.23292247505475 66.23536657853647 L 469.0380819507595 66.18904026728217 L 468.8442759454874 66.14183550107207 L 468.6515238396777 66.09375700034346 L 468.45984490838015 66.04480957290635 L 468.2692583193283 65.99499811346269 L 468.0797831310221 65.9443276031169 L 467.89143829082263 65.89280310887783 L 467.7042426330568 65.84042978315193 L 467.5182148771346 65.78721286322815 L 467.3333736256764 65.73315767075412 L 467.1497373626534 65.67826961120406 L 466.96732445153884 65.62255417333817 L 466.7861531334719 65.56601692865381 L 466.6062415254333 65.50866353082833 L 466.42760761843397 65.45049971515373 L 466.2502692757157 65.3915312979631 L 466.0742442309651 65.331764176049 L 465.8995500865399 65.27120432607386 L 465.7262043117089 65.20985780397217 L 465.5542242409052 65.14773074434505 L 465.3836270719926 65.08482935984667 L 465.2144298645457 65.02115994056305 L 465.0466495381443 64.9567288533831 L 464.8803028706813 64.89154254136182 L 464.71540649668475 64.82560752307609 L 464.55197690565467 64.7589303919728 L 464.3900304404139 64.69151781570949 L 464.22958329547413 64.62337653548761 L 464.07065151541605 64.5545133653784 L 463.91325099328526 64.48493519164148 L 463.75739746900285 64.41464897203626 L 463.6031065277913 64.34366173512612 L 463.45039359861613 64.27198057957558 L 463.2992739526431 64.19961267344047 L 463.14976270171076 64.12656525345112 L 463.0018747968197 64.05284562428861 L 462.8556250266372 63.97846115785447 L 462.7110280160183 63.90341929253332 L 462.5680982245436 63.82772753244919 L 462.4268499450732 63.751393446714985 L 462.2872973023172 63.67442466867568 L 462.1494542514237 63.59682889514493 L 462.01333457658296 63.51861388563544 L 461.87895188964893 63.439787461582966 L 461.74631962877834 63.36035750556424 L 461.6154510570868 63.28033196050866 L 461.4863592613223 63.19971882890405 L 461.359057150557 63.118526171996386 L 461.23355745489584 63.03676210898371 L 461.10987272420374 62.95443481620418 L 460.98801532685076 62.87155252631846 L 460.867997448475 62.78812352748649 L 460.7498310907644 62.70415616253861 L 460.63352807025626 62.619658828141354 L 460.5191000171556 62.534639973957745 L 460.40655837417245 62.44910810180235 L 460.29591439537734 62.36307176479111 L 460.1871791450759 62.27653956648603 L 460.08036349670255 62.189520160034824 L 459.97547813173315 62.102022247305634 L 459.8725335386167 62.014054578016804 L 459.77154001172687 61.92562594886197 L 459.67250765033214 61.83674520263035 L 459.57544635758603 61.7474212273225 L 459.48036583953706 61.657662955261515 L 459.3872756041577 61.567479362199805 L 459.29618496039393 61.47687946642152 L 459.20710301723426 61.38587232784074 L 459.1200386827988 61.29446704709548 L 459.03500066344833 61.202672764637654 L 458.951997462914 61.110498659819 L 458.8710373814467 61.017953949973204 L 458.79212851498704 60.92504788949412 L 458.715278754356 60.83178976891037 L 458.64049578446554 60.7381889139563 L 458.56778708355034 60.644254684639414 L 458.4971599224199 60.54999647430436 L 458.4286213637315 60.455423708693615 L 458.3621782612839 60.36054584500494 L 458.2978372593319 60.26537237094564 L 458.2356047919222 60.16991280378381 L 458.17548708224956 60.07417668939661 L 458.1174901420349 59.9781736013157 L 458.0616197709239 59.88191313976989 L 458.0078815559072 59.785404930725115 L 457.9562808707614 59.68865862492186 L 457.9068228755121 59.59168389691008 L 457.8595125159175 59.494490444081755 L 457.81435452297427 59.3970879857012 L 457.77135341244394 59.299486261933055 L 457.73051348440185 59.20169503286838 L 457.69183882280674 59.103724077548584 L 457.6553332950925 59.00558319298756 L 457.62100055178144 58.907282193191975 L 457.5888440261194 58.80883090817989 L 457.558866933732 58.710239182997775 L 457.5310722723037 58.611516876735976 L 457.5054628212773 58.51267386154286 L 457.48204114157664 58.41372002163757 L 457.4608095753502 58.31466525232164 L 457.44177024573685 58.215519458989455 L 457.4249250566537 58.11629255613773 L 457.4102756926056 58.01699446637406 L 457.3978236185168 57.917635119424666 L 457.3875700795843 57.818224451141454 L 457.37951610115346 57.7187724025084 L 457.37366248861537 57.6192889186475 L 457.3700098273265 57.51978394782424 L 457.3685584825498 57.42026744045276 L 457.3693085994187 57.3207493481009 L 457.372260102922 57.221239622494934 L 457.3774126979119 57.12174821452452 L 457.3847658691331 57.02228507324753 L 457.3943188812747 56.92286014489522 L 457.40607077904343 56.82348337187756 L 457.4200203872592 56.72416469178904 L 457.436166310973 56.62491403641491 L 457.45450693560576 56.52574133073799 L 457.47504042711034 56.42665649194621 L 457.49776473215474 56.32766942844088 L 457.5226775783274 56.22879003884586 L 457.54977647436436 56.1300282110177 L 457.5790587103987 56.031393821056895 L 457.61052135823115 55.932896732320245 L 457.64416127162326 55.83454679443454 L 457.6799750866116 55.73635384231161 L 457.7179592218445 55.63832769516483 L 457.7581098789403 55.54047815552725 L 457.80042304286644 55.442815008271275 L 457.84489448234206 55.34534801963025 L 457.8915197502601 55.24808693622182 L 457.9402941841327 55.15104148407327 L 457.9912129065571 55.054221367648935 L 458.0442708257035 54.957636268879796 L 458.0994626358242 54.861295846195226 L 458.1567828177842 54.76520973355722 L 458.21622563961296 54.66938753949697 L 458.277785157078 54.57383884615402 L 458.3414552142787 54.47857320831808 L 458.4072294442625 54.38360015247356 L 458.47510126966125 54.288929175846896 L 458.54506390334893 54.19456974545685 L 458.6171103491204 54.10053129716784 L 458.6912334023912 54.00682323474632 L 458.7674256509178 53.913454928920444 L 458.84567947553876 53.820435716442994 L 458.9259870509369 53.7277748991577 L 459.0083403464215 53.635481743069064 L 459.09273112673174 53.5435654774158 L 459.1791509528599 53.45203529374787 L 459.2675911828954 53.36090034500735 L 459.3580429728888 53.2701697446132 L 459.45049727773664 53.17985256554982 L 459.54494485208545 53.08995783945988 L 459.6413762512564 53.00049455574105 L 459.7397818321901 52.911471660647166 L 459.8401517544103 52.82289805639355 L 459.94247598100844 52.73478260026681 L 460.0467442796472 52.64713410373914 L 460.1529462235836 52.55996133158715 L 460.26107119271177 52.4732730010154 L 460.3711083746248 52.387077780784715 L 460.48304676569626 52.30138429034529 L 460.5968751721803 52.21620109897476 L 460.7125822113312 52.13153672492127 L 460.83015631254136 52.047399634551674 L 460.9495857184987 51.963798241504904 L 461.07085848636217 51.88074090585058 L 461.193962488956 51.79823593325307 L 461.31888541598255 51.71629157414086 L 461.44561477525315 51.6349160228816 L 461.5741378939376 51.55411741696258 L 461.70444191983097 51.47390383617708 L 461.8365138226394 51.394283301816316 L 461.9703403952826 51.315263775867386 L 462.1059082552149 51.23685316021703 L 462.24320384576316 51.159059295861475 L 462.38221343748285 51.081889962122325 L 462.52292312953057 51.005352875868645 L 462.6653188510544 50.92945569074528 L 462.80938636260083 50.8542059964075 L 462.9551112575388 50.77961131776203 L 463.10247896350023 50.70567911421457 L 463.2514747438373 50.63241677892386 L 463.40208369909624 50.559831638062384 L 463.5542907685069 50.487930950083744 L 463.7080807314893 50.41672190499681 L 463.8634382091752 50.34621162364676 L 464.0203476659463 50.276407157002964 L 464.17879341098774 50.207315485453925 L 464.33875959985704 50.13894351810921 L 464.5002302360686 50.071298092108584 L 464.66318917269336 50.00438597193828 L 464.82762011397347 49.938213848754536 L 464.9935066169518 49.87278833971455 L 465.1608320931163 49.80811598731469 L 465.3295798100588 49.74420325873631 L 465.49973289314823 49.68105654519901 L 465.6712743272181 49.61868216132152 L 465.84418695826787 49.557086344490244 L 466.0184534951786 49.496275254235535 L 466.19405651144183 49.436254971615746 L 466.37097844690226 49.37703149860913 L 466.5492016095137 49.31861075751362 L 466.7287081771085 49.260998590354646 L 466.9094801991795 49.20420075830092 L 467.091499598675 49.148222941088314 L 467.27474817380687 49.0930707364519 L 467.4592075998703 49.03874965956618 L 467.6448594310763 48.985265142493574 L 467.83168510239653 48.93262253364123 L 468.0196659314196 48.880827097226145 L 468.2087831202191 48.82988401274882 L 468.3990177572339 48.779798374475234 L 468.5903508191587 48.73057519092748 L 468.78276317284684 48.6822193843829 L 468.9762355772233 48.634735790381846 L 469.1707486852088 48.58812915724415 L 469.3662830456547 48.54240414559428 L 469.5628191052879 48.497565327895316 L 469.76033721066614 48.45361718799164 L 469.95881761014357 48.41056412066064 L 470.15824045584554 48.36841043117315 L 470.3585858056538 48.32716033486301 L 470.5598336252002 48.28681795670546 L 470.7619637898706 48.247387330904715 L 470.96495608681687 48.20887240049048 L 471.16879021697855 48.17127701692371 L 471.3734457971124 48.13460493971143 L 471.57890236183107 48.0988598360308 L 471.78513936564923 48.06404528036239 L 471.99213618503836 48.030164754132784 L 472.19987212048903 47.997221645366345 L 472.4083263985808 47.96521924834651 L 472.6174781740596 47.9341607632863 L 472.82730653192215 47.90404929600835 L 473.0377904895075 47.87488785763429 L 473.2489089985953 47.846679364283666 L 473.4606409475107 47.819426636782296 L 473.672965163235 47.793132400380216 L 473.8858604135238 47.76779928447917 L 474.09930540902934 47.74342982236962 L 474.31327880543006 47.72002645097748 L 474.5277592055645 47.69759151062038 L 474.74272516157146 47.67612724477367 L 474.9581551770344 47.65563579984603 L 475.17402770913145 47.636119224964894 L 475.39032117078915 47.61757947177148 L 475.6070139328416 47.60001839422566 L 475.82408432619326 47.58343774842055 L 476.0415106439856 47.567839192406915 L 476.259271143768 47.55322428602736 L 476.47734404967207 47.53959449076034 L 476.69570755458886 47.52695116957402 L 476.9143398223498 47.515295586789996 L 477.13321898991046 47.50462890795682 L 477.35232316953636 47.4949521997335 L 477.57163045099213 47.48626642978277 L 477.79111890373247 47.47857246667442 L 478.0107665790949 47.47187107979833 L 478.23055151249497 47.4661629392876 L 478.45045172562254 47.46144861595154 L 478.6704452286395 47.45772858121853 L 478.8905100223788 47.45500320708897 L 479.1106241005446 47.45327276609799 L 479.33076545191244 47.45253743128824 L 479.55091206253064 47.4527972761926 L 479.7710419179216 47.45405227482679 L 479.99113300528313 47.45630230169199 L 480.21116331569004 47.4595471317874 L 480.43111084629464 47.4637864406327 L 480.65095360252707 47.46901980430055 L 480.8706696002949 47.475246699458935 L 481.09023686818153 47.48246650342354 L 481.3096334496431 47.49067849421997 L 481.52883740520434 47.499881850656 L 481.74782681465234 47.51007565240366 L 481.9665797792286 47.52125888009125 L 482.185074423819 47.533430415405334 L 482.40328889914116 47.54658904120252 L 482.62120138392936 47.56073344163121 L 482.8387900871167 47.575862202263124 L 483.05603325001425 47.59197381023482 L 483.27290914848675 47.609066654398916 L 483.4893960951251 47.62713902548525 L 483.7054724414149 47.64618911627178 L 483.9211165799017 47.66621502176528 L 484.1363069463514 47.687214739391905 L 484.35102202190654 47.709186169197395 L 484.5652403352386 47.732127114057064 L 484.77894046469476 47.756035279895556 L 484.9921010404401 47.78090827591621 L 485.20470074659477 47.806743614840144 L 485.41671832336516 47.833538713155 L 485.6281325691704 47.86129089137327 L 485.8389223427621 47.88999737430027 L 486.04906656533853 47.91965529131163 L 486.25854422265246 47.950261676640345 L 486.46733436711287 47.9818134696734 L 486.67541611987923 48.014307515257784 L 486.8827686729496 48.047740564016024 L 487.08937129124166 48.08210927267109 L 487.2952033146655 48.11741020438076 L 487.5002441601905 48.1536398290813 L 487.7044733239029 48.1907945238404 L 487.90787038305655 48.228870573219574 L 488.11041499811495 48.2678641696456 L 488.3120869147855 48.30777141379133 L 488.51286596604444 48.34858831496561 L 488.71273207415413 48.39031079151233 L 488.9116652526702 48.43293467121861 L 489.1096456084406 48.476455691732 L 489.30665334359475 48.520869500986706 L 489.50266875752334 48.56617165763883 L 489.6976722488482 48.61235763151045 L 489.8916443173828 48.65942280404266 L 490.084565566082 48.70736246875744 L 490.2764167029815 48.75617183172826 L 490.46717854312766 48.8058460120595 L 490.65683201049535 48.85638004237452 L 490.84535813989595 48.907768869312406 L 491.0327380788735 48.96000735403328 L 491.21895308959034 49.01309027273221 L 491.40398455070056 49.06701231716155 L 491.5878139592122 49.1217680951618 L 491.77042293233774 49.17735213120079 L 491.95179320933187 49.23375886692124 L 492.1319066533181 49.290982661696574 L 492.31074525310214 49.34901779319501 L 492.48829112497305 49.407858457951754 L 492.6645265144915 49.467498771949366 L 492.8394337982656 49.52793277120614 L 493.0129954857125 49.58915441237252 L 493.1851942208083 49.65115757333541 L 493.3560127838228 49.71393605383038 L 493.5254340930422 49.777483576061684 L 493.6934412064766 49.841793785330076 L 493.8600173235548 49.9068602506682 L 494.02514578680393 49.97267646548376 L 494.18881008351514 50.03923584821011 L 494.3509938473952 50.10653174296445 L 494.5116808602029 50.17455742021338 L 494.6708550533709 50.24330607744587 L 494.8285005096124 50.31277083985348 L 494.9846014645132 50.38294476101786 L 495.139142308108 50.45382082360537 L 495.2921075864411 50.525391940068815 L 495.4434820031122 50.59765095335619 L 495.5932504208057 50.67059063762638 L 495.7413978628048 50.744203698971745 L 495.8879095144885 50.81848277614749 L 496.032770724814 50.89342044130781 L 496.1759670077808 50.969009200748616 L 496.31748404388 51.045241495656974 L 496.4573076815259 51.12210970286691 L 496.5954239384713 51.19960613562175 L 496.73181900320554 51.277723044342814 L 496.86647923633586 51.35645261740432 L 496.9993911719511 51.435786981914575 L 497.1305415189685 51.51571820450324 L 497.25991716246267 51.596238292114656 L 497.3875051649771 51.67733919280717 L 497.51329276781775 51.759012796558295 L 497.63726739232925 51.84125093607571 L 497.75941664115237 51.92404538761401 L 497.87972829946415 52.007387871797015 L 497.99819033619895 52.09127005444578 L 498.11479090525177 52.17568354741193 L 498.2295183466629 52.26061990941651 L 498.3423611877839 52.34607064689411 L 498.45330814442457 52.432027214842186 L 498.56234812198176 52.51848101767557 L 498.6694702165485 52.605423410086026 L 498.77466371600474 52.69284569790677 L 498.8779181010881 52.78073913898186 L 498.9792230464461 52.86909494404044 L 499.07856842166876 52.957904277575636 L 499.17594429230115 53.0471582587281 L 499.27134092083753 53.136847962174095 L 499.3647487676944 53.22696441901801 L 499.456158492165 53.31749861768927 L 499.54556095335306 53.408441504843445 L 499.6329472110869 53.49978398626761 L 499.71830852681364 53.59151692778973 L 499.8016363644728 53.68363115619211 L 499.88292239135006 53.77611746012866 L 499.96215847891045 53.868966591046075 L 500.0393367036113 53.96216926410862 L 500.1144493476944 54.05571615912666 L 500.187488899958 54.149597921488656 L 500.25844805650763 54.243805163096596 L 500.3273197214869 54.33832846330484 L 500.39409700778657 54.43315836986213 L 500.4587732377338 54.52828539985682 L 500.52134194375935 54.623700040665206 L 500.58179686904487 54.719392750902706 L 500.6401319681481 54.815353961378044 L 500.6963414076079 54.91157407605014 L 500.75041956652706 55.0080434729877 L 500.80236103713474 55.10475250533143 L 500.8521606253272 55.20169150225869 L 500.8998133511871 55.29885076995057 L 500.9453144494816 55.39622059256126 L 500.98865937013875 55.49379123318963 L 501.0298437787026 55.591552934852956 L 501.0688635567667 55.68949592146251 L 501.1057148023856 55.78761039880126 L 501.1403938304656 55.88588655550324 L 501.1728971731327 55.98431456403467 L 501.2032215800798 56.08288458167672 L 501.2313640188914 56.18158675150977 L 501.25732167534704 56.28041120339909 L 501.2810919537028 56.37934805498184 L 501.30267247695065 56.47838741265531 L 501.32206108705617 56.57751937256626 L 501.3392558451746 56.67673402160132 L 501.3542550318444 56.77602143837825 L 501.36705714715936 56.87537169423813 L 501.3776609109187 56.974774854238156 L 501.3860652627548 57.074220978145156 L 501.3922693622396 57.173700121429626 L 501.3962725889682 57.27320233626013 L 501.3980745426213 57.3727176724981 M 501.39818622574995 89.0695808244 L 501.39708549353116 89.16909825047689 L 501.39378340694714 89.26860572489409 L 501.38828029620373 89.3680932969871 L 501.38057671160743 89.46755101808161 L 501.3706734235103 89.56696894248839 L 501.35857142223296 89.66633712849786 L 501.34427191796533 89.7656456393742 L 501.327776340646 89.86488454434911 L 501.3090863398189 89.96404391961477 L 501.2882037844686 90.06311384931628 L 501.26513076283317 90.16208442654325 L 501.23986958219564 90.26094575432042 L 501.2124227686529 90.3596879465974 L 501.18279306686355 90.45830112923726 L 501.150983439773 90.55677544100388 L 501.11699706831746 90.65510103454817 L 501.0808373511058 90.7532680773927 L 501.04250790407957 90.85126675291501 L 501.0020125601515 90.9490872613292 L 500.95935536882234 91.04671982066594 L 500.9145405957756 91.14415466775068 L 500.8675727224512 91.24138205917988 L 500.8184564455974 91.33839227229542 L 500.76719667680095 91.43517560615686 L 500.71379854199597 91.53172238251143 L 500.65826738095154 91.62802294676199 L 500.60060874673735 91.72406766893232 L 500.5408284051689 91.81984694463027 L 500.4789323342304 91.91535119600807 L 500.41492672347755 92.01057087272018 L 500.3488179734179 92.10549645287828 L 500.2806126948714 92.20011844400345 L 500.2103177083092 92.29442738397543 L 500.1379400431713 92.38841384197882 L 500.0634869371638 92.48206841944614 L 499.9869658355354 92.57538175099768 L 499.9083843903324 92.66834450537806 L 499.8277504596339 92.76094738638929 L 499.7450721067657 92.85318113382046 L 499.66035759949426 92.94503652437366 L 499.5736154091997 93.0365043725864 L 499.48485421002874 93.1275755317501 L 499.3940828780274 93.2182408948247 L 499.3013104902531 93.30849139534948 L 499.2065463238674 93.39831800834956 L 499.109799855208 93.48771175123852 L 499.0110807588411 93.57666368471656 L 498.910398906594 93.66516491366447 L 498.8077643665682 93.75320658803308 L 498.703187402132 93.84077990372833 L 498.5966784708948 93.92787610349166 L 498.4882482236609 94.01448647777562 L 498.3779075033647 94.10060236561499 L 498.2656673439863 94.18621515549275 L 498.1515389694481 94.27131628620124 L 498.0355337924924 94.35589724769832 L 497.91766341354025 94.43994958195832 L 497.7979396195313 94.52346488381785 L 497.6763743827452 94.60643480181633 L 497.55297985960436 94.68885103903109 L 497.42776838945827 94.77070535390712 L 497.30075249334953 94.8519895610811 L 497.17194487276197 94.93269553220007 L 497.0413584083502 95.01281519673418 L 496.909006158652 95.09234054278373 L 496.77490135878196 95.1712636178804 L 496.63905741910827 95.24957652978243 L 496.5014879239118 95.32727144726391 L 496.36220663002734 95.40434060089783 L 496.2212274654683 95.48077628383304 L 496.07856452803355 95.55657085256495 L 495.934232083898 95.63171672769985 L 495.78824456618577 95.70620639471286 L 495.64061657352704 95.78003240469934 L 495.49136286859795 95.8531873751198 L 495.3404983766447 95.92566399053818 L 495.1880381839907 95.99745500335334 L 495.03399753652826 96.06855323452382 L 494.87839183819364 96.13895157428573 L 494.72123664942706 96.20864298286378 L 494.5625476856165 96.27762049117517 L 494.402340815526 96.34587720152658 L 494.24063205970907 96.41340628830382 L 494.07743758890655 96.48020099865451 L 493.91277372242956 96.54625465316329 L 493.7466569265275 96.6115606465197 L 493.5791038127416 96.67611244817888 L 493.41013113624354 96.73990360301444 L 493.2397557941601 96.80292773196405 L 493.0679948238836 96.86517853266734 L 492.89486540136795 96.92664978009611 L 492.72038483941105 96.98733532717685 L 492.5445705859238 97.0472291054054 L 492.3674402221849 97.10632512545389 L 492.1890114610832 97.16461747776954 L 492.0093021453461 97.22210033316568 L 491.82833024575547 97.27876794340469 L 491.6461138593504 97.33461464177277 L 491.4626712076177 97.38963484364662 L 491.27802063466964 97.4438230470519 L 491.09218060540974 97.49717383321342 L 490.90516970368594 97.54968186709704 L 490.71700663043265 97.60134189794312 L 490.52771020180035 97.6521487597916 L 490.33729934727415 97.70209737199868 L 490.1457931077809 97.75118273974472 L 489.95321063378486 97.79939995453388 L 489.75957118337305 97.84674419468486 L 489.5648941203291 97.89321072581308 L 489.369198912197 97.93879490130416 L 489.1725051283346 97.98349216277855 L 488.97483243795637 98.02729804054732 L 488.77620060816656 98.07020815405922 L 488.57662950198267 98.11221821233865 L 488.376139076349 98.15332401441479 L 488.17474938014095 98.1935214497417 L 487.97248055216045 98.23280649860932 L 487.7693528191217 98.27117523254553 L 487.5653864936287 98.30862381470888 L 487.360601972144 98.34514850027239 L 487.15501973294926 98.38074563679791 L 486.94866033409687 98.41541166460149 L 486.7415444113549 98.4491431171092 L 486.5336926761429 98.48193662120391 L 486.3251259134613 98.51378889756256 L 486.1158649798125 98.54469676098404 L 485.9059308011155 98.57465712070776 L 485.69534437061327 98.60366698072272 L 485.48412674677326 98.63172344006709 L 485.2722990511819 98.65882369311832 L 485.05988246643227 98.6849650298737 L 484.8468982340058 98.7101448362213 L 484.6333676521482 98.73436059420152 L 484.4193120737398 98.75760988225869 L 484.20475290415993 98.77989037548343 L 483.9897115991469 98.80119984584495 L 483.77420966265197 98.82153616241398 L 483.5582686446891 98.8408972915758 L 483.3419101391803 98.85928129723365 L 483.1251557817957 98.87668634100228 L 482.90802724779047 98.89311068239181 L 482.690546249837 98.90855267898178 L 482.47273453585393 98.92301078658541 L 482.2546138868311 98.93648355940398 L 482.03620611465175 98.94896965017145 L 481.81753305991094 98.96046781028913 L 481.598616589732 98.9709768899506 L 481.3794785955795 98.98049583825666 L 481.16014099107025 98.9890237033204 L 480.9406257097819 98.99655963236242 L 480.72095470305965 99.0031028717961 L 480.5011499378212 99.00865276730295 L 480.2812333943598 99.01320876389804 L 480.0612270641465 99.01677040598551 L 479.8411529476311 99.01933733740412 L 479.6210330520418 99.02090930146286 L 479.4008893891848 99.02148614096664 L 479.1807439732428 99.021067798232 L 478.960618818574 99.01965431509285 L 478.74053593751046 99.01724583289632 L 478.5205173381568 99.01384259248866 L 478.30058502218975 99.00944493419102 L 478.0807609826575 99.00405329776561 L 477.8610672017809 98.99766822237156 L 477.6415256487549 98.99029034651109 L 477.4221582775519 98.98192040796563 L 477.20298702472616 98.97255924372207 L 476.9840338072203 98.96220778988905 L 476.76532052017376 98.95086708160329 L 476.5468690347329 98.93853825292621 L 476.32870119586414 98.92522253673036 L 476.11083882016965 98.91092126457629 L 475.89330369370543 98.8956358665793 L 475.67611756980284 98.87936787126644 L 475.4593021668933 98.86211890542369 L 475.24287916633637 98.84389069393325 L 475.02687021025184 98.8246850596011 L 474.8112968993552 98.80450392297463 L 474.5961807907981 98.78334930215074 L 474.38154339601186 98.76122331257385 L 474.16740617855726 98.73812816682448 L 473.9537905519776 98.71406617439796 L 473.74071787765746 98.6890397414735 L 473.5282094626868 98.6630513706735 L 473.3162865577299 98.6361036608134 L 473.1049703549008 98.60819930664177 L 472.89428198564354 98.57934109857071 L 472.68424251861956 98.54953192239701 L 472.47487295760055 98.51877475901345 L 472.2661942393681 98.48707268411073 L 472.0582272316201 98.45442886786992 L 471.85099273088406 98.42084657464544 L 471.64451146043734 98.38632916263863 L 471.438804068235 98.35088008356193 L 471.2338911248447 98.31450288229371 L 471.0297931213902 98.27720119652378 L 470.8265304675015 98.23897875638961 L 470.6241234892749 98.1998393841034 L 470.42259242723935 98.15978699356974 L 470.22195743433315 98.1188255899943 L 470.02223857388844 98.07695926948332 L 469.82345581762485 98.03419221863396 L 469.6256290436522 97.99052871411565 L 469.4287780344833 97.94597312224248 L 469.23292247505475 97.90052989853648 L 469.0380819507595 97.85420358728217 L 468.8442759454874 97.80699882107207 L 468.6515238396777 97.75892032034346 L 468.45984490838015 97.70997289290635 L 468.2692583193283 97.66016143346269 L 468.0797831310221 97.60949092311692 L 467.89143829082263 97.55796642887785 L 467.7042426330568 97.50559310315195 L 467.5182148771346 97.45237618322817 L 467.3333736256764 97.39832099075414 L 467.1497373626534 97.34343293120408 L 466.96732445153884 97.28771749333818 L 466.7861531334719 97.23118024865381 L 466.6062415254333 97.17382685082835 L 466.42760761843397 97.11566303515374 L 466.2502692757157 97.0566946179631 L 466.0742442309651 96.99692749604901 L 465.8995500865399 96.93636764607388 L 465.7262043117089 96.87502112397219 L 465.5542242409052 96.81289406434506 L 465.3836270719926 96.74999267984667 L 465.2144298645457 96.68632326056307 L 465.0466495381443 96.62189217338312 L 464.8803028706813 96.55670586136183 L 464.71540649668475 96.4907708430761 L 464.55197690565467 96.4240937119728 L 464.3900304404139 96.3566811357095 L 464.22958329547413 96.28853985548761 L 464.07065151541605 96.21967668537842 L 463.91325099328526 96.1500985116415 L 463.75739746900285 96.07981229203628 L 463.6031065277913 96.00882505512612 L 463.45039359861613 95.93714389957559 L 463.2992739526431 95.86477599344049 L 463.14976270171076 95.79172857345112 L 463.0018747968197 95.71800894428863 L 462.8556250266372 95.64362447785447 L 462.7110280160183 95.56858261253333 L 462.5680982245436 95.4928908524492 L 462.4268499450732 95.41655676671499 L 462.2872973023172 95.33958798867569 L 462.1494542514237 95.26199221514494 L 462.01333457658296 95.18377720563545 L 461.87895188964893 95.10495078158299 L 461.74631962877834 95.02552082556426 L 461.6154510570868 94.94549528050867 L 461.4863592613223 94.86488214890406 L 461.359057150557 94.7836894919964 L 461.23355745489584 94.70192542898371 L 461.10987272420374 94.61959813620419 L 460.98801532685076 94.53671584631847 L 460.867997448475 94.4532868474865 L 460.7498310907644 94.36931948253863 L 460.63352807025626 94.28482214814137 L 460.5191000171556 94.19980329395776 L 460.40655837417245 94.11427142180236 L 460.29591439537734 94.02823508479112 L 460.1871791450759 93.94170288648604 L 460.08036349670255 93.85468348003484 L 459.97547813173315 93.76718556730565 L 459.8725335386167 93.67921789801682 L 459.77154001172687 93.59078926886198 L 459.67250765033214 93.50190852263036 L 459.57544635758603 93.41258454732251 L 459.48036583953706 93.32282627526152 L 459.3872756041577 93.23264268219981 L 459.29618496039393 93.14204278642153 L 459.20710301723426 93.05103564784075 L 459.1200386827988 92.9596303670955 L 459.03500066344833 92.86783608463767 L 458.951997462914 92.77566197981902 L 458.8710373814467 92.68311726997321 L 458.79212851498704 92.59021120949413 L 458.715278754356 92.49695308891037 L 458.64049578446554 92.40335223395631 L 458.56778708355034 92.30941800463943 L 458.4971599224199 92.21515979430437 L 458.4286213637315 92.12058702869363 L 458.3621782612839 92.02570916500495 L 458.2978372593319 91.93053569094566 L 458.2356047919222 91.83507612378382 L 458.17548708224956 91.73934000939661 L 458.1174901420349 91.64333692131571 L 458.0616197709239 91.5470764597699 L 458.0078815559072 91.45056825072513 L 457.9562808707614 91.35382194492188 L 457.9068228755121 91.25684721691009 L 457.8595125159175 91.15965376408177 L 457.81435452297427 91.06225130570121 L 457.77135341244394 90.96464958193306 L 457.73051348440185 90.86685835286839 L 457.69183882280674 90.7688873975486 L 457.6553332950925 90.67074651298756 L 457.62100055178144 90.57244551319198 L 457.5888440261194 90.4739942281799 L 457.558866933732 90.37540250299779 L 457.5310722723037 90.276680196736 L 457.5054628212773 90.17783718154287 L 457.48204114157664 90.07888334163758 L 457.4608095753502 89.97982857232165 L 457.44177024573685 89.88068277898947 L 457.4249250566537 89.78145587613774 L 457.4102756926056 89.68215778637406 L 457.3978236185168 89.58279843942468 L 457.3875700795843 89.48338777114147 L 457.37951610115346 89.38393572250841 L 457.37366248861537 89.28445223864752 L 457.3700098273265 89.18494726782424 L 457.3685584825498 89.08543076045278" stroke-miterlimit="10" stroke-width="2.5633703640000003" stroke-dasharray=""/></g><g><g/><text fill="black" stroke="none" font-family="sans-serif" font-size="11pt" font-style="normal" font-weight="normal" text-decoration="normal" x="429.29233208759763" y="115.200879888" text-anchor="start" dominant-baseline="alphabetic" xml:space="preserve">InMemoryStore</text></g></g><g><path fill="white" stroke="black" paint-order="fill stroke markers" d=" M 98.0112198 127.263799248 L 113.08986900000001 127.263799248 L 113.08986900000001 401.6952146880001 L 98.0112198 401.6952146880001 L 98.0112198 127.263799248" stroke-miterlimit="10" stroke-width="1.2565541" stroke-dasharray=""/><path fill="white" stroke="black" paint-order="fill stroke markers" d=" M 471.84403379375 127.263799248 L 486.92268299374996 127.263799248 L 486.92268299374996 401.6952146880001 L 471.84403379375 401.6952146880001 L 471.84403379375 127.263799248" stroke-miterlimit="10" stroke-width="1.2565541" stroke-dasharray=""/><g><g><rect fill="white" stroke="none" x="247.4315181526172" y="190.59412588799998" width="90.07086648851562" height="19.602243960000003"/></g><text fill="black" stroke="none" font-family="sans-serif" font-size="11pt" font-style="normal" font-weight="normal" text-decoration="normal" x="249.6933155326172" y="204.16491016799998" text-anchor="start" dominant-baseline="alphabetic" xml:space="preserve">get all leases</text></g><g><path fill="none" stroke="black" paint-order="fill stroke markers" d=" M 113.08986900000001 210.196369848 L 459.42927928575 210.196369848" stroke-miterlimit="10" stroke-width="1.2565541" stroke-dasharray=""/><g transform="translate(471.84403379375,210.196369848) translate(-471.84403379375,-210.196369848)"><path fill="black" stroke="none" paint-order="stroke fill markers" d=" M 459.27849279375 203.913599348 L 471.84403379375 210.196369848 L 459.27849279375 216.479140348 Z"/></g></g><g><g><rect fill="white" stroke="none" x="130.93293722" y="314.239049328" width="323.06802835375" height="19.602243960000003"/></g><text fill="black" stroke="none" font-family="sans-serif" font-size="11pt" font-style="normal" font-weight="normal" text-decoration="normal" x="133.1947346" y="327.8098336080001" text-anchor="start" dominant-baseline="alphabetic" xml:space="preserve">enqueue the submission id in the InMemoryStore</text></g><g><path fill="none" stroke="black" paint-order="fill stroke markers" d=" M 113.08986900000001 333.84129328800003 L 459.42927928575 333.84129328800003" stroke-miterlimit="10" stroke-width="1.2565541" stroke-dasharray=""/><g transform="translate(471.84403379375,333.84129328800003) translate(-471.84403379375,-333.84129328800003)"><path fill="black" stroke="none" paint-order="stroke fill markers" d=" M 459.27849279375 327.558522788 L 471.84403379375 333.84129328800003 L 459.27849279375 340.12406378800006 Z"/></g></g><g><g/><path fill="none" stroke="black" paint-order="fill stroke markers" d=" M 22.6179738 149.88177304799999 L 554.77660439375 149.88177304799999 L 554.77660439375 401.6952146880001 L 22.6179738 401.6952146880001 L 22.6179738 149.88177304799999 Z" stroke-miterlimit="10" stroke-width="2.154092742857143" stroke-dasharray=""/><path fill="white" stroke="black" paint-order="fill stroke markers" d=" M 22.6179738 149.88177304799999 L 22.6179738 167.976152088 L 77.50595457304688 167.976152088 L 86.55314409304688 158.92896256799997 L 86.55314409304688 149.88177304799999 L 22.6179738 149.88177304799999" stroke-miterlimit="10" stroke-width="2.154092742857143" stroke-dasharray=""/><text fill="black" stroke="none" font-family="sans-serif" font-size="8.8pt" font-style="normal" font-weight="bold" text-decoration="normal" x="37.696623" y="161.94469240799998" text-anchor="start" dominant-baseline="alphabetic" xml:space="preserve">loop</text><g><rect fill="white" stroke="none" x="99.36999591304688" y="151.08806498399997" width="104.17302408128906" height="15.681795168000004"/></g><text fill="black" stroke="none" font-family="sans-serif" font-size="8.8pt" font-style="normal" font-weight="bold" text-decoration="normal" x="101.63179329304688" y="161.94469240799998" text-anchor="start" dominant-baseline="alphabetic" xml:space="preserve">[every n seconds]</text></g><g><g/><path fill="none" stroke="black" paint-order="fill stroke markers" d=" M 37.696623 232.81434364799998 L 539.69795519375 232.81434364799998 L 539.69795519375 379.07724088800006 L 37.696623 379.07724088800006 L 37.696623 232.81434364799998 Z" stroke-miterlimit="10" stroke-width="2.154092742857143" stroke-dasharray=""/><path fill="white" stroke="black" paint-order="fill stroke markers" d=" M 37.696623 232.81434364799998 L 37.696623 250.90872268799998 L 92.58460377304688 250.90872268799998 L 101.63179329304688 241.86153316799997 L 101.63179329304688 232.81434364799998 L 37.696623 232.81434364799998" stroke-miterlimit="10" stroke-width="2.154092742857143" stroke-dasharray=""/><text fill="black" stroke="none" font-family="sans-serif" font-size="8.8pt" font-style="normal" font-weight="bold" text-decoration="normal" x="52.7752722" y="244.87726300799997" text-anchor="start" dominant-baseline="alphabetic" xml:space="preserve">loop</text><g><rect fill="white" stroke="none" x="114.44864511304688" y="234.02063558399996" width="90.49733438402343" height="15.681795168000004"/></g><text fill="black" stroke="none" font-family="sans-serif" font-size="8.8pt" font-style="normal" font-weight="bold" text-decoration="normal" x="116.71044249304688" y="244.87726300799997" text-anchor="start" dominant-baseline="alphabetic" xml:space="preserve">[for each lease]</text></g><g><g/><path fill="none" stroke="black" paint-order="fill stroke markers" d=" M 52.7752722 273.526696488 L 524.61930599375 273.526696488 L 524.61930599375 356.45926708800005 L 52.7752722 356.45926708800005 L 52.7752722 273.526696488 Z" stroke-miterlimit="10" stroke-width="2.154092742857143" stroke-dasharray=""/><path fill="white" stroke="black" paint-order="fill stroke markers" d=" M 52.7752722 273.526696488 L 52.7752722 291.621075528 L 101.151564740625 291.621075528 L 110.19875426062501 282.57388600800004 L 110.19875426062501 273.526696488 L 52.7752722 273.526696488" stroke-miterlimit="10" stroke-width="2.154092742857143" stroke-dasharray=""/><text fill="black" stroke="none" font-family="sans-serif" font-size="8.8pt" font-style="normal" font-weight="bold" text-decoration="normal" x="67.8539214" y="285.589615848" text-anchor="start" dominant-baseline="alphabetic" xml:space="preserve">opt</text><g><rect fill="white" stroke="none" x="123.015606080625" y="274.732988424" width="150.0466660490625" height="15.681795168000004"/></g><text fill="black" stroke="none" font-family="sans-serif" font-size="8.8pt" font-style="normal" font-weight="bold" text-decoration="normal" x="125.27740346062501" y="285.589615848" text-anchor="start" dominant-baseline="alphabetic" xml:space="preserve">[lease - now() &gt; threshold]</text></g></g><g/><g/></g></svg>